<svg id="Layer_1" data-name="Layer 1" xmlns="http://www.w3.org/2000/svg" viewBox="0 0 290.72 112.41">
  <defs>
    <style>
      .cls-1 {
        fill: #1d1d1d;
      }
    </style>
  </defs>
  <title>logo-black</title>
  <g id="crisp-studio-logo-b">
    <g>
      <g>
        <path class="cls-1" d="M153,22.74a13.46,13.46,0,0,0-17.15,5.5,13.59,13.59,0,0,0,0,13.52,13.41,13.41,0,0,0,11.7,6.7,13.68,13.68,0,0,0,5.4-1.12,15.62,15.62,0,0,0,4.7-3.08l2.9,3.15a19.43,19.43,0,0,1-6.15,4.08,18.42,18.42,0,0,1-16.25-.9,17.68,17.68,0,0,1-8.95-15.53,17.21,17.21,0,0,1,2.43-9,17.47,17.47,0,0,1,6.62-6.43,19.15,19.15,0,0,1,16.33-1,17.57,17.57,0,0,1,5.92,3.87L157.63,26A14.31,14.31,0,0,0,153,22.74Z"/>
        <path class="cls-1" d="M175.13,27.54a11.1,11.1,0,0,1,5.7-1.53v4.5a8.51,8.51,0,0,0-9.4,8.15v14h-4.65V26.16h4.65v5.7A9.56,9.56,0,0,1,175.13,27.54Z"/>
        <path class="cls-1" d="M190.26,16.46a3,3,0,0,1,.82,2.15,2.94,2.94,0,0,1-.82,2.15,3,3,0,0,1-4.15,0,3,3,0,0,1-.83-2.15,3,3,0,0,1,.83-2.15,3,3,0,0,1,4.15,0Zm-4.38,9.7h4.65V52.61h-4.65Z"/>
        <path class="cls-1" d="M210.41,30.41a13,13,0,0,0-3.78-.6,6.37,6.37,0,0,0-3.37.78A2.6,2.6,0,0,0,202,33a2.63,2.63,0,0,0,1.43,2.43,20.17,20.17,0,0,0,4.32,1.67,35.61,35.61,0,0,1,4.5,1.6,8,8,0,0,1,3,2.35,6.42,6.42,0,0,1,1.23,4.1,6.48,6.48,0,0,1-2.83,5.7,12.05,12.05,0,0,1-7,1.95,17.4,17.4,0,0,1-5.73-.95,13,13,0,0,1-4.67-2.7l1.75-3.4a12.37,12.37,0,0,0,4.08,2.4,13.49,13.49,0,0,0,4.72.9,7,7,0,0,0,3.7-.85,2.83,2.83,0,0,0,1.4-2.6,3,3,0,0,0-1.48-2.7,20,20,0,0,0-4.47-1.8,29.13,29.13,0,0,1-4.32-1.52,7.78,7.78,0,0,1-2.86-2.28,6.16,6.16,0,0,1-1.17-3.9,6.3,6.3,0,0,1,2.7-5.55A11.7,11.7,0,0,1,207,26a16.78,16.78,0,0,1,4.72.68,14.24,14.24,0,0,1,4,1.82L214,32A16.24,16.24,0,0,0,210.41,30.41Z"/>
        <path class="cls-1" d="M243.88,27.71a11.77,11.77,0,0,1,4.5,4.75,14.84,14.84,0,0,1,1.6,7,14.93,14.93,0,0,1-1.57,6.93,11.49,11.49,0,0,1-4.46,4.7,12.74,12.74,0,0,1-6.57,1.67,12,12,0,0,1-5.9-1.4,10,10,0,0,1-4-4v15h-4.65V26.16h4.65v5.25a10.18,10.18,0,0,1,4-4,11.89,11.89,0,0,1,5.83-1.4A12.82,12.82,0,0,1,243.88,27.71ZM241,47.51a8.15,8.15,0,0,0,3.15-3.35,10.3,10.3,0,0,0,1.13-4.85,10,10,0,0,0-1.15-4.8,8.55,8.55,0,0,0-3.15-3.35,8.66,8.66,0,0,0-4.55-1.2,8.78,8.78,0,0,0-4.57,1.2,8.41,8.41,0,0,0-3.18,3.35,10.76,10.76,0,0,0,0,9.68,8.4,8.4,0,0,0,3.18,3.32,9.3,9.3,0,0,0,9.14,0Z"/>
      </g>
      <g>
        <path class="cls-1" d="M151.19,65.72a17.32,17.32,0,0,0-4.82-.77,9,9,0,0,0-4.88,1.17,3.67,3.67,0,0,0-1.82,3.23,4.25,4.25,0,0,0,1.1,3,7.64,7.64,0,0,0,2.7,1.85c1.07.46,2.55,1,4.45,1.58a49,49,0,0,1,5.75,2.1,10,10,0,0,1,3.75,3A8.26,8.26,0,0,1,159,86.1a8.69,8.69,0,0,1-1.63,5.25,10.33,10.33,0,0,1-4.55,3.47,17.21,17.21,0,0,1-6.72,1.23,19.53,19.53,0,0,1-7.5-1.5,20.36,20.36,0,0,1-6.3-4l2.15-4.15A18.3,18.3,0,0,0,140,90.18a15.6,15.6,0,0,0,6.08,1.32,9.68,9.68,0,0,0,5.52-1.38,4.27,4.27,0,0,0,2-3.72,4.36,4.36,0,0,0-1.1-3.05,7.76,7.76,0,0,0-2.78-1.9,46.4,46.4,0,0,0-4.52-1.55,45.51,45.51,0,0,1-5.7-2.05,9.89,9.89,0,0,1-3.73-2.95,8.17,8.17,0,0,1-1.52-5.15,8.25,8.25,0,0,1,1.55-5,9.8,9.8,0,0,1,4.35-3.3,17,17,0,0,1,6.5-1.15,21.49,21.49,0,0,1,11.55,3.4l-2,4.3A20.36,20.36,0,0,0,151.19,65.72Z"/>
        <path class="cls-1" d="M180.37,94a11.39,11.39,0,0,1-6.2,2,7.05,7.05,0,0,1-5.1-1.88q-1.95-1.87-1.95-5.67V73.75h-3.75V70.2h3.75V63.1h4.7v7.1h8.1v3.55h-8.1v13.8a4.91,4.91,0,0,0,.8,3.15,3,3,0,0,0,2.4,1,8.45,8.45,0,0,0,4.1-1.25Z"/>
        <path class="cls-1" d="M209.42,69.3V95.75h-4.7v-5.6q-2.59,5.66-9.8,5.75a9.49,9.49,0,0,1-7.2-2.72,10.49,10.49,0,0,1-2.6-7.53V69.3h4.7V84.4a7.19,7.19,0,0,0,1.82,5.22,6.7,6.7,0,0,0,5,1.88,7.42,7.42,0,0,0,5.87-2.63,9.81,9.81,0,0,0,2.18-6.57v-13Z"/>
        <path class="cls-1" d="M243.12,58.65v37.1h-4.65V90.5a10.44,10.44,0,0,1-4,4.07A11.73,11.73,0,0,1,228.57,96a12.56,12.56,0,0,1-6.63-1.73,11.77,11.77,0,0,1-4.47-4.8,14.92,14.92,0,0,1-1.6-7,14.58,14.58,0,0,1,1.6-6.93,11.69,11.69,0,0,1,4.47-4.72,12.72,12.72,0,0,1,6.58-1.7,12.22,12.22,0,0,1,5.95,1.4,9.94,9.94,0,0,1,4,4V58.65Zm-9,32.15a8.48,8.48,0,0,0,3.18-3.35,10.19,10.19,0,0,0,1.15-4.85,10.3,10.3,0,0,0-1.15-4.9,8.48,8.48,0,0,0-3.18-3.35,9.44,9.44,0,0,0-9.25,0,8.6,8.6,0,0,0-3.17,3.38,10.8,10.8,0,0,0,0,9.7,8.39,8.39,0,0,0,3.17,3.35,9.51,9.51,0,0,0,9.25,0Z"/>
        <path class="cls-1" d="M256.84,59.6a3.2,3.2,0,0,1,0,4.3,3,3,0,0,1-4.15,0,3.23,3.23,0,0,1,0-4.3,3,3,0,0,1,4.15,0Zm-4.37,9.7h4.65V95.75h-4.65Z"/>
        <path class="cls-1" d="M284.19,70.85a12.24,12.24,0,0,1,4.8,4.72,14.79,14.79,0,0,1,0,13.88,12.18,12.18,0,0,1-4.8,4.75,15.47,15.47,0,0,1-14.1,0,12.2,12.2,0,0,1-4.8-4.73,14.9,14.9,0,0,1,0-13.9,12.24,12.24,0,0,1,4.8-4.72,15.47,15.47,0,0,1,14.1,0ZM272.54,74.4a8.32,8.32,0,0,0-3.15,3.32,10.18,10.18,0,0,0-1.12,4.83,10.41,10.41,0,0,0,1.12,4.9,8.07,8.07,0,0,0,3.15,3.32A9,9,0,0,0,277.17,92a8.87,8.87,0,0,0,4.57-1.18,8.07,8.07,0,0,0,3.15-3.32,10.41,10.41,0,0,0,1.13-4.9,10.19,10.19,0,0,0-1.13-4.83,8.32,8.32,0,0,0-3.15-3.32,8.78,8.78,0,0,0-4.57-1.2A8.9,8.9,0,0,0,272.54,74.4Z"/>
      </g>
    </g>
    <path class="cls-1" d="M121.72,63.2a1.57,1.57,0,0,0,.08-.31l0-.17a.43.43,0,0,1,0,0c0-.11,0-.22,0-.32a.49.49,0,0,0,0-.12,1.86,1.86,0,0,0-.13-.46,0,0,0,0,1,0,0l-24-54.2,0-.06a2.07,2.07,0,0,0-.19-.32l-.08-.1a2,2,0,0,0-.33-.32h0a2,2,0,0,0-.41-.22l-.11,0a2.37,2.37,0,0,0-.36-.09l-.08,0L37.16,0h0a2.57,2.57,0,0,0-.48,0l-.16,0-.27.07,0,0L36,.24a2.26,2.26,0,0,0-.26.16l-.14.12a1.45,1.45,0,0,0-.21.22l-.07.08L.38,48.68h0a1.88,1.88,0,0,0-.21.37s0,0,0,0,0,.08,0,.12a2.21,2.21,0,0,0-.08.35s0,.09,0,.13a2.54,2.54,0,0,0,0,.39s0,0,0,.08a1.86,1.86,0,0,0,.13.46,0,0,0,0,1,0,0l24,54.2a.18.18,0,0,0,.05.07,1.49,1.49,0,0,0,.18.3,1,1,0,0,0,.08.11,2.13,2.13,0,0,0,.34.33h0a2.23,2.23,0,0,0,.51.26l.19,0a1.11,1.11,0,0,0,.26.07l58.92,6.35h.21a2,2,0,0,0,.42,0l.12,0,.29-.11.12,0,.28-.19.07-.06h0a2.13,2.13,0,0,0,.29-.31h0l35-47.86.05-.09c0-.09.1-.18.14-.27S121.7,63.25,121.72,63.2Zm-37,44-9.41-10.7L111,71.26ZM23.26,57.84,79.05,31.39,70.82,92.57Zm-.6-4.15L38.1,5,77.24,27.82ZM67.35,95l-39.7,6.75L22,61.88ZM83,32l33.64,30.34L74.94,91.88Zm-2-6.66L46.05,5l46.17,5ZM18.14,54.75,5.08,49l26.27-36Zm-.59,4.1L22,90.07l-16-36.31Zm54,39.48L80,107.87,40.5,103.62ZM84.2,27.72,95.45,12.33,114.23,54.8Z"/>
  </g>
</svg>
