<svg width="355" height="359" viewBox="0 0 355 359" fill="none" xmlns="http://www.w3.org/2000/svg">
<path d="M174.181 0.22699V200.903H181.023V244.383H342.258V0.22699H174.181Z" fill="#F4F5FA"/>
<path d="M342.258 0.22699H174.181V15.9525H342.258V0.22699Z" fill="#D9E2EC"/>
<path d="M354.15 35.759H212.995V75.9775H354.15V35.759Z" fill="#D9E2EC"/>
<path d="M347.434 43.543H221.238V47.1865H347.434V43.543Z" fill="white"/>
<path d="M347.434 52.223H221.238V55.8665H347.434V52.223Z" fill="white"/>
<path d="M347.434 60.9065H221.238V64.55H347.434V60.9065Z" fill="white"/>
<path d="M354.15 92.1405H212.995V132.359H354.15V92.1405Z" fill="#D9E2EC"/>
<path d="M231.797 124.225C238.412 124.225 243.774 118.863 243.774 112.248C243.774 105.633 238.412 100.271 231.797 100.271C225.183 100.271 219.82 105.633 219.82 112.248C219.82 118.863 225.183 124.225 231.797 124.225Z" fill="white"/>
<path d="M344.504 100.271H252.611V111.856H344.504V100.271Z" fill="white"/>
<path d="M344.504 115.783H252.611V120.039H344.504V115.783Z" fill="white"/>
<path d="M323.186 149.803H190.609V215.029H323.186V149.803Z" fill="white"/>
<path d="M123.917 135.565C127.417 135.565 155.498 139.53 167.783 145.841C166.092 154.069 155.046 202.541 155.046 202.541H148.168C148.168 202.541 145.578 161.734 145.019 162.074C141.298 163.988 126.531 168.818 110.75 169.053" fill="#2C4CE8"/>
<path d="M84.1885 135.565V135.789C87.4925 141.833 90.2505 146.989 90.2505 146.989C90.2505 146.989 88.245 151.497 86.992 153.67C86.516 153.67 85.522 152.893 84.192 151.57V257.991H90.2505L123.917 135.565C121.75 137.35 92.0005 141.55 84.1885 135.565Z" fill="#2C4CE8"/>
<path d="M181.023 358.039V200.889H130.7V358.039H181.023ZM148.76 209.187V201.977L152.96 201.806V205.124L161.682 209.187H148.76Z" stroke="#829AB1" stroke-width="0.75" stroke-miterlimit="10" stroke-linecap="round"/>
<path d="M116 358.039V252.951H65.6768V358.039H116ZM85.0423 265.012V257.802L89.2423 257.631V260.949L97.9503 265.012H85.0423Z" stroke="#829AB1" stroke-width="0.75" stroke-miterlimit="10" stroke-linecap="round"/>
<path d="M0.650391 358.043V298.214H50.9734V358.043" stroke="#829AB1" stroke-width="0.75" stroke-miterlimit="10" stroke-linecap="round"/>
<path d="M92.2314 75.7815C94.4154 72.8345 97.0439 70.703 100.187 69.758" stroke="#829AB1" stroke-width="0.75" stroke-miterlimit="10" stroke-linecap="round"/>
<path d="M110.249 70.7065V66.3" stroke="#829AB1" stroke-width="0.75" stroke-miterlimit="10" stroke-linecap="round"/>
<path d="M131.736 85.102C134.134 86.8135 137.879 90.0895 138.691 91.465C148.204 79.635 163.87 67.7 165.151 66.321C166.432 64.942 166.831 57.2595 166.831 55.5795C166.831 53.8995 169.148 49.423 171.381 49.423V69.5655C171.381 69.5655 145.166 106.333 140.85 106.333C138.624 106.333 129.412 102.483 124.778 99.9875" stroke="#829AB1" stroke-width="0.75" stroke-linecap="round" stroke-linejoin="round"/>
<path d="M116.07 75.7009C123.07 76.7089 132.258 81.2764 132.275 83.0929C132.296 85.1929 127.746 93.1974 124.173 96.4944" stroke="#829AB1" stroke-width="0.75" stroke-miterlimit="10" stroke-linecap="round"/>
<path d="M122.72 40.421C123.163 39.6812 123.396 38.8338 123.392 37.971C123.392 34.821 120.746 34.408 119.542 33.421C118.261 32.371 118.81 29.1965 115.342 29.1965C112.234 29.1965 110.704 32.462 108.716 33.7185C106.312 35.241 101.594 34.016 98.4855 37.2185C96.977 38.7725 96.6235 42.598 95.6855 43.998C94.4045 45.895 92.1855 46.448 92.1855 49.3425C92.1855 51.0925 93.414 53.84 95.059 55.044" stroke="#829AB1" stroke-width="0.75" stroke-miterlimit="10" stroke-linecap="round"/>
<path d="M110.25 70.7065C129.07 80.2615 127.561 132.755 123.918 135.565C119.907 138.656 86.9855 140.161 83.9755 135.565C82.5755 133.423 81.5745 118.898 83.3385 103.981" stroke="#829AB1" stroke-width="0.75" stroke-miterlimit="10" stroke-linecap="round"/>
<path d="M73.6185 91.5245C68.3195 97.5655 60.3535 113.057 60.3535 115.825C60.3535 122.825 83.9855 153.657 86.992 153.657C88.245 151.483 90.2505 146.975 90.2505 146.975C90.2505 146.975 76.0545 120.501 73.4505 117.078C75.7045 114.978 83.8875 103.967 85.2245 100.544C85.4021 100.078 85.5414 99.5979 85.641 99.109" stroke="#829AB1" stroke-width="0.75" stroke-miterlimit="10" stroke-linecap="round"/>
<path d="M88.1675 99.718C85.4935 99.886 72.792 93.0995 72.792 89.7745C72.792 87.1005 86.687 72.7015 92.679 75.988C93.533 76.457 94.079 77.304 94.429 78.41" stroke="#829AB1" stroke-width="0.75" stroke-miterlimit="10" stroke-linecap="round"/>
<path d="M100.187 58.488V71.0495C100.187 72.8205 102.703 73.7235 105.22 73.7305" stroke="#829AB1" stroke-width="0.75" stroke-miterlimit="10" stroke-linecap="round"/>
<path d="M110.249 66.3C110.649 66.2789 111.046 66.2227 111.436 66.132C116.612 64.9245 119.374 57.795 117.603 50.214C117.284 48.8409 116.823 47.5048 116.227 46.2275" stroke="#829AB1" stroke-width="0.75" stroke-miterlimit="10" stroke-linecap="round"/>
<path d="M98.3704 51.3865C97.6076 51.6068 96.9499 52.095 96.5182 52.7613C96.0866 53.4276 95.9098 54.2274 96.0205 55.0136C96.1312 55.7998 96.5218 56.5196 97.1207 57.0409C97.7195 57.5621 98.4864 57.8498 99.2804 57.851C99.4824 57.849 99.6839 57.8291 99.8824 57.7915C99.9804 58.026 100.082 58.2605 100.187 58.4915" stroke="#829AB1" stroke-width="0.75" stroke-miterlimit="10" stroke-linecap="round"/>
<path d="M85.042 257.802V265.012H97.95L89.2315 260.949V257.631" stroke="#829AB1" stroke-width="0.75" stroke-linecap="round" stroke-linejoin="round"/>
<path d="M148.76 201.978V209.187H161.671L152.949 205.124V201.806" stroke="#829AB1" stroke-width="0.75" stroke-linecap="round" stroke-linejoin="round"/>
</svg>
