<svg width="422" height="411" viewBox="0 0 422 411" fill="none" xmlns="http://www.w3.org/2000/svg">
<g opacity="0.5">
<path d="M170.378 408.935C170.378 410.076 169.448 411 168.3 411C167.152 411 166.222 410.076 166.222 408.935C166.222 407.795 167.152 406.87 168.3 406.87C169.448 406.87 170.378 407.795 170.378 408.935Z" fill="#C4C4C4"/>
<path d="M170.378 392.416C170.378 393.556 169.448 394.481 168.3 394.481C167.152 394.481 166.222 393.556 166.222 392.416C166.222 391.275 167.152 390.351 168.3 390.351C169.448 390.351 170.378 391.275 170.378 392.416Z" fill="#C4C4C4"/>
<path d="M170.378 375.896C170.378 377.037 169.448 377.961 168.3 377.961C167.152 377.961 166.222 377.037 166.222 375.896C166.222 374.756 167.152 373.831 168.3 373.831C169.448 373.831 170.378 374.756 170.378 375.896Z" fill="#C4C4C4"/>
<path d="M170.378 359.377C170.378 360.517 169.448 361.442 168.3 361.442C167.152 361.442 166.222 360.517 166.222 359.377C166.222 358.236 167.152 357.312 168.3 357.312C169.448 357.312 170.378 358.236 170.378 359.377Z" fill="#C4C4C4"/>
<path d="M170.378 342.857C170.378 343.998 169.448 344.922 168.3 344.922C167.152 344.922 166.222 343.998 166.222 342.857C166.222 341.717 167.152 340.792 168.3 340.792C169.448 340.792 170.378 341.717 170.378 342.857Z" fill="#C4C4C4"/>
<path d="M170.378 326.338C170.378 327.478 169.448 328.403 168.3 328.403C167.152 328.403 166.222 327.478 166.222 326.338C166.222 325.197 167.152 324.273 168.3 324.273C169.448 324.273 170.378 325.197 170.378 326.338Z" fill="#C4C4C4"/>
<path d="M170.378 309.818C170.378 310.959 169.448 311.883 168.3 311.883C167.152 311.883 166.222 310.959 166.222 309.818C166.222 308.678 167.152 307.753 168.3 307.753C169.448 307.753 170.378 308.678 170.378 309.818Z" fill="#C4C4C4"/>
<path d="M170.378 293.299C170.378 294.439 169.448 295.364 168.3 295.364C167.152 295.364 166.222 294.439 166.222 293.299C166.222 292.158 167.152 291.234 168.3 291.234C169.448 291.234 170.378 292.158 170.378 293.299Z" fill="#C4C4C4"/>
<path d="M170.378 276.779C170.378 277.92 169.448 278.844 168.3 278.844C167.152 278.844 166.222 277.92 166.222 276.779C166.222 275.639 167.152 274.714 168.3 274.714C169.448 274.714 170.378 275.639 170.378 276.779Z" fill="#C4C4C4"/>
<path d="M170.378 260.26C170.378 261.4 169.448 262.325 168.3 262.325C167.152 262.325 166.222 261.4 166.222 260.26C166.222 259.119 167.152 258.195 168.3 258.195C169.448 258.195 170.378 259.119 170.378 260.26Z" fill="#C4C4C4"/>
<path d="M187 408.935C187 410.076 186.07 411 184.922 411C183.775 411 182.844 410.076 182.844 408.935C182.844 407.795 183.775 406.87 184.922 406.87C186.07 406.87 187 407.795 187 408.935Z" fill="#C4C4C4"/>
<path d="M187 392.416C187 393.556 186.07 394.481 184.922 394.481C183.775 394.481 182.844 393.556 182.844 392.416C182.844 391.275 183.775 390.351 184.922 390.351C186.07 390.351 187 391.275 187 392.416Z" fill="#C4C4C4"/>
<path d="M187 375.896C187 377.037 186.07 377.961 184.922 377.961C183.775 377.961 182.844 377.037 182.844 375.896C182.844 374.756 183.775 373.831 184.922 373.831C186.07 373.831 187 374.756 187 375.896Z" fill="#C4C4C4"/>
<path d="M187 359.377C187 360.517 186.07 361.442 184.922 361.442C183.775 361.442 182.844 360.517 182.844 359.377C182.844 358.236 183.775 357.312 184.922 357.312C186.07 357.312 187 358.236 187 359.377Z" fill="#C4C4C4"/>
<path d="M187 342.857C187 343.998 186.07 344.922 184.922 344.922C183.775 344.922 182.844 343.998 182.844 342.857C182.844 341.717 183.775 340.792 184.922 340.792C186.07 340.792 187 341.717 187 342.857Z" fill="#C4C4C4"/>
<path d="M187 326.338C187 327.478 186.07 328.403 184.922 328.403C183.775 328.403 182.844 327.478 182.844 326.338C182.844 325.197 183.775 324.273 184.922 324.273C186.07 324.273 187 325.197 187 326.338Z" fill="#C4C4C4"/>
<path d="M187 309.818C187 310.959 186.07 311.883 184.922 311.883C183.775 311.883 182.844 310.959 182.844 309.818C182.844 308.678 183.775 307.753 184.922 307.753C186.07 307.753 187 308.678 187 309.818Z" fill="#C4C4C4"/>
<path d="M187 293.299C187 294.439 186.07 295.364 184.922 295.364C183.775 295.364 182.844 294.439 182.844 293.299C182.844 292.158 183.775 291.234 184.922 291.234C186.07 291.234 187 292.158 187 293.299Z" fill="#C4C4C4"/>
<path d="M187 276.779C187 277.92 186.07 278.844 184.922 278.844C183.775 278.844 182.844 277.92 182.844 276.779C182.844 275.639 183.775 274.714 184.922 274.714C186.07 274.714 187 275.639 187 276.779Z" fill="#C4C4C4"/>
<path d="M187 260.26C187 261.4 186.07 262.325 184.922 262.325C183.775 262.325 182.844 261.4 182.844 260.26C182.844 259.119 183.775 258.195 184.922 258.195C186.07 258.195 187 259.119 187 260.26Z" fill="#C4C4C4"/>
<path d="M137.133 408.935C137.133 410.076 136.203 411 135.056 411C133.908 411 132.978 410.076 132.978 408.935C132.978 407.795 133.908 406.87 135.056 406.87C136.203 406.87 137.133 407.795 137.133 408.935Z" fill="#C4C4C4"/>
<path d="M137.133 392.416C137.133 393.556 136.203 394.481 135.056 394.481C133.908 394.481 132.978 393.556 132.978 392.416C132.978 391.275 133.908 390.351 135.056 390.351C136.203 390.351 137.133 391.275 137.133 392.416Z" fill="#C4C4C4"/>
<path d="M137.133 375.896C137.133 377.037 136.203 377.961 135.056 377.961C133.908 377.961 132.978 377.037 132.978 375.896C132.978 374.756 133.908 373.831 135.056 373.831C136.203 373.831 137.133 374.756 137.133 375.896Z" fill="#C4C4C4"/>
<path d="M137.133 359.377C137.133 360.517 136.203 361.442 135.056 361.442C133.908 361.442 132.978 360.517 132.978 359.377C132.978 358.236 133.908 357.312 135.056 357.312C136.203 357.312 137.133 358.236 137.133 359.377Z" fill="#C4C4C4"/>
<path d="M137.133 342.857C137.133 343.998 136.203 344.922 135.056 344.922C133.908 344.922 132.978 343.998 132.978 342.857C132.978 341.717 133.908 340.792 135.056 340.792C136.203 340.792 137.133 341.717 137.133 342.857Z" fill="#C4C4C4"/>
<path d="M137.133 326.338C137.133 327.478 136.203 328.403 135.056 328.403C133.908 328.403 132.978 327.478 132.978 326.338C132.978 325.197 133.908 324.273 135.056 324.273C136.203 324.273 137.133 325.197 137.133 326.338Z" fill="#C4C4C4"/>
<path d="M137.133 309.818C137.133 310.959 136.203 311.883 135.056 311.883C133.908 311.883 132.978 310.959 132.978 309.818C132.978 308.678 133.908 307.753 135.056 307.753C136.203 307.753 137.133 308.678 137.133 309.818Z" fill="#C4C4C4"/>
<path d="M137.133 293.299C137.133 294.439 136.203 295.364 135.056 295.364C133.908 295.364 132.978 294.439 132.978 293.299C132.978 292.158 133.908 291.234 135.056 291.234C136.203 291.234 137.133 292.158 137.133 293.299Z" fill="#C4C4C4"/>
<path d="M137.133 276.779C137.133 277.92 136.203 278.844 135.056 278.844C133.908 278.844 132.978 277.92 132.978 276.779C132.978 275.639 133.908 274.714 135.056 274.714C136.203 274.714 137.133 275.639 137.133 276.779Z" fill="#C4C4C4"/>
<path d="M137.133 260.26C137.133 261.4 136.203 262.325 135.056 262.325C133.908 262.325 132.978 261.4 132.978 260.26C132.978 259.119 133.908 258.195 135.056 258.195C136.203 258.195 137.133 259.119 137.133 260.26Z" fill="#C4C4C4"/>
<path d="M153.756 408.935C153.756 410.076 152.825 411 151.678 411C150.53 411 149.6 410.076 149.6 408.935C149.6 407.795 150.53 406.87 151.678 406.87C152.825 406.87 153.756 407.795 153.756 408.935Z" fill="#C4C4C4"/>
<path d="M153.756 392.416C153.756 393.556 152.825 394.481 151.678 394.481C150.53 394.481 149.6 393.556 149.6 392.416C149.6 391.275 150.53 390.351 151.678 390.351C152.825 390.351 153.756 391.275 153.756 392.416Z" fill="#C4C4C4"/>
<path d="M153.756 375.896C153.756 377.037 152.825 377.961 151.678 377.961C150.53 377.961 149.6 377.037 149.6 375.896C149.6 374.756 150.53 373.831 151.678 373.831C152.825 373.831 153.756 374.756 153.756 375.896Z" fill="#C4C4C4"/>
<path d="M153.756 359.377C153.756 360.517 152.825 361.442 151.678 361.442C150.53 361.442 149.6 360.517 149.6 359.377C149.6 358.236 150.53 357.312 151.678 357.312C152.825 357.312 153.756 358.236 153.756 359.377Z" fill="#C4C4C4"/>
<path d="M153.756 342.857C153.756 343.998 152.825 344.922 151.678 344.922C150.53 344.922 149.6 343.998 149.6 342.857C149.6 341.717 150.53 340.792 151.678 340.792C152.825 340.792 153.756 341.717 153.756 342.857Z" fill="#C4C4C4"/>
<path d="M153.756 326.338C153.756 327.478 152.825 328.403 151.678 328.403C150.53 328.403 149.6 327.478 149.6 326.338C149.6 325.197 150.53 324.273 151.678 324.273C152.825 324.273 153.756 325.197 153.756 326.338Z" fill="#C4C4C4"/>
<path d="M153.756 309.818C153.756 310.959 152.825 311.883 151.678 311.883C150.53 311.883 149.6 310.959 149.6 309.818C149.6 308.678 150.53 307.753 151.678 307.753C152.825 307.753 153.756 308.678 153.756 309.818Z" fill="#C4C4C4"/>
<path d="M153.756 293.299C153.756 294.439 152.825 295.364 151.678 295.364C150.53 295.364 149.6 294.439 149.6 293.299C149.6 292.158 150.53 291.234 151.678 291.234C152.825 291.234 153.756 292.158 153.756 293.299Z" fill="#C4C4C4"/>
<path d="M153.756 276.779C153.756 277.92 152.825 278.844 151.678 278.844C150.53 278.844 149.6 277.92 149.6 276.779C149.6 275.639 150.53 274.714 151.678 274.714C152.825 274.714 153.756 275.639 153.756 276.779Z" fill="#C4C4C4"/>
<path d="M153.756 260.26C153.756 261.4 152.825 262.325 151.678 262.325C150.53 262.325 149.6 261.4 149.6 260.26C149.6 259.119 150.53 258.195 151.678 258.195C152.825 258.195 153.756 259.119 153.756 260.26Z" fill="#C4C4C4"/>
<path d="M103.889 408.935C103.889 410.076 102.959 411 101.811 411C100.664 411 99.7333 410.076 99.7333 408.935C99.7333 407.795 100.664 406.87 101.811 406.87C102.959 406.87 103.889 407.795 103.889 408.935Z" fill="#C4C4C4"/>
<path d="M103.889 392.416C103.889 393.556 102.959 394.481 101.811 394.481C100.664 394.481 99.7333 393.556 99.7333 392.416C99.7333 391.275 100.664 390.351 101.811 390.351C102.959 390.351 103.889 391.275 103.889 392.416Z" fill="#C4C4C4"/>
<path d="M103.889 375.896C103.889 377.037 102.959 377.961 101.811 377.961C100.664 377.961 99.7333 377.037 99.7333 375.896C99.7333 374.756 100.664 373.831 101.811 373.831C102.959 373.831 103.889 374.756 103.889 375.896Z" fill="#C4C4C4"/>
<path d="M103.889 359.377C103.889 360.517 102.959 361.442 101.811 361.442C100.664 361.442 99.7333 360.517 99.7333 359.377C99.7333 358.236 100.664 357.312 101.811 357.312C102.959 357.312 103.889 358.236 103.889 359.377Z" fill="#C4C4C4"/>
<path d="M103.889 342.857C103.889 343.998 102.959 344.922 101.811 344.922C100.664 344.922 99.7333 343.998 99.7333 342.857C99.7333 341.717 100.664 340.792 101.811 340.792C102.959 340.792 103.889 341.717 103.889 342.857Z" fill="#C4C4C4"/>
<path d="M103.889 326.338C103.889 327.478 102.959 328.403 101.811 328.403C100.664 328.403 99.7333 327.478 99.7333 326.338C99.7333 325.197 100.664 324.273 101.811 324.273C102.959 324.273 103.889 325.197 103.889 326.338Z" fill="#C4C4C4"/>
<path d="M103.889 309.818C103.889 310.959 102.959 311.883 101.811 311.883C100.664 311.883 99.7333 310.959 99.7333 309.818C99.7333 308.678 100.664 307.753 101.811 307.753C102.959 307.753 103.889 308.678 103.889 309.818Z" fill="#C4C4C4"/>
<path d="M103.889 293.299C103.889 294.439 102.959 295.364 101.811 295.364C100.664 295.364 99.7333 294.439 99.7333 293.299C99.7333 292.158 100.664 291.234 101.811 291.234C102.959 291.234 103.889 292.158 103.889 293.299Z" fill="#C4C4C4"/>
<path d="M103.889 276.779C103.889 277.92 102.959 278.844 101.811 278.844C100.664 278.844 99.7333 277.92 99.7333 276.779C99.7333 275.639 100.664 274.714 101.811 274.714C102.959 274.714 103.889 275.639 103.889 276.779Z" fill="#C4C4C4"/>
<path d="M103.889 260.26C103.889 261.4 102.959 262.325 101.811 262.325C100.664 262.325 99.7333 261.4 99.7333 260.26C99.7333 259.119 100.664 258.195 101.811 258.195C102.959 258.195 103.889 259.119 103.889 260.26Z" fill="#C4C4C4"/>
<path d="M120.511 408.935C120.511 410.076 119.581 411 118.433 411C117.286 411 116.356 410.076 116.356 408.935C116.356 407.795 117.286 406.87 118.433 406.87C119.581 406.87 120.511 407.795 120.511 408.935Z" fill="#C4C4C4"/>
<path d="M120.511 392.416C120.511 393.556 119.581 394.481 118.433 394.481C117.286 394.481 116.356 393.556 116.356 392.416C116.356 391.275 117.286 390.351 118.433 390.351C119.581 390.351 120.511 391.275 120.511 392.416Z" fill="#C4C4C4"/>
<path d="M120.511 375.896C120.511 377.037 119.581 377.961 118.433 377.961C117.286 377.961 116.356 377.037 116.356 375.896C116.356 374.756 117.286 373.831 118.433 373.831C119.581 373.831 120.511 374.756 120.511 375.896Z" fill="#C4C4C4"/>
<path d="M120.511 359.377C120.511 360.517 119.581 361.442 118.433 361.442C117.286 361.442 116.356 360.517 116.356 359.377C116.356 358.236 117.286 357.312 118.433 357.312C119.581 357.312 120.511 358.236 120.511 359.377Z" fill="#C4C4C4"/>
<path d="M120.511 342.857C120.511 343.998 119.581 344.922 118.433 344.922C117.286 344.922 116.356 343.998 116.356 342.857C116.356 341.717 117.286 340.792 118.433 340.792C119.581 340.792 120.511 341.717 120.511 342.857Z" fill="#C4C4C4"/>
<path d="M120.511 326.338C120.511 327.478 119.581 328.403 118.433 328.403C117.286 328.403 116.356 327.478 116.356 326.338C116.356 325.197 117.286 324.273 118.433 324.273C119.581 324.273 120.511 325.197 120.511 326.338Z" fill="#C4C4C4"/>
<path d="M120.511 309.818C120.511 310.959 119.581 311.883 118.433 311.883C117.286 311.883 116.356 310.959 116.356 309.818C116.356 308.678 117.286 307.753 118.433 307.753C119.581 307.753 120.511 308.678 120.511 309.818Z" fill="#C4C4C4"/>
<path d="M120.511 293.299C120.511 294.439 119.581 295.364 118.433 295.364C117.286 295.364 116.356 294.439 116.356 293.299C116.356 292.158 117.286 291.234 118.433 291.234C119.581 291.234 120.511 292.158 120.511 293.299Z" fill="#C4C4C4"/>
<path d="M120.511 276.779C120.511 277.92 119.581 278.844 118.433 278.844C117.286 278.844 116.356 277.92 116.356 276.779C116.356 275.639 117.286 274.714 118.433 274.714C119.581 274.714 120.511 275.639 120.511 276.779Z" fill="#C4C4C4"/>
<path d="M120.511 260.26C120.511 261.4 119.581 262.325 118.433 262.325C117.286 262.325 116.356 261.4 116.356 260.26C116.356 259.119 117.286 258.195 118.433 258.195C119.581 258.195 120.511 259.119 120.511 260.26Z" fill="#C4C4C4"/>
<path d="M70.6444 408.935C70.6444 410.076 69.7142 411 68.5667 411C67.4191 411 66.4889 410.076 66.4889 408.935C66.4889 407.795 67.4191 406.87 68.5667 406.87C69.7142 406.87 70.6444 407.795 70.6444 408.935Z" fill="#C4C4C4"/>
<path d="M70.6444 392.416C70.6444 393.556 69.7142 394.481 68.5667 394.481C67.4191 394.481 66.4889 393.556 66.4889 392.416C66.4889 391.275 67.4191 390.351 68.5667 390.351C69.7142 390.351 70.6444 391.275 70.6444 392.416Z" fill="#C4C4C4"/>
<path d="M70.6444 375.896C70.6444 377.037 69.7142 377.961 68.5667 377.961C67.4191 377.961 66.4889 377.037 66.4889 375.896C66.4889 374.756 67.4191 373.831 68.5667 373.831C69.7142 373.831 70.6444 374.756 70.6444 375.896Z" fill="#C4C4C4"/>
<path d="M70.6444 359.377C70.6444 360.517 69.7142 361.442 68.5667 361.442C67.4191 361.442 66.4889 360.517 66.4889 359.377C66.4889 358.236 67.4191 357.312 68.5667 357.312C69.7142 357.312 70.6444 358.236 70.6444 359.377Z" fill="#C4C4C4"/>
<path d="M70.6444 342.857C70.6444 343.998 69.7142 344.922 68.5667 344.922C67.4191 344.922 66.4889 343.998 66.4889 342.857C66.4889 341.717 67.4191 340.792 68.5667 340.792C69.7142 340.792 70.6444 341.717 70.6444 342.857Z" fill="#C4C4C4"/>
<path d="M70.6444 326.338C70.6444 327.478 69.7142 328.403 68.5667 328.403C67.4191 328.403 66.4889 327.478 66.4889 326.338C66.4889 325.197 67.4191 324.273 68.5667 324.273C69.7142 324.273 70.6444 325.197 70.6444 326.338Z" fill="#C4C4C4"/>
<path d="M70.6444 309.818C70.6444 310.959 69.7142 311.883 68.5667 311.883C67.4191 311.883 66.4889 310.959 66.4889 309.818C66.4889 308.678 67.4191 307.753 68.5667 307.753C69.7142 307.753 70.6444 308.678 70.6444 309.818Z" fill="#C4C4C4"/>
<path d="M70.6444 293.299C70.6444 294.439 69.7142 295.364 68.5667 295.364C67.4191 295.364 66.4889 294.439 66.4889 293.299C66.4889 292.158 67.4191 291.234 68.5667 291.234C69.7142 291.234 70.6444 292.158 70.6444 293.299Z" fill="#C4C4C4"/>
<path d="M70.6444 276.779C70.6444 277.92 69.7142 278.844 68.5667 278.844C67.4191 278.844 66.4889 277.92 66.4889 276.779C66.4889 275.639 67.4191 274.714 68.5667 274.714C69.7142 274.714 70.6444 275.639 70.6444 276.779Z" fill="#C4C4C4"/>
<path d="M70.6444 260.26C70.6444 261.4 69.7142 262.325 68.5667 262.325C67.4191 262.325 66.4889 261.4 66.4889 260.26C66.4889 259.119 67.4191 258.195 68.5667 258.195C69.7142 258.195 70.6444 259.119 70.6444 260.26Z" fill="#C4C4C4"/>
<path d="M87.2667 408.935C87.2667 410.076 86.3364 411 85.1889 411C84.0414 411 83.1111 410.076 83.1111 408.935C83.1111 407.795 84.0414 406.87 85.1889 406.87C86.3364 406.87 87.2667 407.795 87.2667 408.935Z" fill="#C4C4C4"/>
<path d="M87.2667 392.416C87.2667 393.556 86.3364 394.481 85.1889 394.481C84.0414 394.481 83.1111 393.556 83.1111 392.416C83.1111 391.275 84.0414 390.351 85.1889 390.351C86.3364 390.351 87.2667 391.275 87.2667 392.416Z" fill="#C4C4C4"/>
<path d="M87.2667 375.896C87.2667 377.037 86.3364 377.961 85.1889 377.961C84.0414 377.961 83.1111 377.037 83.1111 375.896C83.1111 374.756 84.0414 373.831 85.1889 373.831C86.3364 373.831 87.2667 374.756 87.2667 375.896Z" fill="#C4C4C4"/>
<path d="M87.2667 359.377C87.2667 360.517 86.3364 361.442 85.1889 361.442C84.0414 361.442 83.1111 360.517 83.1111 359.377C83.1111 358.236 84.0414 357.312 85.1889 357.312C86.3364 357.312 87.2667 358.236 87.2667 359.377Z" fill="#C4C4C4"/>
<path d="M87.2667 342.857C87.2667 343.998 86.3364 344.922 85.1889 344.922C84.0414 344.922 83.1111 343.998 83.1111 342.857C83.1111 341.717 84.0414 340.792 85.1889 340.792C86.3364 340.792 87.2667 341.717 87.2667 342.857Z" fill="#C4C4C4"/>
<path d="M87.2667 326.338C87.2667 327.478 86.3364 328.403 85.1889 328.403C84.0414 328.403 83.1111 327.478 83.1111 326.338C83.1111 325.197 84.0414 324.273 85.1889 324.273C86.3364 324.273 87.2667 325.197 87.2667 326.338Z" fill="#C4C4C4"/>
<path d="M87.2667 309.818C87.2667 310.959 86.3364 311.883 85.1889 311.883C84.0414 311.883 83.1111 310.959 83.1111 309.818C83.1111 308.678 84.0414 307.753 85.1889 307.753C86.3364 307.753 87.2667 308.678 87.2667 309.818Z" fill="#C4C4C4"/>
<path d="M87.2667 293.299C87.2667 294.439 86.3364 295.364 85.1889 295.364C84.0414 295.364 83.1111 294.439 83.1111 293.299C83.1111 292.158 84.0414 291.234 85.1889 291.234C86.3364 291.234 87.2667 292.158 87.2667 293.299Z" fill="#C4C4C4"/>
<path d="M87.2667 276.779C87.2667 277.92 86.3364 278.844 85.1889 278.844C84.0414 278.844 83.1111 277.92 83.1111 276.779C83.1111 275.639 84.0414 274.714 85.1889 274.714C86.3364 274.714 87.2667 275.639 87.2667 276.779Z" fill="#C4C4C4"/>
<path d="M87.2667 260.26C87.2667 261.4 86.3364 262.325 85.1889 262.325C84.0414 262.325 83.1111 261.4 83.1111 260.26C83.1111 259.119 84.0414 258.195 85.1889 258.195C86.3364 258.195 87.2667 259.119 87.2667 260.26Z" fill="#C4C4C4"/>
<path d="M37.4 408.935C37.4 410.076 36.4697 411 35.3222 411C34.1747 411 33.2444 410.076 33.2444 408.935C33.2444 407.795 34.1747 406.87 35.3222 406.87C36.4697 406.87 37.4 407.795 37.4 408.935Z" fill="#C4C4C4"/>
<path d="M37.4 392.416C37.4 393.556 36.4697 394.481 35.3222 394.481C34.1747 394.481 33.2444 393.556 33.2444 392.416C33.2444 391.275 34.1747 390.351 35.3222 390.351C36.4697 390.351 37.4 391.275 37.4 392.416Z" fill="#C4C4C4"/>
<path d="M37.4 375.896C37.4 377.037 36.4697 377.961 35.3222 377.961C34.1747 377.961 33.2444 377.037 33.2444 375.896C33.2444 374.756 34.1747 373.831 35.3222 373.831C36.4697 373.831 37.4 374.756 37.4 375.896Z" fill="#C4C4C4"/>
<path d="M37.4 359.377C37.4 360.517 36.4697 361.442 35.3222 361.442C34.1747 361.442 33.2444 360.517 33.2444 359.377C33.2444 358.236 34.1747 357.312 35.3222 357.312C36.4697 357.312 37.4 358.236 37.4 359.377Z" fill="#C4C4C4"/>
<path d="M37.4 342.857C37.4 343.998 36.4697 344.922 35.3222 344.922C34.1747 344.922 33.2444 343.998 33.2444 342.857C33.2444 341.717 34.1747 340.792 35.3222 340.792C36.4697 340.792 37.4 341.717 37.4 342.857Z" fill="#C4C4C4"/>
<path d="M37.4 326.338C37.4 327.478 36.4697 328.403 35.3222 328.403C34.1747 328.403 33.2444 327.478 33.2444 326.338C33.2444 325.197 34.1747 324.273 35.3222 324.273C36.4697 324.273 37.4 325.197 37.4 326.338Z" fill="#C4C4C4"/>
<path d="M37.4 309.818C37.4 310.959 36.4697 311.883 35.3222 311.883C34.1747 311.883 33.2444 310.959 33.2444 309.818C33.2444 308.678 34.1747 307.753 35.3222 307.753C36.4697 307.753 37.4 308.678 37.4 309.818Z" fill="#C4C4C4"/>
<path d="M37.4 293.299C37.4 294.439 36.4697 295.364 35.3222 295.364C34.1747 295.364 33.2444 294.439 33.2444 293.299C33.2444 292.158 34.1747 291.234 35.3222 291.234C36.4697 291.234 37.4 292.158 37.4 293.299Z" fill="#C4C4C4"/>
<path d="M37.4 276.779C37.4 277.92 36.4697 278.844 35.3222 278.844C34.1747 278.844 33.2444 277.92 33.2444 276.779C33.2444 275.639 34.1747 274.714 35.3222 274.714C36.4697 274.714 37.4 275.639 37.4 276.779Z" fill="#C4C4C4"/>
<path d="M37.4 260.26C37.4 261.4 36.4697 262.325 35.3222 262.325C34.1747 262.325 33.2444 261.4 33.2444 260.26C33.2444 259.119 34.1747 258.195 35.3222 258.195C36.4697 258.195 37.4 259.119 37.4 260.26Z" fill="#C4C4C4"/>
<path d="M54.0222 408.935C54.0222 410.076 53.092 411 51.9444 411C50.7969 411 49.8667 410.076 49.8667 408.935C49.8667 407.795 50.7969 406.87 51.9444 406.87C53.092 406.87 54.0222 407.795 54.0222 408.935Z" fill="#C4C4C4"/>
<path d="M54.0222 392.416C54.0222 393.556 53.092 394.481 51.9444 394.481C50.7969 394.481 49.8667 393.556 49.8667 392.416C49.8667 391.275 50.7969 390.351 51.9444 390.351C53.092 390.351 54.0222 391.275 54.0222 392.416Z" fill="#C4C4C4"/>
<path d="M54.0222 375.896C54.0222 377.037 53.092 377.961 51.9444 377.961C50.7969 377.961 49.8667 377.037 49.8667 375.896C49.8667 374.756 50.7969 373.831 51.9444 373.831C53.092 373.831 54.0222 374.756 54.0222 375.896Z" fill="#C4C4C4"/>
<path d="M54.0222 359.377C54.0222 360.517 53.092 361.442 51.9444 361.442C50.7969 361.442 49.8667 360.517 49.8667 359.377C49.8667 358.236 50.7969 357.312 51.9444 357.312C53.092 357.312 54.0222 358.236 54.0222 359.377Z" fill="#C4C4C4"/>
<path d="M54.0222 342.857C54.0222 343.998 53.092 344.922 51.9444 344.922C50.7969 344.922 49.8667 343.998 49.8667 342.857C49.8667 341.717 50.7969 340.792 51.9444 340.792C53.092 340.792 54.0222 341.717 54.0222 342.857Z" fill="#C4C4C4"/>
<path d="M54.0222 326.338C54.0222 327.478 53.092 328.403 51.9444 328.403C50.7969 328.403 49.8667 327.478 49.8667 326.338C49.8667 325.197 50.7969 324.273 51.9444 324.273C53.092 324.273 54.0222 325.197 54.0222 326.338Z" fill="#C4C4C4"/>
<path d="M54.0222 309.818C54.0222 310.959 53.092 311.883 51.9444 311.883C50.7969 311.883 49.8667 310.959 49.8667 309.818C49.8667 308.678 50.7969 307.753 51.9444 307.753C53.092 307.753 54.0222 308.678 54.0222 309.818Z" fill="#C4C4C4"/>
<path d="M54.0222 293.299C54.0222 294.439 53.092 295.364 51.9444 295.364C50.7969 295.364 49.8667 294.439 49.8667 293.299C49.8667 292.158 50.7969 291.234 51.9444 291.234C53.092 291.234 54.0222 292.158 54.0222 293.299Z" fill="#C4C4C4"/>
<path d="M54.0222 276.779C54.0222 277.92 53.092 278.844 51.9444 278.844C50.7969 278.844 49.8667 277.92 49.8667 276.779C49.8667 275.639 50.7969 274.714 51.9444 274.714C53.092 274.714 54.0222 275.639 54.0222 276.779Z" fill="#C4C4C4"/>
<path d="M54.0222 260.26C54.0222 261.4 53.092 262.325 51.9444 262.325C50.7969 262.325 49.8667 261.4 49.8667 260.26C49.8667 259.119 50.7969 258.195 51.9444 258.195C53.092 258.195 54.0222 259.119 54.0222 260.26Z" fill="#C4C4C4"/>
<path d="M4.15556 408.935C4.15556 410.076 3.2253 411 2.07778 411C0.930253 411 0 410.076 0 408.935C0 407.795 0.930253 406.87 2.07778 406.87C3.2253 406.87 4.15556 407.795 4.15556 408.935Z" fill="#C4C4C4"/>
<path d="M4.15556 392.416C4.15556 393.556 3.2253 394.481 2.07778 394.481C0.930253 394.481 0 393.556 0 392.416C0 391.275 0.930253 390.351 2.07778 390.351C3.2253 390.351 4.15556 391.275 4.15556 392.416Z" fill="#C4C4C4"/>
<path d="M4.15556 375.896C4.15556 377.037 3.2253 377.961 2.07778 377.961C0.930253 377.961 0 377.037 0 375.896C0 374.756 0.930253 373.831 2.07778 373.831C3.2253 373.831 4.15556 374.756 4.15556 375.896Z" fill="#C4C4C4"/>
<path d="M4.15556 359.377C4.15556 360.517 3.2253 361.442 2.07778 361.442C0.930253 361.442 0 360.517 0 359.377C0 358.236 0.930253 357.312 2.07778 357.312C3.2253 357.312 4.15556 358.236 4.15556 359.377Z" fill="#C4C4C4"/>
<path d="M4.15556 342.857C4.15556 343.998 3.2253 344.922 2.07778 344.922C0.930253 344.922 0 343.998 0 342.857C0 341.717 0.930253 340.792 2.07778 340.792C3.2253 340.792 4.15556 341.717 4.15556 342.857Z" fill="#C4C4C4"/>
<path d="M4.15556 326.338C4.15556 327.478 3.2253 328.403 2.07778 328.403C0.930253 328.403 0 327.478 0 326.338C0 325.197 0.930253 324.273 2.07778 324.273C3.2253 324.273 4.15556 325.197 4.15556 326.338Z" fill="#C4C4C4"/>
<path d="M4.15556 309.818C4.15556 310.959 3.2253 311.883 2.07778 311.883C0.930253 311.883 0 310.959 0 309.818C0 308.678 0.930253 307.753 2.07778 307.753C3.2253 307.753 4.15556 308.678 4.15556 309.818Z" fill="#C4C4C4"/>
<path d="M4.15556 293.299C4.15556 294.439 3.2253 295.364 2.07778 295.364C0.930253 295.364 0 294.439 0 293.299C0 292.158 0.930253 291.234 2.07778 291.234C3.2253 291.234 4.15556 292.158 4.15556 293.299Z" fill="#C4C4C4"/>
<path d="M4.15556 276.779C4.15556 277.92 3.2253 278.844 2.07778 278.844C0.930253 278.844 0 277.92 0 276.779C0 275.639 0.930253 274.714 2.07778 274.714C3.2253 274.714 4.15556 275.639 4.15556 276.779Z" fill="#C4C4C4"/>
<path d="M4.15556 260.26C4.15556 261.4 3.2253 262.325 2.07778 262.325C0.930253 262.325 0 261.4 0 260.26C0 259.119 0.930253 258.195 2.07778 258.195C3.2253 258.195 4.15556 259.119 4.15556 260.26Z" fill="#C4C4C4"/>
<path d="M20.7778 408.935C20.7778 410.076 19.8475 411 18.7 411C17.5525 411 16.6222 410.076 16.6222 408.935C16.6222 407.795 17.5525 406.87 18.7 406.87C19.8475 406.87 20.7778 407.795 20.7778 408.935Z" fill="#C4C4C4"/>
<path d="M20.7778 392.416C20.7778 393.556 19.8475 394.481 18.7 394.481C17.5525 394.481 16.6222 393.556 16.6222 392.416C16.6222 391.275 17.5525 390.351 18.7 390.351C19.8475 390.351 20.7778 391.275 20.7778 392.416Z" fill="#C4C4C4"/>
<path d="M20.7778 375.896C20.7778 377.037 19.8475 377.961 18.7 377.961C17.5525 377.961 16.6222 377.037 16.6222 375.896C16.6222 374.756 17.5525 373.831 18.7 373.831C19.8475 373.831 20.7778 374.756 20.7778 375.896Z" fill="#C4C4C4"/>
<path d="M20.7778 359.377C20.7778 360.517 19.8475 361.442 18.7 361.442C17.5525 361.442 16.6222 360.517 16.6222 359.377C16.6222 358.236 17.5525 357.312 18.7 357.312C19.8475 357.312 20.7778 358.236 20.7778 359.377Z" fill="#C4C4C4"/>
<path d="M20.7778 342.857C20.7778 343.998 19.8475 344.922 18.7 344.922C17.5525 344.922 16.6222 343.998 16.6222 342.857C16.6222 341.717 17.5525 340.792 18.7 340.792C19.8475 340.792 20.7778 341.717 20.7778 342.857Z" fill="#C4C4C4"/>
<path d="M20.7778 326.338C20.7778 327.478 19.8475 328.403 18.7 328.403C17.5525 328.403 16.6222 327.478 16.6222 326.338C16.6222 325.197 17.5525 324.273 18.7 324.273C19.8475 324.273 20.7778 325.197 20.7778 326.338Z" fill="#C4C4C4"/>
<path d="M20.7778 309.818C20.7778 310.959 19.8475 311.883 18.7 311.883C17.5525 311.883 16.6222 310.959 16.6222 309.818C16.6222 308.678 17.5525 307.753 18.7 307.753C19.8475 307.753 20.7778 308.678 20.7778 309.818Z" fill="#C4C4C4"/>
<path d="M20.7778 293.299C20.7778 294.439 19.8475 295.364 18.7 295.364C17.5525 295.364 16.6222 294.439 16.6222 293.299C16.6222 292.158 17.5525 291.234 18.7 291.234C19.8475 291.234 20.7778 292.158 20.7778 293.299Z" fill="#C4C4C4"/>
<path d="M20.7778 276.779C20.7778 277.92 19.8475 278.844 18.7 278.844C17.5525 278.844 16.6222 277.92 16.6222 276.779C16.6222 275.639 17.5525 274.714 18.7 274.714C19.8475 274.714 20.7778 275.639 20.7778 276.779Z" fill="#C4C4C4"/>
<path d="M20.7778 260.26C20.7778 261.4 19.8475 262.325 18.7 262.325C17.5525 262.325 16.6222 261.4 16.6222 260.26C16.6222 259.119 17.5525 258.195 18.7 258.195C19.8475 258.195 20.7778 259.119 20.7778 260.26Z" fill="#C4C4C4"/>
<path d="M170.378 243.74C170.378 244.881 169.448 245.805 168.3 245.805C167.152 245.805 166.222 244.881 166.222 243.74C166.222 242.6 167.152 241.675 168.3 241.675C169.448 241.675 170.378 242.6 170.378 243.74Z" fill="#C4C4C4"/>
<path d="M170.378 227.221C170.378 228.361 169.448 229.286 168.3 229.286C167.152 229.286 166.222 228.361 166.222 227.221C166.222 226.08 167.152 225.156 168.3 225.156C169.448 225.156 170.378 226.08 170.378 227.221Z" fill="#C4C4C4"/>
<path d="M170.378 210.701C170.378 211.842 169.448 212.766 168.3 212.766C167.152 212.766 166.222 211.842 166.222 210.701C166.222 209.561 167.152 208.636 168.3 208.636C169.448 208.636 170.378 209.561 170.378 210.701Z" fill="#C4C4C4"/>
<path d="M170.378 194.182C170.378 195.322 169.448 196.247 168.3 196.247C167.152 196.247 166.222 195.322 166.222 194.182C166.222 193.041 167.152 192.117 168.3 192.117C169.448 192.117 170.378 193.041 170.378 194.182Z" fill="#C4C4C4"/>
<path d="M170.378 177.662C170.378 178.803 169.448 179.727 168.3 179.727C167.152 179.727 166.222 178.803 166.222 177.662C166.222 176.522 167.152 175.597 168.3 175.597C169.448 175.597 170.378 176.522 170.378 177.662Z" fill="#C4C4C4"/>
<path d="M170.378 161.143C170.378 162.283 169.448 163.208 168.3 163.208C167.152 163.208 166.222 162.283 166.222 161.143C166.222 160.002 167.152 159.078 168.3 159.078C169.448 159.078 170.378 160.002 170.378 161.143Z" fill="#C4C4C4"/>
<path d="M170.378 144.623C170.378 145.764 169.448 146.688 168.3 146.688C167.152 146.688 166.222 145.764 166.222 144.623C166.222 143.483 167.152 142.558 168.3 142.558C169.448 142.558 170.378 143.483 170.378 144.623Z" fill="#C4C4C4"/>
<path d="M170.378 128.104C170.378 129.244 169.448 130.169 168.3 130.169C167.152 130.169 166.222 129.244 166.222 128.104C166.222 126.963 167.152 126.039 168.3 126.039C169.448 126.039 170.378 126.963 170.378 128.104Z" fill="#C4C4C4"/>
<path d="M170.378 111.584C170.378 112.725 169.448 113.649 168.3 113.649C167.152 113.649 166.222 112.725 166.222 111.584C166.222 110.444 167.152 109.519 168.3 109.519C169.448 109.519 170.378 110.444 170.378 111.584Z" fill="#C4C4C4"/>
<path d="M170.378 95.0649C170.378 96.2054 169.448 97.1299 168.3 97.1299C167.152 97.1299 166.222 96.2054 166.222 95.0649C166.222 93.9245 167.152 93 168.3 93C169.448 93 170.378 93.9245 170.378 95.0649Z" fill="#C4C4C4"/>
<path d="M187 243.74C187 244.881 186.07 245.805 184.922 245.805C183.775 245.805 182.844 244.881 182.844 243.74C182.844 242.6 183.775 241.675 184.922 241.675C186.07 241.675 187 242.6 187 243.74Z" fill="#C4C4C4"/>
<path d="M187 227.221C187 228.361 186.07 229.286 184.922 229.286C183.775 229.286 182.844 228.361 182.844 227.221C182.844 226.08 183.775 225.156 184.922 225.156C186.07 225.156 187 226.08 187 227.221Z" fill="#C4C4C4"/>
<path d="M187 210.701C187 211.842 186.07 212.766 184.922 212.766C183.775 212.766 182.844 211.842 182.844 210.701C182.844 209.561 183.775 208.636 184.922 208.636C186.07 208.636 187 209.561 187 210.701Z" fill="#C4C4C4"/>
<path d="M187 194.182C187 195.322 186.07 196.247 184.922 196.247C183.775 196.247 182.844 195.322 182.844 194.182C182.844 193.041 183.775 192.117 184.922 192.117C186.07 192.117 187 193.041 187 194.182Z" fill="#C4C4C4"/>
<path d="M187 177.662C187 178.803 186.07 179.727 184.922 179.727C183.775 179.727 182.844 178.803 182.844 177.662C182.844 176.522 183.775 175.597 184.922 175.597C186.07 175.597 187 176.522 187 177.662Z" fill="#C4C4C4"/>
<path d="M187 161.143C187 162.283 186.07 163.208 184.922 163.208C183.775 163.208 182.844 162.283 182.844 161.143C182.844 160.002 183.775 159.078 184.922 159.078C186.07 159.078 187 160.002 187 161.143Z" fill="#C4C4C4"/>
<path d="M187 144.623C187 145.764 186.07 146.688 184.922 146.688C183.775 146.688 182.844 145.764 182.844 144.623C182.844 143.483 183.775 142.558 184.922 142.558C186.07 142.558 187 143.483 187 144.623Z" fill="#C4C4C4"/>
<path d="M187 128.104C187 129.244 186.07 130.169 184.922 130.169C183.775 130.169 182.844 129.244 182.844 128.104C182.844 126.963 183.775 126.039 184.922 126.039C186.07 126.039 187 126.963 187 128.104Z" fill="#C4C4C4"/>
<path d="M187 111.584C187 112.725 186.07 113.649 184.922 113.649C183.775 113.649 182.844 112.725 182.844 111.584C182.844 110.444 183.775 109.519 184.922 109.519C186.07 109.519 187 110.444 187 111.584Z" fill="#C4C4C4"/>
<path d="M187 95.0649C187 96.2054 186.07 97.1299 184.922 97.1299C183.775 97.1299 182.844 96.2054 182.844 95.0649C182.844 93.9245 183.775 93 184.922 93C186.07 93 187 93.9245 187 95.0649Z" fill="#C4C4C4"/>
<path d="M137.133 243.74C137.133 244.881 136.203 245.805 135.056 245.805C133.908 245.805 132.978 244.881 132.978 243.74C132.978 242.6 133.908 241.675 135.056 241.675C136.203 241.675 137.133 242.6 137.133 243.74Z" fill="#C4C4C4"/>
<path d="M137.133 227.221C137.133 228.361 136.203 229.286 135.056 229.286C133.908 229.286 132.978 228.361 132.978 227.221C132.978 226.08 133.908 225.156 135.056 225.156C136.203 225.156 137.133 226.08 137.133 227.221Z" fill="#C4C4C4"/>
<path d="M137.133 210.701C137.133 211.842 136.203 212.766 135.056 212.766C133.908 212.766 132.978 211.842 132.978 210.701C132.978 209.561 133.908 208.636 135.056 208.636C136.203 208.636 137.133 209.561 137.133 210.701Z" fill="#C4C4C4"/>
<path d="M137.133 194.182C137.133 195.322 136.203 196.247 135.056 196.247C133.908 196.247 132.978 195.322 132.978 194.182C132.978 193.041 133.908 192.117 135.056 192.117C136.203 192.117 137.133 193.041 137.133 194.182Z" fill="#C4C4C4"/>
<path d="M137.133 177.662C137.133 178.803 136.203 179.727 135.056 179.727C133.908 179.727 132.978 178.803 132.978 177.662C132.978 176.522 133.908 175.597 135.056 175.597C136.203 175.597 137.133 176.522 137.133 177.662Z" fill="#C4C4C4"/>
<path d="M137.133 161.143C137.133 162.283 136.203 163.208 135.056 163.208C133.908 163.208 132.978 162.283 132.978 161.143C132.978 160.002 133.908 159.078 135.056 159.078C136.203 159.078 137.133 160.002 137.133 161.143Z" fill="#C4C4C4"/>
<path d="M137.133 144.623C137.133 145.764 136.203 146.688 135.056 146.688C133.908 146.688 132.978 145.764 132.978 144.623C132.978 143.483 133.908 142.558 135.056 142.558C136.203 142.558 137.133 143.483 137.133 144.623Z" fill="#C4C4C4"/>
<path d="M137.133 128.104C137.133 129.244 136.203 130.169 135.056 130.169C133.908 130.169 132.978 129.244 132.978 128.104C132.978 126.963 133.908 126.039 135.056 126.039C136.203 126.039 137.133 126.963 137.133 128.104Z" fill="#C4C4C4"/>
<path d="M137.133 111.584C137.133 112.725 136.203 113.649 135.056 113.649C133.908 113.649 132.978 112.725 132.978 111.584C132.978 110.444 133.908 109.519 135.056 109.519C136.203 109.519 137.133 110.444 137.133 111.584Z" fill="#C4C4C4"/>
<path d="M137.133 95.0649C137.133 96.2054 136.203 97.1299 135.056 97.1299C133.908 97.1299 132.978 96.2054 132.978 95.0649C132.978 93.9245 133.908 93 135.056 93C136.203 93 137.133 93.9245 137.133 95.0649Z" fill="#C4C4C4"/>
<path d="M153.756 243.74C153.756 244.881 152.825 245.805 151.678 245.805C150.53 245.805 149.6 244.881 149.6 243.74C149.6 242.6 150.53 241.675 151.678 241.675C152.825 241.675 153.756 242.6 153.756 243.74Z" fill="#C4C4C4"/>
<path d="M153.756 227.221C153.756 228.361 152.825 229.286 151.678 229.286C150.53 229.286 149.6 228.361 149.6 227.221C149.6 226.08 150.53 225.156 151.678 225.156C152.825 225.156 153.756 226.08 153.756 227.221Z" fill="#C4C4C4"/>
<path d="M153.756 210.701C153.756 211.842 152.825 212.766 151.678 212.766C150.53 212.766 149.6 211.842 149.6 210.701C149.6 209.561 150.53 208.636 151.678 208.636C152.825 208.636 153.756 209.561 153.756 210.701Z" fill="#C4C4C4"/>
<path d="M153.756 194.182C153.756 195.322 152.825 196.247 151.678 196.247C150.53 196.247 149.6 195.322 149.6 194.182C149.6 193.041 150.53 192.117 151.678 192.117C152.825 192.117 153.756 193.041 153.756 194.182Z" fill="#C4C4C4"/>
<path d="M153.756 177.662C153.756 178.803 152.825 179.727 151.678 179.727C150.53 179.727 149.6 178.803 149.6 177.662C149.6 176.522 150.53 175.597 151.678 175.597C152.825 175.597 153.756 176.522 153.756 177.662Z" fill="#C4C4C4"/>
<path d="M153.756 161.143C153.756 162.283 152.825 163.208 151.678 163.208C150.53 163.208 149.6 162.283 149.6 161.143C149.6 160.002 150.53 159.078 151.678 159.078C152.825 159.078 153.756 160.002 153.756 161.143Z" fill="#C4C4C4"/>
<path d="M153.756 144.623C153.756 145.764 152.825 146.688 151.678 146.688C150.53 146.688 149.6 145.764 149.6 144.623C149.6 143.483 150.53 142.558 151.678 142.558C152.825 142.558 153.756 143.483 153.756 144.623Z" fill="#C4C4C4"/>
<path d="M153.756 128.104C153.756 129.244 152.825 130.169 151.678 130.169C150.53 130.169 149.6 129.244 149.6 128.104C149.6 126.963 150.53 126.039 151.678 126.039C152.825 126.039 153.756 126.963 153.756 128.104Z" fill="#C4C4C4"/>
<path d="M153.756 111.584C153.756 112.725 152.825 113.649 151.678 113.649C150.53 113.649 149.6 112.725 149.6 111.584C149.6 110.444 150.53 109.519 151.678 109.519C152.825 109.519 153.756 110.444 153.756 111.584Z" fill="#C4C4C4"/>
<path d="M153.756 95.0649C153.756 96.2054 152.825 97.1299 151.678 97.1299C150.53 97.1299 149.6 96.2054 149.6 95.0649C149.6 93.9245 150.53 93 151.678 93C152.825 93 153.756 93.9245 153.756 95.0649Z" fill="#C4C4C4"/>
<path d="M103.889 243.74C103.889 244.881 102.959 245.805 101.811 245.805C100.664 245.805 99.7333 244.881 99.7333 243.74C99.7333 242.6 100.664 241.675 101.811 241.675C102.959 241.675 103.889 242.6 103.889 243.74Z" fill="#C4C4C4"/>
<path d="M103.889 227.221C103.889 228.361 102.959 229.286 101.811 229.286C100.664 229.286 99.7333 228.361 99.7333 227.221C99.7333 226.08 100.664 225.156 101.811 225.156C102.959 225.156 103.889 226.08 103.889 227.221Z" fill="#C4C4C4"/>
<path d="M103.889 210.701C103.889 211.842 102.959 212.766 101.811 212.766C100.664 212.766 99.7333 211.842 99.7333 210.701C99.7333 209.561 100.664 208.636 101.811 208.636C102.959 208.636 103.889 209.561 103.889 210.701Z" fill="#C4C4C4"/>
<path d="M103.889 194.182C103.889 195.322 102.959 196.247 101.811 196.247C100.664 196.247 99.7333 195.322 99.7333 194.182C99.7333 193.041 100.664 192.117 101.811 192.117C102.959 192.117 103.889 193.041 103.889 194.182Z" fill="#C4C4C4"/>
<path d="M103.889 177.662C103.889 178.803 102.959 179.727 101.811 179.727C100.664 179.727 99.7333 178.803 99.7333 177.662C99.7333 176.522 100.664 175.597 101.811 175.597C102.959 175.597 103.889 176.522 103.889 177.662Z" fill="#C4C4C4"/>
<path d="M103.889 161.143C103.889 162.283 102.959 163.208 101.811 163.208C100.664 163.208 99.7333 162.283 99.7333 161.143C99.7333 160.002 100.664 159.078 101.811 159.078C102.959 159.078 103.889 160.002 103.889 161.143Z" fill="#C4C4C4"/>
<path d="M103.889 144.623C103.889 145.764 102.959 146.688 101.811 146.688C100.664 146.688 99.7333 145.764 99.7333 144.623C99.7333 143.483 100.664 142.558 101.811 142.558C102.959 142.558 103.889 143.483 103.889 144.623Z" fill="#C4C4C4"/>
<path d="M103.889 128.104C103.889 129.244 102.959 130.169 101.811 130.169C100.664 130.169 99.7333 129.244 99.7333 128.104C99.7333 126.963 100.664 126.039 101.811 126.039C102.959 126.039 103.889 126.963 103.889 128.104Z" fill="#C4C4C4"/>
<path d="M103.889 111.584C103.889 112.725 102.959 113.649 101.811 113.649C100.664 113.649 99.7333 112.725 99.7333 111.584C99.7333 110.444 100.664 109.519 101.811 109.519C102.959 109.519 103.889 110.444 103.889 111.584Z" fill="#C4C4C4"/>
<path d="M103.889 95.0649C103.889 96.2054 102.959 97.1299 101.811 97.1299C100.664 97.1299 99.7333 96.2054 99.7333 95.0649C99.7333 93.9245 100.664 93 101.811 93C102.959 93 103.889 93.9245 103.889 95.0649Z" fill="#C4C4C4"/>
<path d="M120.511 243.74C120.511 244.881 119.581 245.805 118.433 245.805C117.286 245.805 116.356 244.881 116.356 243.74C116.356 242.6 117.286 241.675 118.433 241.675C119.581 241.675 120.511 242.6 120.511 243.74Z" fill="#C4C4C4"/>
<path d="M120.511 227.221C120.511 228.361 119.581 229.286 118.433 229.286C117.286 229.286 116.356 228.361 116.356 227.221C116.356 226.08 117.286 225.156 118.433 225.156C119.581 225.156 120.511 226.08 120.511 227.221Z" fill="#C4C4C4"/>
<path d="M120.511 210.701C120.511 211.842 119.581 212.766 118.433 212.766C117.286 212.766 116.356 211.842 116.356 210.701C116.356 209.561 117.286 208.636 118.433 208.636C119.581 208.636 120.511 209.561 120.511 210.701Z" fill="#C4C4C4"/>
<path d="M120.511 194.182C120.511 195.322 119.581 196.247 118.433 196.247C117.286 196.247 116.356 195.322 116.356 194.182C116.356 193.041 117.286 192.117 118.433 192.117C119.581 192.117 120.511 193.041 120.511 194.182Z" fill="#C4C4C4"/>
<path d="M120.511 177.662C120.511 178.803 119.581 179.727 118.433 179.727C117.286 179.727 116.356 178.803 116.356 177.662C116.356 176.522 117.286 175.597 118.433 175.597C119.581 175.597 120.511 176.522 120.511 177.662Z" fill="#C4C4C4"/>
<path d="M120.511 161.143C120.511 162.283 119.581 163.208 118.433 163.208C117.286 163.208 116.356 162.283 116.356 161.143C116.356 160.002 117.286 159.078 118.433 159.078C119.581 159.078 120.511 160.002 120.511 161.143Z" fill="#C4C4C4"/>
<path d="M120.511 144.623C120.511 145.764 119.581 146.688 118.433 146.688C117.286 146.688 116.356 145.764 116.356 144.623C116.356 143.483 117.286 142.558 118.433 142.558C119.581 142.558 120.511 143.483 120.511 144.623Z" fill="#C4C4C4"/>
<path d="M120.511 128.104C120.511 129.244 119.581 130.169 118.433 130.169C117.286 130.169 116.356 129.244 116.356 128.104C116.356 126.963 117.286 126.039 118.433 126.039C119.581 126.039 120.511 126.963 120.511 128.104Z" fill="#C4C4C4"/>
<path d="M120.511 111.584C120.511 112.725 119.581 113.649 118.433 113.649C117.286 113.649 116.356 112.725 116.356 111.584C116.356 110.444 117.286 109.519 118.433 109.519C119.581 109.519 120.511 110.444 120.511 111.584Z" fill="#C4C4C4"/>
<path d="M120.511 95.0649C120.511 96.2054 119.581 97.1299 118.433 97.1299C117.286 97.1299 116.356 96.2054 116.356 95.0649C116.356 93.9245 117.286 93 118.433 93C119.581 93 120.511 93.9245 120.511 95.0649Z" fill="#C4C4C4"/>
<path d="M70.6444 243.74C70.6444 244.881 69.7142 245.805 68.5667 245.805C67.4191 245.805 66.4889 244.881 66.4889 243.74C66.4889 242.6 67.4191 241.675 68.5667 241.675C69.7142 241.675 70.6444 242.6 70.6444 243.74Z" fill="#C4C4C4"/>
<path d="M70.6444 227.221C70.6444 228.361 69.7142 229.286 68.5667 229.286C67.4191 229.286 66.4889 228.361 66.4889 227.221C66.4889 226.08 67.4191 225.156 68.5667 225.156C69.7142 225.156 70.6444 226.08 70.6444 227.221Z" fill="#C4C4C4"/>
<path d="M70.6444 210.701C70.6444 211.842 69.7142 212.766 68.5667 212.766C67.4191 212.766 66.4889 211.842 66.4889 210.701C66.4889 209.561 67.4191 208.636 68.5667 208.636C69.7142 208.636 70.6444 209.561 70.6444 210.701Z" fill="#C4C4C4"/>
<path d="M70.6444 194.182C70.6444 195.322 69.7142 196.247 68.5667 196.247C67.4191 196.247 66.4889 195.322 66.4889 194.182C66.4889 193.041 67.4191 192.117 68.5667 192.117C69.7142 192.117 70.6444 193.041 70.6444 194.182Z" fill="#C4C4C4"/>
<path d="M70.6444 177.662C70.6444 178.803 69.7142 179.727 68.5667 179.727C67.4191 179.727 66.4889 178.803 66.4889 177.662C66.4889 176.522 67.4191 175.597 68.5667 175.597C69.7142 175.597 70.6444 176.522 70.6444 177.662Z" fill="#C4C4C4"/>
<path d="M70.6444 161.143C70.6444 162.283 69.7142 163.208 68.5667 163.208C67.4191 163.208 66.4889 162.283 66.4889 161.143C66.4889 160.002 67.4191 159.078 68.5667 159.078C69.7142 159.078 70.6444 160.002 70.6444 161.143Z" fill="#C4C4C4"/>
<path d="M70.6444 144.623C70.6444 145.764 69.7142 146.688 68.5667 146.688C67.4191 146.688 66.4889 145.764 66.4889 144.623C66.4889 143.483 67.4191 142.558 68.5667 142.558C69.7142 142.558 70.6444 143.483 70.6444 144.623Z" fill="#C4C4C4"/>
<path d="M70.6444 128.104C70.6444 129.244 69.7142 130.169 68.5667 130.169C67.4191 130.169 66.4889 129.244 66.4889 128.104C66.4889 126.963 67.4191 126.039 68.5667 126.039C69.7142 126.039 70.6444 126.963 70.6444 128.104Z" fill="#C4C4C4"/>
<path d="M70.6444 111.584C70.6444 112.725 69.7142 113.649 68.5667 113.649C67.4191 113.649 66.4889 112.725 66.4889 111.584C66.4889 110.444 67.4191 109.519 68.5667 109.519C69.7142 109.519 70.6444 110.444 70.6444 111.584Z" fill="#C4C4C4"/>
<path d="M70.6444 95.0649C70.6444 96.2054 69.7142 97.1299 68.5667 97.1299C67.4191 97.1299 66.4889 96.2054 66.4889 95.0649C66.4889 93.9245 67.4191 93 68.5667 93C69.7142 93 70.6444 93.9245 70.6444 95.0649Z" fill="#C4C4C4"/>
<path d="M87.2667 243.74C87.2667 244.881 86.3364 245.805 85.1889 245.805C84.0414 245.805 83.1111 244.881 83.1111 243.74C83.1111 242.6 84.0414 241.675 85.1889 241.675C86.3364 241.675 87.2667 242.6 87.2667 243.74Z" fill="#C4C4C4"/>
<path d="M87.2667 227.221C87.2667 228.361 86.3364 229.286 85.1889 229.286C84.0414 229.286 83.1111 228.361 83.1111 227.221C83.1111 226.08 84.0414 225.156 85.1889 225.156C86.3364 225.156 87.2667 226.08 87.2667 227.221Z" fill="#C4C4C4"/>
<path d="M87.2667 210.701C87.2667 211.842 86.3364 212.766 85.1889 212.766C84.0414 212.766 83.1111 211.842 83.1111 210.701C83.1111 209.561 84.0414 208.636 85.1889 208.636C86.3364 208.636 87.2667 209.561 87.2667 210.701Z" fill="#C4C4C4"/>
<path d="M87.2667 194.182C87.2667 195.322 86.3364 196.247 85.1889 196.247C84.0414 196.247 83.1111 195.322 83.1111 194.182C83.1111 193.041 84.0414 192.117 85.1889 192.117C86.3364 192.117 87.2667 193.041 87.2667 194.182Z" fill="#C4C4C4"/>
<path d="M87.2667 177.662C87.2667 178.803 86.3364 179.727 85.1889 179.727C84.0414 179.727 83.1111 178.803 83.1111 177.662C83.1111 176.522 84.0414 175.597 85.1889 175.597C86.3364 175.597 87.2667 176.522 87.2667 177.662Z" fill="#C4C4C4"/>
<path d="M87.2667 161.143C87.2667 162.283 86.3364 163.208 85.1889 163.208C84.0414 163.208 83.1111 162.283 83.1111 161.143C83.1111 160.002 84.0414 159.078 85.1889 159.078C86.3364 159.078 87.2667 160.002 87.2667 161.143Z" fill="#C4C4C4"/>
<path d="M87.2667 144.623C87.2667 145.764 86.3364 146.688 85.1889 146.688C84.0414 146.688 83.1111 145.764 83.1111 144.623C83.1111 143.483 84.0414 142.558 85.1889 142.558C86.3364 142.558 87.2667 143.483 87.2667 144.623Z" fill="#C4C4C4"/>
<path d="M87.2667 128.104C87.2667 129.244 86.3364 130.169 85.1889 130.169C84.0414 130.169 83.1111 129.244 83.1111 128.104C83.1111 126.963 84.0414 126.039 85.1889 126.039C86.3364 126.039 87.2667 126.963 87.2667 128.104Z" fill="#C4C4C4"/>
<path d="M87.2667 111.584C87.2667 112.725 86.3364 113.649 85.1889 113.649C84.0414 113.649 83.1111 112.725 83.1111 111.584C83.1111 110.444 84.0414 109.519 85.1889 109.519C86.3364 109.519 87.2667 110.444 87.2667 111.584Z" fill="#C4C4C4"/>
<path d="M87.2667 95.0649C87.2667 96.2054 86.3364 97.1299 85.1889 97.1299C84.0414 97.1299 83.1111 96.2054 83.1111 95.0649C83.1111 93.9245 84.0414 93 85.1889 93C86.3364 93 87.2667 93.9245 87.2667 95.0649Z" fill="#C4C4C4"/>
<path d="M37.4 243.74C37.4 244.881 36.4697 245.805 35.3222 245.805C34.1747 245.805 33.2444 244.881 33.2444 243.74C33.2444 242.6 34.1747 241.675 35.3222 241.675C36.4697 241.675 37.4 242.6 37.4 243.74Z" fill="#C4C4C4"/>
<path d="M37.4 227.221C37.4 228.361 36.4697 229.286 35.3222 229.286C34.1747 229.286 33.2444 228.361 33.2444 227.221C33.2444 226.08 34.1747 225.156 35.3222 225.156C36.4697 225.156 37.4 226.08 37.4 227.221Z" fill="#C4C4C4"/>
<path d="M37.4 210.701C37.4 211.842 36.4697 212.766 35.3222 212.766C34.1747 212.766 33.2444 211.842 33.2444 210.701C33.2444 209.561 34.1747 208.636 35.3222 208.636C36.4697 208.636 37.4 209.561 37.4 210.701Z" fill="#C4C4C4"/>
<path d="M37.4 194.182C37.4 195.322 36.4697 196.247 35.3222 196.247C34.1747 196.247 33.2444 195.322 33.2444 194.182C33.2444 193.041 34.1747 192.117 35.3222 192.117C36.4697 192.117 37.4 193.041 37.4 194.182Z" fill="#C4C4C4"/>
<path d="M37.4 177.662C37.4 178.803 36.4697 179.727 35.3222 179.727C34.1747 179.727 33.2444 178.803 33.2444 177.662C33.2444 176.522 34.1747 175.597 35.3222 175.597C36.4697 175.597 37.4 176.522 37.4 177.662Z" fill="#C4C4C4"/>
<path d="M37.4 161.143C37.4 162.283 36.4697 163.208 35.3222 163.208C34.1747 163.208 33.2444 162.283 33.2444 161.143C33.2444 160.002 34.1747 159.078 35.3222 159.078C36.4697 159.078 37.4 160.002 37.4 161.143Z" fill="#C4C4C4"/>
<path d="M37.4 144.623C37.4 145.764 36.4697 146.688 35.3222 146.688C34.1747 146.688 33.2444 145.764 33.2444 144.623C33.2444 143.483 34.1747 142.558 35.3222 142.558C36.4697 142.558 37.4 143.483 37.4 144.623Z" fill="#C4C4C4"/>
<path d="M37.4 128.104C37.4 129.244 36.4697 130.169 35.3222 130.169C34.1747 130.169 33.2444 129.244 33.2444 128.104C33.2444 126.963 34.1747 126.039 35.3222 126.039C36.4697 126.039 37.4 126.963 37.4 128.104Z" fill="#C4C4C4"/>
<path d="M37.4 111.584C37.4 112.725 36.4697 113.649 35.3222 113.649C34.1747 113.649 33.2444 112.725 33.2444 111.584C33.2444 110.444 34.1747 109.519 35.3222 109.519C36.4697 109.519 37.4 110.444 37.4 111.584Z" fill="#C4C4C4"/>
<path d="M37.4 95.0649C37.4 96.2054 36.4697 97.1299 35.3222 97.1299C34.1747 97.1299 33.2444 96.2054 33.2444 95.0649C33.2444 93.9245 34.1747 93 35.3222 93C36.4697 93 37.4 93.9245 37.4 95.0649Z" fill="#C4C4C4"/>
<path d="M54.0222 243.74C54.0222 244.881 53.092 245.805 51.9444 245.805C50.7969 245.805 49.8667 244.881 49.8667 243.74C49.8667 242.6 50.7969 241.675 51.9444 241.675C53.092 241.675 54.0222 242.6 54.0222 243.74Z" fill="#C4C4C4"/>
<path d="M54.0222 227.221C54.0222 228.361 53.092 229.286 51.9444 229.286C50.7969 229.286 49.8667 228.361 49.8667 227.221C49.8667 226.08 50.7969 225.156 51.9444 225.156C53.092 225.156 54.0222 226.08 54.0222 227.221Z" fill="#C4C4C4"/>
<path d="M54.0222 210.701C54.0222 211.842 53.092 212.766 51.9444 212.766C50.7969 212.766 49.8667 211.842 49.8667 210.701C49.8667 209.561 50.7969 208.636 51.9444 208.636C53.092 208.636 54.0222 209.561 54.0222 210.701Z" fill="#C4C4C4"/>
<path d="M54.0222 194.182C54.0222 195.322 53.092 196.247 51.9444 196.247C50.7969 196.247 49.8667 195.322 49.8667 194.182C49.8667 193.041 50.7969 192.117 51.9444 192.117C53.092 192.117 54.0222 193.041 54.0222 194.182Z" fill="#C4C4C4"/>
<path d="M54.0222 177.662C54.0222 178.803 53.092 179.727 51.9444 179.727C50.7969 179.727 49.8667 178.803 49.8667 177.662C49.8667 176.522 50.7969 175.597 51.9444 175.597C53.092 175.597 54.0222 176.522 54.0222 177.662Z" fill="#C4C4C4"/>
<path d="M54.0222 161.143C54.0222 162.283 53.092 163.208 51.9444 163.208C50.7969 163.208 49.8667 162.283 49.8667 161.143C49.8667 160.002 50.7969 159.078 51.9444 159.078C53.092 159.078 54.0222 160.002 54.0222 161.143Z" fill="#C4C4C4"/>
<path d="M54.0222 144.623C54.0222 145.764 53.092 146.688 51.9444 146.688C50.7969 146.688 49.8667 145.764 49.8667 144.623C49.8667 143.483 50.7969 142.558 51.9444 142.558C53.092 142.558 54.0222 143.483 54.0222 144.623Z" fill="#C4C4C4"/>
<path d="M54.0222 128.104C54.0222 129.244 53.092 130.169 51.9444 130.169C50.7969 130.169 49.8667 129.244 49.8667 128.104C49.8667 126.963 50.7969 126.039 51.9444 126.039C53.092 126.039 54.0222 126.963 54.0222 128.104Z" fill="#C4C4C4"/>
<path d="M54.0222 111.584C54.0222 112.725 53.092 113.649 51.9444 113.649C50.7969 113.649 49.8667 112.725 49.8667 111.584C49.8667 110.444 50.7969 109.519 51.9444 109.519C53.092 109.519 54.0222 110.444 54.0222 111.584Z" fill="#C4C4C4"/>
<path d="M54.0222 95.0649C54.0222 96.2054 53.092 97.1299 51.9444 97.1299C50.7969 97.1299 49.8667 96.2054 49.8667 95.0649C49.8667 93.9245 50.7969 93 51.9444 93C53.092 93 54.0222 93.9245 54.0222 95.0649Z" fill="#C4C4C4"/>
<path d="M4.15556 243.74C4.15556 244.881 3.2253 245.805 2.07778 245.805C0.930253 245.805 0 244.881 0 243.74C0 242.6 0.930253 241.675 2.07778 241.675C3.2253 241.675 4.15556 242.6 4.15556 243.74Z" fill="#C4C4C4"/>
<path d="M4.15556 227.221C4.15556 228.361 3.2253 229.286 2.07778 229.286C0.930253 229.286 0 228.361 0 227.221C0 226.08 0.930253 225.156 2.07778 225.156C3.2253 225.156 4.15556 226.08 4.15556 227.221Z" fill="#C4C4C4"/>
<path d="M4.15556 210.701C4.15556 211.842 3.2253 212.766 2.07778 212.766C0.930253 212.766 0 211.842 0 210.701C0 209.561 0.930253 208.636 2.07778 208.636C3.2253 208.636 4.15556 209.561 4.15556 210.701Z" fill="#C4C4C4"/>
<path d="M4.15556 194.182C4.15556 195.322 3.2253 196.247 2.07778 196.247C0.930253 196.247 0 195.322 0 194.182C0 193.041 0.930253 192.117 2.07778 192.117C3.2253 192.117 4.15556 193.041 4.15556 194.182Z" fill="#C4C4C4"/>
<path d="M4.15556 177.662C4.15556 178.803 3.2253 179.727 2.07778 179.727C0.930253 179.727 0 178.803 0 177.662C0 176.522 0.930253 175.597 2.07778 175.597C3.2253 175.597 4.15556 176.522 4.15556 177.662Z" fill="#C4C4C4"/>
<path d="M4.15556 161.143C4.15556 162.283 3.2253 163.208 2.07778 163.208C0.930253 163.208 0 162.283 0 161.143C0 160.002 0.930253 159.078 2.07778 159.078C3.2253 159.078 4.15556 160.002 4.15556 161.143Z" fill="#C4C4C4"/>
<path d="M4.15556 144.623C4.15556 145.764 3.2253 146.688 2.07778 146.688C0.930253 146.688 0 145.764 0 144.623C0 143.483 0.930253 142.558 2.07778 142.558C3.2253 142.558 4.15556 143.483 4.15556 144.623Z" fill="#C4C4C4"/>
<path d="M4.15556 128.104C4.15556 129.244 3.2253 130.169 2.07778 130.169C0.930253 130.169 0 129.244 0 128.104C0 126.963 0.930253 126.039 2.07778 126.039C3.2253 126.039 4.15556 126.963 4.15556 128.104Z" fill="#C4C4C4"/>
<path d="M4.15556 111.584C4.15556 112.725 3.2253 113.649 2.07778 113.649C0.930253 113.649 0 112.725 0 111.584C0 110.444 0.930253 109.519 2.07778 109.519C3.2253 109.519 4.15556 110.444 4.15556 111.584Z" fill="#C4C4C4"/>
<path d="M4.15556 95.0649C4.15556 96.2054 3.2253 97.1299 2.07778 97.1299C0.930253 97.1299 0 96.2054 0 95.0649C0 93.9245 0.930253 93 2.07778 93C3.2253 93 4.15556 93.9245 4.15556 95.0649Z" fill="#C4C4C4"/>
<path d="M20.7778 243.74C20.7778 244.881 19.8475 245.805 18.7 245.805C17.5525 245.805 16.6222 244.881 16.6222 243.74C16.6222 242.6 17.5525 241.675 18.7 241.675C19.8475 241.675 20.7778 242.6 20.7778 243.74Z" fill="#C4C4C4"/>
<path d="M20.7778 227.221C20.7778 228.361 19.8475 229.286 18.7 229.286C17.5525 229.286 16.6222 228.361 16.6222 227.221C16.6222 226.08 17.5525 225.156 18.7 225.156C19.8475 225.156 20.7778 226.08 20.7778 227.221Z" fill="#C4C4C4"/>
<path d="M20.7778 210.701C20.7778 211.842 19.8475 212.766 18.7 212.766C17.5525 212.766 16.6222 211.842 16.6222 210.701C16.6222 209.561 17.5525 208.636 18.7 208.636C19.8475 208.636 20.7778 209.561 20.7778 210.701Z" fill="#C4C4C4"/>
<path d="M20.7778 194.182C20.7778 195.322 19.8475 196.247 18.7 196.247C17.5525 196.247 16.6222 195.322 16.6222 194.182C16.6222 193.041 17.5525 192.117 18.7 192.117C19.8475 192.117 20.7778 193.041 20.7778 194.182Z" fill="#C4C4C4"/>
<path d="M20.7778 177.662C20.7778 178.803 19.8475 179.727 18.7 179.727C17.5525 179.727 16.6222 178.803 16.6222 177.662C16.6222 176.522 17.5525 175.597 18.7 175.597C19.8475 175.597 20.7778 176.522 20.7778 177.662Z" fill="#C4C4C4"/>
<path d="M20.7778 161.143C20.7778 162.283 19.8475 163.208 18.7 163.208C17.5525 163.208 16.6222 162.283 16.6222 161.143C16.6222 160.002 17.5525 159.078 18.7 159.078C19.8475 159.078 20.7778 160.002 20.7778 161.143Z" fill="#C4C4C4"/>
<path d="M20.7778 144.623C20.7778 145.764 19.8475 146.688 18.7 146.688C17.5525 146.688 16.6222 145.764 16.6222 144.623C16.6222 143.483 17.5525 142.558 18.7 142.558C19.8475 142.558 20.7778 143.483 20.7778 144.623Z" fill="#C4C4C4"/>
<path d="M20.7778 128.104C20.7778 129.244 19.8475 130.169 18.7 130.169C17.5525 130.169 16.6222 129.244 16.6222 128.104C16.6222 126.963 17.5525 126.039 18.7 126.039C19.8475 126.039 20.7778 126.963 20.7778 128.104Z" fill="#C4C4C4"/>
<path d="M20.7778 111.584C20.7778 112.725 19.8475 113.649 18.7 113.649C17.5525 113.649 16.6222 112.725 16.6222 111.584C16.6222 110.444 17.5525 109.519 18.7 109.519C19.8475 109.519 20.7778 110.444 20.7778 111.584Z" fill="#C4C4C4"/>
<path d="M20.7778 95.0649C20.7778 96.2054 19.8475 97.1299 18.7 97.1299C17.5525 97.1299 16.6222 96.2054 16.6222 95.0649C16.6222 93.9245 17.5525 93 18.7 93C19.8475 93 20.7778 93.9245 20.7778 95.0649Z" fill="#C4C4C4"/>
</g>
<rect x="45" width="377" height="381" rx="6" fill="#F4F5FA"/>
<line x1="234.5" y1="63" x2="234.5" y2="368.63" stroke="#D9E2EC"/>
<line x1="407" y1="218.5" x2="61" y2="218.5" stroke="#D9E2EC"/>
<g filter="url(#filter0_d)">
<rect x="264" y="79" width="110" height="255" rx="6" fill="white"/>
</g>
<path d="M264 85C264 81.6863 266.686 79 270 79H368C371.314 79 374 81.6863 374 85V106H264V85Z" fill="#2C4CE8"/>
<path d="M289.202 96H290.259V92.8125H292.168C294.201 92.8125 295.117 91.5767 295.117 90.0341C295.117 88.4915 294.201 87.2727 292.151 87.2727H289.202V96ZM290.259 91.875V88.2102H292.117C293.536 88.2102 294.077 88.9858 294.077 90.0341C294.077 91.0824 293.536 91.875 292.134 91.875H290.259ZM297.083 96H298.089V91.858C298.089 90.9759 298.788 90.3239 299.742 90.3239C299.993 90.3239 300.181 90.3707 300.322 90.4432L300.663 89.5909C300.458 89.446 300.189 89.3523 299.827 89.3523C299.035 89.3523 298.357 89.7955 298.123 90.4432H298.055V89.4545H297.083V96ZM304.548 96.1364C306.321 96.1364 307.514 94.7898 307.514 92.7614C307.514 90.7159 306.321 89.3693 304.548 89.3693C302.776 89.3693 301.582 90.7159 301.582 92.7614C301.582 94.7898 302.776 96.1364 304.548 96.1364ZM304.548 95.233C303.202 95.233 302.588 94.0739 302.588 92.7614C302.588 91.4489 303.202 90.2727 304.548 90.2727C305.895 90.2727 306.509 91.4489 306.509 92.7614C306.509 94.0739 305.895 95.233 304.548 95.233ZM312.296 89.4545H310.898V87.8864H309.893V89.4545H308.904V90.3068H309.893V94.3977C309.893 95.5398 310.813 96.0852 311.665 96.0852C312.04 96.0852 312.279 96.017 312.415 95.9659L312.211 95.0625C312.125 95.0795 311.989 95.1136 311.768 95.1136C311.324 95.1136 310.898 94.9773 310.898 94.125V90.3068H312.296V89.4545ZM316.868 96.1364C318.641 96.1364 319.834 94.7898 319.834 92.7614C319.834 90.7159 318.641 89.3693 316.868 89.3693C315.095 89.3693 313.902 90.7159 313.902 92.7614C313.902 94.7898 315.095 96.1364 316.868 96.1364ZM316.868 95.233C315.521 95.233 314.908 94.0739 314.908 92.7614C314.908 91.4489 315.521 90.2727 316.868 90.2727C318.214 90.2727 318.828 91.4489 318.828 92.7614C318.828 94.0739 318.214 95.233 316.868 95.233ZM324.615 89.4545H323.218V87.8864H322.212V89.4545H321.223V90.3068H322.212V94.3977C322.212 95.5398 323.133 96.0852 323.985 96.0852C324.36 96.0852 324.598 96.017 324.735 95.9659L324.53 95.0625C324.445 95.0795 324.309 95.1136 324.087 95.1136C323.644 95.1136 323.218 94.9773 323.218 94.125V90.3068H324.615V89.4545ZM327.212 98.5398C328.133 98.5398 328.763 98.0625 329.138 97.0568L331.951 89.4545H330.86L329.053 94.6705H328.985L327.178 89.4545H326.087L328.508 96.0341L328.286 96.6477C327.932 97.6278 327.468 97.7216 326.735 97.5341L326.479 98.4205C326.582 98.4716 326.871 98.5398 327.212 98.5398ZM333.678 98.4545H334.684V94.9943H334.769C334.991 95.3523 335.417 96.1364 336.678 96.1364C338.315 96.1364 339.457 94.8239 339.457 92.7443C339.457 90.6818 338.315 89.3693 336.661 89.3693C335.383 89.3693 334.991 90.1534 334.769 90.4943H334.65V89.4545H333.678V98.4545ZM334.667 92.7273C334.667 91.2614 335.315 90.2727 336.542 90.2727C337.82 90.2727 338.451 91.3466 338.451 92.7273C338.451 94.125 337.803 95.233 336.542 95.233C335.332 95.233 334.667 94.2102 334.667 92.7273ZM344.135 96.1364C345.465 96.1364 346.436 95.4716 346.743 94.483L345.771 94.2102C345.516 94.892 344.923 95.233 344.135 95.233C342.955 95.233 342.141 94.4702 342.094 93.0682H346.845V92.642C346.845 90.2045 345.396 89.3693 344.033 89.3693C342.26 89.3693 341.084 90.767 341.084 92.7784C341.084 94.7898 342.243 96.1364 344.135 96.1364ZM342.094 92.1989C342.162 91.1804 342.882 90.2727 344.033 90.2727C345.124 90.2727 345.823 91.0909 345.823 92.1989H342.094Z" fill="#EDEFFD"/>
<rect x="275" y="130" width="86" height="175" rx="6" fill="#C6F7E2"/>
<path d="M281.793 221H283.176V218.878H284.34C285.845 218.878 286.721 217.98 286.721 216.673C286.721 215.372 285.861 214.455 284.375 214.455H281.793V221ZM283.176 217.769V215.586H284.11C284.909 215.586 285.295 216.021 285.295 216.673C285.295 217.321 284.909 217.769 284.116 217.769H283.176ZM288.37 221H289.754V218.68H290.763L292.004 221H293.531L292.141 218.456C292.886 218.136 293.298 217.488 293.298 216.593C293.298 215.292 292.438 214.455 290.952 214.455H288.37V221ZM289.754 217.567V215.586H290.687C291.486 215.586 291.873 215.941 291.873 216.593C291.873 217.241 291.486 217.567 290.693 217.567H289.754ZM301.041 217.727C301.041 215.586 299.711 214.365 297.976 214.365C296.231 214.365 294.911 215.586 294.911 217.727C294.911 219.859 296.231 221.089 297.976 221.089C299.711 221.089 301.041 219.869 301.041 217.727ZM299.638 217.727C299.638 219.114 298.979 219.865 297.976 219.865C296.969 219.865 296.314 219.114 296.314 217.727C296.314 216.34 296.969 215.589 297.976 215.589C298.979 215.589 299.638 216.34 299.638 217.727ZM302.277 215.596H304.281V221H305.648V215.596H307.652V214.455H302.277V215.596ZM315.013 217.727C315.013 215.586 313.683 214.365 311.948 214.365C310.203 214.365 308.883 215.586 308.883 217.727C308.883 219.859 310.203 221.089 311.948 221.089C313.683 221.089 315.013 219.869 315.013 217.727ZM313.609 217.727C313.609 219.114 312.951 219.865 311.948 219.865C310.941 219.865 310.286 219.114 310.286 217.727C310.286 216.34 310.941 215.589 311.948 215.589C312.951 215.589 313.609 216.34 313.609 217.727ZM316.248 215.596H318.252V221H319.62V215.596H321.624V214.455H316.248V215.596ZM322.876 214.455L325.263 218.686V221H326.638V218.686L329.025 214.455H327.475L325.982 217.273H325.918L324.426 214.455H322.876ZM330.531 221H331.915V218.878H333.078C334.583 218.878 335.459 217.98 335.459 216.673C335.459 215.372 334.599 214.455 333.113 214.455H330.531V221ZM331.915 217.769V215.586H332.848C333.647 215.586 334.034 216.021 334.034 216.673C334.034 217.321 333.647 217.769 332.854 217.769H331.915ZM338.492 214.455H337.108V221H338.492V214.455ZM345.855 214.455H344.478V218.571H344.42L341.595 214.455H340.38V221H341.764V216.88H341.812L344.66 221H345.855V214.455ZM352.079 216.57H353.495C353.316 215.276 352.153 214.365 350.673 214.365C348.944 214.365 347.634 215.612 347.634 217.734C347.634 219.805 348.874 221.089 350.708 221.089C352.364 221.089 353.556 220.044 353.556 218.322V217.497H350.817V218.539H352.185C352.156 219.392 351.523 219.865 350.714 219.865C349.685 219.865 349.037 219.089 349.037 217.721C349.037 216.359 349.692 215.589 350.695 215.589C351.408 215.589 351.884 215.957 352.079 216.57Z" fill="#189473"/>
<path d="M277.285 38.593H280.402V47H282.53V38.593H285.647V36.8182H277.285V38.593ZM287.775 47H289.927V42.794H294.297V47H296.445V36.8182H294.297V41.0192H289.927V36.8182H287.775V47ZM305.274 36.8182V43.4751C305.274 44.5639 304.394 45.2251 303.191 45.2251C302.003 45.2251 301.123 44.5639 301.123 43.4751V36.8182H298.97V43.5497C298.97 45.8565 300.72 47.1442 303.191 47.1442C305.652 47.1442 307.412 45.8565 307.412 43.5497V36.8182H305.274ZM309.933 47H312.085V43.3906H313.657L315.585 47H317.962L315.799 43.0426C316.958 42.5455 317.599 41.5362 317.599 40.1442C317.599 38.1207 316.262 36.8182 313.95 36.8182H309.933V47ZM312.085 41.6605V38.5781H313.537C314.78 38.5781 315.382 39.13 315.382 40.1442C315.382 41.1534 314.78 41.6605 313.547 41.6605H312.085ZM325.394 39.7464H327.457C327.427 37.9318 325.936 36.679 323.669 36.679C321.436 36.679 319.801 37.9119 319.811 39.7614C319.806 41.2628 320.865 42.1229 322.585 42.5355L323.693 42.8139C324.802 43.0824 325.419 43.4006 325.424 44.0866C325.419 44.8324 324.713 45.3395 323.619 45.3395C322.5 45.3395 321.695 44.8224 321.625 43.8033H319.542C319.597 46.0057 321.173 47.1442 323.644 47.1442C326.13 47.1442 327.591 45.956 327.596 44.0916C327.591 42.3963 326.313 41.4964 324.544 41.0987L323.629 40.88C322.744 40.6761 322.003 40.348 322.018 39.6172C322.018 38.9609 322.6 38.4787 323.654 38.4787C324.683 38.4787 325.314 38.946 325.394 39.7464ZM333.403 47C336.506 47 338.385 45.081 338.385 41.8991C338.385 38.7273 336.506 36.8182 333.433 36.8182H329.794V47H333.403ZM331.947 45.1555V38.6626H333.319C335.228 38.6626 336.237 39.6371 336.237 41.8991C336.237 44.1712 335.228 45.1555 333.314 45.1555H331.947ZM341.774 47L342.529 44.6783H346.203L346.959 47H349.266L345.756 36.8182H342.982L339.467 47H341.774ZM343.076 42.9979L344.329 39.1449H344.409L345.661 42.9979H343.076ZM349.606 36.8182L353.32 43.4006V47H355.457V43.4006L359.171 36.8182H356.76L354.438 41.2031H354.339L352.017 36.8182H349.606Z" fill="#486582"/>
<g filter="url(#filter1_d)">
<rect x="94" y="79" width="110" height="255" rx="6" fill="white"/>
</g>
<path d="M94 85C94 81.6863 96.6863 79 100 79H198C201.314 79 204 81.6863 204 85V106H94V85Z" fill="#2C4CE8"/>
<path d="M130.751 96C133.41 96 134.91 94.3466 134.91 91.6193C134.91 88.9091 133.41 87.2727 130.87 87.2727H128.058V96H130.751ZM129.115 95.0625V88.2102H130.802C132.848 88.2102 133.888 89.5057 133.888 91.6193C133.888 93.75 132.848 95.0625 130.683 95.0625H129.115ZM139.691 96.1364C141.02 96.1364 141.992 95.4716 142.299 94.483L141.327 94.2102C141.072 94.892 140.479 95.233 139.691 95.233C138.511 95.233 137.697 94.4702 137.65 93.0682H142.401V92.642C142.401 90.2045 140.952 89.3693 139.589 89.3693C137.816 89.3693 136.64 90.767 136.64 92.7784C136.64 94.7898 137.799 96.1364 139.691 96.1364ZM137.65 92.1989C137.718 91.1804 138.438 90.2727 139.589 90.2727C140.68 90.2727 141.378 91.0909 141.378 92.1989H137.65ZM146.99 96.1364C148.439 96.1364 149.394 95.25 149.564 94.0909H148.558C148.371 94.8068 147.774 95.233 146.99 95.233C145.797 95.233 145.03 94.2443 145.03 92.7273C145.03 91.2443 145.814 90.2727 146.99 90.2727C147.876 90.2727 148.405 90.8182 148.558 91.4148H149.564C149.394 90.1875 148.354 89.3693 146.973 89.3693C145.2 89.3693 144.024 90.767 144.024 92.7614C144.024 94.7216 145.149 96.1364 146.99 96.1364ZM151.434 96H152.44V89.4545H151.434V96ZM151.945 88.3807C152.338 88.3807 152.661 88.0739 152.661 87.6989C152.661 87.3239 152.338 87.017 151.945 87.017C151.553 87.017 151.23 87.3239 151.23 87.6989C151.23 88.0739 151.553 88.3807 151.945 88.3807ZM160.153 96V87.2727H159.148V90.4943H159.062C158.841 90.1534 158.449 89.3693 157.17 89.3693C155.517 89.3693 154.375 90.6818 154.375 92.7443C154.375 94.8239 155.517 96.1364 157.153 96.1364C158.415 96.1364 158.841 95.3523 159.062 94.9943H159.182V96H160.153ZM159.165 92.7273C159.165 94.2102 158.5 95.233 157.29 95.233C156.028 95.233 155.381 94.125 155.381 92.7273C155.381 91.3466 156.011 90.2727 157.29 90.2727C158.517 90.2727 159.165 91.2614 159.165 92.7273ZM165.279 96.1364C166.609 96.1364 167.58 95.4716 167.887 94.483L166.916 94.2102C166.66 94.892 166.068 95.233 165.279 95.233C164.099 95.233 163.285 94.4702 163.238 93.0682H167.989V92.642C167.989 90.2045 166.541 89.3693 165.177 89.3693C163.404 89.3693 162.228 90.767 162.228 92.7784C162.228 94.7898 163.387 96.1364 165.279 96.1364ZM163.238 92.1989C163.306 91.1804 164.026 90.2727 165.177 90.2727C166.268 90.2727 166.967 91.0909 166.967 92.1989H163.238Z" fill="#EDEFFD"/>
<rect x="105" y="130" width="86" height="26" rx="6" fill="#C6F7E2"/>
<path d="M114.996 146L115.482 144.507H117.844L118.33 146H119.813L117.556 139.455H115.773L113.513 146H114.996ZM115.834 143.427L116.639 140.95H116.69L117.496 143.427H115.834ZM121.351 146H122.735V143.68H123.744L124.985 146H126.512L125.122 143.456C125.867 143.136 126.279 142.488 126.279 141.593C126.279 140.292 125.419 139.455 123.933 139.455H121.351V146ZM122.735 142.567V140.586H123.668C124.467 140.586 124.853 140.941 124.853 141.593C124.853 142.241 124.467 142.567 123.674 142.567H122.735ZM127.758 140.596H129.761V146H131.129V140.596H133.133V139.455H127.758V140.596ZM137.602 139.455V146H138.944V141.724H138.998L140.692 145.968H141.606L143.3 141.74H143.354V146H144.697V139.455H142.99L141.188 143.852H141.111L139.308 139.455H137.602ZM150.719 139.455V143.734C150.719 144.434 150.153 144.859 149.379 144.859C148.616 144.859 148.05 144.434 148.05 143.734V139.455H146.666V143.782C146.666 145.265 147.791 146.093 149.379 146.093C150.962 146.093 152.093 145.265 152.093 143.782V139.455H150.719ZM157.532 141.337H158.859C158.839 140.17 157.881 139.365 156.423 139.365C154.988 139.365 153.937 140.158 153.943 141.347C153.94 142.312 154.621 142.865 155.727 143.13L156.439 143.309C157.152 143.482 157.548 143.686 157.551 144.127C157.548 144.607 157.094 144.933 156.391 144.933C155.672 144.933 155.154 144.6 155.11 143.945H153.771C153.806 145.361 154.819 146.093 156.407 146.093C158.005 146.093 158.945 145.329 158.948 144.13C158.945 143.04 158.124 142.462 156.986 142.206L156.398 142.066C155.829 141.935 155.353 141.724 155.362 141.254C155.362 140.832 155.736 140.522 156.414 140.522C157.075 140.522 157.481 140.822 157.532 141.337ZM160.629 146H165.052V144.859H162.013V143.296H164.813V142.155H162.013V140.596H165.039V139.455H160.629V146ZM170.942 139.455V143.734C170.942 144.434 170.377 144.859 169.603 144.859C168.839 144.859 168.274 144.434 168.274 143.734V139.455H166.89V143.782C166.89 145.265 168.015 146.093 169.603 146.093C171.185 146.093 172.317 145.265 172.317 143.782V139.455H170.942ZM174.205 139.455V146H175.547V141.724H175.602L177.296 145.968H178.21L179.904 141.74H179.958V146H181.3V139.455H179.594L177.791 143.852H177.714L175.912 139.455H174.205Z" fill="#189473"/>
<rect x="105" y="180" width="86" height="26" rx="6" fill="#C6F7E2"/>
<path d="M122.01 196H123.394V193.296H126.203V196H127.584V189.455H126.203V192.155H123.394V189.455H122.01V196ZM129.475 196H133.898V194.859H130.859V193.296H133.658V192.155H130.859V190.596H133.885V189.455H129.475V196ZM136.864 196L137.349 194.507H139.711L140.197 196H141.68L139.424 189.455H137.64L135.381 196H136.864ZM137.701 193.427L138.506 190.95H138.557L139.363 193.427H137.701ZM142.16 190.596H144.164V196H145.532V190.596H147.536V189.455H142.16V190.596ZM152.004 189.455V196H153.346V191.724H153.401L155.095 195.968H156.009L157.702 191.74H157.757V196H159.099V189.455H157.392L155.59 193.852H155.513L153.711 189.455H152.004ZM162.197 196L162.682 194.507H165.044L165.53 196H167.013L164.757 189.455H162.973L160.714 196H162.197ZM163.034 193.427L163.839 190.95H163.89L164.696 193.427H163.034ZM168.551 196H169.935V193.878H171.098C172.603 193.878 173.479 192.98 173.479 191.673C173.479 190.372 172.619 189.455 171.133 189.455H168.551V196ZM169.935 192.769V190.586H170.868C171.667 190.586 172.054 191.021 172.054 191.673C172.054 192.321 171.667 192.769 170.874 192.769H169.935Z" fill="#189473"/>
<rect x="106" y="229" width="86" height="26" rx="6" fill="#C6F7E2"/>
<path d="M120.922 238.455H119.544V242.571H119.487L116.661 238.455H115.447V245H116.831V240.88H116.879L119.726 245H120.922V238.455ZM128.83 241.727C128.83 239.586 127.5 238.365 125.765 238.365C124.02 238.365 122.7 239.586 122.7 241.727C122.7 243.859 124.02 245.089 125.765 245.089C127.5 245.089 128.83 243.869 128.83 241.727ZM127.427 241.727C127.427 243.114 126.768 243.865 125.765 243.865C124.758 243.865 124.103 243.114 124.103 241.727C124.103 240.34 124.758 239.589 125.765 239.589C126.768 239.589 127.427 240.34 127.427 241.727ZM130.066 239.596H132.07V245H133.438V239.596H135.441V238.455H130.066V239.596ZM137.077 245H141.5V243.859H138.461V242.296H141.26V241.155H138.461V239.596H141.487V238.455H137.077V245ZM148.152 245.096C148.724 245.096 149.344 244.936 149.827 244.559L150.223 245H151.642L150.658 243.872C151.022 243.389 151.252 242.696 151.252 241.807H150.124C150.124 242.235 150.018 242.616 149.846 242.939L148.766 241.699L149.149 241.424C149.699 241.027 150.018 240.529 150.018 239.912C150.018 239.075 149.37 238.368 148.318 238.368C147.244 238.368 146.532 239.1 146.532 240.049C146.532 240.631 146.813 241.117 147.155 241.551C146.442 242.04 145.963 242.504 145.963 243.261C145.963 244.294 146.79 245.096 148.152 245.096ZM149.092 243.741C148.817 243.91 148.516 244.003 148.219 244.003C147.65 244.003 147.283 243.651 147.283 243.185C147.283 242.935 147.452 242.648 147.813 242.386L147.852 242.36L149.092 243.741ZM148.11 240.922C147.868 240.615 147.698 240.343 147.698 240.072C147.698 239.743 147.947 239.468 148.328 239.464C148.711 239.461 148.929 239.73 148.929 239.989C148.929 240.263 148.778 240.49 148.452 240.698L148.11 240.922ZM157 238.455H155.463L157.723 245H159.506L161.763 238.455H160.228L158.643 243.428H158.582L157 238.455ZM169.183 241.727C169.183 239.586 167.854 238.365 166.118 238.365C164.373 238.365 163.053 239.586 163.053 241.727C163.053 243.859 164.373 245.089 166.118 245.089C167.854 245.089 169.183 243.869 169.183 241.727ZM167.78 241.727C167.78 243.114 167.122 243.865 166.118 243.865C165.112 243.865 164.456 243.114 164.456 241.727C164.456 240.34 165.112 239.589 166.118 239.589C167.122 239.589 167.78 240.34 167.78 241.727ZM170.419 239.596H172.423V245H173.791V239.596H175.795V238.455H170.419V239.596ZM177.43 245H181.854V243.859H178.814V242.296H181.614V241.155H178.814V239.596H181.841V238.455H177.43V245Z" fill="#189473"/>
<rect x="106" y="279" width="86" height="26" rx="6" fill="#C6F7E2"/>
<path d="M117.966 290.337H119.293C119.274 289.17 118.315 288.365 116.857 288.365C115.422 288.365 114.371 289.158 114.377 290.347C114.374 291.312 115.055 291.865 116.161 292.13L116.873 292.309C117.586 292.482 117.982 292.686 117.986 293.127C117.982 293.607 117.528 293.933 116.825 293.933C116.106 293.933 115.589 293.6 115.544 292.945H114.205C114.24 294.361 115.253 295.093 116.841 295.093C118.439 295.093 119.379 294.329 119.382 293.13C119.379 292.04 118.558 291.462 117.42 291.206L116.832 291.066C116.263 290.935 115.787 290.724 115.796 290.254C115.796 289.832 116.17 289.522 116.848 289.522C117.509 289.522 117.915 289.822 117.966 290.337ZM120.814 289.596H122.818V295H124.186V289.596H126.189V288.455H120.814V289.596ZM133.55 291.727C133.55 289.586 132.22 288.365 130.485 288.365C128.74 288.365 127.42 289.586 127.42 291.727C127.42 293.859 128.74 295.089 130.485 295.089C132.22 295.089 133.55 293.869 133.55 291.727ZM132.147 291.727C132.147 293.114 131.488 293.865 130.485 293.865C129.478 293.865 128.823 293.114 128.823 291.727C128.823 290.34 129.478 289.589 130.485 289.589C131.488 289.589 132.147 290.34 132.147 291.727ZM135.325 295H136.709V292.68H137.719L138.959 295H140.486L139.096 292.456C139.841 292.136 140.253 291.488 140.253 290.593C140.253 289.292 139.393 288.455 137.907 288.455H135.325V295ZM136.709 291.567V289.586H137.642C138.441 289.586 138.828 289.941 138.828 290.593C138.828 291.241 138.441 291.567 137.648 291.567H136.709ZM141.597 288.455L143.985 292.686V295H145.359V292.686L147.747 288.455H146.197L144.704 291.273H144.64L143.148 288.455H141.597ZM149.252 295H152.049C153.519 295 154.302 294.233 154.302 293.191C154.302 292.223 153.609 291.638 152.864 291.603V291.539C153.545 291.385 154.047 290.903 154.047 290.132C154.047 289.151 153.318 288.455 151.873 288.455H149.252V295ZM150.636 293.869V292.13H151.797C152.461 292.13 152.874 292.513 152.874 293.054C152.874 293.546 152.538 293.869 151.765 293.869H150.636ZM150.636 291.194V289.573H151.688C152.301 289.573 152.65 289.89 152.65 290.363C152.65 290.88 152.228 291.194 151.662 291.194H150.636ZM161.968 291.727C161.968 289.586 160.638 288.365 158.903 288.365C157.158 288.365 155.838 289.586 155.838 291.727C155.838 293.859 157.158 295.089 158.903 295.089C160.638 295.089 161.968 293.869 161.968 291.727ZM160.565 291.727C160.565 293.114 159.906 293.865 158.903 293.865C157.896 293.865 157.241 293.114 157.241 291.727C157.241 290.34 157.896 289.589 158.903 289.589C159.906 289.589 160.565 290.34 160.565 291.727ZM164.414 295L164.9 293.507H167.262L167.747 295H169.23L166.974 288.455H165.191L162.931 295H164.414ZM165.251 292.427L166.057 289.95H166.108L166.913 292.427H165.251ZM170.768 295H172.152V292.68H173.162L174.402 295H175.93L174.539 292.456C175.284 292.136 175.696 291.488 175.696 290.593C175.696 289.292 174.837 288.455 173.35 288.455H170.768V295ZM172.152 291.567V289.586H173.085C173.884 289.586 174.271 289.941 174.271 290.593C174.271 291.241 173.884 291.567 173.092 291.567H172.152ZM179.745 295C181.739 295 182.947 293.766 182.947 291.721C182.947 289.682 181.739 288.455 179.764 288.455H177.424V295H179.745ZM178.808 293.814V289.64H179.69C180.918 289.64 181.566 290.267 181.566 291.721C181.566 293.181 180.918 293.814 179.687 293.814H178.808Z" fill="#189473"/>
<path d="M102.623 49H104.721L106.655 42.343H106.735L108.674 49H110.772L113.685 38.8182H111.333L109.648 45.9077H109.559L107.704 38.8182H105.691L103.831 45.8928H103.747L102.061 38.8182H99.7098L102.623 49ZM115.587 49H122.468V47.2251H117.74V44.794H122.095V43.0192H117.74V40.593H122.448V38.8182H115.587V49ZM128.519 49C131.621 49 133.5 47.081 133.5 43.8991C133.5 40.7273 131.621 38.8182 128.549 38.8182H124.909V49H128.519ZM127.062 47.1555V40.6626H128.434C130.343 40.6626 131.353 41.6371 131.353 43.8991C131.353 46.1712 130.343 47.1555 128.429 47.1555H127.062ZM144.361 38.8182H142.218V45.2216H142.129L137.734 38.8182H135.845V49H137.998V42.5916H138.072L142.502 49H144.361V38.8182ZM146.89 49H153.771V47.2251H149.043V44.794H153.398V43.0192H149.043V40.593H153.751V38.8182H146.89V49ZM161.736 41.7464H163.799C163.769 39.9318 162.277 38.679 160.01 38.679C157.778 38.679 156.142 39.9119 156.152 41.7614C156.147 43.2628 157.206 44.1229 158.927 44.5355L160.035 44.8139C161.144 45.0824 161.76 45.4006 161.765 46.0866C161.76 46.8324 161.054 47.3395 159.961 47.3395C158.842 47.3395 158.037 46.8224 157.967 45.8033H155.884C155.939 48.0057 157.515 49.1442 159.986 49.1442C162.471 49.1442 163.933 47.956 163.938 46.0916C163.933 44.3963 162.655 43.4964 160.885 43.0987L159.971 42.88C159.086 42.6761 158.345 42.348 158.36 41.6172C158.36 40.9609 158.941 40.4787 159.995 40.4787C161.025 40.4787 161.656 40.946 161.736 41.7464ZM169.745 49C172.848 49 174.727 47.081 174.727 43.8991C174.727 40.7273 172.848 38.8182 169.775 38.8182H166.136V49H169.745ZM168.289 47.1555V40.6626H169.661C171.57 40.6626 172.579 41.6371 172.579 43.8991C172.579 46.1712 171.57 47.1555 169.656 47.1555H168.289ZM178.116 49L178.871 46.6783H182.545L183.301 49H185.608L182.098 38.8182H179.324L175.809 49H178.116ZM179.418 44.9979L180.671 41.1449H180.75L182.003 44.9979H179.418ZM185.948 38.8182L189.661 45.4006V49H191.799V45.4006L195.513 38.8182H193.102L190.78 43.2031H190.68L188.359 38.8182H185.948Z" fill="#486582"/>
<defs>
<filter id="filter0_d" x="261" y="77" width="116" height="261" filterUnits="userSpaceOnUse" color-interpolation-filters="sRGB">
<feFlood flood-opacity="0" result="BackgroundImageFix"/>
<feColorMatrix in="SourceAlpha" type="matrix" values="0 0 0 0 0 0 0 0 0 0 0 0 0 0 0 0 0 0 127 0"/>
<feOffset dy="1"/>
<feGaussianBlur stdDeviation="1.5"/>
<feColorMatrix type="matrix" values="0 0 0 0 0 0 0 0 0 0 0 0 0 0 0 0 0 0 0.2 0"/>
<feBlend mode="multiply" in2="BackgroundImageFix" result="effect1_dropShadow"/>
<feBlend mode="normal" in="SourceGraphic" in2="effect1_dropShadow" result="shape"/>
</filter>
<filter id="filter1_d" x="91" y="77" width="116" height="261" filterUnits="userSpaceOnUse" color-interpolation-filters="sRGB">
<feFlood flood-opacity="0" result="BackgroundImageFix"/>
<feColorMatrix in="SourceAlpha" type="matrix" values="0 0 0 0 0 0 0 0 0 0 0 0 0 0 0 0 0 0 127 0"/>
<feOffset dy="1"/>
<feGaussianBlur stdDeviation="1.5"/>
<feColorMatrix type="matrix" values="0 0 0 0 0 0 0 0 0 0 0 0 0 0 0 0 0 0 0.2 0"/>
<feBlend mode="multiply" in2="BackgroundImageFix" result="effect1_dropShadow"/>
<feBlend mode="normal" in="SourceGraphic" in2="effect1_dropShadow" result="shape"/>
</filter>
</defs>
</svg>
