<svg width="275" height="384" viewBox="0 0 275 384" fill="none" xmlns="http://www.w3.org/2000/svg">
<g opacity="0.5">
<path d="M258.378 381.935C258.378 383.076 257.448 384 256.3 384C255.152 384 254.222 383.076 254.222 381.935C254.222 380.795 255.152 379.87 256.3 379.87C257.448 379.87 258.378 380.795 258.378 381.935Z" fill="#C4C4C4"/>
<path d="M258.378 365.416C258.378 366.556 257.448 367.481 256.3 367.481C255.152 367.481 254.222 366.556 254.222 365.416C254.222 364.275 255.152 363.351 256.3 363.351C257.448 363.351 258.378 364.275 258.378 365.416Z" fill="#C4C4C4"/>
<path d="M258.378 348.896C258.378 350.037 257.448 350.961 256.3 350.961C255.152 350.961 254.222 350.037 254.222 348.896C254.222 347.756 255.152 346.831 256.3 346.831C257.448 346.831 258.378 347.756 258.378 348.896Z" fill="#C4C4C4"/>
<path d="M258.378 332.377C258.378 333.517 257.448 334.442 256.3 334.442C255.152 334.442 254.222 333.517 254.222 332.377C254.222 331.236 255.152 330.312 256.3 330.312C257.448 330.312 258.378 331.236 258.378 332.377Z" fill="#C4C4C4"/>
<path d="M258.378 315.857C258.378 316.998 257.448 317.922 256.3 317.922C255.152 317.922 254.222 316.998 254.222 315.857C254.222 314.717 255.152 313.792 256.3 313.792C257.448 313.792 258.378 314.717 258.378 315.857Z" fill="#C4C4C4"/>
<path d="M258.378 299.338C258.378 300.478 257.448 301.403 256.3 301.403C255.152 301.403 254.222 300.478 254.222 299.338C254.222 298.197 255.152 297.273 256.3 297.273C257.448 297.273 258.378 298.197 258.378 299.338Z" fill="#C4C4C4"/>
<path d="M258.378 282.818C258.378 283.959 257.448 284.883 256.3 284.883C255.152 284.883 254.222 283.959 254.222 282.818C254.222 281.678 255.152 280.753 256.3 280.753C257.448 280.753 258.378 281.678 258.378 282.818Z" fill="#C4C4C4"/>
<path d="M258.378 266.299C258.378 267.439 257.448 268.364 256.3 268.364C255.152 268.364 254.222 267.439 254.222 266.299C254.222 265.158 255.152 264.234 256.3 264.234C257.448 264.234 258.378 265.158 258.378 266.299Z" fill="#C4C4C4"/>
<path d="M258.378 249.779C258.378 250.92 257.448 251.844 256.3 251.844C255.152 251.844 254.222 250.92 254.222 249.779C254.222 248.639 255.152 247.714 256.3 247.714C257.448 247.714 258.378 248.639 258.378 249.779Z" fill="#C4C4C4"/>
<path d="M258.378 233.26C258.378 234.4 257.448 235.325 256.3 235.325C255.152 235.325 254.222 234.4 254.222 233.26C254.222 232.119 255.152 231.195 256.3 231.195C257.448 231.195 258.378 232.119 258.378 233.26Z" fill="#C4C4C4"/>
<path d="M275 381.935C275 383.076 274.07 384 272.922 384C271.775 384 270.844 383.076 270.844 381.935C270.844 380.795 271.775 379.87 272.922 379.87C274.07 379.87 275 380.795 275 381.935Z" fill="#C4C4C4"/>
<path d="M275 365.416C275 366.556 274.07 367.481 272.922 367.481C271.775 367.481 270.844 366.556 270.844 365.416C270.844 364.275 271.775 363.351 272.922 363.351C274.07 363.351 275 364.275 275 365.416Z" fill="#C4C4C4"/>
<path d="M275 348.896C275 350.037 274.07 350.961 272.922 350.961C271.775 350.961 270.844 350.037 270.844 348.896C270.844 347.756 271.775 346.831 272.922 346.831C274.07 346.831 275 347.756 275 348.896Z" fill="#C4C4C4"/>
<path d="M275 332.377C275 333.517 274.07 334.442 272.922 334.442C271.775 334.442 270.844 333.517 270.844 332.377C270.844 331.236 271.775 330.312 272.922 330.312C274.07 330.312 275 331.236 275 332.377Z" fill="#C4C4C4"/>
<path d="M275 315.857C275 316.998 274.07 317.922 272.922 317.922C271.775 317.922 270.844 316.998 270.844 315.857C270.844 314.717 271.775 313.792 272.922 313.792C274.07 313.792 275 314.717 275 315.857Z" fill="#C4C4C4"/>
<path d="M275 299.338C275 300.478 274.07 301.403 272.922 301.403C271.775 301.403 270.844 300.478 270.844 299.338C270.844 298.197 271.775 297.273 272.922 297.273C274.07 297.273 275 298.197 275 299.338Z" fill="#C4C4C4"/>
<path d="M275 282.818C275 283.959 274.07 284.883 272.922 284.883C271.775 284.883 270.844 283.959 270.844 282.818C270.844 281.678 271.775 280.753 272.922 280.753C274.07 280.753 275 281.678 275 282.818Z" fill="#C4C4C4"/>
<path d="M275 266.299C275 267.439 274.07 268.364 272.922 268.364C271.775 268.364 270.844 267.439 270.844 266.299C270.844 265.158 271.775 264.234 272.922 264.234C274.07 264.234 275 265.158 275 266.299Z" fill="#C4C4C4"/>
<path d="M275 249.779C275 250.92 274.07 251.844 272.922 251.844C271.775 251.844 270.844 250.92 270.844 249.779C270.844 248.639 271.775 247.714 272.922 247.714C274.07 247.714 275 248.639 275 249.779Z" fill="#C4C4C4"/>
<path d="M275 233.26C275 234.4 274.07 235.325 272.922 235.325C271.775 235.325 270.844 234.4 270.844 233.26C270.844 232.119 271.775 231.195 272.922 231.195C274.07 231.195 275 232.119 275 233.26Z" fill="#C4C4C4"/>
<path d="M225.133 381.935C225.133 383.076 224.203 384 223.056 384C221.908 384 220.978 383.076 220.978 381.935C220.978 380.795 221.908 379.87 223.056 379.87C224.203 379.87 225.133 380.795 225.133 381.935Z" fill="#C4C4C4"/>
<path d="M225.133 365.416C225.133 366.556 224.203 367.481 223.056 367.481C221.908 367.481 220.978 366.556 220.978 365.416C220.978 364.275 221.908 363.351 223.056 363.351C224.203 363.351 225.133 364.275 225.133 365.416Z" fill="#C4C4C4"/>
<path d="M225.133 348.896C225.133 350.037 224.203 350.961 223.056 350.961C221.908 350.961 220.978 350.037 220.978 348.896C220.978 347.756 221.908 346.831 223.056 346.831C224.203 346.831 225.133 347.756 225.133 348.896Z" fill="#C4C4C4"/>
<path d="M225.133 332.377C225.133 333.517 224.203 334.442 223.056 334.442C221.908 334.442 220.978 333.517 220.978 332.377C220.978 331.236 221.908 330.312 223.056 330.312C224.203 330.312 225.133 331.236 225.133 332.377Z" fill="#C4C4C4"/>
<path d="M225.133 315.857C225.133 316.998 224.203 317.922 223.056 317.922C221.908 317.922 220.978 316.998 220.978 315.857C220.978 314.717 221.908 313.792 223.056 313.792C224.203 313.792 225.133 314.717 225.133 315.857Z" fill="#C4C4C4"/>
<path d="M225.133 299.338C225.133 300.478 224.203 301.403 223.056 301.403C221.908 301.403 220.978 300.478 220.978 299.338C220.978 298.197 221.908 297.273 223.056 297.273C224.203 297.273 225.133 298.197 225.133 299.338Z" fill="#C4C4C4"/>
<path d="M225.133 282.818C225.133 283.959 224.203 284.883 223.056 284.883C221.908 284.883 220.978 283.959 220.978 282.818C220.978 281.678 221.908 280.753 223.056 280.753C224.203 280.753 225.133 281.678 225.133 282.818Z" fill="#C4C4C4"/>
<path d="M225.133 266.299C225.133 267.439 224.203 268.364 223.056 268.364C221.908 268.364 220.978 267.439 220.978 266.299C220.978 265.158 221.908 264.234 223.056 264.234C224.203 264.234 225.133 265.158 225.133 266.299Z" fill="#C4C4C4"/>
<path d="M225.133 249.779C225.133 250.92 224.203 251.844 223.056 251.844C221.908 251.844 220.978 250.92 220.978 249.779C220.978 248.639 221.908 247.714 223.056 247.714C224.203 247.714 225.133 248.639 225.133 249.779Z" fill="#C4C4C4"/>
<path d="M225.133 233.26C225.133 234.4 224.203 235.325 223.056 235.325C221.908 235.325 220.978 234.4 220.978 233.26C220.978 232.119 221.908 231.195 223.056 231.195C224.203 231.195 225.133 232.119 225.133 233.26Z" fill="#C4C4C4"/>
<path d="M241.756 381.935C241.756 383.076 240.825 384 239.678 384C238.53 384 237.6 383.076 237.6 381.935C237.6 380.795 238.53 379.87 239.678 379.87C240.825 379.87 241.756 380.795 241.756 381.935Z" fill="#C4C4C4"/>
<path d="M241.756 365.416C241.756 366.556 240.825 367.481 239.678 367.481C238.53 367.481 237.6 366.556 237.6 365.416C237.6 364.275 238.53 363.351 239.678 363.351C240.825 363.351 241.756 364.275 241.756 365.416Z" fill="#C4C4C4"/>
<path d="M241.756 348.896C241.756 350.037 240.825 350.961 239.678 350.961C238.53 350.961 237.6 350.037 237.6 348.896C237.6 347.756 238.53 346.831 239.678 346.831C240.825 346.831 241.756 347.756 241.756 348.896Z" fill="#C4C4C4"/>
<path d="M241.756 332.377C241.756 333.517 240.825 334.442 239.678 334.442C238.53 334.442 237.6 333.517 237.6 332.377C237.6 331.236 238.53 330.312 239.678 330.312C240.825 330.312 241.756 331.236 241.756 332.377Z" fill="#C4C4C4"/>
<path d="M241.756 315.857C241.756 316.998 240.825 317.922 239.678 317.922C238.53 317.922 237.6 316.998 237.6 315.857C237.6 314.717 238.53 313.792 239.678 313.792C240.825 313.792 241.756 314.717 241.756 315.857Z" fill="#C4C4C4"/>
<path d="M241.756 299.338C241.756 300.478 240.825 301.403 239.678 301.403C238.53 301.403 237.6 300.478 237.6 299.338C237.6 298.197 238.53 297.273 239.678 297.273C240.825 297.273 241.756 298.197 241.756 299.338Z" fill="#C4C4C4"/>
<path d="M241.756 282.818C241.756 283.959 240.825 284.883 239.678 284.883C238.53 284.883 237.6 283.959 237.6 282.818C237.6 281.678 238.53 280.753 239.678 280.753C240.825 280.753 241.756 281.678 241.756 282.818Z" fill="#C4C4C4"/>
<path d="M241.756 266.299C241.756 267.439 240.825 268.364 239.678 268.364C238.53 268.364 237.6 267.439 237.6 266.299C237.6 265.158 238.53 264.234 239.678 264.234C240.825 264.234 241.756 265.158 241.756 266.299Z" fill="#C4C4C4"/>
<path d="M241.756 249.779C241.756 250.92 240.825 251.844 239.678 251.844C238.53 251.844 237.6 250.92 237.6 249.779C237.6 248.639 238.53 247.714 239.678 247.714C240.825 247.714 241.756 248.639 241.756 249.779Z" fill="#C4C4C4"/>
<path d="M241.756 233.26C241.756 234.4 240.825 235.325 239.678 235.325C238.53 235.325 237.6 234.4 237.6 233.26C237.6 232.119 238.53 231.195 239.678 231.195C240.825 231.195 241.756 232.119 241.756 233.26Z" fill="#C4C4C4"/>
<path d="M191.889 381.935C191.889 383.076 190.959 384 189.811 384C188.664 384 187.733 383.076 187.733 381.935C187.733 380.795 188.664 379.87 189.811 379.87C190.959 379.87 191.889 380.795 191.889 381.935Z" fill="#C4C4C4"/>
<path d="M191.889 365.416C191.889 366.556 190.959 367.481 189.811 367.481C188.664 367.481 187.733 366.556 187.733 365.416C187.733 364.275 188.664 363.351 189.811 363.351C190.959 363.351 191.889 364.275 191.889 365.416Z" fill="#C4C4C4"/>
<path d="M191.889 348.896C191.889 350.037 190.959 350.961 189.811 350.961C188.664 350.961 187.733 350.037 187.733 348.896C187.733 347.756 188.664 346.831 189.811 346.831C190.959 346.831 191.889 347.756 191.889 348.896Z" fill="#C4C4C4"/>
<path d="M191.889 332.377C191.889 333.517 190.959 334.442 189.811 334.442C188.664 334.442 187.733 333.517 187.733 332.377C187.733 331.236 188.664 330.312 189.811 330.312C190.959 330.312 191.889 331.236 191.889 332.377Z" fill="#C4C4C4"/>
<path d="M191.889 315.857C191.889 316.998 190.959 317.922 189.811 317.922C188.664 317.922 187.733 316.998 187.733 315.857C187.733 314.717 188.664 313.792 189.811 313.792C190.959 313.792 191.889 314.717 191.889 315.857Z" fill="#C4C4C4"/>
<path d="M191.889 299.338C191.889 300.478 190.959 301.403 189.811 301.403C188.664 301.403 187.733 300.478 187.733 299.338C187.733 298.197 188.664 297.273 189.811 297.273C190.959 297.273 191.889 298.197 191.889 299.338Z" fill="#C4C4C4"/>
<path d="M191.889 282.818C191.889 283.959 190.959 284.883 189.811 284.883C188.664 284.883 187.733 283.959 187.733 282.818C187.733 281.678 188.664 280.753 189.811 280.753C190.959 280.753 191.889 281.678 191.889 282.818Z" fill="#C4C4C4"/>
<path d="M191.889 266.299C191.889 267.439 190.959 268.364 189.811 268.364C188.664 268.364 187.733 267.439 187.733 266.299C187.733 265.158 188.664 264.234 189.811 264.234C190.959 264.234 191.889 265.158 191.889 266.299Z" fill="#C4C4C4"/>
<path d="M191.889 249.779C191.889 250.92 190.959 251.844 189.811 251.844C188.664 251.844 187.733 250.92 187.733 249.779C187.733 248.639 188.664 247.714 189.811 247.714C190.959 247.714 191.889 248.639 191.889 249.779Z" fill="#C4C4C4"/>
<path d="M191.889 233.26C191.889 234.4 190.959 235.325 189.811 235.325C188.664 235.325 187.733 234.4 187.733 233.26C187.733 232.119 188.664 231.195 189.811 231.195C190.959 231.195 191.889 232.119 191.889 233.26Z" fill="#C4C4C4"/>
<path d="M208.511 381.935C208.511 383.076 207.581 384 206.433 384C205.286 384 204.356 383.076 204.356 381.935C204.356 380.795 205.286 379.87 206.433 379.87C207.581 379.87 208.511 380.795 208.511 381.935Z" fill="#C4C4C4"/>
<path d="M208.511 365.416C208.511 366.556 207.581 367.481 206.433 367.481C205.286 367.481 204.356 366.556 204.356 365.416C204.356 364.275 205.286 363.351 206.433 363.351C207.581 363.351 208.511 364.275 208.511 365.416Z" fill="#C4C4C4"/>
<path d="M208.511 348.896C208.511 350.037 207.581 350.961 206.433 350.961C205.286 350.961 204.356 350.037 204.356 348.896C204.356 347.756 205.286 346.831 206.433 346.831C207.581 346.831 208.511 347.756 208.511 348.896Z" fill="#C4C4C4"/>
<path d="M208.511 332.377C208.511 333.517 207.581 334.442 206.433 334.442C205.286 334.442 204.356 333.517 204.356 332.377C204.356 331.236 205.286 330.312 206.433 330.312C207.581 330.312 208.511 331.236 208.511 332.377Z" fill="#C4C4C4"/>
<path d="M208.511 315.857C208.511 316.998 207.581 317.922 206.433 317.922C205.286 317.922 204.356 316.998 204.356 315.857C204.356 314.717 205.286 313.792 206.433 313.792C207.581 313.792 208.511 314.717 208.511 315.857Z" fill="#C4C4C4"/>
<path d="M208.511 299.338C208.511 300.478 207.581 301.403 206.433 301.403C205.286 301.403 204.356 300.478 204.356 299.338C204.356 298.197 205.286 297.273 206.433 297.273C207.581 297.273 208.511 298.197 208.511 299.338Z" fill="#C4C4C4"/>
<path d="M208.511 282.818C208.511 283.959 207.581 284.883 206.433 284.883C205.286 284.883 204.356 283.959 204.356 282.818C204.356 281.678 205.286 280.753 206.433 280.753C207.581 280.753 208.511 281.678 208.511 282.818Z" fill="#C4C4C4"/>
<path d="M208.511 266.299C208.511 267.439 207.581 268.364 206.433 268.364C205.286 268.364 204.356 267.439 204.356 266.299C204.356 265.158 205.286 264.234 206.433 264.234C207.581 264.234 208.511 265.158 208.511 266.299Z" fill="#C4C4C4"/>
<path d="M208.511 249.779C208.511 250.92 207.581 251.844 206.433 251.844C205.286 251.844 204.356 250.92 204.356 249.779C204.356 248.639 205.286 247.714 206.433 247.714C207.581 247.714 208.511 248.639 208.511 249.779Z" fill="#C4C4C4"/>
<path d="M208.511 233.26C208.511 234.4 207.581 235.325 206.433 235.325C205.286 235.325 204.356 234.4 204.356 233.26C204.356 232.119 205.286 231.195 206.433 231.195C207.581 231.195 208.511 232.119 208.511 233.26Z" fill="#C4C4C4"/>
<path d="M158.644 381.935C158.644 383.076 157.714 384 156.567 384C155.419 384 154.489 383.076 154.489 381.935C154.489 380.795 155.419 379.87 156.567 379.87C157.714 379.87 158.644 380.795 158.644 381.935Z" fill="#C4C4C4"/>
<path d="M158.644 365.416C158.644 366.556 157.714 367.481 156.567 367.481C155.419 367.481 154.489 366.556 154.489 365.416C154.489 364.275 155.419 363.351 156.567 363.351C157.714 363.351 158.644 364.275 158.644 365.416Z" fill="#C4C4C4"/>
<path d="M158.644 348.896C158.644 350.037 157.714 350.961 156.567 350.961C155.419 350.961 154.489 350.037 154.489 348.896C154.489 347.756 155.419 346.831 156.567 346.831C157.714 346.831 158.644 347.756 158.644 348.896Z" fill="#C4C4C4"/>
<path d="M158.644 332.377C158.644 333.517 157.714 334.442 156.567 334.442C155.419 334.442 154.489 333.517 154.489 332.377C154.489 331.236 155.419 330.312 156.567 330.312C157.714 330.312 158.644 331.236 158.644 332.377Z" fill="#C4C4C4"/>
<path d="M158.644 315.857C158.644 316.998 157.714 317.922 156.567 317.922C155.419 317.922 154.489 316.998 154.489 315.857C154.489 314.717 155.419 313.792 156.567 313.792C157.714 313.792 158.644 314.717 158.644 315.857Z" fill="#C4C4C4"/>
<path d="M158.644 299.338C158.644 300.478 157.714 301.403 156.567 301.403C155.419 301.403 154.489 300.478 154.489 299.338C154.489 298.197 155.419 297.273 156.567 297.273C157.714 297.273 158.644 298.197 158.644 299.338Z" fill="#C4C4C4"/>
<path d="M158.644 282.818C158.644 283.959 157.714 284.883 156.567 284.883C155.419 284.883 154.489 283.959 154.489 282.818C154.489 281.678 155.419 280.753 156.567 280.753C157.714 280.753 158.644 281.678 158.644 282.818Z" fill="#C4C4C4"/>
<path d="M158.644 266.299C158.644 267.439 157.714 268.364 156.567 268.364C155.419 268.364 154.489 267.439 154.489 266.299C154.489 265.158 155.419 264.234 156.567 264.234C157.714 264.234 158.644 265.158 158.644 266.299Z" fill="#C4C4C4"/>
<path d="M158.644 249.779C158.644 250.92 157.714 251.844 156.567 251.844C155.419 251.844 154.489 250.92 154.489 249.779C154.489 248.639 155.419 247.714 156.567 247.714C157.714 247.714 158.644 248.639 158.644 249.779Z" fill="#C4C4C4"/>
<path d="M158.644 233.26C158.644 234.4 157.714 235.325 156.567 235.325C155.419 235.325 154.489 234.4 154.489 233.26C154.489 232.119 155.419 231.195 156.567 231.195C157.714 231.195 158.644 232.119 158.644 233.26Z" fill="#C4C4C4"/>
<path d="M175.267 381.935C175.267 383.076 174.336 384 173.189 384C172.041 384 171.111 383.076 171.111 381.935C171.111 380.795 172.041 379.87 173.189 379.87C174.336 379.87 175.267 380.795 175.267 381.935Z" fill="#C4C4C4"/>
<path d="M175.267 365.416C175.267 366.556 174.336 367.481 173.189 367.481C172.041 367.481 171.111 366.556 171.111 365.416C171.111 364.275 172.041 363.351 173.189 363.351C174.336 363.351 175.267 364.275 175.267 365.416Z" fill="#C4C4C4"/>
<path d="M175.267 348.896C175.267 350.037 174.336 350.961 173.189 350.961C172.041 350.961 171.111 350.037 171.111 348.896C171.111 347.756 172.041 346.831 173.189 346.831C174.336 346.831 175.267 347.756 175.267 348.896Z" fill="#C4C4C4"/>
<path d="M175.267 332.377C175.267 333.517 174.336 334.442 173.189 334.442C172.041 334.442 171.111 333.517 171.111 332.377C171.111 331.236 172.041 330.312 173.189 330.312C174.336 330.312 175.267 331.236 175.267 332.377Z" fill="#C4C4C4"/>
<path d="M175.267 315.857C175.267 316.998 174.336 317.922 173.189 317.922C172.041 317.922 171.111 316.998 171.111 315.857C171.111 314.717 172.041 313.792 173.189 313.792C174.336 313.792 175.267 314.717 175.267 315.857Z" fill="#C4C4C4"/>
<path d="M175.267 299.338C175.267 300.478 174.336 301.403 173.189 301.403C172.041 301.403 171.111 300.478 171.111 299.338C171.111 298.197 172.041 297.273 173.189 297.273C174.336 297.273 175.267 298.197 175.267 299.338Z" fill="#C4C4C4"/>
<path d="M175.267 282.818C175.267 283.959 174.336 284.883 173.189 284.883C172.041 284.883 171.111 283.959 171.111 282.818C171.111 281.678 172.041 280.753 173.189 280.753C174.336 280.753 175.267 281.678 175.267 282.818Z" fill="#C4C4C4"/>
<path d="M175.267 266.299C175.267 267.439 174.336 268.364 173.189 268.364C172.041 268.364 171.111 267.439 171.111 266.299C171.111 265.158 172.041 264.234 173.189 264.234C174.336 264.234 175.267 265.158 175.267 266.299Z" fill="#C4C4C4"/>
<path d="M175.267 249.779C175.267 250.92 174.336 251.844 173.189 251.844C172.041 251.844 171.111 250.92 171.111 249.779C171.111 248.639 172.041 247.714 173.189 247.714C174.336 247.714 175.267 248.639 175.267 249.779Z" fill="#C4C4C4"/>
<path d="M175.267 233.26C175.267 234.4 174.336 235.325 173.189 235.325C172.041 235.325 171.111 234.4 171.111 233.26C171.111 232.119 172.041 231.195 173.189 231.195C174.336 231.195 175.267 232.119 175.267 233.26Z" fill="#C4C4C4"/>
<path d="M125.4 381.935C125.4 383.076 124.47 384 123.322 384C122.175 384 121.244 383.076 121.244 381.935C121.244 380.795 122.175 379.87 123.322 379.87C124.47 379.87 125.4 380.795 125.4 381.935Z" fill="#C4C4C4"/>
<path d="M125.4 365.416C125.4 366.556 124.47 367.481 123.322 367.481C122.175 367.481 121.244 366.556 121.244 365.416C121.244 364.275 122.175 363.351 123.322 363.351C124.47 363.351 125.4 364.275 125.4 365.416Z" fill="#C4C4C4"/>
<path d="M125.4 348.896C125.4 350.037 124.47 350.961 123.322 350.961C122.175 350.961 121.244 350.037 121.244 348.896C121.244 347.756 122.175 346.831 123.322 346.831C124.47 346.831 125.4 347.756 125.4 348.896Z" fill="#C4C4C4"/>
<path d="M125.4 332.377C125.4 333.517 124.47 334.442 123.322 334.442C122.175 334.442 121.244 333.517 121.244 332.377C121.244 331.236 122.175 330.312 123.322 330.312C124.47 330.312 125.4 331.236 125.4 332.377Z" fill="#C4C4C4"/>
<path d="M125.4 315.857C125.4 316.998 124.47 317.922 123.322 317.922C122.175 317.922 121.244 316.998 121.244 315.857C121.244 314.717 122.175 313.792 123.322 313.792C124.47 313.792 125.4 314.717 125.4 315.857Z" fill="#C4C4C4"/>
<path d="M125.4 299.338C125.4 300.478 124.47 301.403 123.322 301.403C122.175 301.403 121.244 300.478 121.244 299.338C121.244 298.197 122.175 297.273 123.322 297.273C124.47 297.273 125.4 298.197 125.4 299.338Z" fill="#C4C4C4"/>
<path d="M125.4 282.818C125.4 283.959 124.47 284.883 123.322 284.883C122.175 284.883 121.244 283.959 121.244 282.818C121.244 281.678 122.175 280.753 123.322 280.753C124.47 280.753 125.4 281.678 125.4 282.818Z" fill="#C4C4C4"/>
<path d="M125.4 266.299C125.4 267.439 124.47 268.364 123.322 268.364C122.175 268.364 121.244 267.439 121.244 266.299C121.244 265.158 122.175 264.234 123.322 264.234C124.47 264.234 125.4 265.158 125.4 266.299Z" fill="#C4C4C4"/>
<path d="M125.4 249.779C125.4 250.92 124.47 251.844 123.322 251.844C122.175 251.844 121.244 250.92 121.244 249.779C121.244 248.639 122.175 247.714 123.322 247.714C124.47 247.714 125.4 248.639 125.4 249.779Z" fill="#C4C4C4"/>
<path d="M125.4 233.26C125.4 234.4 124.47 235.325 123.322 235.325C122.175 235.325 121.244 234.4 121.244 233.26C121.244 232.119 122.175 231.195 123.322 231.195C124.47 231.195 125.4 232.119 125.4 233.26Z" fill="#C4C4C4"/>
<path d="M142.022 381.935C142.022 383.076 141.092 384 139.944 384C138.797 384 137.867 383.076 137.867 381.935C137.867 380.795 138.797 379.87 139.944 379.87C141.092 379.87 142.022 380.795 142.022 381.935Z" fill="#C4C4C4"/>
<path d="M142.022 365.416C142.022 366.556 141.092 367.481 139.944 367.481C138.797 367.481 137.867 366.556 137.867 365.416C137.867 364.275 138.797 363.351 139.944 363.351C141.092 363.351 142.022 364.275 142.022 365.416Z" fill="#C4C4C4"/>
<path d="M142.022 348.896C142.022 350.037 141.092 350.961 139.944 350.961C138.797 350.961 137.867 350.037 137.867 348.896C137.867 347.756 138.797 346.831 139.944 346.831C141.092 346.831 142.022 347.756 142.022 348.896Z" fill="#C4C4C4"/>
<path d="M142.022 332.377C142.022 333.517 141.092 334.442 139.944 334.442C138.797 334.442 137.867 333.517 137.867 332.377C137.867 331.236 138.797 330.312 139.944 330.312C141.092 330.312 142.022 331.236 142.022 332.377Z" fill="#C4C4C4"/>
<path d="M142.022 315.857C142.022 316.998 141.092 317.922 139.944 317.922C138.797 317.922 137.867 316.998 137.867 315.857C137.867 314.717 138.797 313.792 139.944 313.792C141.092 313.792 142.022 314.717 142.022 315.857Z" fill="#C4C4C4"/>
<path d="M142.022 299.338C142.022 300.478 141.092 301.403 139.944 301.403C138.797 301.403 137.867 300.478 137.867 299.338C137.867 298.197 138.797 297.273 139.944 297.273C141.092 297.273 142.022 298.197 142.022 299.338Z" fill="#C4C4C4"/>
<path d="M142.022 282.818C142.022 283.959 141.092 284.883 139.944 284.883C138.797 284.883 137.867 283.959 137.867 282.818C137.867 281.678 138.797 280.753 139.944 280.753C141.092 280.753 142.022 281.678 142.022 282.818Z" fill="#C4C4C4"/>
<path d="M142.022 266.299C142.022 267.439 141.092 268.364 139.944 268.364C138.797 268.364 137.867 267.439 137.867 266.299C137.867 265.158 138.797 264.234 139.944 264.234C141.092 264.234 142.022 265.158 142.022 266.299Z" fill="#C4C4C4"/>
<path d="M142.022 249.779C142.022 250.92 141.092 251.844 139.944 251.844C138.797 251.844 137.867 250.92 137.867 249.779C137.867 248.639 138.797 247.714 139.944 247.714C141.092 247.714 142.022 248.639 142.022 249.779Z" fill="#C4C4C4"/>
<path d="M142.022 233.26C142.022 234.4 141.092 235.325 139.944 235.325C138.797 235.325 137.867 234.4 137.867 233.26C137.867 232.119 138.797 231.195 139.944 231.195C141.092 231.195 142.022 232.119 142.022 233.26Z" fill="#C4C4C4"/>
<path d="M92.1556 381.935C92.1556 383.076 91.2253 384 90.0778 384C88.9303 384 88 383.076 88 381.935C88 380.795 88.9303 379.87 90.0778 379.87C91.2253 379.87 92.1556 380.795 92.1556 381.935Z" fill="#C4C4C4"/>
<path d="M92.1556 365.416C92.1556 366.556 91.2253 367.481 90.0778 367.481C88.9303 367.481 88 366.556 88 365.416C88 364.275 88.9303 363.351 90.0778 363.351C91.2253 363.351 92.1556 364.275 92.1556 365.416Z" fill="#C4C4C4"/>
<path d="M92.1556 348.896C92.1556 350.037 91.2253 350.961 90.0778 350.961C88.9303 350.961 88 350.037 88 348.896C88 347.756 88.9303 346.831 90.0778 346.831C91.2253 346.831 92.1556 347.756 92.1556 348.896Z" fill="#C4C4C4"/>
<path d="M92.1556 332.377C92.1556 333.517 91.2253 334.442 90.0778 334.442C88.9303 334.442 88 333.517 88 332.377C88 331.236 88.9303 330.312 90.0778 330.312C91.2253 330.312 92.1556 331.236 92.1556 332.377Z" fill="#C4C4C4"/>
<path d="M92.1556 315.857C92.1556 316.998 91.2253 317.922 90.0778 317.922C88.9303 317.922 88 316.998 88 315.857C88 314.717 88.9303 313.792 90.0778 313.792C91.2253 313.792 92.1556 314.717 92.1556 315.857Z" fill="#C4C4C4"/>
<path d="M92.1556 299.338C92.1556 300.478 91.2253 301.403 90.0778 301.403C88.9303 301.403 88 300.478 88 299.338C88 298.197 88.9303 297.273 90.0778 297.273C91.2253 297.273 92.1556 298.197 92.1556 299.338Z" fill="#C4C4C4"/>
<path d="M92.1556 282.818C92.1556 283.959 91.2253 284.883 90.0778 284.883C88.9303 284.883 88 283.959 88 282.818C88 281.678 88.9303 280.753 90.0778 280.753C91.2253 280.753 92.1556 281.678 92.1556 282.818Z" fill="#C4C4C4"/>
<path d="M92.1556 266.299C92.1556 267.439 91.2253 268.364 90.0778 268.364C88.9303 268.364 88 267.439 88 266.299C88 265.158 88.9303 264.234 90.0778 264.234C91.2253 264.234 92.1556 265.158 92.1556 266.299Z" fill="#C4C4C4"/>
<path d="M92.1556 249.779C92.1556 250.92 91.2253 251.844 90.0778 251.844C88.9303 251.844 88 250.92 88 249.779C88 248.639 88.9303 247.714 90.0778 247.714C91.2253 247.714 92.1556 248.639 92.1556 249.779Z" fill="#C4C4C4"/>
<path d="M92.1556 233.26C92.1556 234.4 91.2253 235.325 90.0778 235.325C88.9303 235.325 88 234.4 88 233.26C88 232.119 88.9303 231.195 90.0778 231.195C91.2253 231.195 92.1556 232.119 92.1556 233.26Z" fill="#C4C4C4"/>
<path d="M108.778 381.935C108.778 383.076 107.848 384 106.7 384C105.552 384 104.622 383.076 104.622 381.935C104.622 380.795 105.552 379.87 106.7 379.87C107.848 379.87 108.778 380.795 108.778 381.935Z" fill="#C4C4C4"/>
<path d="M108.778 365.416C108.778 366.556 107.848 367.481 106.7 367.481C105.552 367.481 104.622 366.556 104.622 365.416C104.622 364.275 105.552 363.351 106.7 363.351C107.848 363.351 108.778 364.275 108.778 365.416Z" fill="#C4C4C4"/>
<path d="M108.778 348.896C108.778 350.037 107.848 350.961 106.7 350.961C105.552 350.961 104.622 350.037 104.622 348.896C104.622 347.756 105.552 346.831 106.7 346.831C107.848 346.831 108.778 347.756 108.778 348.896Z" fill="#C4C4C4"/>
<path d="M108.778 332.377C108.778 333.517 107.848 334.442 106.7 334.442C105.552 334.442 104.622 333.517 104.622 332.377C104.622 331.236 105.552 330.312 106.7 330.312C107.848 330.312 108.778 331.236 108.778 332.377Z" fill="#C4C4C4"/>
<path d="M108.778 315.857C108.778 316.998 107.848 317.922 106.7 317.922C105.552 317.922 104.622 316.998 104.622 315.857C104.622 314.717 105.552 313.792 106.7 313.792C107.848 313.792 108.778 314.717 108.778 315.857Z" fill="#C4C4C4"/>
<path d="M108.778 299.338C108.778 300.478 107.848 301.403 106.7 301.403C105.552 301.403 104.622 300.478 104.622 299.338C104.622 298.197 105.552 297.273 106.7 297.273C107.848 297.273 108.778 298.197 108.778 299.338Z" fill="#C4C4C4"/>
<path d="M108.778 282.818C108.778 283.959 107.848 284.883 106.7 284.883C105.552 284.883 104.622 283.959 104.622 282.818C104.622 281.678 105.552 280.753 106.7 280.753C107.848 280.753 108.778 281.678 108.778 282.818Z" fill="#C4C4C4"/>
<path d="M108.778 266.299C108.778 267.439 107.848 268.364 106.7 268.364C105.552 268.364 104.622 267.439 104.622 266.299C104.622 265.158 105.552 264.234 106.7 264.234C107.848 264.234 108.778 265.158 108.778 266.299Z" fill="#C4C4C4"/>
<path d="M108.778 249.779C108.778 250.92 107.848 251.844 106.7 251.844C105.552 251.844 104.622 250.92 104.622 249.779C104.622 248.639 105.552 247.714 106.7 247.714C107.848 247.714 108.778 248.639 108.778 249.779Z" fill="#C4C4C4"/>
<path d="M108.778 233.26C108.778 234.4 107.848 235.325 106.7 235.325C105.552 235.325 104.622 234.4 104.622 233.26C104.622 232.119 105.552 231.195 106.7 231.195C107.848 231.195 108.778 232.119 108.778 233.26Z" fill="#C4C4C4"/>
<path d="M258.378 216.74C258.378 217.881 257.448 218.805 256.3 218.805C255.152 218.805 254.222 217.881 254.222 216.74C254.222 215.6 255.152 214.675 256.3 214.675C257.448 214.675 258.378 215.6 258.378 216.74Z" fill="#C4C4C4"/>
<path d="M258.378 200.221C258.378 201.361 257.448 202.286 256.3 202.286C255.152 202.286 254.222 201.361 254.222 200.221C254.222 199.08 255.152 198.156 256.3 198.156C257.448 198.156 258.378 199.08 258.378 200.221Z" fill="#C4C4C4"/>
<path d="M258.378 183.701C258.378 184.842 257.448 185.766 256.3 185.766C255.152 185.766 254.222 184.842 254.222 183.701C254.222 182.561 255.152 181.636 256.3 181.636C257.448 181.636 258.378 182.561 258.378 183.701Z" fill="#C4C4C4"/>
<path d="M258.378 167.182C258.378 168.322 257.448 169.247 256.3 169.247C255.152 169.247 254.222 168.322 254.222 167.182C254.222 166.041 255.152 165.117 256.3 165.117C257.448 165.117 258.378 166.041 258.378 167.182Z" fill="#C4C4C4"/>
<path d="M258.378 150.662C258.378 151.803 257.448 152.727 256.3 152.727C255.152 152.727 254.222 151.803 254.222 150.662C254.222 149.522 255.152 148.597 256.3 148.597C257.448 148.597 258.378 149.522 258.378 150.662Z" fill="#C4C4C4"/>
<path d="M258.378 134.143C258.378 135.283 257.448 136.208 256.3 136.208C255.152 136.208 254.222 135.283 254.222 134.143C254.222 133.002 255.152 132.078 256.3 132.078C257.448 132.078 258.378 133.002 258.378 134.143Z" fill="#C4C4C4"/>
<path d="M258.378 117.623C258.378 118.764 257.448 119.688 256.3 119.688C255.152 119.688 254.222 118.764 254.222 117.623C254.222 116.483 255.152 115.558 256.3 115.558C257.448 115.558 258.378 116.483 258.378 117.623Z" fill="#C4C4C4"/>
<path d="M258.378 101.104C258.378 102.244 257.448 103.169 256.3 103.169C255.152 103.169 254.222 102.244 254.222 101.104C254.222 99.9635 255.152 99.039 256.3 99.039C257.448 99.039 258.378 99.9635 258.378 101.104Z" fill="#C4C4C4"/>
<path d="M258.378 84.5844C258.378 85.7248 257.448 86.6494 256.3 86.6494C255.152 86.6494 254.222 85.7248 254.222 84.5844C254.222 83.444 255.152 82.5195 256.3 82.5195C257.448 82.5195 258.378 83.444 258.378 84.5844Z" fill="#C4C4C4"/>
<path d="M258.378 68.0649C258.378 69.2054 257.448 70.1299 256.3 70.1299C255.152 70.1299 254.222 69.2054 254.222 68.0649C254.222 66.9245 255.152 66 256.3 66C257.448 66 258.378 66.9245 258.378 68.0649Z" fill="#C4C4C4"/>
<path d="M275 216.74C275 217.881 274.07 218.805 272.922 218.805C271.775 218.805 270.844 217.881 270.844 216.74C270.844 215.6 271.775 214.675 272.922 214.675C274.07 214.675 275 215.6 275 216.74Z" fill="#C4C4C4"/>
<path d="M275 200.221C275 201.361 274.07 202.286 272.922 202.286C271.775 202.286 270.844 201.361 270.844 200.221C270.844 199.08 271.775 198.156 272.922 198.156C274.07 198.156 275 199.08 275 200.221Z" fill="#C4C4C4"/>
<path d="M275 183.701C275 184.842 274.07 185.766 272.922 185.766C271.775 185.766 270.844 184.842 270.844 183.701C270.844 182.561 271.775 181.636 272.922 181.636C274.07 181.636 275 182.561 275 183.701Z" fill="#C4C4C4"/>
<path d="M275 167.182C275 168.322 274.07 169.247 272.922 169.247C271.775 169.247 270.844 168.322 270.844 167.182C270.844 166.041 271.775 165.117 272.922 165.117C274.07 165.117 275 166.041 275 167.182Z" fill="#C4C4C4"/>
<path d="M275 150.662C275 151.803 274.07 152.727 272.922 152.727C271.775 152.727 270.844 151.803 270.844 150.662C270.844 149.522 271.775 148.597 272.922 148.597C274.07 148.597 275 149.522 275 150.662Z" fill="#C4C4C4"/>
<path d="M275 134.143C275 135.283 274.07 136.208 272.922 136.208C271.775 136.208 270.844 135.283 270.844 134.143C270.844 133.002 271.775 132.078 272.922 132.078C274.07 132.078 275 133.002 275 134.143Z" fill="#C4C4C4"/>
<path d="M275 117.623C275 118.764 274.07 119.688 272.922 119.688C271.775 119.688 270.844 118.764 270.844 117.623C270.844 116.483 271.775 115.558 272.922 115.558C274.07 115.558 275 116.483 275 117.623Z" fill="#C4C4C4"/>
<path d="M275 101.104C275 102.244 274.07 103.169 272.922 103.169C271.775 103.169 270.844 102.244 270.844 101.104C270.844 99.9635 271.775 99.039 272.922 99.039C274.07 99.039 275 99.9635 275 101.104Z" fill="#C4C4C4"/>
<path d="M275 84.5844C275 85.7248 274.07 86.6494 272.922 86.6494C271.775 86.6494 270.844 85.7248 270.844 84.5844C270.844 83.444 271.775 82.5195 272.922 82.5195C274.07 82.5195 275 83.444 275 84.5844Z" fill="#C4C4C4"/>
<path d="M275 68.0649C275 69.2054 274.07 70.1299 272.922 70.1299C271.775 70.1299 270.844 69.2054 270.844 68.0649C270.844 66.9245 271.775 66 272.922 66C274.07 66 275 66.9245 275 68.0649Z" fill="#C4C4C4"/>
<path d="M225.133 216.74C225.133 217.881 224.203 218.805 223.056 218.805C221.908 218.805 220.978 217.881 220.978 216.74C220.978 215.6 221.908 214.675 223.056 214.675C224.203 214.675 225.133 215.6 225.133 216.74Z" fill="#C4C4C4"/>
<path d="M225.133 200.221C225.133 201.361 224.203 202.286 223.056 202.286C221.908 202.286 220.978 201.361 220.978 200.221C220.978 199.08 221.908 198.156 223.056 198.156C224.203 198.156 225.133 199.08 225.133 200.221Z" fill="#C4C4C4"/>
<path d="M225.133 183.701C225.133 184.842 224.203 185.766 223.056 185.766C221.908 185.766 220.978 184.842 220.978 183.701C220.978 182.561 221.908 181.636 223.056 181.636C224.203 181.636 225.133 182.561 225.133 183.701Z" fill="#C4C4C4"/>
<path d="M225.133 167.182C225.133 168.322 224.203 169.247 223.056 169.247C221.908 169.247 220.978 168.322 220.978 167.182C220.978 166.041 221.908 165.117 223.056 165.117C224.203 165.117 225.133 166.041 225.133 167.182Z" fill="#C4C4C4"/>
<path d="M225.133 150.662C225.133 151.803 224.203 152.727 223.056 152.727C221.908 152.727 220.978 151.803 220.978 150.662C220.978 149.522 221.908 148.597 223.056 148.597C224.203 148.597 225.133 149.522 225.133 150.662Z" fill="#C4C4C4"/>
<path d="M225.133 134.143C225.133 135.283 224.203 136.208 223.056 136.208C221.908 136.208 220.978 135.283 220.978 134.143C220.978 133.002 221.908 132.078 223.056 132.078C224.203 132.078 225.133 133.002 225.133 134.143Z" fill="#C4C4C4"/>
<path d="M225.133 117.623C225.133 118.764 224.203 119.688 223.056 119.688C221.908 119.688 220.978 118.764 220.978 117.623C220.978 116.483 221.908 115.558 223.056 115.558C224.203 115.558 225.133 116.483 225.133 117.623Z" fill="#C4C4C4"/>
<path d="M225.133 101.104C225.133 102.244 224.203 103.169 223.056 103.169C221.908 103.169 220.978 102.244 220.978 101.104C220.978 99.9635 221.908 99.039 223.056 99.039C224.203 99.039 225.133 99.9635 225.133 101.104Z" fill="#C4C4C4"/>
<path d="M225.133 84.5844C225.133 85.7248 224.203 86.6494 223.056 86.6494C221.908 86.6494 220.978 85.7248 220.978 84.5844C220.978 83.444 221.908 82.5195 223.056 82.5195C224.203 82.5195 225.133 83.444 225.133 84.5844Z" fill="#C4C4C4"/>
<path d="M225.133 68.0649C225.133 69.2054 224.203 70.1299 223.056 70.1299C221.908 70.1299 220.978 69.2054 220.978 68.0649C220.978 66.9245 221.908 66 223.056 66C224.203 66 225.133 66.9245 225.133 68.0649Z" fill="#C4C4C4"/>
<path d="M241.756 216.74C241.756 217.881 240.825 218.805 239.678 218.805C238.53 218.805 237.6 217.881 237.6 216.74C237.6 215.6 238.53 214.675 239.678 214.675C240.825 214.675 241.756 215.6 241.756 216.74Z" fill="#C4C4C4"/>
<path d="M241.756 200.221C241.756 201.361 240.825 202.286 239.678 202.286C238.53 202.286 237.6 201.361 237.6 200.221C237.6 199.08 238.53 198.156 239.678 198.156C240.825 198.156 241.756 199.08 241.756 200.221Z" fill="#C4C4C4"/>
<path d="M241.756 183.701C241.756 184.842 240.825 185.766 239.678 185.766C238.53 185.766 237.6 184.842 237.6 183.701C237.6 182.561 238.53 181.636 239.678 181.636C240.825 181.636 241.756 182.561 241.756 183.701Z" fill="#C4C4C4"/>
<path d="M241.756 167.182C241.756 168.322 240.825 169.247 239.678 169.247C238.53 169.247 237.6 168.322 237.6 167.182C237.6 166.041 238.53 165.117 239.678 165.117C240.825 165.117 241.756 166.041 241.756 167.182Z" fill="#C4C4C4"/>
<path d="M241.756 150.662C241.756 151.803 240.825 152.727 239.678 152.727C238.53 152.727 237.6 151.803 237.6 150.662C237.6 149.522 238.53 148.597 239.678 148.597C240.825 148.597 241.756 149.522 241.756 150.662Z" fill="#C4C4C4"/>
<path d="M241.756 134.143C241.756 135.283 240.825 136.208 239.678 136.208C238.53 136.208 237.6 135.283 237.6 134.143C237.6 133.002 238.53 132.078 239.678 132.078C240.825 132.078 241.756 133.002 241.756 134.143Z" fill="#C4C4C4"/>
<path d="M241.756 117.623C241.756 118.764 240.825 119.688 239.678 119.688C238.53 119.688 237.6 118.764 237.6 117.623C237.6 116.483 238.53 115.558 239.678 115.558C240.825 115.558 241.756 116.483 241.756 117.623Z" fill="#C4C4C4"/>
<path d="M241.756 101.104C241.756 102.244 240.825 103.169 239.678 103.169C238.53 103.169 237.6 102.244 237.6 101.104C237.6 99.9635 238.53 99.039 239.678 99.039C240.825 99.039 241.756 99.9635 241.756 101.104Z" fill="#C4C4C4"/>
<path d="M241.756 84.5844C241.756 85.7248 240.825 86.6494 239.678 86.6494C238.53 86.6494 237.6 85.7248 237.6 84.5844C237.6 83.444 238.53 82.5195 239.678 82.5195C240.825 82.5195 241.756 83.444 241.756 84.5844Z" fill="#C4C4C4"/>
<path d="M241.756 68.0649C241.756 69.2054 240.825 70.1299 239.678 70.1299C238.53 70.1299 237.6 69.2054 237.6 68.0649C237.6 66.9245 238.53 66 239.678 66C240.825 66 241.756 66.9245 241.756 68.0649Z" fill="#C4C4C4"/>
<path d="M191.889 216.74C191.889 217.881 190.959 218.805 189.811 218.805C188.664 218.805 187.733 217.881 187.733 216.74C187.733 215.6 188.664 214.675 189.811 214.675C190.959 214.675 191.889 215.6 191.889 216.74Z" fill="#C4C4C4"/>
<path d="M191.889 200.221C191.889 201.361 190.959 202.286 189.811 202.286C188.664 202.286 187.733 201.361 187.733 200.221C187.733 199.08 188.664 198.156 189.811 198.156C190.959 198.156 191.889 199.08 191.889 200.221Z" fill="#C4C4C4"/>
<path d="M191.889 183.701C191.889 184.842 190.959 185.766 189.811 185.766C188.664 185.766 187.733 184.842 187.733 183.701C187.733 182.561 188.664 181.636 189.811 181.636C190.959 181.636 191.889 182.561 191.889 183.701Z" fill="#C4C4C4"/>
<path d="M191.889 167.182C191.889 168.322 190.959 169.247 189.811 169.247C188.664 169.247 187.733 168.322 187.733 167.182C187.733 166.041 188.664 165.117 189.811 165.117C190.959 165.117 191.889 166.041 191.889 167.182Z" fill="#C4C4C4"/>
<path d="M191.889 150.662C191.889 151.803 190.959 152.727 189.811 152.727C188.664 152.727 187.733 151.803 187.733 150.662C187.733 149.522 188.664 148.597 189.811 148.597C190.959 148.597 191.889 149.522 191.889 150.662Z" fill="#C4C4C4"/>
<path d="M191.889 134.143C191.889 135.283 190.959 136.208 189.811 136.208C188.664 136.208 187.733 135.283 187.733 134.143C187.733 133.002 188.664 132.078 189.811 132.078C190.959 132.078 191.889 133.002 191.889 134.143Z" fill="#C4C4C4"/>
<path d="M191.889 117.623C191.889 118.764 190.959 119.688 189.811 119.688C188.664 119.688 187.733 118.764 187.733 117.623C187.733 116.483 188.664 115.558 189.811 115.558C190.959 115.558 191.889 116.483 191.889 117.623Z" fill="#C4C4C4"/>
<path d="M191.889 101.104C191.889 102.244 190.959 103.169 189.811 103.169C188.664 103.169 187.733 102.244 187.733 101.104C187.733 99.9635 188.664 99.039 189.811 99.039C190.959 99.039 191.889 99.9635 191.889 101.104Z" fill="#C4C4C4"/>
<path d="M191.889 84.5844C191.889 85.7248 190.959 86.6494 189.811 86.6494C188.664 86.6494 187.733 85.7248 187.733 84.5844C187.733 83.444 188.664 82.5195 189.811 82.5195C190.959 82.5195 191.889 83.444 191.889 84.5844Z" fill="#C4C4C4"/>
<path d="M191.889 68.0649C191.889 69.2054 190.959 70.1299 189.811 70.1299C188.664 70.1299 187.733 69.2054 187.733 68.0649C187.733 66.9245 188.664 66 189.811 66C190.959 66 191.889 66.9245 191.889 68.0649Z" fill="#C4C4C4"/>
<path d="M208.511 216.74C208.511 217.881 207.581 218.805 206.433 218.805C205.286 218.805 204.356 217.881 204.356 216.74C204.356 215.6 205.286 214.675 206.433 214.675C207.581 214.675 208.511 215.6 208.511 216.74Z" fill="#C4C4C4"/>
<path d="M208.511 200.221C208.511 201.361 207.581 202.286 206.433 202.286C205.286 202.286 204.356 201.361 204.356 200.221C204.356 199.08 205.286 198.156 206.433 198.156C207.581 198.156 208.511 199.08 208.511 200.221Z" fill="#C4C4C4"/>
<path d="M208.511 183.701C208.511 184.842 207.581 185.766 206.433 185.766C205.286 185.766 204.356 184.842 204.356 183.701C204.356 182.561 205.286 181.636 206.433 181.636C207.581 181.636 208.511 182.561 208.511 183.701Z" fill="#C4C4C4"/>
<path d="M208.511 167.182C208.511 168.322 207.581 169.247 206.433 169.247C205.286 169.247 204.356 168.322 204.356 167.182C204.356 166.041 205.286 165.117 206.433 165.117C207.581 165.117 208.511 166.041 208.511 167.182Z" fill="#C4C4C4"/>
<path d="M208.511 150.662C208.511 151.803 207.581 152.727 206.433 152.727C205.286 152.727 204.356 151.803 204.356 150.662C204.356 149.522 205.286 148.597 206.433 148.597C207.581 148.597 208.511 149.522 208.511 150.662Z" fill="#C4C4C4"/>
<path d="M208.511 134.143C208.511 135.283 207.581 136.208 206.433 136.208C205.286 136.208 204.356 135.283 204.356 134.143C204.356 133.002 205.286 132.078 206.433 132.078C207.581 132.078 208.511 133.002 208.511 134.143Z" fill="#C4C4C4"/>
<path d="M208.511 117.623C208.511 118.764 207.581 119.688 206.433 119.688C205.286 119.688 204.356 118.764 204.356 117.623C204.356 116.483 205.286 115.558 206.433 115.558C207.581 115.558 208.511 116.483 208.511 117.623Z" fill="#C4C4C4"/>
<path d="M208.511 101.104C208.511 102.244 207.581 103.169 206.433 103.169C205.286 103.169 204.356 102.244 204.356 101.104C204.356 99.9635 205.286 99.039 206.433 99.039C207.581 99.039 208.511 99.9635 208.511 101.104Z" fill="#C4C4C4"/>
<path d="M208.511 84.5844C208.511 85.7248 207.581 86.6494 206.433 86.6494C205.286 86.6494 204.356 85.7248 204.356 84.5844C204.356 83.444 205.286 82.5195 206.433 82.5195C207.581 82.5195 208.511 83.444 208.511 84.5844Z" fill="#C4C4C4"/>
<path d="M208.511 68.0649C208.511 69.2054 207.581 70.1299 206.433 70.1299C205.286 70.1299 204.356 69.2054 204.356 68.0649C204.356 66.9245 205.286 66 206.433 66C207.581 66 208.511 66.9245 208.511 68.0649Z" fill="#C4C4C4"/>
<path d="M158.644 216.74C158.644 217.881 157.714 218.805 156.567 218.805C155.419 218.805 154.489 217.881 154.489 216.74C154.489 215.6 155.419 214.675 156.567 214.675C157.714 214.675 158.644 215.6 158.644 216.74Z" fill="#C4C4C4"/>
<path d="M158.644 200.221C158.644 201.361 157.714 202.286 156.567 202.286C155.419 202.286 154.489 201.361 154.489 200.221C154.489 199.08 155.419 198.156 156.567 198.156C157.714 198.156 158.644 199.08 158.644 200.221Z" fill="#C4C4C4"/>
<path d="M158.644 183.701C158.644 184.842 157.714 185.766 156.567 185.766C155.419 185.766 154.489 184.842 154.489 183.701C154.489 182.561 155.419 181.636 156.567 181.636C157.714 181.636 158.644 182.561 158.644 183.701Z" fill="#C4C4C4"/>
<path d="M158.644 167.182C158.644 168.322 157.714 169.247 156.567 169.247C155.419 169.247 154.489 168.322 154.489 167.182C154.489 166.041 155.419 165.117 156.567 165.117C157.714 165.117 158.644 166.041 158.644 167.182Z" fill="#C4C4C4"/>
<path d="M158.644 150.662C158.644 151.803 157.714 152.727 156.567 152.727C155.419 152.727 154.489 151.803 154.489 150.662C154.489 149.522 155.419 148.597 156.567 148.597C157.714 148.597 158.644 149.522 158.644 150.662Z" fill="#C4C4C4"/>
<path d="M158.644 134.143C158.644 135.283 157.714 136.208 156.567 136.208C155.419 136.208 154.489 135.283 154.489 134.143C154.489 133.002 155.419 132.078 156.567 132.078C157.714 132.078 158.644 133.002 158.644 134.143Z" fill="#C4C4C4"/>
<path d="M158.644 117.623C158.644 118.764 157.714 119.688 156.567 119.688C155.419 119.688 154.489 118.764 154.489 117.623C154.489 116.483 155.419 115.558 156.567 115.558C157.714 115.558 158.644 116.483 158.644 117.623Z" fill="#C4C4C4"/>
<path d="M158.644 101.104C158.644 102.244 157.714 103.169 156.567 103.169C155.419 103.169 154.489 102.244 154.489 101.104C154.489 99.9635 155.419 99.039 156.567 99.039C157.714 99.039 158.644 99.9635 158.644 101.104Z" fill="#C4C4C4"/>
<path d="M158.644 84.5844C158.644 85.7248 157.714 86.6494 156.567 86.6494C155.419 86.6494 154.489 85.7248 154.489 84.5844C154.489 83.444 155.419 82.5195 156.567 82.5195C157.714 82.5195 158.644 83.444 158.644 84.5844Z" fill="#C4C4C4"/>
<path d="M158.644 68.0649C158.644 69.2054 157.714 70.1299 156.567 70.1299C155.419 70.1299 154.489 69.2054 154.489 68.0649C154.489 66.9245 155.419 66 156.567 66C157.714 66 158.644 66.9245 158.644 68.0649Z" fill="#C4C4C4"/>
<path d="M175.267 216.74C175.267 217.881 174.336 218.805 173.189 218.805C172.041 218.805 171.111 217.881 171.111 216.74C171.111 215.6 172.041 214.675 173.189 214.675C174.336 214.675 175.267 215.6 175.267 216.74Z" fill="#C4C4C4"/>
<path d="M175.267 200.221C175.267 201.361 174.336 202.286 173.189 202.286C172.041 202.286 171.111 201.361 171.111 200.221C171.111 199.08 172.041 198.156 173.189 198.156C174.336 198.156 175.267 199.08 175.267 200.221Z" fill="#C4C4C4"/>
<path d="M175.267 183.701C175.267 184.842 174.336 185.766 173.189 185.766C172.041 185.766 171.111 184.842 171.111 183.701C171.111 182.561 172.041 181.636 173.189 181.636C174.336 181.636 175.267 182.561 175.267 183.701Z" fill="#C4C4C4"/>
<path d="M175.267 167.182C175.267 168.322 174.336 169.247 173.189 169.247C172.041 169.247 171.111 168.322 171.111 167.182C171.111 166.041 172.041 165.117 173.189 165.117C174.336 165.117 175.267 166.041 175.267 167.182Z" fill="#C4C4C4"/>
<path d="M175.267 150.662C175.267 151.803 174.336 152.727 173.189 152.727C172.041 152.727 171.111 151.803 171.111 150.662C171.111 149.522 172.041 148.597 173.189 148.597C174.336 148.597 175.267 149.522 175.267 150.662Z" fill="#C4C4C4"/>
<path d="M175.267 134.143C175.267 135.283 174.336 136.208 173.189 136.208C172.041 136.208 171.111 135.283 171.111 134.143C171.111 133.002 172.041 132.078 173.189 132.078C174.336 132.078 175.267 133.002 175.267 134.143Z" fill="#C4C4C4"/>
<path d="M175.267 117.623C175.267 118.764 174.336 119.688 173.189 119.688C172.041 119.688 171.111 118.764 171.111 117.623C171.111 116.483 172.041 115.558 173.189 115.558C174.336 115.558 175.267 116.483 175.267 117.623Z" fill="#C4C4C4"/>
<path d="M175.267 101.104C175.267 102.244 174.336 103.169 173.189 103.169C172.041 103.169 171.111 102.244 171.111 101.104C171.111 99.9635 172.041 99.039 173.189 99.039C174.336 99.039 175.267 99.9635 175.267 101.104Z" fill="#C4C4C4"/>
<path d="M175.267 84.5844C175.267 85.7248 174.336 86.6494 173.189 86.6494C172.041 86.6494 171.111 85.7248 171.111 84.5844C171.111 83.444 172.041 82.5195 173.189 82.5195C174.336 82.5195 175.267 83.444 175.267 84.5844Z" fill="#C4C4C4"/>
<path d="M175.267 68.0649C175.267 69.2054 174.336 70.1299 173.189 70.1299C172.041 70.1299 171.111 69.2054 171.111 68.0649C171.111 66.9245 172.041 66 173.189 66C174.336 66 175.267 66.9245 175.267 68.0649Z" fill="#C4C4C4"/>
<path d="M125.4 216.74C125.4 217.881 124.47 218.805 123.322 218.805C122.175 218.805 121.244 217.881 121.244 216.74C121.244 215.6 122.175 214.675 123.322 214.675C124.47 214.675 125.4 215.6 125.4 216.74Z" fill="#C4C4C4"/>
<path d="M125.4 200.221C125.4 201.361 124.47 202.286 123.322 202.286C122.175 202.286 121.244 201.361 121.244 200.221C121.244 199.08 122.175 198.156 123.322 198.156C124.47 198.156 125.4 199.08 125.4 200.221Z" fill="#C4C4C4"/>
<path d="M125.4 183.701C125.4 184.842 124.47 185.766 123.322 185.766C122.175 185.766 121.244 184.842 121.244 183.701C121.244 182.561 122.175 181.636 123.322 181.636C124.47 181.636 125.4 182.561 125.4 183.701Z" fill="#C4C4C4"/>
<path d="M125.4 167.182C125.4 168.322 124.47 169.247 123.322 169.247C122.175 169.247 121.244 168.322 121.244 167.182C121.244 166.041 122.175 165.117 123.322 165.117C124.47 165.117 125.4 166.041 125.4 167.182Z" fill="#C4C4C4"/>
<path d="M125.4 150.662C125.4 151.803 124.47 152.727 123.322 152.727C122.175 152.727 121.244 151.803 121.244 150.662C121.244 149.522 122.175 148.597 123.322 148.597C124.47 148.597 125.4 149.522 125.4 150.662Z" fill="#C4C4C4"/>
<path d="M125.4 134.143C125.4 135.283 124.47 136.208 123.322 136.208C122.175 136.208 121.244 135.283 121.244 134.143C121.244 133.002 122.175 132.078 123.322 132.078C124.47 132.078 125.4 133.002 125.4 134.143Z" fill="#C4C4C4"/>
<path d="M125.4 117.623C125.4 118.764 124.47 119.688 123.322 119.688C122.175 119.688 121.244 118.764 121.244 117.623C121.244 116.483 122.175 115.558 123.322 115.558C124.47 115.558 125.4 116.483 125.4 117.623Z" fill="#C4C4C4"/>
<path d="M125.4 101.104C125.4 102.244 124.47 103.169 123.322 103.169C122.175 103.169 121.244 102.244 121.244 101.104C121.244 99.9635 122.175 99.039 123.322 99.039C124.47 99.039 125.4 99.9635 125.4 101.104Z" fill="#C4C4C4"/>
<path d="M125.4 84.5844C125.4 85.7248 124.47 86.6494 123.322 86.6494C122.175 86.6494 121.244 85.7248 121.244 84.5844C121.244 83.444 122.175 82.5195 123.322 82.5195C124.47 82.5195 125.4 83.444 125.4 84.5844Z" fill="#C4C4C4"/>
<path d="M125.4 68.0649C125.4 69.2054 124.47 70.1299 123.322 70.1299C122.175 70.1299 121.244 69.2054 121.244 68.0649C121.244 66.9245 122.175 66 123.322 66C124.47 66 125.4 66.9245 125.4 68.0649Z" fill="#C4C4C4"/>
<path d="M142.022 216.74C142.022 217.881 141.092 218.805 139.944 218.805C138.797 218.805 137.867 217.881 137.867 216.74C137.867 215.6 138.797 214.675 139.944 214.675C141.092 214.675 142.022 215.6 142.022 216.74Z" fill="#C4C4C4"/>
<path d="M142.022 200.221C142.022 201.361 141.092 202.286 139.944 202.286C138.797 202.286 137.867 201.361 137.867 200.221C137.867 199.08 138.797 198.156 139.944 198.156C141.092 198.156 142.022 199.08 142.022 200.221Z" fill="#C4C4C4"/>
<path d="M142.022 183.701C142.022 184.842 141.092 185.766 139.944 185.766C138.797 185.766 137.867 184.842 137.867 183.701C137.867 182.561 138.797 181.636 139.944 181.636C141.092 181.636 142.022 182.561 142.022 183.701Z" fill="#C4C4C4"/>
<path d="M142.022 167.182C142.022 168.322 141.092 169.247 139.944 169.247C138.797 169.247 137.867 168.322 137.867 167.182C137.867 166.041 138.797 165.117 139.944 165.117C141.092 165.117 142.022 166.041 142.022 167.182Z" fill="#C4C4C4"/>
<path d="M142.022 150.662C142.022 151.803 141.092 152.727 139.944 152.727C138.797 152.727 137.867 151.803 137.867 150.662C137.867 149.522 138.797 148.597 139.944 148.597C141.092 148.597 142.022 149.522 142.022 150.662Z" fill="#C4C4C4"/>
<path d="M142.022 134.143C142.022 135.283 141.092 136.208 139.944 136.208C138.797 136.208 137.867 135.283 137.867 134.143C137.867 133.002 138.797 132.078 139.944 132.078C141.092 132.078 142.022 133.002 142.022 134.143Z" fill="#C4C4C4"/>
<path d="M142.022 117.623C142.022 118.764 141.092 119.688 139.944 119.688C138.797 119.688 137.867 118.764 137.867 117.623C137.867 116.483 138.797 115.558 139.944 115.558C141.092 115.558 142.022 116.483 142.022 117.623Z" fill="#C4C4C4"/>
<path d="M142.022 101.104C142.022 102.244 141.092 103.169 139.944 103.169C138.797 103.169 137.867 102.244 137.867 101.104C137.867 99.9635 138.797 99.039 139.944 99.039C141.092 99.039 142.022 99.9635 142.022 101.104Z" fill="#C4C4C4"/>
<path d="M142.022 84.5844C142.022 85.7248 141.092 86.6494 139.944 86.6494C138.797 86.6494 137.867 85.7248 137.867 84.5844C137.867 83.444 138.797 82.5195 139.944 82.5195C141.092 82.5195 142.022 83.444 142.022 84.5844Z" fill="#C4C4C4"/>
<path d="M142.022 68.0649C142.022 69.2054 141.092 70.1299 139.944 70.1299C138.797 70.1299 137.867 69.2054 137.867 68.0649C137.867 66.9245 138.797 66 139.944 66C141.092 66 142.022 66.9245 142.022 68.0649Z" fill="#C4C4C4"/>
<path d="M92.1556 216.74C92.1556 217.881 91.2253 218.805 90.0778 218.805C88.9303 218.805 88 217.881 88 216.74C88 215.6 88.9303 214.675 90.0778 214.675C91.2253 214.675 92.1556 215.6 92.1556 216.74Z" fill="#C4C4C4"/>
<path d="M92.1556 200.221C92.1556 201.361 91.2253 202.286 90.0778 202.286C88.9303 202.286 88 201.361 88 200.221C88 199.08 88.9303 198.156 90.0778 198.156C91.2253 198.156 92.1556 199.08 92.1556 200.221Z" fill="#C4C4C4"/>
<path d="M92.1556 183.701C92.1556 184.842 91.2253 185.766 90.0778 185.766C88.9303 185.766 88 184.842 88 183.701C88 182.561 88.9303 181.636 90.0778 181.636C91.2253 181.636 92.1556 182.561 92.1556 183.701Z" fill="#C4C4C4"/>
<path d="M92.1556 167.182C92.1556 168.322 91.2253 169.247 90.0778 169.247C88.9303 169.247 88 168.322 88 167.182C88 166.041 88.9303 165.117 90.0778 165.117C91.2253 165.117 92.1556 166.041 92.1556 167.182Z" fill="#C4C4C4"/>
<path d="M92.1556 150.662C92.1556 151.803 91.2253 152.727 90.0778 152.727C88.9303 152.727 88 151.803 88 150.662C88 149.522 88.9303 148.597 90.0778 148.597C91.2253 148.597 92.1556 149.522 92.1556 150.662Z" fill="#C4C4C4"/>
<path d="M92.1556 134.143C92.1556 135.283 91.2253 136.208 90.0778 136.208C88.9303 136.208 88 135.283 88 134.143C88 133.002 88.9303 132.078 90.0778 132.078C91.2253 132.078 92.1556 133.002 92.1556 134.143Z" fill="#C4C4C4"/>
<path d="M92.1556 117.623C92.1556 118.764 91.2253 119.688 90.0778 119.688C88.9303 119.688 88 118.764 88 117.623C88 116.483 88.9303 115.558 90.0778 115.558C91.2253 115.558 92.1556 116.483 92.1556 117.623Z" fill="#C4C4C4"/>
<path d="M92.1556 101.104C92.1556 102.244 91.2253 103.169 90.0778 103.169C88.9303 103.169 88 102.244 88 101.104C88 99.9635 88.9303 99.039 90.0778 99.039C91.2253 99.039 92.1556 99.9635 92.1556 101.104Z" fill="#C4C4C4"/>
<path d="M92.1556 84.5844C92.1556 85.7248 91.2253 86.6494 90.0778 86.6494C88.9303 86.6494 88 85.7248 88 84.5844C88 83.444 88.9303 82.5195 90.0778 82.5195C91.2253 82.5195 92.1556 83.444 92.1556 84.5844Z" fill="#C4C4C4"/>
<path d="M92.1556 68.0649C92.1556 69.2054 91.2253 70.1299 90.0778 70.1299C88.9303 70.1299 88 69.2054 88 68.0649C88 66.9245 88.9303 66 90.0778 66C91.2253 66 92.1556 66.9245 92.1556 68.0649Z" fill="#C4C4C4"/>
<path d="M108.778 216.74C108.778 217.881 107.848 218.805 106.7 218.805C105.552 218.805 104.622 217.881 104.622 216.74C104.622 215.6 105.552 214.675 106.7 214.675C107.848 214.675 108.778 215.6 108.778 216.74Z" fill="#C4C4C4"/>
<path d="M108.778 200.221C108.778 201.361 107.848 202.286 106.7 202.286C105.552 202.286 104.622 201.361 104.622 200.221C104.622 199.08 105.552 198.156 106.7 198.156C107.848 198.156 108.778 199.08 108.778 200.221Z" fill="#C4C4C4"/>
<path d="M108.778 183.701C108.778 184.842 107.848 185.766 106.7 185.766C105.552 185.766 104.622 184.842 104.622 183.701C104.622 182.561 105.552 181.636 106.7 181.636C107.848 181.636 108.778 182.561 108.778 183.701Z" fill="#C4C4C4"/>
<path d="M108.778 167.182C108.778 168.322 107.848 169.247 106.7 169.247C105.552 169.247 104.622 168.322 104.622 167.182C104.622 166.041 105.552 165.117 106.7 165.117C107.848 165.117 108.778 166.041 108.778 167.182Z" fill="#C4C4C4"/>
<path d="M108.778 150.662C108.778 151.803 107.848 152.727 106.7 152.727C105.552 152.727 104.622 151.803 104.622 150.662C104.622 149.522 105.552 148.597 106.7 148.597C107.848 148.597 108.778 149.522 108.778 150.662Z" fill="#C4C4C4"/>
<path d="M108.778 134.143C108.778 135.283 107.848 136.208 106.7 136.208C105.552 136.208 104.622 135.283 104.622 134.143C104.622 133.002 105.552 132.078 106.7 132.078C107.848 132.078 108.778 133.002 108.778 134.143Z" fill="#C4C4C4"/>
<path d="M108.778 117.623C108.778 118.764 107.848 119.688 106.7 119.688C105.552 119.688 104.622 118.764 104.622 117.623C104.622 116.483 105.552 115.558 106.7 115.558C107.848 115.558 108.778 116.483 108.778 117.623Z" fill="#C4C4C4"/>
<path d="M108.778 101.104C108.778 102.244 107.848 103.169 106.7 103.169C105.552 103.169 104.622 102.244 104.622 101.104C104.622 99.9635 105.552 99.039 106.7 99.039C107.848 99.039 108.778 99.9635 108.778 101.104Z" fill="#C4C4C4"/>
<path d="M108.778 84.5844C108.778 85.7248 107.848 86.6494 106.7 86.6494C105.552 86.6494 104.622 85.7248 104.622 84.5844C104.622 83.444 105.552 82.5195 106.7 82.5195C107.848 82.5195 108.778 83.444 108.778 84.5844Z" fill="#C4C4C4"/>
<path d="M108.778 68.0649C108.778 69.2054 107.848 70.1299 106.7 70.1299C105.552 70.1299 104.622 69.2054 104.622 68.0649C104.622 66.9245 105.552 66 106.7 66C107.848 66 108.778 66.9245 108.778 68.0649Z" fill="#C4C4C4"/>
</g>
<rect width="213" height="354" rx="6" fill="#F4F5FA"/>
<line x1="193" y1="208.5" x2="20" y2="208.5" stroke="#D9E2EC"/>
<g filter="url(#filter0_d)">
<rect x="53" y="72" width="110" height="255" rx="6" fill="white"/>
</g>
<path d="M53 78C53 74.6863 55.6863 72 59 72H157C160.314 72 163 74.6863 163 78V99H53V78Z" fill="#2C4CE8"/>
<path d="M90.9963 89H96.1099V88.0625H92.0531V80.2727H90.9963V89ZM100.754 89.1364C102.084 89.1364 103.055 88.4716 103.362 87.483L102.391 87.2102C102.135 87.892 101.543 88.233 100.754 88.233C99.5738 88.233 98.7599 87.4702 98.713 86.0682H103.464V85.642C103.464 83.2045 102.016 82.3693 100.652 82.3693C98.8792 82.3693 97.7031 83.767 97.7031 85.7784C97.7031 87.7898 98.8622 89.1364 100.754 89.1364ZM98.713 85.1989C98.7812 84.1804 99.5014 83.2727 100.652 83.2727C101.743 83.2727 102.442 84.0909 102.442 85.1989H98.713ZM107.32 89.1534C108.462 89.1534 109.059 88.5398 109.264 88.1136H109.315V89H110.32V84.6875C110.32 82.608 108.735 82.3693 107.9 82.3693C106.911 82.3693 105.786 82.7102 105.275 83.9034L106.23 84.2443C106.451 83.767 106.975 83.2557 107.934 83.2557C108.859 83.2557 109.315 83.7457 109.315 84.5852V84.6193C109.315 85.1051 108.82 85.0625 107.627 85.2159C106.413 85.3736 105.087 85.642 105.087 87.142C105.087 88.4205 106.076 89.1534 107.32 89.1534ZM107.474 88.25C106.673 88.25 106.093 87.892 106.093 87.1932C106.093 86.4261 106.792 86.1875 107.576 86.0852C108.002 86.0341 109.144 85.9148 109.315 85.7102V86.6307C109.315 87.4489 108.667 88.25 107.474 88.25ZM112.556 89H113.562V84.858C113.562 83.9759 114.261 83.3239 115.215 83.3239C115.467 83.3239 115.654 83.3707 115.795 83.4432L116.136 82.5909C115.931 82.446 115.663 82.3523 115.3 82.3523C114.508 82.3523 113.83 82.7955 113.596 83.4432H113.528V82.4545H112.556V89ZM118.567 85.0625C118.567 83.9205 119.275 83.2727 120.238 83.2727C121.171 83.2727 121.738 83.8821 121.738 84.9091V89H122.743V84.8409C122.743 83.1705 121.853 82.3693 120.527 82.3693C119.539 82.3693 118.925 82.8125 118.618 83.4773H118.533V82.4545H117.561V89H118.567V85.0625Z" fill="#EDEFFD"/>
<rect x="65" y="114" width="86" height="188" rx="6" fill="#C6F7E2"/>
<path d="M95.5022 206.089C96.9596 206.089 97.9504 205.14 97.9472 203.817C97.9504 202.564 97.0747 201.663 95.8953 201.663C95.32 201.663 94.8247 201.903 94.5945 202.225H94.5562L94.7256 200.586H97.586V199.455H93.5846L93.2746 202.906L94.5051 203.127C94.7064 202.855 95.0963 202.686 95.483 202.686C96.1414 202.689 96.6144 203.165 96.6144 203.852C96.6144 204.533 96.151 205.003 95.5022 205.003C94.9525 205.003 94.5083 204.658 94.4763 204.15H93.134C93.1595 205.281 94.1471 206.089 95.5022 206.089ZM103.662 206L104.148 204.507H106.51L106.995 206H108.478L106.222 199.455H104.439L102.179 206H103.662ZM104.499 203.427L105.305 200.95H105.356L106.161 203.427H104.499ZM115.484 201.746C115.302 200.234 114.157 199.365 112.642 199.365C110.913 199.365 109.593 200.586 109.593 202.727C109.593 204.862 110.891 206.089 112.642 206.089C114.32 206.089 115.334 204.974 115.484 203.769L114.084 203.763C113.953 204.463 113.403 204.865 112.665 204.865C111.671 204.865 110.997 204.127 110.997 202.727C110.997 201.366 111.661 200.589 112.674 200.589C113.432 200.589 113.978 201.027 114.084 201.746H115.484ZM116.977 200.596H118.981V206H120.349V200.596H122.353V199.455H116.977V200.596ZM81.2477 210.455H79.8638V217H81.2477V210.455ZM88.6111 210.455H87.2336V214.571H87.176L84.3508 210.455H83.1363V217H84.5202V212.88H84.5681L87.4157 217H88.6111V210.455ZM90.2551 211.596H92.2591V217H93.627V211.596H95.6309V210.455H90.2551V211.596ZM97.2662 217H101.689V215.859H98.65V214.296H101.45V213.155H98.65V211.596H101.677V210.455H97.2662V217ZM103.527 217H104.911V214.68H105.921L107.161 217H108.688L107.298 214.456C108.043 214.136 108.455 213.488 108.455 212.593C108.455 211.292 107.595 210.455 106.109 210.455H103.527V217ZM104.911 213.567V211.586H105.844C106.643 211.586 107.03 211.941 107.03 212.593C107.03 213.241 106.643 213.567 105.85 213.567H104.911ZM111.366 210.455H109.828L112.088 217H113.871L116.128 210.455H114.594L113.008 215.428H112.948L111.366 210.455ZM119.049 210.455H117.666V217H119.049V210.455ZM120.938 217H125.361V215.859H122.322V214.296H125.122V213.155H122.322V211.596H125.349V210.455H120.938V217ZM128.672 217H130.021L131.264 212.721H131.315L132.562 217H133.91L135.783 210.455H134.272L133.188 215.012H133.131L131.938 210.455H130.644L129.449 215.002H129.394L128.311 210.455H126.799L128.672 217Z" fill="#189473"/>
<path d="M80.4582 42H82.6109V37.794H86.7522V36.0192H82.6109V33.593H87.1997V31.8182H80.4582V42ZM89.3976 42H91.5503V38.3906H93.1214L95.0503 42H97.4268L95.2641 38.0426C96.4225 37.5455 97.0638 36.5362 97.0638 35.1442C97.0638 33.1207 95.7265 31.8182 93.4147 31.8182H89.3976V42ZM91.5503 36.6605V33.5781H93.002C94.2449 33.5781 94.8465 34.13 94.8465 35.1442C94.8465 36.1534 94.2449 36.6605 93.012 36.6605H91.5503ZM101.488 31.8182H99.3351V42H101.488V31.8182ZM107.618 42C110.721 42 112.6 40.081 112.6 36.8991C112.6 33.7273 110.721 31.8182 107.648 31.8182H104.009V42H107.618ZM106.162 40.1555V33.6626H107.534C109.443 33.6626 110.452 34.6371 110.452 36.8991C110.452 39.1712 109.443 40.1555 107.529 40.1555H106.162ZM115.989 42L116.744 39.6783H120.418L121.174 42H123.481L119.971 31.8182H117.197L113.682 42H115.989ZM117.291 37.9979L118.544 34.1449H118.623L119.876 37.9979H117.291ZM123.821 31.8182L127.534 38.4006V42H129.672V38.4006L133.386 31.8182H130.975L128.653 36.2031H128.554L126.232 31.8182H123.821Z" fill="#486582"/>
<defs>
<filter id="filter0_d" x="50" y="70" width="116" height="261" filterUnits="userSpaceOnUse" color-interpolation-filters="sRGB">
<feFlood flood-opacity="0" result="BackgroundImageFix"/>
<feColorMatrix in="SourceAlpha" type="matrix" values="0 0 0 0 0 0 0 0 0 0 0 0 0 0 0 0 0 0 127 0"/>
<feOffset dy="1"/>
<feGaussianBlur stdDeviation="1.5"/>
<feColorMatrix type="matrix" values="0 0 0 0 0 0 0 0 0 0 0 0 0 0 0 0 0 0 0.2 0"/>
<feBlend mode="multiply" in2="BackgroundImageFix" result="effect1_dropShadow"/>
<feBlend mode="normal" in="SourceGraphic" in2="effect1_dropShadow" result="shape"/>
</filter>
</defs>
</svg>
