<svg width="221" height="244" viewBox="0 0 221 244" fill="none" xmlns="http://www.w3.org/2000/svg">
<g opacity="0.5">
<path d="M153.141 125.996C153.693 125.993 154.144 126.437 154.148 126.988C154.151 127.54 153.707 127.99 153.154 127.994C152.601 127.998 152.15 127.553 152.147 127.002C152.143 126.45 152.588 126 153.141 125.996Z" fill="#9FB3C8"/>
<path d="M145.136 126.05C145.689 126.046 146.14 126.49 146.143 127.042C146.147 127.593 145.702 128.043 145.149 128.047C144.597 128.051 144.146 127.607 144.142 127.055C144.138 126.503 144.583 126.053 145.136 126.05Z" fill="#9FB3C8"/>
<path d="M137.131 126.103C137.684 126.099 138.135 126.543 138.139 127.095C138.142 127.646 137.697 128.097 137.145 128.1C136.592 128.104 136.141 127.66 136.138 127.108C136.134 126.557 136.579 126.107 137.131 126.103Z" fill="#9FB3C8"/>
<path d="M129.127 126.156C129.679 126.152 130.13 126.597 130.134 127.148C130.138 127.7 129.693 128.15 129.14 128.154C128.588 128.157 128.137 127.713 128.133 127.161C128.129 126.61 128.574 126.16 129.127 126.156Z" fill="#9FB3C8"/>
<path d="M121.122 126.209C121.675 126.206 122.126 126.65 122.13 127.201C122.133 127.753 121.688 128.203 121.136 128.207C120.583 128.21 120.132 127.766 120.128 127.215C120.125 126.663 120.57 126.213 121.122 126.209Z" fill="#9FB3C8"/>
<path d="M113.118 126.263C113.67 126.259 114.121 126.703 114.125 127.255C114.129 127.806 113.684 128.256 113.131 128.26C112.578 128.264 112.127 127.819 112.124 127.268C112.12 126.716 112.565 126.266 113.118 126.263Z" fill="#9FB3C8"/>
<path d="M105.113 126.316C105.666 126.312 106.117 126.756 106.12 127.308C106.124 127.859 105.679 128.31 105.126 128.313C104.574 128.317 104.123 127.873 104.119 127.321C104.116 126.77 104.561 126.319 105.113 126.316Z" fill="#9FB3C8"/>
<path d="M97.1086 126.369C97.6612 126.365 98.1122 126.809 98.1158 127.361C98.1195 127.913 97.6745 128.363 97.1219 128.366C96.5693 128.37 96.1183 127.926 96.1147 127.374C96.111 126.823 96.556 126.373 97.1086 126.369Z" fill="#9FB3C8"/>
<path d="M89.104 126.422C89.6566 126.419 90.1076 126.863 90.1113 127.414C90.1149 127.966 89.6699 128.416 89.1173 128.42C88.5647 128.423 88.1138 127.979 88.1101 127.428C88.1064 126.876 88.5514 126.426 89.104 126.422Z" fill="#9FB3C8"/>
<path d="M81.0995 126.475C81.6521 126.472 82.103 126.916 82.1067 127.467C82.1103 128.019 81.6653 128.469 81.1127 128.473C80.5601 128.477 80.1092 128.032 80.1055 127.481C80.1019 126.929 80.5469 126.479 81.0995 126.475Z" fill="#9FB3C8"/>
<path d="M153.088 118.007C153.64 118.003 154.091 118.447 154.095 118.999C154.098 119.55 153.653 120 153.101 120.004C152.548 120.008 152.097 119.564 152.094 119.012C152.09 118.46 152.535 118.01 153.088 118.007Z" fill="#9FB3C8"/>
<path d="M145.083 118.06C145.636 118.056 146.086 118.5 146.09 119.052C146.094 119.604 145.649 120.054 145.096 120.057C144.544 120.061 144.093 119.617 144.089 119.065C144.085 118.514 144.53 118.064 145.083 118.06Z" fill="#9FB3C8"/>
<path d="M137.078 118.113C137.631 118.109 138.082 118.554 138.086 119.105C138.089 119.657 137.644 120.107 137.092 120.111C136.539 120.114 136.088 119.67 136.084 119.118C136.081 118.567 136.526 118.117 137.078 118.113Z" fill="#9FB3C8"/>
<path d="M129.074 118.166C129.626 118.163 130.077 118.607 130.081 119.158C130.085 119.71 129.64 120.16 129.087 120.164C128.534 120.167 128.084 119.723 128.08 119.172C128.076 118.62 128.521 118.17 129.074 118.166Z" fill="#9FB3C8"/>
<path d="M121.069 118.22C121.622 118.216 122.073 118.66 122.076 119.212C122.08 119.763 121.635 120.213 121.082 120.217C120.53 120.221 120.079 119.776 120.075 119.225C120.072 118.673 120.517 118.223 121.069 118.22Z" fill="#9FB3C8"/>
<path d="M113.065 118.273C113.617 118.269 114.068 118.713 114.072 119.265C114.076 119.816 113.631 120.267 113.078 120.27C112.525 120.274 112.074 119.83 112.071 119.278C112.067 118.727 112.512 118.276 113.065 118.273Z" fill="#9FB3C8"/>
<path d="M105.06 118.326C105.613 118.322 106.064 118.766 106.067 119.318C106.071 119.87 105.626 120.32 105.073 120.323C104.521 120.327 104.07 119.883 104.066 119.331C104.062 118.78 104.507 118.33 105.06 118.326Z" fill="#9FB3C8"/>
<path d="M97.0555 118.379C97.6081 118.376 98.059 118.82 98.0627 119.371C98.0664 119.923 97.6214 120.373 97.0688 120.377C96.5162 120.38 96.0652 119.936 96.0616 119.385C96.0579 118.833 96.5029 118.383 97.0555 118.379Z" fill="#9FB3C8"/>
<path d="M89.0509 118.432C89.6035 118.429 90.0545 118.873 90.0581 119.424C90.0618 119.976 89.6168 120.426 89.0642 120.43C88.5116 120.434 88.0607 119.989 88.057 119.438C88.0533 118.886 88.4983 118.436 89.0509 118.432Z" fill="#9FB3C8"/>
<path d="M81.0463 118.486C81.5989 118.482 82.0499 118.926 82.0535 119.478C82.0572 120.029 81.6122 120.479 81.0596 120.483C80.507 120.487 80.0561 120.043 80.0524 119.491C80.0487 118.939 80.4937 118.489 81.0463 118.486Z" fill="#9FB3C8"/>
<path d="M153.247 141.976C153.799 141.972 154.25 142.416 154.254 142.968C154.258 143.52 153.813 143.97 153.26 143.973C152.708 143.977 152.257 143.533 152.253 142.981C152.249 142.43 152.694 141.98 153.247 141.976Z" fill="#9FB3C8"/>
<path d="M145.242 142.029C145.795 142.025 146.246 142.47 146.25 143.021C146.253 143.573 145.808 144.023 145.256 144.027C144.703 144.03 144.252 143.586 144.248 143.035C144.245 142.483 144.69 142.033 145.242 142.029Z" fill="#9FB3C8"/>
<path d="M137.238 142.082C137.79 142.079 138.241 142.523 138.245 143.074C138.249 143.626 137.804 144.076 137.251 144.08C136.698 144.083 136.247 143.639 136.244 143.088C136.24 142.536 136.685 142.086 137.238 142.082Z" fill="#9FB3C8"/>
<path d="M129.233 142.136C129.786 142.132 130.237 142.576 130.24 143.128C130.244 143.679 129.799 144.129 129.246 144.133C128.694 144.137 128.243 143.693 128.239 143.141C128.236 142.589 128.681 142.139 129.233 142.136Z" fill="#9FB3C8"/>
<path d="M121.229 142.189C121.781 142.185 122.232 142.629 122.236 143.181C122.239 143.732 121.794 144.183 121.242 144.186C120.689 144.19 120.238 143.746 120.235 143.194C120.231 142.643 120.676 142.192 121.229 142.189Z" fill="#9FB3C8"/>
<path d="M113.224 142.242C113.777 142.238 114.228 142.683 114.231 143.234C114.235 143.786 113.79 144.236 113.237 144.239C112.685 144.243 112.234 143.799 112.23 143.247C112.226 142.696 112.671 142.246 113.224 142.242Z" fill="#9FB3C8"/>
<path d="M105.219 142.295C105.772 142.292 106.223 142.736 106.227 143.287C106.23 143.839 105.785 144.289 105.233 144.293C104.68 144.296 104.229 143.852 104.225 143.301C104.222 142.749 104.667 142.299 105.219 142.295Z" fill="#9FB3C8"/>
<path d="M97.2149 142.348C97.7675 142.345 98.2184 142.789 98.2221 143.341C98.2257 143.892 97.7807 144.342 97.2281 144.346C96.6755 144.35 96.2246 143.905 96.2209 143.354C96.2173 142.802 96.6623 142.352 97.2149 142.348Z" fill="#9FB3C8"/>
<path d="M89.2103 142.402C89.7629 142.398 90.2138 142.842 90.2175 143.394C90.2212 143.945 89.7762 144.395 89.2236 144.399C88.671 144.403 88.22 143.959 88.2164 143.407C88.2127 142.855 88.6577 142.405 89.2103 142.402Z" fill="#9FB3C8"/>
<path d="M81.2057 142.455C81.7583 142.451 82.2092 142.895 82.2129 143.447C82.2166 143.999 81.7716 144.449 81.219 144.452C80.6664 144.456 80.2154 144.012 80.2118 143.46C80.2081 142.909 80.6531 142.459 81.2057 142.455Z" fill="#9FB3C8"/>
<path d="M153.194 133.986C153.746 133.982 154.197 134.427 154.201 134.978C154.205 135.53 153.76 135.98 153.207 135.984C152.654 135.987 152.203 135.543 152.2 134.992C152.196 134.44 152.641 133.99 153.194 133.986Z" fill="#9FB3C8"/>
<path d="M145.189 134.039C145.742 134.036 146.193 134.48 146.196 135.031C146.2 135.583 145.755 136.033 145.202 136.037C144.65 136.04 144.199 135.596 144.195 135.045C144.192 134.493 144.637 134.043 145.189 134.039Z" fill="#9FB3C8"/>
<path d="M137.185 134.093C137.737 134.089 138.188 134.533 138.192 135.085C138.195 135.636 137.75 136.086 137.198 136.09C136.645 136.094 136.194 135.65 136.191 135.098C136.187 134.546 136.632 134.096 137.185 134.093Z" fill="#9FB3C8"/>
<path d="M129.18 134.146C129.733 134.142 130.184 134.586 130.187 135.138C130.191 135.689 129.746 136.14 129.193 136.143C128.641 136.147 128.19 135.703 128.186 135.151C128.182 134.6 128.627 134.149 129.18 134.146Z" fill="#9FB3C8"/>
<path d="M121.175 134.199C121.728 134.195 122.179 134.64 122.183 135.191C122.186 135.743 121.741 136.193 121.189 136.196C120.636 136.2 120.185 135.756 120.182 135.204C120.178 134.653 120.623 134.203 121.175 134.199Z" fill="#9FB3C8"/>
<path d="M113.171 134.252C113.723 134.249 114.174 134.693 114.178 135.244C114.182 135.796 113.737 136.246 113.184 136.25C112.632 136.253 112.181 135.809 112.177 135.258C112.173 134.706 112.618 134.256 113.171 134.252Z" fill="#9FB3C8"/>
<path d="M105.166 134.305C105.719 134.302 106.17 134.746 106.174 135.298C106.177 135.849 105.732 136.299 105.18 136.303C104.627 136.307 104.176 135.862 104.172 135.311C104.169 134.759 104.614 134.309 105.166 134.305Z" fill="#9FB3C8"/>
<path d="M97.1617 134.359C97.7143 134.355 98.1653 134.799 98.1689 135.351C98.1726 135.902 97.7276 136.352 97.175 136.356C96.6224 136.36 96.1715 135.916 96.1678 135.364C96.1641 134.813 96.6091 134.362 97.1617 134.359Z" fill="#9FB3C8"/>
<path d="M89.1572 134.412C89.7098 134.408 90.1607 134.852 90.1644 135.404C90.168 135.956 89.723 136.406 89.1704 136.409C88.6178 136.413 88.1669 135.969 88.1632 135.417C88.1596 134.866 88.6046 134.416 89.1572 134.412Z" fill="#9FB3C8"/>
<path d="M81.1526 134.465C81.7052 134.461 82.1561 134.906 82.1598 135.457C82.1635 136.009 81.7185 136.459 81.1659 136.463C80.6133 136.466 80.1623 136.022 80.1587 135.471C80.155 134.919 80.6 134.469 81.1526 134.465Z" fill="#9FB3C8"/>
<path d="M153.353 157.955C153.906 157.952 154.357 158.396 154.36 158.947C154.364 159.499 153.919 159.949 153.366 159.953C152.814 159.957 152.363 159.512 152.359 158.961C152.356 158.409 152.801 157.959 153.353 157.955Z" fill="#9FB3C8"/>
<path d="M145.349 158.009C145.901 158.005 146.352 158.449 146.356 159.001C146.359 159.552 145.914 160.002 145.362 160.006C144.809 160.01 144.358 159.566 144.355 159.014C144.351 158.462 144.796 158.012 145.349 158.009Z" fill="#9FB3C8"/>
<path d="M137.344 158.062C137.897 158.058 138.348 158.502 138.351 159.054C138.355 159.606 137.91 160.056 137.357 160.059C136.805 160.063 136.354 159.619 136.35 159.067C136.346 158.516 136.791 158.066 137.344 158.062Z" fill="#9FB3C8"/>
<path d="M129.339 158.115C129.892 158.111 130.343 158.556 130.347 159.107C130.35 159.659 129.905 160.109 129.353 160.113C128.8 160.116 128.349 159.672 128.345 159.12C128.342 158.569 128.787 158.119 129.339 158.115Z" fill="#9FB3C8"/>
<path d="M121.335 158.168C121.887 158.165 122.338 158.609 122.342 159.16C122.346 159.712 121.901 160.162 121.348 160.166C120.795 160.169 120.345 159.725 120.341 159.174C120.337 158.622 120.782 158.172 121.335 158.168Z" fill="#9FB3C8"/>
<path d="M113.33 158.222C113.883 158.218 114.334 158.662 114.337 159.214C114.341 159.765 113.896 160.215 113.344 160.219C112.791 160.223 112.34 159.778 112.336 159.227C112.333 158.675 112.778 158.225 113.33 158.222Z" fill="#9FB3C8"/>
<path d="M105.326 158.275C105.878 158.271 106.329 158.715 106.333 159.267C106.337 159.818 105.892 160.269 105.339 160.272C104.786 160.276 104.335 159.832 104.332 159.28C104.328 158.729 104.773 158.278 105.326 158.275Z" fill="#9FB3C8"/>
<path d="M97.3211 158.328C97.8737 158.324 98.3246 158.768 98.3283 159.32C98.332 159.872 97.887 160.322 97.3344 160.325C96.7818 160.329 96.3308 159.885 96.3272 159.333C96.3235 158.782 96.7685 158.332 97.3211 158.328Z" fill="#9FB3C8"/>
<path d="M89.3165 158.381C89.8691 158.378 90.3201 158.822 90.3237 159.373C90.3274 159.925 89.8824 160.375 89.3298 160.379C88.7772 160.382 88.3263 159.938 88.3226 159.387C88.3189 158.835 88.7639 158.385 89.3165 158.381Z" fill="#9FB3C8"/>
<path d="M81.3119 158.434C81.8646 158.431 82.3155 158.875 82.3192 159.426C82.3228 159.978 81.8778 160.428 81.3252 160.432C80.7726 160.436 80.3217 159.991 80.318 159.44C80.3144 158.888 80.7593 158.438 81.3119 158.434Z" fill="#9FB3C8"/>
<path d="M153.3 149.966C153.853 149.962 154.304 150.406 154.307 150.958C154.311 151.509 153.866 151.959 153.313 151.963C152.761 151.967 152.31 151.523 152.306 150.971C152.302 150.419 152.747 149.969 153.3 149.966Z" fill="#9FB3C8"/>
<path d="M145.295 150.019C145.848 150.015 146.299 150.459 146.303 151.011C146.306 151.563 145.861 152.013 145.309 152.016C144.756 152.02 144.305 151.576 144.301 151.024C144.298 150.473 144.743 150.023 145.295 150.019Z" fill="#9FB3C8"/>
<path d="M137.291 150.072C137.843 150.068 138.294 150.513 138.298 151.064C138.302 151.616 137.857 152.066 137.304 152.07C136.752 152.073 136.301 151.629 136.297 151.077C136.293 150.526 136.738 150.076 137.291 150.072Z" fill="#9FB3C8"/>
<path d="M129.286 150.125C129.839 150.122 130.29 150.566 130.293 151.117C130.297 151.669 129.852 152.119 129.3 152.123C128.747 152.126 128.296 151.682 128.292 151.131C128.289 150.579 128.734 150.129 129.286 150.125Z" fill="#9FB3C8"/>
<path d="M121.282 150.179C121.834 150.175 122.285 150.619 122.289 151.171C122.293 151.722 121.848 152.172 121.295 152.176C120.742 152.18 120.291 151.735 120.288 151.184C120.284 150.632 120.729 150.182 121.282 150.179Z" fill="#9FB3C8"/>
<path d="M113.277 150.232C113.83 150.228 114.281 150.672 114.284 151.224C114.288 151.775 113.843 152.226 113.29 152.229C112.738 152.233 112.287 151.789 112.283 151.237C112.28 150.686 112.725 150.235 113.277 150.232Z" fill="#9FB3C8"/>
<path d="M105.273 150.285C105.825 150.281 106.276 150.725 106.28 151.277C106.283 151.829 105.838 152.279 105.286 152.282C104.733 152.286 104.282 151.842 104.279 151.29C104.275 150.739 104.72 150.289 105.273 150.285Z" fill="#9FB3C8"/>
<path d="M97.268 150.338C97.8206 150.335 98.2715 150.779 98.2752 151.33C98.2789 151.882 97.8339 152.332 97.2813 152.336C96.7287 152.339 96.2777 151.895 96.274 151.344C96.2704 150.792 96.7154 150.342 97.268 150.338Z" fill="#9FB3C8"/>
<path d="M89.2634 150.391C89.816 150.388 90.267 150.832 90.2706 151.383C90.2743 151.935 89.8293 152.385 89.2767 152.389C88.7241 152.393 88.2731 151.948 88.2695 151.397C88.2658 150.845 88.7108 150.395 89.2634 150.391Z" fill="#9FB3C8"/>
<path d="M81.2588 150.445C81.8114 150.441 82.2624 150.885 82.266 151.437C82.2697 151.988 81.8247 152.438 81.2721 152.442C80.7195 152.446 80.2686 152.002 80.2649 151.45C80.2612 150.898 80.7062 150.448 81.2588 150.445Z" fill="#9FB3C8"/>
<path d="M153.459 173.935C154.012 173.931 154.463 174.375 154.467 174.927C154.47 175.479 154.025 175.929 153.473 175.932C152.92 175.936 152.469 175.492 152.465 174.94C152.462 174.389 152.907 173.939 153.459 173.935Z" fill="#9FB3C8"/>
<path d="M145.455 173.988C146.007 173.984 146.458 174.429 146.462 174.98C146.466 175.532 146.021 175.982 145.468 175.986C144.915 175.989 144.465 175.545 144.461 174.994C144.457 174.442 144.902 173.992 145.455 173.988Z" fill="#9FB3C8"/>
<path d="M137.45 174.041C138.003 174.038 138.454 174.482 138.457 175.033C138.461 175.585 138.016 176.035 137.463 176.039C136.911 176.042 136.46 175.598 136.456 175.047C136.453 174.495 136.898 174.045 137.45 174.041Z" fill="#9FB3C8"/>
<path d="M129.446 174.095C129.998 174.091 130.449 174.535 130.453 175.087C130.457 175.638 130.012 176.088 129.459 176.092C128.906 176.096 128.455 175.652 128.452 175.1C128.448 174.548 128.893 174.098 129.446 174.095Z" fill="#9FB3C8"/>
<path d="M121.441 174.148C121.994 174.144 122.445 174.588 122.448 175.14C122.452 175.691 122.007 176.142 121.454 176.145C120.902 176.149 120.451 175.705 120.447 175.153C120.443 174.602 120.888 174.151 121.441 174.148Z" fill="#9FB3C8"/>
<path d="M113.436 174.201C113.989 174.197 114.44 174.642 114.444 175.193C114.447 175.745 114.002 176.195 113.45 176.198C112.897 176.202 112.446 175.758 112.443 175.206C112.439 174.655 112.884 174.205 113.436 174.201Z" fill="#9FB3C8"/>
<path d="M105.432 174.254C105.985 174.251 106.435 174.695 106.439 175.246C106.443 175.798 105.998 176.248 105.445 176.252C104.893 176.255 104.442 175.811 104.438 175.26C104.434 174.708 104.879 174.258 105.432 174.254Z" fill="#9FB3C8"/>
<path d="M97.4273 174.307C97.9799 174.304 98.4309 174.748 98.4346 175.3C98.4382 175.851 97.9932 176.301 97.4406 176.305C96.888 176.309 96.4371 175.864 96.4334 175.313C96.4297 174.761 96.8747 174.311 97.4273 174.307Z" fill="#9FB3C8"/>
<path d="M89.4228 174.361C89.9754 174.357 90.4263 174.801 90.43 175.353C90.4337 175.904 89.9886 176.354 89.436 176.358C88.8834 176.362 88.4325 175.918 88.4288 175.366C88.4252 174.814 88.8702 174.364 89.4228 174.361Z" fill="#9FB3C8"/>
<path d="M81.4182 174.414C81.9708 174.41 82.4217 174.854 82.4254 175.406C82.4291 175.958 81.9841 176.408 81.4315 176.411C80.8789 176.415 80.4279 175.971 80.4243 175.419C80.4206 174.868 80.8656 174.418 81.4182 174.414Z" fill="#9FB3C8"/>
<path d="M153.406 165.945C153.959 165.941 154.41 166.386 154.413 166.937C154.417 167.489 153.972 167.939 153.42 167.943C152.867 167.946 152.416 167.502 152.412 166.951C152.409 166.399 152.854 165.949 153.406 165.945Z" fill="#9FB3C8"/>
<path d="M145.402 165.998C145.954 165.995 146.405 166.439 146.409 166.99C146.413 167.542 145.968 167.992 145.415 167.996C144.862 167.999 144.411 167.555 144.408 167.004C144.404 166.452 144.849 166.002 145.402 165.998Z" fill="#9FB3C8"/>
<path d="M137.397 166.052C137.95 166.048 138.401 166.492 138.404 167.044C138.408 167.595 137.963 168.045 137.41 168.049C136.858 168.053 136.407 167.609 136.403 167.057C136.399 166.505 136.844 166.055 137.397 166.052Z" fill="#9FB3C8"/>
<path d="M129.393 166.105C129.945 166.101 130.396 166.545 130.4 167.097C130.403 167.648 129.958 168.099 129.406 168.102C128.853 168.106 128.402 167.662 128.399 167.11C128.395 166.559 128.84 166.108 129.393 166.105Z" fill="#9FB3C8"/>
<path d="M121.388 166.158C121.941 166.154 122.391 166.599 122.395 167.15C122.399 167.702 121.954 168.152 121.401 168.155C120.849 168.159 120.398 167.715 120.394 167.163C120.39 166.612 120.835 166.162 121.388 166.158Z" fill="#9FB3C8"/>
<path d="M113.383 166.211C113.936 166.208 114.387 166.652 114.391 167.203C114.394 167.755 113.949 168.205 113.397 168.209C112.844 168.212 112.393 167.768 112.389 167.217C112.386 166.665 112.831 166.215 113.383 166.211Z" fill="#9FB3C8"/>
<path d="M105.379 166.264C105.931 166.261 106.382 166.705 106.386 167.257C106.39 167.808 105.945 168.258 105.392 168.262C104.839 168.266 104.389 167.821 104.385 167.27C104.381 166.718 104.826 166.268 105.379 166.264Z" fill="#9FB3C8"/>
<path d="M97.3742 166.318C97.9268 166.314 98.3778 166.758 98.3814 167.31C98.3851 167.861 97.9401 168.311 97.3875 168.315C96.8349 168.319 96.384 167.875 96.3803 167.323C96.3766 166.772 96.8216 166.321 97.3742 166.318Z" fill="#9FB3C8"/>
<path d="M89.3696 166.371C89.9222 166.367 90.3732 166.811 90.3769 167.363C90.3805 167.915 89.9355 168.365 89.3829 168.368C88.8303 168.372 88.3794 167.928 88.3757 167.376C88.3721 166.825 88.817 166.375 89.3696 166.371Z" fill="#9FB3C8"/>
<path d="M81.3651 166.424C81.9177 166.42 82.3686 166.865 82.3723 167.416C82.3759 167.968 81.931 168.418 81.3783 168.422C80.8257 168.425 80.3748 167.981 80.3711 167.43C80.3675 166.878 80.8125 166.428 81.3651 166.424Z" fill="#9FB3C8"/>
<path d="M153.566 189.914C154.118 189.911 154.569 190.355 154.573 190.906C154.576 191.458 154.131 191.908 153.579 191.912C153.026 191.916 152.575 191.471 152.572 190.92C152.568 190.368 153.013 189.918 153.566 189.914Z" fill="#9FB3C8"/>
<path d="M145.561 189.968C146.114 189.964 146.565 190.408 146.568 190.96C146.572 191.511 146.127 191.961 145.574 191.965C145.022 191.969 144.571 191.525 144.567 190.973C144.563 190.421 145.008 189.971 145.561 189.968Z" fill="#9FB3C8"/>
<path d="M137.556 190.021C138.109 190.017 138.56 190.461 138.564 191.013C138.567 191.565 138.122 192.015 137.57 192.018C137.017 192.022 136.566 191.578 136.563 191.026C136.559 190.475 137.004 190.025 137.556 190.021Z" fill="#9FB3C8"/>
<path d="M129.552 190.074C130.104 190.07 130.555 190.515 130.559 191.066C130.563 191.618 130.118 192.068 129.565 192.072C129.013 192.075 128.562 191.631 128.558 191.079C128.554 190.528 128.999 190.078 129.552 190.074Z" fill="#9FB3C8"/>
<path d="M121.547 190.127C122.1 190.124 122.551 190.568 122.555 191.119C122.558 191.671 122.113 192.121 121.561 192.125C121.008 192.128 120.557 191.684 120.553 191.133C120.55 190.581 120.995 190.131 121.547 190.127Z" fill="#9FB3C8"/>
<path d="M113.543 190.181C114.095 190.177 114.546 190.621 114.55 191.173C114.554 191.724 114.109 192.174 113.556 192.178C113.003 192.182 112.552 191.737 112.549 191.186C112.545 190.634 112.99 190.184 113.543 190.181Z" fill="#9FB3C8"/>
<path d="M105.538 190.234C106.091 190.23 106.542 190.674 106.545 191.226C106.549 191.777 106.104 192.228 105.551 192.231C104.999 192.235 104.548 191.791 104.544 191.239C104.541 190.688 104.986 190.237 105.538 190.234Z" fill="#9FB3C8"/>
<path d="M97.5336 190.287C98.0862 190.283 98.5371 190.727 98.5408 191.279C98.5445 191.831 98.0995 192.281 97.5469 192.284C96.9943 192.288 96.5433 191.844 96.5397 191.292C96.536 190.741 96.981 190.291 97.5336 190.287Z" fill="#9FB3C8"/>
<path d="M89.529 190.34C90.0816 190.337 90.5326 190.781 90.5362 191.332C90.5399 191.884 90.0949 192.334 89.5423 192.338C88.9897 192.341 88.5388 191.897 88.5351 191.346C88.5314 190.794 88.9764 190.344 89.529 190.34Z" fill="#9FB3C8"/>
<path d="M81.5244 190.393C82.077 190.39 82.528 190.834 82.5316 191.385C82.5353 191.937 82.0903 192.387 81.5377 192.391C80.9851 192.395 80.5342 191.95 80.5305 191.399C80.5268 190.847 80.9718 190.397 81.5244 190.393Z" fill="#9FB3C8"/>
<path d="M153.512 181.925C154.065 181.921 154.516 182.365 154.52 182.917C154.523 183.468 154.078 183.918 153.526 183.922C152.973 183.926 152.522 183.482 152.519 182.93C152.515 182.378 152.96 181.928 153.512 181.925Z" fill="#9FB3C8"/>
<path d="M145.508 181.978C146.061 181.974 146.511 182.418 146.515 182.97C146.519 183.522 146.074 183.972 145.521 183.975C144.969 183.979 144.518 183.535 144.514 182.983C144.51 182.432 144.955 181.982 145.508 181.978Z" fill="#9FB3C8"/>
<path d="M137.503 182.031C138.056 182.027 138.507 182.472 138.511 183.023C138.514 183.575 138.069 184.025 137.517 184.029C136.964 184.032 136.513 183.588 136.509 183.036C136.506 182.485 136.951 182.035 137.503 182.031Z" fill="#9FB3C8"/>
<path d="M129.499 182.084C130.051 182.081 130.502 182.525 130.506 183.076C130.51 183.628 130.065 184.078 129.512 184.082C128.959 184.085 128.508 183.641 128.505 183.09C128.501 182.538 128.946 182.088 129.499 182.084Z" fill="#9FB3C8"/>
<path d="M121.494 182.138C122.047 182.134 122.498 182.578 122.501 183.13C122.505 183.681 122.06 184.131 121.507 184.135C120.955 184.139 120.504 183.695 120.5 183.143C120.497 182.591 120.942 182.141 121.494 182.138Z" fill="#9FB3C8"/>
<path d="M113.49 182.191C114.042 182.187 114.493 182.631 114.497 183.183C114.5 183.734 114.055 184.185 113.503 184.188C112.95 184.192 112.499 183.748 112.496 183.196C112.492 182.645 112.937 182.194 113.49 182.191Z" fill="#9FB3C8"/>
<path d="M105.485 182.244C106.038 182.24 106.489 182.684 106.492 183.236C106.496 183.788 106.051 184.238 105.498 184.241C104.946 184.245 104.495 183.801 104.491 183.249C104.487 182.698 104.932 182.248 105.485 182.244Z" fill="#9FB3C8"/>
<path d="M97.4805 182.297C98.0331 182.294 98.484 182.738 98.4877 183.289C98.4913 183.841 98.0463 184.291 97.4937 184.295C96.9411 184.298 96.4902 183.854 96.4865 183.303C96.4829 182.751 96.9279 182.301 97.4805 182.297Z" fill="#9FB3C8"/>
<path d="M89.4759 182.35C90.0285 182.347 90.4794 182.791 90.4831 183.343C90.4868 183.894 90.0418 184.344 89.4892 184.348C88.9366 184.352 88.4856 183.907 88.482 183.356C88.4783 182.804 88.9233 182.354 89.4759 182.35Z" fill="#9FB3C8"/>
<path d="M81.4713 182.404C82.0239 182.4 82.4749 182.844 82.4785 183.396C82.4822 183.947 82.0372 184.397 81.4846 184.401C80.932 184.405 80.4811 183.961 80.4774 183.409C80.4737 182.857 80.9187 182.407 81.4713 182.404Z" fill="#9FB3C8"/>
<path d="M153.672 205.894C154.224 205.89 154.675 206.334 154.679 206.886C154.683 207.438 154.238 207.888 153.685 207.891C153.133 207.895 152.682 207.451 152.678 206.899C152.674 206.348 153.119 205.898 153.672 205.894Z" fill="#9FB3C8"/>
<path d="M145.667 205.947C146.22 205.943 146.671 206.388 146.674 206.939C146.678 207.491 146.233 207.941 145.681 207.945C145.128 207.948 144.677 207.504 144.673 206.953C144.67 206.401 145.115 205.951 145.667 205.947Z" fill="#9FB3C8"/>
<path d="M137.663 206C138.215 205.997 138.666 206.441 138.67 206.992C138.674 207.544 138.229 207.994 137.676 207.998C137.123 208.001 136.672 207.557 136.669 207.006C136.665 206.454 137.11 206.004 137.663 206Z" fill="#9FB3C8"/>
<path d="M129.658 206.054C130.211 206.05 130.662 206.494 130.665 207.046C130.669 207.597 130.224 208.047 129.671 208.051C129.119 208.055 128.668 207.611 128.664 207.059C128.661 206.507 129.106 206.057 129.658 206.054Z" fill="#9FB3C8"/>
<path d="M121.654 206.107C122.206 206.103 122.657 206.547 122.661 207.099C122.664 207.65 122.219 208.101 121.667 208.104C121.114 208.108 120.663 207.664 120.66 207.112C120.656 206.561 121.101 206.11 121.654 206.107Z" fill="#9FB3C8"/>
<path d="M113.649 206.16C114.202 206.156 114.653 206.601 114.656 207.152C114.66 207.704 114.215 208.154 113.662 208.157C113.11 208.161 112.659 207.717 112.655 207.165C112.651 206.614 113.096 206.164 113.649 206.16Z" fill="#9FB3C8"/>
<path d="M105.644 206.213C106.197 206.21 106.648 206.654 106.652 207.205C106.655 207.757 106.21 208.207 105.658 208.211C105.105 208.214 104.654 207.77 104.65 207.219C104.647 206.667 105.092 206.217 105.644 206.213Z" fill="#9FB3C8"/>
<path d="M97.6398 206.266C98.1924 206.263 98.6434 206.707 98.647 207.259C98.6507 207.81 98.2057 208.26 97.6531 208.264C97.1005 208.268 96.6496 207.823 96.6459 207.272C96.6422 206.72 97.0872 206.27 97.6398 206.266Z" fill="#9FB3C8"/>
<path d="M89.6353 206.32C90.1879 206.316 90.6388 206.76 90.6425 207.312C90.6461 207.863 90.2011 208.313 89.6485 208.317C89.0959 208.321 88.645 207.877 88.6413 207.325C88.6377 206.773 89.0827 206.323 89.6353 206.32Z" fill="#9FB3C8"/>
<path d="M81.6307 206.373C82.1833 206.369 82.6342 206.813 82.6379 207.365C82.6416 207.917 82.1966 208.367 81.644 208.37C81.0914 208.374 80.6404 207.93 80.6368 207.378C80.6331 206.827 81.0781 206.377 81.6307 206.373Z" fill="#9FB3C8"/>
<path d="M153.619 197.904C154.171 197.9 154.622 198.345 154.626 198.896C154.63 199.448 154.185 199.898 153.632 199.902C153.079 199.905 152.628 199.461 152.625 198.91C152.621 198.358 153.066 197.908 153.619 197.904Z" fill="#9FB3C8"/>
<path d="M145.614 197.957C146.167 197.954 146.618 198.398 146.621 198.949C146.625 199.501 146.18 199.951 145.627 199.955C145.075 199.959 144.624 199.514 144.62 198.963C144.617 198.411 145.062 197.961 145.614 197.957Z" fill="#9FB3C8"/>
<path d="M137.61 198.011C138.162 198.007 138.613 198.451 138.617 199.003C138.62 199.554 138.175 200.004 137.623 200.008C137.07 200.012 136.619 199.568 136.616 199.016C136.612 198.464 137.057 198.014 137.61 198.011Z" fill="#9FB3C8"/>
<path d="M129.605 198.064C130.158 198.06 130.609 198.504 130.612 199.056C130.616 199.607 130.171 200.058 129.618 200.061C129.066 200.065 128.615 199.621 128.611 199.069C128.607 198.518 129.052 198.068 129.605 198.064Z" fill="#9FB3C8"/>
<path d="M121.6 198.117C122.153 198.113 122.604 198.558 122.608 199.109C122.611 199.661 122.166 200.111 121.614 200.114C121.061 200.118 120.61 199.674 120.606 199.122C120.603 198.571 121.048 198.121 121.6 198.117Z" fill="#9FB3C8"/>
<path d="M113.596 198.17C114.148 198.167 114.599 198.611 114.603 199.162C114.607 199.714 114.162 200.164 113.609 200.168C113.057 200.171 112.606 199.727 112.602 199.176C112.598 198.624 113.043 198.174 113.596 198.17Z" fill="#9FB3C8"/>
<path d="M105.591 198.223C106.144 198.22 106.595 198.664 106.598 199.216C106.602 199.767 106.157 200.217 105.605 200.221C105.052 200.225 104.601 199.78 104.597 199.229C104.594 198.677 105.039 198.227 105.591 198.223Z" fill="#9FB3C8"/>
<path d="M97.5867 198.277C98.1393 198.273 98.5903 198.717 98.5939 199.269C98.5976 199.82 98.1526 200.27 97.6 200.274C97.0474 200.278 96.5964 199.834 96.5928 199.282C96.5891 198.731 97.0341 198.28 97.5867 198.277Z" fill="#9FB3C8"/>
<path d="M89.5821 198.33C90.1347 198.326 90.5857 198.77 90.5894 199.322C90.593 199.874 90.148 200.324 89.5954 200.327C89.0428 200.331 88.5919 199.887 88.5882 199.335C88.5845 198.784 89.0295 198.334 89.5821 198.33Z" fill="#9FB3C8"/>
<path d="M81.5776 198.383C82.1302 198.379 82.5811 198.824 82.5848 199.375C82.5884 199.927 82.1434 200.377 81.5908 200.381C81.0382 200.384 80.5873 199.94 80.5836 199.389C80.58 198.837 81.025 198.387 81.5776 198.383Z" fill="#9FB3C8"/>
<path d="M73.0949 126.529C73.6475 126.525 74.0984 126.969 74.1021 127.521C74.1058 128.072 73.6608 128.522 73.1082 128.526C72.5556 128.53 72.1046 128.086 72.101 127.534C72.0973 126.982 72.5423 126.532 73.0949 126.529Z" fill="#9FB3C8"/>
<path d="M65.0903 126.582C65.6429 126.578 66.0939 127.022 66.0975 127.574C66.1012 128.125 65.6562 128.576 65.1036 128.579C64.551 128.583 64.1 128.139 64.0964 127.587C64.0927 127.036 64.5377 126.586 65.0903 126.582Z" fill="#9FB3C8"/>
<path d="M57.0857 126.635C57.6383 126.631 58.0893 127.076 58.093 127.627C58.0966 128.179 57.6516 128.629 57.099 128.633C56.5464 128.636 56.0955 128.192 56.0918 127.64C56.0881 127.089 56.5331 126.639 57.0857 126.635Z" fill="#9FB3C8"/>
<path d="M49.0812 126.688C49.6338 126.685 50.0847 127.129 50.0884 127.68C50.092 128.232 49.647 128.682 49.0944 128.686C48.5418 128.689 48.0909 128.245 48.0872 127.694C48.0836 127.142 48.5286 126.692 49.0812 126.688Z" fill="#9FB3C8"/>
<path d="M41.0766 126.742C41.6292 126.738 42.0801 127.182 42.0838 127.734C42.0875 128.285 41.6425 128.735 41.0899 128.739C40.5373 128.743 40.0863 128.298 40.0827 127.747C40.079 127.195 40.524 126.745 41.0766 126.742Z" fill="#9FB3C8"/>
<path d="M33.072 126.795C33.6246 126.791 34.0756 127.235 34.0792 127.787C34.0829 128.338 33.6379 128.788 33.0853 128.792C32.5327 128.796 32.0818 128.352 32.0781 127.8C32.0744 127.249 32.5194 126.798 33.072 126.795Z" fill="#9FB3C8"/>
<path d="M25.0674 126.848C25.62 126.844 26.071 127.288 26.0747 127.84C26.0783 128.392 25.6333 128.842 25.0807 128.845C24.5281 128.849 24.0772 128.405 24.0735 127.853C24.0698 127.302 24.5148 126.852 25.0674 126.848Z" fill="#9FB3C8"/>
<path d="M17.0629 126.901C17.6155 126.897 18.0664 127.342 18.0701 127.893C18.0737 128.445 17.6288 128.895 17.0762 128.899C16.5235 128.902 16.0726 128.458 16.0689 127.907C16.0653 127.355 16.5103 126.905 17.0629 126.901Z" fill="#9FB3C8"/>
<path d="M9.0583 126.954C9.6109 126.951 10.0618 127.395 10.0655 127.946C10.0692 128.498 9.62418 128.948 9.07158 128.952C8.51898 128.956 8.06803 128.511 8.06437 127.96C8.0607 127.408 8.5057 126.958 9.0583 126.954Z" fill="#9FB3C8"/>
<path d="M1.05372 127.008C1.60632 127.004 2.05727 127.448 2.06094 128C2.0646 128.551 1.6196 129.001 1.067 129.005C0.514403 129.009 0.0634594 128.565 0.059792 128.013C0.0561247 127.461 0.501123 127.011 1.05372 127.008Z" fill="#9FB3C8"/>
<path d="M73.0418 118.539C73.5944 118.535 74.0453 118.979 74.049 119.531C74.0526 120.083 73.6076 120.533 73.055 120.536C72.5024 120.54 72.0515 120.096 72.0478 119.544C72.0442 118.993 72.4892 118.543 73.0418 118.539Z" fill="#9FB3C8"/>
<path d="M65.0372 118.592C65.5898 118.588 66.0407 119.033 66.0444 119.584C66.0481 120.136 65.6031 120.586 65.0505 120.59C64.4979 120.593 64.0469 120.149 64.0433 119.597C64.0396 119.046 64.4846 118.596 65.0372 118.592Z" fill="#9FB3C8"/>
<path d="M57.0326 118.645C57.5852 118.642 58.0362 119.086 58.0398 119.637C58.0435 120.189 57.5985 120.639 57.0459 120.643C56.4933 120.646 56.0424 120.202 56.0387 119.651C56.035 119.099 56.48 118.649 57.0326 118.645Z" fill="#9FB3C8"/>
<path d="M49.028 118.699C49.5806 118.695 50.0316 119.139 50.0353 119.691C50.0389 120.242 49.5939 120.692 49.0413 120.696C48.4887 120.7 48.0378 120.255 48.0341 119.704C48.0304 119.152 48.4754 118.702 49.028 118.699Z" fill="#9FB3C8"/>
<path d="M41.0235 118.752C41.5761 118.748 42.027 119.192 42.0307 119.744C42.0343 120.295 41.5894 120.746 41.0367 120.749C40.4841 120.753 40.0332 120.309 40.0295 119.757C40.0259 119.206 40.4709 118.755 41.0235 118.752Z" fill="#9FB3C8"/>
<path d="M33.0189 118.805C33.5715 118.801 34.0224 119.245 34.0261 119.797C34.0298 120.349 33.5848 120.799 33.0322 120.802C32.4796 120.806 32.0286 120.362 32.025 119.81C32.0213 119.259 32.4663 118.809 33.0189 118.805Z" fill="#9FB3C8"/>
<path d="M25.0143 118.858C25.5669 118.855 26.0179 119.299 26.0215 119.85C26.0252 120.402 25.5802 120.852 25.0276 120.856C24.475 120.859 24.0241 120.415 24.0204 119.864C24.0167 119.312 24.4617 118.862 25.0143 118.858Z" fill="#9FB3C8"/>
<path d="M17.0097 118.911C17.5623 118.908 18.0133 119.352 18.017 119.903C18.0206 120.455 17.5756 120.905 17.023 120.909C16.4704 120.913 16.0195 120.468 16.0158 119.917C16.0121 119.365 16.4571 118.915 17.0097 118.911Z" fill="#9FB3C8"/>
<path d="M9.00517 118.965C9.55777 118.961 10.0087 119.405 10.0124 119.957C10.0161 120.508 9.57106 120.958 9.01846 120.962C8.46585 120.966 8.01491 120.522 8.01124 119.97C8.00758 119.418 8.45257 118.968 9.00517 118.965Z" fill="#9FB3C8"/>
<path d="M1.0006 119.018C1.5532 119.014 2.00415 119.458 2.00781 120.01C2.01148 120.562 1.56648 121.012 1.01388 121.015C0.461281 121.019 0.010337 120.575 0.00666963 120.023C0.00300229 119.472 0.448 119.022 1.0006 119.018Z" fill="#9FB3C8"/>
<path d="M73.2011 142.508C73.7537 142.504 74.2047 142.949 74.2083 143.5C74.212 144.052 73.767 144.502 73.2144 144.506C72.6618 144.509 72.2109 144.065 72.2072 143.513C72.2035 142.962 72.6485 142.512 73.2011 142.508Z" fill="#9FB3C8"/>
<path d="M65.1966 142.561C65.7492 142.558 66.2001 143.002 66.2038 143.553C66.2074 144.105 65.7624 144.555 65.2098 144.559C64.6572 144.562 64.2063 144.118 64.2026 143.567C64.199 143.015 64.644 142.565 65.1966 142.561Z" fill="#9FB3C8"/>
<path d="M57.192 142.615C57.7446 142.611 58.1955 143.055 58.1992 143.607C58.2029 144.158 57.7579 144.608 57.2053 144.612C56.6527 144.616 56.2017 144.172 56.1981 143.62C56.1944 143.068 56.6394 142.618 57.192 142.615Z" fill="#9FB3C8"/>
<path d="M49.1874 142.668C49.74 142.664 50.191 143.108 50.1946 143.66C50.1983 144.211 49.7533 144.662 49.2007 144.665C48.6481 144.669 48.1971 144.225 48.1935 143.673C48.1898 143.122 48.6348 142.671 49.1874 142.668Z" fill="#9FB3C8"/>
<path d="M41.1828 142.721C41.7354 142.717 42.1864 143.161 42.19 143.713C42.1937 144.265 41.7487 144.715 41.1961 144.718C40.6435 144.722 40.1926 144.278 40.1889 143.726C40.1852 143.175 40.6302 142.725 41.1828 142.721Z" fill="#9FB3C8"/>
<path d="M33.1783 142.774C33.7309 142.771 34.1818 143.215 34.1855 143.766C34.1891 144.318 33.7441 144.768 33.1915 144.772C32.6389 144.775 32.188 144.331 32.1843 143.78C32.1807 143.228 32.6257 142.778 33.1783 142.774Z" fill="#9FB3C8"/>
<path d="M25.1737 142.827C25.7263 142.824 26.1772 143.268 26.1809 143.82C26.1846 144.371 25.7396 144.821 25.187 144.825C24.6344 144.829 24.1834 144.384 24.1798 143.833C24.1761 143.281 24.6211 142.831 25.1737 142.827Z" fill="#9FB3C8"/>
<path d="M17.1691 142.881C17.7217 142.877 18.1727 143.321 18.1763 143.873C18.18 144.424 17.735 144.874 17.1824 144.878C16.6298 144.882 16.1789 144.438 16.1752 143.886C16.1715 143.334 16.6165 142.884 17.1691 142.881Z" fill="#9FB3C8"/>
<path d="M9.16454 142.934C9.71714 142.93 10.1681 143.374 10.1718 143.926C10.1754 144.478 9.73042 144.928 9.17782 144.931C8.62522 144.935 8.17428 144.491 8.17061 143.939C8.16694 143.388 8.61194 142.938 9.16454 142.934Z" fill="#9FB3C8"/>
<path d="M1.15997 142.987C1.71257 142.983 2.16351 143.428 2.16718 143.979C2.17085 144.531 1.72585 144.981 1.17325 144.985C0.620648 144.988 0.169704 144.544 0.166037 143.992C0.162369 143.441 0.607368 142.991 1.15997 142.987Z" fill="#9FB3C8"/>
<path d="M73.148 134.518C73.7006 134.515 74.1516 134.959 74.1552 135.51C74.1589 136.062 73.7139 136.512 73.1613 136.516C72.6087 136.519 72.1577 136.075 72.1541 135.524C72.1504 134.972 72.5954 134.522 73.148 134.518Z" fill="#9FB3C8"/>
<path d="M65.1434 134.572C65.696 134.568 66.147 135.012 66.1506 135.564C66.1543 136.115 65.7093 136.565 65.1567 136.569C64.6041 136.573 64.1532 136.129 64.1495 135.577C64.1458 135.025 64.5908 134.575 65.1434 134.572Z" fill="#9FB3C8"/>
<path d="M57.1389 134.625C57.6915 134.621 58.1424 135.065 58.1461 135.617C58.1497 136.168 57.7047 136.619 57.1521 136.622C56.5995 136.626 56.1486 136.182 56.1449 135.63C56.1413 135.079 56.5863 134.628 57.1389 134.625Z" fill="#9FB3C8"/>
<path d="M49.1343 134.678C49.6869 134.674 50.1378 135.119 50.1415 135.67C50.1452 136.222 49.7002 136.672 49.1476 136.675C48.595 136.679 48.144 136.235 48.1404 135.683C48.1367 135.132 48.5817 134.682 49.1343 134.678Z" fill="#9FB3C8"/>
<path d="M41.1297 134.731C41.6823 134.728 42.1333 135.172 42.1369 135.723C42.1406 136.275 41.6956 136.725 41.143 136.729C40.5904 136.732 40.1395 136.288 40.1358 135.737C40.1321 135.185 40.5771 134.735 41.1297 134.731Z" fill="#9FB3C8"/>
<path d="M33.1251 134.784C33.6777 134.781 34.1287 135.225 34.1324 135.777C34.136 136.328 33.691 136.778 33.1384 136.782C32.5858 136.786 32.1349 136.341 32.1312 135.79C32.1275 135.238 32.5725 134.788 33.1251 134.784Z" fill="#9FB3C8"/>
<path d="M25.1206 134.838C25.6732 134.834 26.1241 135.278 26.1278 135.83C26.1314 136.381 25.6864 136.831 25.1338 136.835C24.5812 136.839 24.1303 136.395 24.1266 135.843C24.123 135.291 24.568 134.841 25.1206 134.838Z" fill="#9FB3C8"/>
<path d="M17.116 134.891C17.6686 134.887 18.1195 135.331 18.1232 135.883C18.1269 136.435 17.6819 136.885 17.1293 136.888C16.5767 136.892 16.1257 136.448 16.1221 135.896C16.1184 135.345 16.5634 134.895 17.116 134.891Z" fill="#9FB3C8"/>
<path d="M9.11142 134.944C9.66402 134.94 10.115 135.385 10.1186 135.936C10.1223 136.488 9.6773 136.938 9.1247 136.942C8.5721 136.945 8.12116 136.501 8.11749 135.95C8.11382 135.398 8.55882 134.948 9.11142 134.944Z" fill="#9FB3C8"/>
<path d="M1.10685 134.997C1.65945 134.994 2.11039 135.438 2.11406 135.989C2.11773 136.541 1.67273 136.991 1.12013 136.995C0.567526 136.998 0.116582 136.554 0.112914 136.003C0.109247 135.451 0.554245 135.001 1.10685 134.997Z" fill="#9FB3C8"/>
<path d="M73.3074 158.488C73.86 158.484 74.3109 158.928 74.3146 159.48C74.3183 160.031 73.8733 160.481 73.3207 160.485C72.7681 160.489 72.3171 160.045 72.3134 159.493C72.3098 158.941 72.7548 158.491 73.3074 158.488Z" fill="#9FB3C8"/>
<path d="M65.3028 158.541C65.8554 158.537 66.3063 158.981 66.31 159.533C66.3137 160.084 65.8687 160.535 65.3161 160.538C64.7635 160.542 64.3125 160.098 64.3089 159.546C64.3052 158.995 64.7502 158.545 65.3028 158.541Z" fill="#9FB3C8"/>
<path d="M57.2982 158.594C57.8508 158.59 58.3018 159.035 58.3054 159.586C58.3091 160.138 57.8641 160.588 57.3115 160.592C56.7589 160.595 56.308 160.151 56.3043 159.599C56.3006 159.048 56.7456 158.598 57.2982 158.594Z" fill="#9FB3C8"/>
<path d="M49.2937 158.647C49.8463 158.644 50.2972 159.088 50.3009 159.639C50.3045 160.191 49.8595 160.641 49.3069 160.645C48.7543 160.648 48.3034 160.204 48.2997 159.653C48.2961 159.101 48.7411 158.651 49.2937 158.647Z" fill="#9FB3C8"/>
<path d="M41.2891 158.701C41.8417 158.697 42.2926 159.141 42.2963 159.693C42.3 160.244 41.855 160.694 41.3024 160.698C40.7498 160.702 40.2988 160.257 40.2952 159.706C40.2915 159.154 40.7365 158.704 41.2891 158.701Z" fill="#9FB3C8"/>
<path d="M33.2845 158.754C33.8371 158.75 34.2881 159.194 34.2917 159.746C34.2954 160.297 33.8504 160.747 33.2978 160.751C32.7452 160.755 32.2942 160.311 32.2906 159.759C32.2869 159.208 32.7319 158.757 33.2845 158.754Z" fill="#9FB3C8"/>
<path d="M25.2799 158.807C25.8325 158.803 26.2835 159.247 26.2871 159.799C26.2908 160.351 25.8458 160.801 25.2932 160.804C24.7406 160.808 24.2897 160.364 24.286 159.812C24.2823 159.261 24.7273 158.811 25.2799 158.807Z" fill="#9FB3C8"/>
<path d="M17.2754 158.86C17.828 158.856 18.2789 159.301 18.2826 159.852C18.2862 160.404 17.8412 160.854 17.2886 160.858C16.736 160.861 16.2851 160.417 16.2814 159.866C16.2778 159.314 16.7228 158.864 17.2754 158.86Z" fill="#9FB3C8"/>
<path d="M9.27079 158.913C9.82339 158.91 10.2743 159.354 10.278 159.905C10.2817 160.457 9.83667 160.907 9.28407 160.911C8.73147 160.915 8.28052 160.47 8.27685 159.919C8.27319 159.367 8.71819 158.917 9.27079 158.913Z" fill="#9FB3C8"/>
<path d="M1.26621 158.967C1.81881 158.963 2.26976 159.407 2.27342 159.959C2.27709 160.51 1.83209 160.96 1.27949 160.964C0.726893 160.968 0.275949 160.524 0.272282 159.972C0.268614 159.42 0.713612 158.97 1.26621 158.967Z" fill="#9FB3C8"/>
<path d="M73.2543 150.498C73.8069 150.494 74.2578 150.938 74.2615 151.49C74.2651 152.042 73.8201 152.492 73.2675 152.495C72.7149 152.499 72.264 152.055 72.2603 151.503C72.2567 150.952 72.7017 150.502 73.2543 150.498Z" fill="#9FB3C8"/>
<path d="M65.2497 150.551C65.8023 150.547 66.2532 150.992 66.2569 151.543C66.2606 152.095 65.8156 152.545 65.263 152.549C64.7104 152.552 64.2594 152.108 64.2557 151.556C64.2521 151.005 64.6971 150.555 65.2497 150.551Z" fill="#9FB3C8"/>
<path d="M57.2451 150.604C57.7977 150.601 58.2487 151.045 58.2523 151.596C58.256 152.148 57.811 152.598 57.2584 152.602C56.7058 152.605 56.2548 152.161 56.2512 151.61C56.2475 151.058 56.6925 150.608 57.2451 150.604Z" fill="#9FB3C8"/>
<path d="M49.2405 150.658C49.7931 150.654 50.2441 151.098 50.2477 151.65C50.2514 152.201 49.8064 152.651 49.2538 152.655C48.7012 152.659 48.2503 152.214 48.2466 151.663C48.2429 151.111 48.6879 150.661 49.2405 150.658Z" fill="#9FB3C8"/>
<path d="M41.236 150.711C41.7886 150.707 42.2395 151.151 42.2432 151.703C42.2468 152.254 41.8018 152.705 41.2492 152.708C40.6966 152.712 40.2457 152.268 40.242 151.716C40.2384 151.165 40.6834 150.714 41.236 150.711Z" fill="#9FB3C8"/>
<path d="M33.2314 150.764C33.784 150.76 34.2349 151.204 34.2386 151.756C34.2423 152.308 33.7973 152.758 33.2447 152.761C32.6921 152.765 32.2411 152.321 32.2375 151.769C32.2338 151.218 32.6788 150.768 33.2314 150.764Z" fill="#9FB3C8"/>
<path d="M25.2268 150.817C25.7794 150.814 26.2304 151.258 26.234 151.809C26.2377 152.361 25.7927 152.811 25.2401 152.815C24.6875 152.818 24.2365 152.374 24.2329 151.823C24.2292 151.271 24.6742 150.821 25.2268 150.817Z" fill="#9FB3C8"/>
<path d="M17.2222 150.87C17.7748 150.867 18.2258 151.311 18.2294 151.862C18.2331 152.414 17.7881 152.864 17.2355 152.868C16.6829 152.872 16.232 152.427 16.2283 151.876C16.2246 151.324 16.6696 150.874 17.2222 150.87Z" fill="#9FB3C8"/>
<path d="M9.21766 150.924C9.77026 150.92 10.2212 151.364 10.2249 151.916C10.2285 152.467 9.78354 152.917 9.23094 152.921C8.67834 152.925 8.2274 152.481 8.22373 151.929C8.22007 151.377 8.66506 150.927 9.21766 150.924Z" fill="#9FB3C8"/>
<path d="M1.21309 150.977C1.76569 150.973 2.21664 151.417 2.2203 151.969C2.22397 152.521 1.77897 152.971 1.22637 152.974C0.673771 152.978 0.222827 152.534 0.219159 151.982C0.215492 151.431 0.66049 150.981 1.21309 150.977Z" fill="#9FB3C8"/>
<path d="M73.4136 174.467C73.9662 174.463 74.4172 174.908 74.4208 175.459C74.4245 176.011 73.9795 176.461 73.4269 176.465C72.8743 176.468 72.4234 176.024 72.4197 175.472C72.416 174.921 72.861 174.471 73.4136 174.467Z" fill="#9FB3C8"/>
<path d="M65.409 174.52C65.9616 174.517 66.4126 174.961 66.4163 175.512C66.4199 176.064 65.9749 176.514 65.4223 176.518C64.8697 176.521 64.4188 176.077 64.4151 175.526C64.4114 174.974 64.8564 174.524 65.409 174.52Z" fill="#9FB3C8"/>
<path d="M57.4045 174.574C57.9571 174.57 58.408 175.014 58.4117 175.566C58.4154 176.117 57.9703 176.567 57.4177 176.571C56.8651 176.575 56.4142 176.131 56.4105 175.579C56.4069 175.027 56.8519 174.577 57.4045 174.574Z" fill="#9FB3C8"/>
<path d="M49.3999 174.627C49.9525 174.623 50.4034 175.067 50.4071 175.619C50.4108 176.17 49.9658 176.621 49.4132 176.624C48.8606 176.628 48.4096 176.184 48.406 175.632C48.4023 175.081 48.8473 174.63 49.3999 174.627Z" fill="#9FB3C8"/>
<path d="M41.3953 174.68C41.9479 174.676 42.3989 175.12 42.4025 175.672C42.4062 176.224 41.9612 176.674 41.4086 176.677C40.856 176.681 40.4051 176.237 40.4014 175.685C40.3977 175.134 40.8427 174.684 41.3953 174.68Z" fill="#9FB3C8"/>
<path d="M33.3908 174.733C33.9434 174.73 34.3943 175.174 34.398 175.725C34.4016 176.277 33.9566 176.727 33.404 176.731C32.8514 176.734 32.4005 176.29 32.3968 175.739C32.3932 175.187 32.8382 174.737 33.3908 174.733Z" fill="#9FB3C8"/>
<path d="M25.3862 174.786C25.9388 174.783 26.3897 175.227 26.3934 175.779C26.3971 176.33 25.9521 176.78 25.3995 176.784C24.8469 176.788 24.3959 176.343 24.3922 175.792C24.3886 175.24 24.8336 174.79 25.3862 174.786Z" fill="#9FB3C8"/>
<path d="M17.3816 174.84C17.9342 174.836 18.3851 175.28 18.3888 175.832C18.3925 176.383 17.9475 176.833 17.3949 176.837C16.8423 176.841 16.3913 176.397 16.3877 175.845C16.384 175.293 16.829 174.843 17.3816 174.84Z" fill="#9FB3C8"/>
<path d="M9.37703 174.893C9.92963 174.889 10.3806 175.333 10.3842 175.885C10.3879 176.437 9.94291 176.887 9.39031 176.89C8.83771 176.894 8.38677 176.45 8.3831 175.898C8.37943 175.347 8.82443 174.897 9.37703 174.893Z" fill="#9FB3C8"/>
<path d="M1.37246 174.946C1.92506 174.942 2.376 175.387 2.37967 175.938C2.38334 176.49 1.93834 176.94 1.38574 176.944C0.833138 176.947 0.382194 176.503 0.378526 175.951C0.374859 175.4 0.819857 174.95 1.37246 174.946Z" fill="#9FB3C8"/>
<path d="M73.3605 166.477C73.9131 166.474 74.364 166.918 74.3677 167.469C74.3714 168.021 73.9264 168.471 73.3738 168.475C72.8212 168.478 72.3702 168.034 72.3666 167.483C72.3629 166.931 72.8079 166.481 73.3605 166.477Z" fill="#9FB3C8"/>
<path d="M65.3559 166.531C65.9085 166.527 66.3595 166.971 66.3631 167.523C66.3668 168.074 65.9218 168.524 65.3692 168.528C64.8166 168.532 64.3657 168.088 64.362 167.536C64.3583 166.984 64.8033 166.534 65.3559 166.531Z" fill="#9FB3C8"/>
<path d="M57.3513 166.584C57.9039 166.58 58.3549 167.024 58.3586 167.576C58.3622 168.127 57.9172 168.578 57.3646 168.581C56.812 168.585 56.3611 168.141 56.3574 167.589C56.3538 167.038 56.7987 166.587 57.3513 166.584Z" fill="#9FB3C8"/>
<path d="M49.3468 166.637C49.8994 166.633 50.3503 167.078 50.354 167.629C50.3577 168.181 49.9127 168.631 49.3601 168.634C48.8075 168.638 48.3565 168.194 48.3528 167.642C48.3492 167.091 48.7942 166.641 49.3468 166.637Z" fill="#9FB3C8"/>
<path d="M41.3422 166.69C41.8948 166.687 42.3457 167.131 42.3494 167.682C42.3531 168.234 41.9081 168.684 41.3555 168.688C40.8029 168.691 40.3519 168.247 40.3483 167.696C40.3446 167.144 40.7896 166.694 41.3422 166.69Z" fill="#9FB3C8"/>
<path d="M33.3376 166.743C33.8902 166.74 34.3412 167.184 34.3448 167.736C34.3485 168.287 33.9035 168.737 33.3509 168.741C32.7983 168.745 32.3474 168.3 32.3437 167.749C32.34 167.197 32.785 166.747 33.3376 166.743Z" fill="#9FB3C8"/>
<path d="M25.3331 166.797C25.8857 166.793 26.3366 167.237 26.3403 167.789C26.3439 168.34 25.8989 168.79 25.3463 168.794C24.7937 168.798 24.3428 168.354 24.3391 167.802C24.3355 167.25 24.7805 166.8 25.3331 166.797Z" fill="#9FB3C8"/>
<path d="M17.3285 166.85C17.8811 166.846 18.332 167.29 18.3357 167.842C18.3394 168.394 17.8944 168.844 17.3418 168.847C16.7892 168.851 16.3382 168.407 16.3346 167.855C16.3309 167.304 16.7759 166.854 17.3285 166.85Z" fill="#9FB3C8"/>
<path d="M9.32391 166.903C9.87651 166.899 10.3275 167.344 10.3311 167.895C10.3348 168.447 9.88979 168.897 9.33719 168.901C8.78459 168.904 8.33364 168.46 8.32998 167.909C8.32631 167.357 8.77131 166.907 9.32391 166.903Z" fill="#9FB3C8"/>
<path d="M1.31934 166.956C1.87194 166.953 2.32288 167.397 2.32655 167.948C2.33021 168.5 1.88522 168.95 1.33262 168.954C0.780015 168.957 0.329071 168.513 0.325404 167.962C0.321737 167.41 0.766735 166.96 1.31934 166.956Z" fill="#9FB3C8"/>
<path d="M73.5199 190.447C74.0725 190.443 74.5234 190.887 74.5271 191.439C74.5307 191.99 74.0857 192.44 73.5331 192.444C72.9805 192.448 72.5296 192.004 72.5259 191.452C72.5223 190.9 72.9673 190.45 73.5199 190.447Z" fill="#9FB3C8"/>
<path d="M65.5153 190.5C66.0679 190.496 66.5188 190.94 66.5225 191.492C66.5262 192.043 66.0812 192.494 65.5286 192.497C64.976 192.501 64.525 192.057 64.5214 191.505C64.5177 190.954 64.9627 190.504 65.5153 190.5Z" fill="#9FB3C8"/>
<path d="M57.5107 190.553C58.0633 190.549 58.5143 190.994 58.5179 191.545C58.5216 192.097 58.0766 192.547 57.524 192.551C56.9714 192.554 56.5205 192.11 56.5168 191.558C56.5131 191.007 56.9581 190.557 57.5107 190.553Z" fill="#9FB3C8"/>
<path d="M49.5061 190.606C50.0587 190.603 50.5097 191.047 50.5134 191.598C50.517 192.15 50.072 192.6 49.5194 192.604C48.9668 192.607 48.5159 192.163 48.5122 191.612C48.5085 191.06 48.9535 190.61 49.5061 190.606Z" fill="#9FB3C8"/>
<path d="M41.5016 190.66C42.0542 190.656 42.5051 191.1 42.5088 191.652C42.5124 192.203 42.0675 192.653 41.5148 192.657C40.9622 192.661 40.5113 192.216 40.5076 191.665C40.504 191.113 40.949 190.663 41.5016 190.66Z" fill="#9FB3C8"/>
<path d="M33.497 190.713C34.0496 190.709 34.5005 191.153 34.5042 191.705C34.5079 192.256 34.0629 192.706 33.5103 192.71C32.9577 192.714 32.5067 192.27 32.5031 191.718C32.4994 191.167 32.9444 190.716 33.497 190.713Z" fill="#9FB3C8"/>
<path d="M25.4924 190.766C26.045 190.762 26.496 191.206 26.4996 191.758C26.5033 192.31 26.0583 192.76 25.5057 192.763C24.9531 192.767 24.5022 192.323 24.4985 191.771C24.4948 191.22 24.9398 190.77 25.4924 190.766Z" fill="#9FB3C8"/>
<path d="M17.4879 190.819C18.0405 190.816 18.4914 191.26 18.4951 191.811C18.4987 192.363 18.0537 192.813 17.5011 192.817C16.9485 192.82 16.4976 192.376 16.4939 191.825C16.4903 191.273 16.9352 190.823 17.4879 190.819Z" fill="#9FB3C8"/>
<path d="M9.48328 190.872C10.0359 190.869 10.4868 191.313 10.4905 191.864C10.4942 192.416 10.0492 192.866 9.49656 192.87C8.94396 192.874 8.49301 192.429 8.48934 191.878C8.48568 191.326 8.93068 190.876 9.48328 190.872Z" fill="#9FB3C8"/>
<path d="M1.4787 190.926C2.0313 190.922 2.48225 191.366 2.48591 191.918C2.48958 192.469 2.04458 192.919 1.49198 192.923C0.939383 192.927 0.488438 192.483 0.484771 191.931C0.481104 191.379 0.926102 190.929 1.4787 190.926Z" fill="#9FB3C8"/>
<path d="M73.4667 182.457C74.0193 182.453 74.4703 182.897 74.474 183.449C74.4776 184.001 74.0326 184.451 73.48 184.454C72.9274 184.458 72.4765 184.014 72.4728 183.462C72.4691 182.911 72.9141 182.461 73.4667 182.457Z" fill="#9FB3C8"/>
<path d="M65.4622 182.51C66.0148 182.506 66.4657 182.951 66.4694 183.502C66.473 184.054 66.028 184.504 65.4754 184.508C64.9228 184.511 64.4719 184.067 64.4682 183.515C64.4646 182.964 64.9096 182.514 65.4622 182.51Z" fill="#9FB3C8"/>
<path d="M57.4576 182.563C58.0102 182.56 58.4611 183.004 58.4648 183.555C58.4685 184.107 58.0235 184.557 57.4709 184.561C56.9183 184.564 56.4673 184.12 56.4637 183.569C56.46 183.017 56.905 182.567 57.4576 182.563Z" fill="#9FB3C8"/>
<path d="M49.453 182.617C50.0056 182.613 50.4566 183.057 50.4602 183.609C50.4639 184.16 50.0189 184.61 49.4663 184.614C48.9137 184.618 48.4628 184.173 48.4591 183.622C48.4554 183.07 48.9004 182.62 49.453 182.617Z" fill="#9FB3C8"/>
<path d="M41.4484 182.67C42.0011 182.666 42.452 183.11 42.4557 183.662C42.4593 184.213 42.0143 184.664 41.4617 184.667C40.9091 184.671 40.4582 184.227 40.4545 183.675C40.4509 183.124 40.8958 182.673 41.4484 182.67Z" fill="#9FB3C8"/>
<path d="M33.4439 182.723C33.9965 182.719 34.4474 183.163 34.4511 183.715C34.4548 184.267 34.0098 184.717 33.4572 184.72C32.9046 184.724 32.4536 184.28 32.4499 183.728C32.4463 183.177 32.8913 182.727 33.4439 182.723Z" fill="#9FB3C8"/>
<path d="M25.4393 182.776C25.9919 182.773 26.4428 183.217 26.4465 183.768C26.4502 184.32 26.0052 184.77 25.4526 184.774C24.9 184.777 24.449 184.333 24.4454 183.782C24.4417 183.23 24.8867 182.78 25.4393 182.776Z" fill="#9FB3C8"/>
<path d="M17.4347 182.829C17.9873 182.826 18.4383 183.27 18.4419 183.821C18.4456 184.373 18.0006 184.823 17.448 184.827C16.8954 184.831 16.4445 184.386 16.4408 183.835C16.4371 183.283 16.8821 182.833 17.4347 182.829Z" fill="#9FB3C8"/>
<path d="M9.43015 182.883C9.98275 182.879 10.4337 183.323 10.4374 183.875C10.441 184.426 9.99603 184.876 9.44343 184.88C8.89083 184.884 8.43989 184.44 8.43622 183.888C8.43255 183.336 8.87755 182.886 9.43015 182.883Z" fill="#9FB3C8"/>
<path d="M1.42558 182.936C1.97818 182.932 2.42912 183.376 2.43279 183.928C2.43646 184.48 1.99146 184.93 1.43886 184.933C0.88626 184.937 0.435316 184.493 0.431649 183.941C0.427981 183.39 0.87298 182.94 1.42558 182.936Z" fill="#9FB3C8"/>
<path d="M73.6261 206.426C74.1787 206.422 74.6297 206.867 74.6333 207.418C74.637 207.97 74.192 208.42 73.6394 208.424C73.0868 208.427 72.6358 207.983 72.6322 207.432C72.6285 206.88 73.0735 206.43 73.6261 206.426Z" fill="#9FB3C8"/>
<path d="M65.6215 206.479C66.1741 206.476 66.6251 206.92 66.6287 207.471C66.6324 208.023 66.1874 208.473 65.6348 208.477C65.0822 208.48 64.6313 208.036 64.6276 207.485C64.6239 206.933 65.0689 206.483 65.6215 206.479Z" fill="#9FB3C8"/>
<path d="M57.617 206.533C58.1696 206.529 58.6205 206.973 58.6242 207.525C58.6278 208.076 58.1828 208.526 57.6302 208.53C57.0776 208.534 56.6267 208.09 56.623 207.538C56.6194 206.986 57.0644 206.536 57.617 206.533Z" fill="#9FB3C8"/>
<path d="M49.6124 206.586C50.165 206.582 50.6159 207.026 50.6196 207.578C50.6233 208.129 50.1783 208.58 49.6257 208.583C49.0731 208.587 48.6221 208.143 48.6185 207.591C48.6148 207.04 49.0598 206.589 49.6124 206.586Z" fill="#9FB3C8"/>
<path d="M41.6078 206.639C42.1604 206.635 42.6114 207.08 42.615 207.631C42.6187 208.183 42.1737 208.633 41.6211 208.636C41.0685 208.64 40.6176 208.196 40.6139 207.644C40.6102 207.093 41.0552 206.643 41.6078 206.639Z" fill="#9FB3C8"/>
<path d="M33.6032 206.692C34.1558 206.689 34.6068 207.133 34.6105 207.684C34.6141 208.236 34.1691 208.686 33.6165 208.69C33.0639 208.693 32.613 208.249 32.6093 207.698C32.6056 207.146 33.0506 206.696 33.6032 206.692Z" fill="#9FB3C8"/>
<path d="M25.5987 206.745C26.1513 206.742 26.6022 207.186 26.6059 207.738C26.6095 208.289 26.1645 208.739 25.6119 208.743C25.0593 208.747 24.6084 208.302 24.6047 207.751C24.6011 207.199 25.0461 206.749 25.5987 206.745Z" fill="#9FB3C8"/>
<path d="M17.5941 206.799C18.1467 206.795 18.5976 207.239 18.6013 207.791C18.605 208.342 18.16 208.792 17.6074 208.796C17.0548 208.8 16.6038 208.356 16.6002 207.804C16.5965 207.252 17.0415 206.802 17.5941 206.799Z" fill="#9FB3C8"/>
<path d="M9.58952 206.852C10.1421 206.848 10.5931 207.292 10.5967 207.844C10.6004 208.396 10.1554 208.846 9.6028 208.849C9.0502 208.853 8.59926 208.409 8.59559 207.857C8.59192 207.306 9.03692 206.856 9.58952 206.852Z" fill="#9FB3C8"/>
<path d="M1.58495 206.905C2.13755 206.901 2.58849 207.346 2.59216 207.897C2.59583 208.449 2.15083 208.899 1.59823 208.903C1.04563 208.906 0.594683 208.462 0.591016 207.91C0.587349 207.359 1.03235 206.909 1.58495 206.905Z" fill="#9FB3C8"/>
<path d="M73.573 198.436C74.1256 198.433 74.5765 198.877 74.5802 199.428C74.5839 199.98 74.1389 200.43 73.5863 200.434C73.0337 200.437 72.5827 199.993 72.5791 199.442C72.5754 198.89 73.0204 198.44 73.573 198.436Z" fill="#9FB3C8"/>
<path d="M65.5684 198.49C66.121 198.486 66.572 198.93 66.5756 199.482C66.5793 200.033 66.1343 200.483 65.5817 200.487C65.0291 200.491 64.5781 200.047 64.5745 199.495C64.5708 198.943 65.0158 198.493 65.5684 198.49Z" fill="#9FB3C8"/>
<path d="M57.5638 198.543C58.1164 198.539 58.5674 198.983 58.5711 199.535C58.5747 200.086 58.1297 200.537 57.5771 200.54C57.0245 200.544 56.5736 200.1 56.5699 199.548C56.5662 198.997 57.0112 198.546 57.5638 198.543Z" fill="#9FB3C8"/>
<path d="M49.5593 198.596C50.1119 198.592 50.5628 199.037 50.5665 199.588C50.5701 200.14 50.1251 200.59 49.5725 200.593C49.0199 200.597 48.569 200.153 48.5653 199.601C48.5617 199.05 49.0067 198.6 49.5593 198.596Z" fill="#9FB3C8"/>
<path d="M41.5547 198.649C42.1073 198.646 42.5582 199.09 42.5619 199.641C42.5656 200.193 42.1206 200.643 41.568 200.647C41.0154 200.65 40.5644 200.206 40.5608 199.655C40.5571 199.103 41.0021 198.653 41.5547 198.649Z" fill="#9FB3C8"/>
<path d="M33.5501 198.702C34.1027 198.699 34.5537 199.143 34.5573 199.695C34.561 200.246 34.116 200.696 33.5634 200.7C33.0108 200.704 32.5599 200.259 32.5562 199.708C32.5525 199.156 32.9975 198.706 33.5501 198.702Z" fill="#9FB3C8"/>
<path d="M25.5455 198.756C26.0981 198.752 26.5491 199.196 26.5528 199.748C26.5564 200.299 26.1114 200.749 25.5588 200.753C25.0062 200.757 24.5553 200.313 24.5516 199.761C24.5479 199.209 24.9929 198.759 25.5455 198.756Z" fill="#9FB3C8"/>
<path d="M17.541 198.809C18.0936 198.805 18.5445 199.249 18.5482 199.801C18.5519 200.353 18.1069 200.803 17.5543 200.806C17.0017 200.81 16.5507 200.366 16.547 199.814C16.5434 199.263 16.9884 198.813 17.541 198.809Z" fill="#9FB3C8"/>
<path d="M9.5364 198.862C10.089 198.858 10.5399 199.303 10.5436 199.854C10.5473 200.406 10.1023 200.856 9.54968 200.86C8.99708 200.863 8.54613 200.419 8.54247 199.868C8.5388 199.316 8.9838 198.866 9.5364 198.862Z" fill="#9FB3C8"/>
<path d="M1.53182 198.915C2.08443 198.912 2.53537 199.356 2.53904 199.907C2.5427 200.459 2.09771 200.909 1.54511 200.913C0.992505 200.916 0.541561 200.472 0.537894 199.921C0.534226 199.369 0.979224 198.919 1.53182 198.915Z" fill="#9FB3C8"/>
</g>
<path d="M40.3709 154.248C40.8909 155.634 41.3659 157.181 41.2064 158.699C40.8979 161.628 40.0069 163.445 38.2701 164.301C36.8072 162.914 32.4565 158.609 32.1861 157.839C32.1203 157.649 32.0683 155.26 32.0267 151.769L19.2 147.956L14 165.49L44.5517 174.562L49.7517 157.025L40.3709 154.248Z" fill="#F7C948"/>
<path d="M93.1199 90.6899C94.16 99.0411 94.4754 108.945 94.16 120.365C86.5333 126.442 80.0957 126.317 70.2573 126.317C60.4189 126.317 50.005 124.171 46.3928 121.086C45.9664 87.2544 51.1005 57.8501 69.6194 57.8501C75.6271 57.8501 80.4423 60.1104 84.1794 64.5651" fill="white"/>
<path d="M93.12 90.6899C94.16 99.0411 94.4754 108.945 94.16 120.365C86.5333 126.442 80.0957 126.317 70.2573 126.317C60.4189 126.317 50.005 124.171 46.3928 121.086C45.9664 87.2544 51.1005 57.8501 69.6194 57.8501C75.6271 57.8501 80.4423 60.1104 84.1794 64.5651" stroke="#243B53" stroke-width="0.75" stroke-linecap="round" stroke-linejoin="round"/>
<path d="M78.6528 65.2168C86.855 62.3811 102.458 70.5832 105.835 72.7811C106.799 77.4507 100.51 90.1872 96.416 91.8824C95.296 91.5247 94.2054 91.0808 93.1539 90.5547" fill="white"/>
<path d="M78.6528 65.2168C86.855 62.3811 102.458 70.5832 105.835 72.7811C106.799 77.4507 100.51 90.1872 96.416 91.8824C95.296 91.5247 94.2054 91.0808 93.1539 90.5547" stroke="#243B53" stroke-width="0.75" stroke-linecap="round" stroke-linejoin="round"/>
<path d="M93.1544 90.5512C88.727 88.351 84.6022 85.5884 80.8823 82.3318L93.1544 90.5512Z" fill="white"/>
<path d="M93.1544 90.5512C88.727 88.351 84.6022 85.5884 80.8823 82.3318" stroke="#243B53" stroke-width="0.75" stroke-linecap="round" stroke-linejoin="round"/>
<path d="M47.5542 93.5568C42.3057 91.6848 36.4158 88.0726 35.2822 85.3824C35.6355 84.2595 36.0747 83.1654 36.5961 82.1099" fill="white"/>
<path d="M47.5542 93.5568C42.3057 91.6848 36.4158 88.0726 35.2822 85.3824C35.6355 84.2595 36.0747 83.1654 36.5961 82.1099" stroke="#243B53" stroke-width="0.75" stroke-linecap="round" stroke-linejoin="round"/>
<path d="M36.5962 82.1098C40.3645 74.2232 50.2826 60.3982 57.8399 63.2304L36.5962 82.1098Z" fill="white"/>
<path d="M36.5962 82.1098C40.3645 74.2232 50.2826 60.3982 57.8399 63.2304" stroke="#243B53" stroke-width="0.75" stroke-linecap="round" stroke-linejoin="round"/>
<path d="M46.3714 117.456C45.9589 118.025 43.4074 121.651 43.2306 121.963C43.0538 122.275 39.1295 149.003 39.2994 150.892C39.4693 152.781 41.5285 155.797 41.2199 158.727C40.9114 161.656 40.0239 163.455 38.2906 164.301C36.8277 162.914 32.477 158.609 32.2066 157.839C31.9362 157.07 31.9154 121.484 31.8946 120.136C31.8738 118.787 37.1466 88.7416 37.417 87.9789" fill="white"/>
<path d="M46.3714 117.456C45.9589 118.025 43.4074 121.651 43.2306 121.963C43.0538 122.275 39.1295 149.003 39.2994 150.892C39.4693 152.781 41.5285 155.797 41.2199 158.727C40.9114 161.656 40.0239 163.455 38.2906 164.301C36.8277 162.914 32.477 158.609 32.2066 157.839C31.9362 157.07 31.9154 121.484 31.8946 120.136C31.8738 118.787 37.1466 88.7416 37.417 87.9789" stroke="#243B53" stroke-width="0.75" stroke-linecap="round" stroke-linejoin="round"/>
<path d="M62.7723 59.3408C62.8069 57.8432 62.696 50.1715 62.7341 49.2216C61.3093 49.1835 52.445 42.0629 52.4312 32.0893C52.4034 11.5181 75.2523 12.4992 82.5669 0.948273" fill="white"/>
<path d="M62.7723 59.3408C62.8069 57.8432 62.696 50.1715 62.7341 49.2216C61.3093 49.1835 52.445 42.0629 52.4312 32.0893C52.4034 11.5181 75.2523 12.4992 82.5669 0.948273" stroke="#243B53" stroke-width="0.75" stroke-linecap="round" stroke-linejoin="round"/>
<path d="M83.749 5.18106C83.177 6.56773 78.8333 13.8859 77.2524 15.692L83.749 5.18106Z" fill="white"/>
<path d="M83.749 5.18106C83.177 6.56773 78.8333 13.8859 77.2524 15.692" stroke="#243B53" stroke-width="0.75" stroke-linecap="round" stroke-linejoin="round"/>
<path d="M85.7217 8.26987C85.2884 9.49013 82.782 16.0317 80.2271 20.0565L85.7217 8.26987Z" fill="white"/>
<path d="M85.7217 8.26987C85.2884 9.49013 82.782 16.0317 80.2271 20.0565" stroke="#243B53" stroke-width="0.75" stroke-linecap="round" stroke-linejoin="round"/>
<path d="M74.1816 50.0848C80.2032 46.7811 82.2971 40.9918 82.4045 35.8923C83.6629 34.7136 84.6544 34.308 84.5573 33.3859C84.4499 32.3806 79.9155 30.4982 79.2707 26.0089" fill="white"/>
<path d="M74.1816 50.0848C80.2032 46.7811 82.2971 40.9918 82.4045 35.8923C83.6629 34.7136 84.6544 34.308 84.5573 33.3859C84.4499 32.3806 79.9155 30.4982 79.2707 26.0089" stroke="#243B53" stroke-width="0.75" stroke-linecap="round" stroke-linejoin="round"/>
<path d="M105.703 75.9011C106.117 76.1145 106.542 76.3066 106.975 76.4765C107.385 75.6237 122.797 45.9491 123.141 45.0166C122.894 43.876 122.281 41.3488 122.586 40.2014C122.891 39.0539 130.687 30.6992 132.14 31.9576C133.593 33.216 129.953 37.6083 128.673 38.8424C130.036 38.8944 132.487 37.9966 133.728 41.328C133.783 41.484 133.839 41.6331 133.894 41.7787C135.003 44.7739 135.25 45.9387 134.65 46.6043C134.05 47.2699 130.868 49.5683 130.4 50.7262C129.932 51.884 116.186 88.7278 112.987 93.1131C110.976 95.1376 103.554 92.2499 99.2656 89.8406" fill="white"/>
<path d="M105.703 75.9011C106.117 76.1145 106.542 76.3066 106.975 76.4765C107.385 75.6237 122.797 45.9491 123.141 45.0166C122.894 43.876 122.281 41.3488 122.586 40.2014C122.891 39.0539 130.687 30.6992 132.14 31.9576C133.593 33.216 129.953 37.6083 128.673 38.8424C130.036 38.8944 132.487 37.9966 133.728 41.328C133.783 41.484 133.839 41.6331 133.894 41.7787C135.003 44.7739 135.25 45.9387 134.65 46.6043C134.05 47.2699 130.868 49.5683 130.4 50.7262C129.932 51.884 116.186 88.7278 112.987 93.1131C110.976 95.1376 103.554 92.2499 99.2656 89.8406" stroke="#243B53" stroke-width="0.75" stroke-linecap="round" stroke-linejoin="round"/>
<path d="M49.4222 237.753V243.299L32.2969 243.507L42.579 239.396L42.6206 237.801" stroke="#243B53" stroke-width="0.75" stroke-linecap="round" stroke-linejoin="round"/>
<path d="M84.9312 237.448H92.8144V243.313H84.9312V237.448Z" stroke="#243B53" stroke-width="0.75" stroke-linecap="round" stroke-linejoin="round"/>
<path d="M40.8247 238.178C40.8836 236.904 46.146 120.267 46.2292 119.744C67.6463 129.131 88.117 124.906 94.3778 119C94.5061 121.969 94.3189 238.097 94.3189 238.097L84.477 238.259L67.7815 168.586L50.6146 238.14C50.6146 238.14 41.9722 238.171 40.8247 238.178Z" fill="#5670ED"/>
<rect x="137.368" y="7.72083" width="25" height="24" transform="rotate(6.19684 137.368 7.72083)" fill="#F7C948"/>
<rect x="153.607" y="41.3978" width="25" height="24" transform="rotate(2.82845 153.607 41.3978)" fill="#D7DCF8"/>
<rect x="175.393" y="10.6663" width="25" height="24" transform="rotate(-2.981 175.393 10.6663)" fill="#C6F7E2"/>
<rect x="195.622" y="41" width="25" height="24" transform="rotate(3.87488 195.622 41)" fill="#D7DCF8"/>
<circle cx="155.5" cy="29.5" r="2.5" fill="#EF4E4D"/>
<rect x="140.342" y="12" width="19" height="3" transform="rotate(6.2 140.342 12)" fill="#FFFBEA"/>
<rect x="140.324" y="17.324" width="13" height="3" transform="rotate(6.2 140.324 17.324)" fill="#FFFBEA"/>
<rect x="158.209" y="47" width="10.0531" height="3" transform="rotate(2.8 158.209 47)" fill="#EDEFFD"/>
<rect x="158.205" y="52.1466" width="14.6455" height="3" transform="rotate(2.8 158.205 52.1466)" fill="#EDEFFD"/>
<rect x="158.146" y="57.4451" width="16.1263" height="3" transform="rotate(2.8 158.146 57.4451)" fill="#EDEFFD"/>
<rect x="200.203" y="47" width="16.7095" height="3" transform="rotate(3.87 200.203 47)" fill="#EDEFFD"/>
<rect x="199.241" y="52.0117" width="14.6455" height="3" transform="rotate(3.87 199.241 52.0117)" fill="#EDEFFD"/>
<rect x="199.203" y="58" width="16.1263" height="3" transform="rotate(3.87 199.203 58)" fill="#EDEFFD"/>
<rect x="179.005" y="14.9944" width="19" height="3" transform="rotate(-3 179.005 14.9944)" fill="#EFFCF6"/>
<rect x="179" y="19.8374" width="16.7599" height="3" transform="rotate(-3 179 19.8374)" fill="#EFFCF6"/>
<rect x="180" y="24.8771" width="16.7599" height="3" transform="rotate(-3 180 24.8771)" fill="#EFFCF6"/>
</svg>
