<svg width="422" height="411" viewBox="0 0 422 411" fill="none" xmlns="http://www.w3.org/2000/svg">
<g opacity="0.5">
<path d="M170.378 408.935C170.378 410.076 169.448 411 168.3 411C167.152 411 166.222 410.076 166.222 408.935C166.222 407.795 167.152 406.87 168.3 406.87C169.448 406.87 170.378 407.795 170.378 408.935Z" fill="#C4C4C4"/>
<path d="M170.378 392.416C170.378 393.556 169.448 394.481 168.3 394.481C167.152 394.481 166.222 393.556 166.222 392.416C166.222 391.275 167.152 390.351 168.3 390.351C169.448 390.351 170.378 391.275 170.378 392.416Z" fill="#C4C4C4"/>
<path d="M170.378 375.896C170.378 377.037 169.448 377.961 168.3 377.961C167.152 377.961 166.222 377.037 166.222 375.896C166.222 374.756 167.152 373.831 168.3 373.831C169.448 373.831 170.378 374.756 170.378 375.896Z" fill="#C4C4C4"/>
<path d="M170.378 359.377C170.378 360.517 169.448 361.442 168.3 361.442C167.152 361.442 166.222 360.517 166.222 359.377C166.222 358.236 167.152 357.312 168.3 357.312C169.448 357.312 170.378 358.236 170.378 359.377Z" fill="#C4C4C4"/>
<path d="M170.378 342.857C170.378 343.998 169.448 344.922 168.3 344.922C167.152 344.922 166.222 343.998 166.222 342.857C166.222 341.717 167.152 340.792 168.3 340.792C169.448 340.792 170.378 341.717 170.378 342.857Z" fill="#C4C4C4"/>
<path d="M170.378 326.338C170.378 327.478 169.448 328.403 168.3 328.403C167.152 328.403 166.222 327.478 166.222 326.338C166.222 325.197 167.152 324.273 168.3 324.273C169.448 324.273 170.378 325.197 170.378 326.338Z" fill="#C4C4C4"/>
<path d="M170.378 309.818C170.378 310.959 169.448 311.883 168.3 311.883C167.152 311.883 166.222 310.959 166.222 309.818C166.222 308.678 167.152 307.753 168.3 307.753C169.448 307.753 170.378 308.678 170.378 309.818Z" fill="#C4C4C4"/>
<path d="M170.378 293.299C170.378 294.439 169.448 295.364 168.3 295.364C167.152 295.364 166.222 294.439 166.222 293.299C166.222 292.158 167.152 291.234 168.3 291.234C169.448 291.234 170.378 292.158 170.378 293.299Z" fill="#C4C4C4"/>
<path d="M170.378 276.779C170.378 277.92 169.448 278.844 168.3 278.844C167.152 278.844 166.222 277.92 166.222 276.779C166.222 275.639 167.152 274.714 168.3 274.714C169.448 274.714 170.378 275.639 170.378 276.779Z" fill="#C4C4C4"/>
<path d="M170.378 260.26C170.378 261.4 169.448 262.325 168.3 262.325C167.152 262.325 166.222 261.4 166.222 260.26C166.222 259.119 167.152 258.195 168.3 258.195C169.448 258.195 170.378 259.119 170.378 260.26Z" fill="#C4C4C4"/>
<path d="M187 408.935C187 410.076 186.07 411 184.922 411C183.775 411 182.844 410.076 182.844 408.935C182.844 407.795 183.775 406.87 184.922 406.87C186.07 406.87 187 407.795 187 408.935Z" fill="#C4C4C4"/>
<path d="M187 392.416C187 393.556 186.07 394.481 184.922 394.481C183.775 394.481 182.844 393.556 182.844 392.416C182.844 391.275 183.775 390.351 184.922 390.351C186.07 390.351 187 391.275 187 392.416Z" fill="#C4C4C4"/>
<path d="M187 375.896C187 377.037 186.07 377.961 184.922 377.961C183.775 377.961 182.844 377.037 182.844 375.896C182.844 374.756 183.775 373.831 184.922 373.831C186.07 373.831 187 374.756 187 375.896Z" fill="#C4C4C4"/>
<path d="M187 359.377C187 360.517 186.07 361.442 184.922 361.442C183.775 361.442 182.844 360.517 182.844 359.377C182.844 358.236 183.775 357.312 184.922 357.312C186.07 357.312 187 358.236 187 359.377Z" fill="#C4C4C4"/>
<path d="M187 342.857C187 343.998 186.07 344.922 184.922 344.922C183.775 344.922 182.844 343.998 182.844 342.857C182.844 341.717 183.775 340.792 184.922 340.792C186.07 340.792 187 341.717 187 342.857Z" fill="#C4C4C4"/>
<path d="M187 326.338C187 327.478 186.07 328.403 184.922 328.403C183.775 328.403 182.844 327.478 182.844 326.338C182.844 325.197 183.775 324.273 184.922 324.273C186.07 324.273 187 325.197 187 326.338Z" fill="#C4C4C4"/>
<path d="M187 309.818C187 310.959 186.07 311.883 184.922 311.883C183.775 311.883 182.844 310.959 182.844 309.818C182.844 308.678 183.775 307.753 184.922 307.753C186.07 307.753 187 308.678 187 309.818Z" fill="#C4C4C4"/>
<path d="M187 293.299C187 294.439 186.07 295.364 184.922 295.364C183.775 295.364 182.844 294.439 182.844 293.299C182.844 292.158 183.775 291.234 184.922 291.234C186.07 291.234 187 292.158 187 293.299Z" fill="#C4C4C4"/>
<path d="M187 276.779C187 277.92 186.07 278.844 184.922 278.844C183.775 278.844 182.844 277.92 182.844 276.779C182.844 275.639 183.775 274.714 184.922 274.714C186.07 274.714 187 275.639 187 276.779Z" fill="#C4C4C4"/>
<path d="M187 260.26C187 261.4 186.07 262.325 184.922 262.325C183.775 262.325 182.844 261.4 182.844 260.26C182.844 259.119 183.775 258.195 184.922 258.195C186.07 258.195 187 259.119 187 260.26Z" fill="#C4C4C4"/>
<path d="M137.133 408.935C137.133 410.076 136.203 411 135.056 411C133.908 411 132.978 410.076 132.978 408.935C132.978 407.795 133.908 406.87 135.056 406.87C136.203 406.87 137.133 407.795 137.133 408.935Z" fill="#C4C4C4"/>
<path d="M137.133 392.416C137.133 393.556 136.203 394.481 135.056 394.481C133.908 394.481 132.978 393.556 132.978 392.416C132.978 391.275 133.908 390.351 135.056 390.351C136.203 390.351 137.133 391.275 137.133 392.416Z" fill="#C4C4C4"/>
<path d="M137.133 375.896C137.133 377.037 136.203 377.961 135.056 377.961C133.908 377.961 132.978 377.037 132.978 375.896C132.978 374.756 133.908 373.831 135.056 373.831C136.203 373.831 137.133 374.756 137.133 375.896Z" fill="#C4C4C4"/>
<path d="M137.133 359.377C137.133 360.517 136.203 361.442 135.056 361.442C133.908 361.442 132.978 360.517 132.978 359.377C132.978 358.236 133.908 357.312 135.056 357.312C136.203 357.312 137.133 358.236 137.133 359.377Z" fill="#C4C4C4"/>
<path d="M137.133 342.857C137.133 343.998 136.203 344.922 135.056 344.922C133.908 344.922 132.978 343.998 132.978 342.857C132.978 341.717 133.908 340.792 135.056 340.792C136.203 340.792 137.133 341.717 137.133 342.857Z" fill="#C4C4C4"/>
<path d="M137.133 326.338C137.133 327.478 136.203 328.403 135.056 328.403C133.908 328.403 132.978 327.478 132.978 326.338C132.978 325.197 133.908 324.273 135.056 324.273C136.203 324.273 137.133 325.197 137.133 326.338Z" fill="#C4C4C4"/>
<path d="M137.133 309.818C137.133 310.959 136.203 311.883 135.056 311.883C133.908 311.883 132.978 310.959 132.978 309.818C132.978 308.678 133.908 307.753 135.056 307.753C136.203 307.753 137.133 308.678 137.133 309.818Z" fill="#C4C4C4"/>
<path d="M137.133 293.299C137.133 294.439 136.203 295.364 135.056 295.364C133.908 295.364 132.978 294.439 132.978 293.299C132.978 292.158 133.908 291.234 135.056 291.234C136.203 291.234 137.133 292.158 137.133 293.299Z" fill="#C4C4C4"/>
<path d="M137.133 276.779C137.133 277.92 136.203 278.844 135.056 278.844C133.908 278.844 132.978 277.92 132.978 276.779C132.978 275.639 133.908 274.714 135.056 274.714C136.203 274.714 137.133 275.639 137.133 276.779Z" fill="#C4C4C4"/>
<path d="M137.133 260.26C137.133 261.4 136.203 262.325 135.056 262.325C133.908 262.325 132.978 261.4 132.978 260.26C132.978 259.119 133.908 258.195 135.056 258.195C136.203 258.195 137.133 259.119 137.133 260.26Z" fill="#C4C4C4"/>
<path d="M153.756 408.935C153.756 410.076 152.825 411 151.678 411C150.53 411 149.6 410.076 149.6 408.935C149.6 407.795 150.53 406.87 151.678 406.87C152.825 406.87 153.756 407.795 153.756 408.935Z" fill="#C4C4C4"/>
<path d="M153.756 392.416C153.756 393.556 152.825 394.481 151.678 394.481C150.53 394.481 149.6 393.556 149.6 392.416C149.6 391.275 150.53 390.351 151.678 390.351C152.825 390.351 153.756 391.275 153.756 392.416Z" fill="#C4C4C4"/>
<path d="M153.756 375.896C153.756 377.037 152.825 377.961 151.678 377.961C150.53 377.961 149.6 377.037 149.6 375.896C149.6 374.756 150.53 373.831 151.678 373.831C152.825 373.831 153.756 374.756 153.756 375.896Z" fill="#C4C4C4"/>
<path d="M153.756 359.377C153.756 360.517 152.825 361.442 151.678 361.442C150.53 361.442 149.6 360.517 149.6 359.377C149.6 358.236 150.53 357.312 151.678 357.312C152.825 357.312 153.756 358.236 153.756 359.377Z" fill="#C4C4C4"/>
<path d="M153.756 342.857C153.756 343.998 152.825 344.922 151.678 344.922C150.53 344.922 149.6 343.998 149.6 342.857C149.6 341.717 150.53 340.792 151.678 340.792C152.825 340.792 153.756 341.717 153.756 342.857Z" fill="#C4C4C4"/>
<path d="M153.756 326.338C153.756 327.478 152.825 328.403 151.678 328.403C150.53 328.403 149.6 327.478 149.6 326.338C149.6 325.197 150.53 324.273 151.678 324.273C152.825 324.273 153.756 325.197 153.756 326.338Z" fill="#C4C4C4"/>
<path d="M153.756 309.818C153.756 310.959 152.825 311.883 151.678 311.883C150.53 311.883 149.6 310.959 149.6 309.818C149.6 308.678 150.53 307.753 151.678 307.753C152.825 307.753 153.756 308.678 153.756 309.818Z" fill="#C4C4C4"/>
<path d="M153.756 293.299C153.756 294.439 152.825 295.364 151.678 295.364C150.53 295.364 149.6 294.439 149.6 293.299C149.6 292.158 150.53 291.234 151.678 291.234C152.825 291.234 153.756 292.158 153.756 293.299Z" fill="#C4C4C4"/>
<path d="M153.756 276.779C153.756 277.92 152.825 278.844 151.678 278.844C150.53 278.844 149.6 277.92 149.6 276.779C149.6 275.639 150.53 274.714 151.678 274.714C152.825 274.714 153.756 275.639 153.756 276.779Z" fill="#C4C4C4"/>
<path d="M153.756 260.26C153.756 261.4 152.825 262.325 151.678 262.325C150.53 262.325 149.6 261.4 149.6 260.26C149.6 259.119 150.53 258.195 151.678 258.195C152.825 258.195 153.756 259.119 153.756 260.26Z" fill="#C4C4C4"/>
<path d="M103.889 408.935C103.889 410.076 102.959 411 101.811 411C100.664 411 99.7333 410.076 99.7333 408.935C99.7333 407.795 100.664 406.87 101.811 406.87C102.959 406.87 103.889 407.795 103.889 408.935Z" fill="#C4C4C4"/>
<path d="M103.889 392.416C103.889 393.556 102.959 394.481 101.811 394.481C100.664 394.481 99.7333 393.556 99.7333 392.416C99.7333 391.275 100.664 390.351 101.811 390.351C102.959 390.351 103.889 391.275 103.889 392.416Z" fill="#C4C4C4"/>
<path d="M103.889 375.896C103.889 377.037 102.959 377.961 101.811 377.961C100.664 377.961 99.7333 377.037 99.7333 375.896C99.7333 374.756 100.664 373.831 101.811 373.831C102.959 373.831 103.889 374.756 103.889 375.896Z" fill="#C4C4C4"/>
<path d="M103.889 359.377C103.889 360.517 102.959 361.442 101.811 361.442C100.664 361.442 99.7333 360.517 99.7333 359.377C99.7333 358.236 100.664 357.312 101.811 357.312C102.959 357.312 103.889 358.236 103.889 359.377Z" fill="#C4C4C4"/>
<path d="M103.889 342.857C103.889 343.998 102.959 344.922 101.811 344.922C100.664 344.922 99.7333 343.998 99.7333 342.857C99.7333 341.717 100.664 340.792 101.811 340.792C102.959 340.792 103.889 341.717 103.889 342.857Z" fill="#C4C4C4"/>
<path d="M103.889 326.338C103.889 327.478 102.959 328.403 101.811 328.403C100.664 328.403 99.7333 327.478 99.7333 326.338C99.7333 325.197 100.664 324.273 101.811 324.273C102.959 324.273 103.889 325.197 103.889 326.338Z" fill="#C4C4C4"/>
<path d="M103.889 309.818C103.889 310.959 102.959 311.883 101.811 311.883C100.664 311.883 99.7333 310.959 99.7333 309.818C99.7333 308.678 100.664 307.753 101.811 307.753C102.959 307.753 103.889 308.678 103.889 309.818Z" fill="#C4C4C4"/>
<path d="M103.889 293.299C103.889 294.439 102.959 295.364 101.811 295.364C100.664 295.364 99.7333 294.439 99.7333 293.299C99.7333 292.158 100.664 291.234 101.811 291.234C102.959 291.234 103.889 292.158 103.889 293.299Z" fill="#C4C4C4"/>
<path d="M103.889 276.779C103.889 277.92 102.959 278.844 101.811 278.844C100.664 278.844 99.7333 277.92 99.7333 276.779C99.7333 275.639 100.664 274.714 101.811 274.714C102.959 274.714 103.889 275.639 103.889 276.779Z" fill="#C4C4C4"/>
<path d="M103.889 260.26C103.889 261.4 102.959 262.325 101.811 262.325C100.664 262.325 99.7333 261.4 99.7333 260.26C99.7333 259.119 100.664 258.195 101.811 258.195C102.959 258.195 103.889 259.119 103.889 260.26Z" fill="#C4C4C4"/>
<path d="M120.511 408.935C120.511 410.076 119.581 411 118.433 411C117.286 411 116.356 410.076 116.356 408.935C116.356 407.795 117.286 406.87 118.433 406.87C119.581 406.87 120.511 407.795 120.511 408.935Z" fill="#C4C4C4"/>
<path d="M120.511 392.416C120.511 393.556 119.581 394.481 118.433 394.481C117.286 394.481 116.356 393.556 116.356 392.416C116.356 391.275 117.286 390.351 118.433 390.351C119.581 390.351 120.511 391.275 120.511 392.416Z" fill="#C4C4C4"/>
<path d="M120.511 375.896C120.511 377.037 119.581 377.961 118.433 377.961C117.286 377.961 116.356 377.037 116.356 375.896C116.356 374.756 117.286 373.831 118.433 373.831C119.581 373.831 120.511 374.756 120.511 375.896Z" fill="#C4C4C4"/>
<path d="M120.511 359.377C120.511 360.517 119.581 361.442 118.433 361.442C117.286 361.442 116.356 360.517 116.356 359.377C116.356 358.236 117.286 357.312 118.433 357.312C119.581 357.312 120.511 358.236 120.511 359.377Z" fill="#C4C4C4"/>
<path d="M120.511 342.857C120.511 343.998 119.581 344.922 118.433 344.922C117.286 344.922 116.356 343.998 116.356 342.857C116.356 341.717 117.286 340.792 118.433 340.792C119.581 340.792 120.511 341.717 120.511 342.857Z" fill="#C4C4C4"/>
<path d="M120.511 326.338C120.511 327.478 119.581 328.403 118.433 328.403C117.286 328.403 116.356 327.478 116.356 326.338C116.356 325.197 117.286 324.273 118.433 324.273C119.581 324.273 120.511 325.197 120.511 326.338Z" fill="#C4C4C4"/>
<path d="M120.511 309.818C120.511 310.959 119.581 311.883 118.433 311.883C117.286 311.883 116.356 310.959 116.356 309.818C116.356 308.678 117.286 307.753 118.433 307.753C119.581 307.753 120.511 308.678 120.511 309.818Z" fill="#C4C4C4"/>
<path d="M120.511 293.299C120.511 294.439 119.581 295.364 118.433 295.364C117.286 295.364 116.356 294.439 116.356 293.299C116.356 292.158 117.286 291.234 118.433 291.234C119.581 291.234 120.511 292.158 120.511 293.299Z" fill="#C4C4C4"/>
<path d="M120.511 276.779C120.511 277.92 119.581 278.844 118.433 278.844C117.286 278.844 116.356 277.92 116.356 276.779C116.356 275.639 117.286 274.714 118.433 274.714C119.581 274.714 120.511 275.639 120.511 276.779Z" fill="#C4C4C4"/>
<path d="M120.511 260.26C120.511 261.4 119.581 262.325 118.433 262.325C117.286 262.325 116.356 261.4 116.356 260.26C116.356 259.119 117.286 258.195 118.433 258.195C119.581 258.195 120.511 259.119 120.511 260.26Z" fill="#C4C4C4"/>
<path d="M70.6444 408.935C70.6444 410.076 69.7142 411 68.5667 411C67.4191 411 66.4889 410.076 66.4889 408.935C66.4889 407.795 67.4191 406.87 68.5667 406.87C69.7142 406.87 70.6444 407.795 70.6444 408.935Z" fill="#C4C4C4"/>
<path d="M70.6444 392.416C70.6444 393.556 69.7142 394.481 68.5667 394.481C67.4191 394.481 66.4889 393.556 66.4889 392.416C66.4889 391.275 67.4191 390.351 68.5667 390.351C69.7142 390.351 70.6444 391.275 70.6444 392.416Z" fill="#C4C4C4"/>
<path d="M70.6444 375.896C70.6444 377.037 69.7142 377.961 68.5667 377.961C67.4191 377.961 66.4889 377.037 66.4889 375.896C66.4889 374.756 67.4191 373.831 68.5667 373.831C69.7142 373.831 70.6444 374.756 70.6444 375.896Z" fill="#C4C4C4"/>
<path d="M70.6444 359.377C70.6444 360.517 69.7142 361.442 68.5667 361.442C67.4191 361.442 66.4889 360.517 66.4889 359.377C66.4889 358.236 67.4191 357.312 68.5667 357.312C69.7142 357.312 70.6444 358.236 70.6444 359.377Z" fill="#C4C4C4"/>
<path d="M70.6444 342.857C70.6444 343.998 69.7142 344.922 68.5667 344.922C67.4191 344.922 66.4889 343.998 66.4889 342.857C66.4889 341.717 67.4191 340.792 68.5667 340.792C69.7142 340.792 70.6444 341.717 70.6444 342.857Z" fill="#C4C4C4"/>
<path d="M70.6444 326.338C70.6444 327.478 69.7142 328.403 68.5667 328.403C67.4191 328.403 66.4889 327.478 66.4889 326.338C66.4889 325.197 67.4191 324.273 68.5667 324.273C69.7142 324.273 70.6444 325.197 70.6444 326.338Z" fill="#C4C4C4"/>
<path d="M70.6444 309.818C70.6444 310.959 69.7142 311.883 68.5667 311.883C67.4191 311.883 66.4889 310.959 66.4889 309.818C66.4889 308.678 67.4191 307.753 68.5667 307.753C69.7142 307.753 70.6444 308.678 70.6444 309.818Z" fill="#C4C4C4"/>
<path d="M70.6444 293.299C70.6444 294.439 69.7142 295.364 68.5667 295.364C67.4191 295.364 66.4889 294.439 66.4889 293.299C66.4889 292.158 67.4191 291.234 68.5667 291.234C69.7142 291.234 70.6444 292.158 70.6444 293.299Z" fill="#C4C4C4"/>
<path d="M70.6444 276.779C70.6444 277.92 69.7142 278.844 68.5667 278.844C67.4191 278.844 66.4889 277.92 66.4889 276.779C66.4889 275.639 67.4191 274.714 68.5667 274.714C69.7142 274.714 70.6444 275.639 70.6444 276.779Z" fill="#C4C4C4"/>
<path d="M70.6444 260.26C70.6444 261.4 69.7142 262.325 68.5667 262.325C67.4191 262.325 66.4889 261.4 66.4889 260.26C66.4889 259.119 67.4191 258.195 68.5667 258.195C69.7142 258.195 70.6444 259.119 70.6444 260.26Z" fill="#C4C4C4"/>
<path d="M87.2667 408.935C87.2667 410.076 86.3364 411 85.1889 411C84.0414 411 83.1111 410.076 83.1111 408.935C83.1111 407.795 84.0414 406.87 85.1889 406.87C86.3364 406.87 87.2667 407.795 87.2667 408.935Z" fill="#C4C4C4"/>
<path d="M87.2667 392.416C87.2667 393.556 86.3364 394.481 85.1889 394.481C84.0414 394.481 83.1111 393.556 83.1111 392.416C83.1111 391.275 84.0414 390.351 85.1889 390.351C86.3364 390.351 87.2667 391.275 87.2667 392.416Z" fill="#C4C4C4"/>
<path d="M87.2667 375.896C87.2667 377.037 86.3364 377.961 85.1889 377.961C84.0414 377.961 83.1111 377.037 83.1111 375.896C83.1111 374.756 84.0414 373.831 85.1889 373.831C86.3364 373.831 87.2667 374.756 87.2667 375.896Z" fill="#C4C4C4"/>
<path d="M87.2667 359.377C87.2667 360.517 86.3364 361.442 85.1889 361.442C84.0414 361.442 83.1111 360.517 83.1111 359.377C83.1111 358.236 84.0414 357.312 85.1889 357.312C86.3364 357.312 87.2667 358.236 87.2667 359.377Z" fill="#C4C4C4"/>
<path d="M87.2667 342.857C87.2667 343.998 86.3364 344.922 85.1889 344.922C84.0414 344.922 83.1111 343.998 83.1111 342.857C83.1111 341.717 84.0414 340.792 85.1889 340.792C86.3364 340.792 87.2667 341.717 87.2667 342.857Z" fill="#C4C4C4"/>
<path d="M87.2667 326.338C87.2667 327.478 86.3364 328.403 85.1889 328.403C84.0414 328.403 83.1111 327.478 83.1111 326.338C83.1111 325.197 84.0414 324.273 85.1889 324.273C86.3364 324.273 87.2667 325.197 87.2667 326.338Z" fill="#C4C4C4"/>
<path d="M87.2667 309.818C87.2667 310.959 86.3364 311.883 85.1889 311.883C84.0414 311.883 83.1111 310.959 83.1111 309.818C83.1111 308.678 84.0414 307.753 85.1889 307.753C86.3364 307.753 87.2667 308.678 87.2667 309.818Z" fill="#C4C4C4"/>
<path d="M87.2667 293.299C87.2667 294.439 86.3364 295.364 85.1889 295.364C84.0414 295.364 83.1111 294.439 83.1111 293.299C83.1111 292.158 84.0414 291.234 85.1889 291.234C86.3364 291.234 87.2667 292.158 87.2667 293.299Z" fill="#C4C4C4"/>
<path d="M87.2667 276.779C87.2667 277.92 86.3364 278.844 85.1889 278.844C84.0414 278.844 83.1111 277.92 83.1111 276.779C83.1111 275.639 84.0414 274.714 85.1889 274.714C86.3364 274.714 87.2667 275.639 87.2667 276.779Z" fill="#C4C4C4"/>
<path d="M87.2667 260.26C87.2667 261.4 86.3364 262.325 85.1889 262.325C84.0414 262.325 83.1111 261.4 83.1111 260.26C83.1111 259.119 84.0414 258.195 85.1889 258.195C86.3364 258.195 87.2667 259.119 87.2667 260.26Z" fill="#C4C4C4"/>
<path d="M37.4 408.935C37.4 410.076 36.4697 411 35.3222 411C34.1747 411 33.2444 410.076 33.2444 408.935C33.2444 407.795 34.1747 406.87 35.3222 406.87C36.4697 406.87 37.4 407.795 37.4 408.935Z" fill="#C4C4C4"/>
<path d="M37.4 392.416C37.4 393.556 36.4697 394.481 35.3222 394.481C34.1747 394.481 33.2444 393.556 33.2444 392.416C33.2444 391.275 34.1747 390.351 35.3222 390.351C36.4697 390.351 37.4 391.275 37.4 392.416Z" fill="#C4C4C4"/>
<path d="M37.4 375.896C37.4 377.037 36.4697 377.961 35.3222 377.961C34.1747 377.961 33.2444 377.037 33.2444 375.896C33.2444 374.756 34.1747 373.831 35.3222 373.831C36.4697 373.831 37.4 374.756 37.4 375.896Z" fill="#C4C4C4"/>
<path d="M37.4 359.377C37.4 360.517 36.4697 361.442 35.3222 361.442C34.1747 361.442 33.2444 360.517 33.2444 359.377C33.2444 358.236 34.1747 357.312 35.3222 357.312C36.4697 357.312 37.4 358.236 37.4 359.377Z" fill="#C4C4C4"/>
<path d="M37.4 342.857C37.4 343.998 36.4697 344.922 35.3222 344.922C34.1747 344.922 33.2444 343.998 33.2444 342.857C33.2444 341.717 34.1747 340.792 35.3222 340.792C36.4697 340.792 37.4 341.717 37.4 342.857Z" fill="#C4C4C4"/>
<path d="M37.4 326.338C37.4 327.478 36.4697 328.403 35.3222 328.403C34.1747 328.403 33.2444 327.478 33.2444 326.338C33.2444 325.197 34.1747 324.273 35.3222 324.273C36.4697 324.273 37.4 325.197 37.4 326.338Z" fill="#C4C4C4"/>
<path d="M37.4 309.818C37.4 310.959 36.4697 311.883 35.3222 311.883C34.1747 311.883 33.2444 310.959 33.2444 309.818C33.2444 308.678 34.1747 307.753 35.3222 307.753C36.4697 307.753 37.4 308.678 37.4 309.818Z" fill="#C4C4C4"/>
<path d="M37.4 293.299C37.4 294.439 36.4697 295.364 35.3222 295.364C34.1747 295.364 33.2444 294.439 33.2444 293.299C33.2444 292.158 34.1747 291.234 35.3222 291.234C36.4697 291.234 37.4 292.158 37.4 293.299Z" fill="#C4C4C4"/>
<path d="M37.4 276.779C37.4 277.92 36.4697 278.844 35.3222 278.844C34.1747 278.844 33.2444 277.92 33.2444 276.779C33.2444 275.639 34.1747 274.714 35.3222 274.714C36.4697 274.714 37.4 275.639 37.4 276.779Z" fill="#C4C4C4"/>
<path d="M37.4 260.26C37.4 261.4 36.4697 262.325 35.3222 262.325C34.1747 262.325 33.2444 261.4 33.2444 260.26C33.2444 259.119 34.1747 258.195 35.3222 258.195C36.4697 258.195 37.4 259.119 37.4 260.26Z" fill="#C4C4C4"/>
<path d="M54.0222 408.935C54.0222 410.076 53.092 411 51.9444 411C50.7969 411 49.8667 410.076 49.8667 408.935C49.8667 407.795 50.7969 406.87 51.9444 406.87C53.092 406.87 54.0222 407.795 54.0222 408.935Z" fill="#C4C4C4"/>
<path d="M54.0222 392.416C54.0222 393.556 53.092 394.481 51.9444 394.481C50.7969 394.481 49.8667 393.556 49.8667 392.416C49.8667 391.275 50.7969 390.351 51.9444 390.351C53.092 390.351 54.0222 391.275 54.0222 392.416Z" fill="#C4C4C4"/>
<path d="M54.0222 375.896C54.0222 377.037 53.092 377.961 51.9444 377.961C50.7969 377.961 49.8667 377.037 49.8667 375.896C49.8667 374.756 50.7969 373.831 51.9444 373.831C53.092 373.831 54.0222 374.756 54.0222 375.896Z" fill="#C4C4C4"/>
<path d="M54.0222 359.377C54.0222 360.517 53.092 361.442 51.9444 361.442C50.7969 361.442 49.8667 360.517 49.8667 359.377C49.8667 358.236 50.7969 357.312 51.9444 357.312C53.092 357.312 54.0222 358.236 54.0222 359.377Z" fill="#C4C4C4"/>
<path d="M54.0222 342.857C54.0222 343.998 53.092 344.922 51.9444 344.922C50.7969 344.922 49.8667 343.998 49.8667 342.857C49.8667 341.717 50.7969 340.792 51.9444 340.792C53.092 340.792 54.0222 341.717 54.0222 342.857Z" fill="#C4C4C4"/>
<path d="M54.0222 326.338C54.0222 327.478 53.092 328.403 51.9444 328.403C50.7969 328.403 49.8667 327.478 49.8667 326.338C49.8667 325.197 50.7969 324.273 51.9444 324.273C53.092 324.273 54.0222 325.197 54.0222 326.338Z" fill="#C4C4C4"/>
<path d="M54.0222 309.818C54.0222 310.959 53.092 311.883 51.9444 311.883C50.7969 311.883 49.8667 310.959 49.8667 309.818C49.8667 308.678 50.7969 307.753 51.9444 307.753C53.092 307.753 54.0222 308.678 54.0222 309.818Z" fill="#C4C4C4"/>
<path d="M54.0222 293.299C54.0222 294.439 53.092 295.364 51.9444 295.364C50.7969 295.364 49.8667 294.439 49.8667 293.299C49.8667 292.158 50.7969 291.234 51.9444 291.234C53.092 291.234 54.0222 292.158 54.0222 293.299Z" fill="#C4C4C4"/>
<path d="M54.0222 276.779C54.0222 277.92 53.092 278.844 51.9444 278.844C50.7969 278.844 49.8667 277.92 49.8667 276.779C49.8667 275.639 50.7969 274.714 51.9444 274.714C53.092 274.714 54.0222 275.639 54.0222 276.779Z" fill="#C4C4C4"/>
<path d="M54.0222 260.26C54.0222 261.4 53.092 262.325 51.9444 262.325C50.7969 262.325 49.8667 261.4 49.8667 260.26C49.8667 259.119 50.7969 258.195 51.9444 258.195C53.092 258.195 54.0222 259.119 54.0222 260.26Z" fill="#C4C4C4"/>
<path d="M4.15556 408.935C4.15556 410.076 3.2253 411 2.07778 411C0.930253 411 0 410.076 0 408.935C0 407.795 0.930253 406.87 2.07778 406.87C3.2253 406.87 4.15556 407.795 4.15556 408.935Z" fill="#C4C4C4"/>
<path d="M4.15556 392.416C4.15556 393.556 3.2253 394.481 2.07778 394.481C0.930253 394.481 0 393.556 0 392.416C0 391.275 0.930253 390.351 2.07778 390.351C3.2253 390.351 4.15556 391.275 4.15556 392.416Z" fill="#C4C4C4"/>
<path d="M4.15556 375.896C4.15556 377.037 3.2253 377.961 2.07778 377.961C0.930253 377.961 0 377.037 0 375.896C0 374.756 0.930253 373.831 2.07778 373.831C3.2253 373.831 4.15556 374.756 4.15556 375.896Z" fill="#C4C4C4"/>
<path d="M4.15556 359.377C4.15556 360.517 3.2253 361.442 2.07778 361.442C0.930253 361.442 0 360.517 0 359.377C0 358.236 0.930253 357.312 2.07778 357.312C3.2253 357.312 4.15556 358.236 4.15556 359.377Z" fill="#C4C4C4"/>
<path d="M4.15556 342.857C4.15556 343.998 3.2253 344.922 2.07778 344.922C0.930253 344.922 0 343.998 0 342.857C0 341.717 0.930253 340.792 2.07778 340.792C3.2253 340.792 4.15556 341.717 4.15556 342.857Z" fill="#C4C4C4"/>
<path d="M4.15556 326.338C4.15556 327.478 3.2253 328.403 2.07778 328.403C0.930253 328.403 0 327.478 0 326.338C0 325.197 0.930253 324.273 2.07778 324.273C3.2253 324.273 4.15556 325.197 4.15556 326.338Z" fill="#C4C4C4"/>
<path d="M4.15556 309.818C4.15556 310.959 3.2253 311.883 2.07778 311.883C0.930253 311.883 0 310.959 0 309.818C0 308.678 0.930253 307.753 2.07778 307.753C3.2253 307.753 4.15556 308.678 4.15556 309.818Z" fill="#C4C4C4"/>
<path d="M4.15556 293.299C4.15556 294.439 3.2253 295.364 2.07778 295.364C0.930253 295.364 0 294.439 0 293.299C0 292.158 0.930253 291.234 2.07778 291.234C3.2253 291.234 4.15556 292.158 4.15556 293.299Z" fill="#C4C4C4"/>
<path d="M4.15556 276.779C4.15556 277.92 3.2253 278.844 2.07778 278.844C0.930253 278.844 0 277.92 0 276.779C0 275.639 0.930253 274.714 2.07778 274.714C3.2253 274.714 4.15556 275.639 4.15556 276.779Z" fill="#C4C4C4"/>
<path d="M4.15556 260.26C4.15556 261.4 3.2253 262.325 2.07778 262.325C0.930253 262.325 0 261.4 0 260.26C0 259.119 0.930253 258.195 2.07778 258.195C3.2253 258.195 4.15556 259.119 4.15556 260.26Z" fill="#C4C4C4"/>
<path d="M20.7778 408.935C20.7778 410.076 19.8475 411 18.7 411C17.5525 411 16.6222 410.076 16.6222 408.935C16.6222 407.795 17.5525 406.87 18.7 406.87C19.8475 406.87 20.7778 407.795 20.7778 408.935Z" fill="#C4C4C4"/>
<path d="M20.7778 392.416C20.7778 393.556 19.8475 394.481 18.7 394.481C17.5525 394.481 16.6222 393.556 16.6222 392.416C16.6222 391.275 17.5525 390.351 18.7 390.351C19.8475 390.351 20.7778 391.275 20.7778 392.416Z" fill="#C4C4C4"/>
<path d="M20.7778 375.896C20.7778 377.037 19.8475 377.961 18.7 377.961C17.5525 377.961 16.6222 377.037 16.6222 375.896C16.6222 374.756 17.5525 373.831 18.7 373.831C19.8475 373.831 20.7778 374.756 20.7778 375.896Z" fill="#C4C4C4"/>
<path d="M20.7778 359.377C20.7778 360.517 19.8475 361.442 18.7 361.442C17.5525 361.442 16.6222 360.517 16.6222 359.377C16.6222 358.236 17.5525 357.312 18.7 357.312C19.8475 357.312 20.7778 358.236 20.7778 359.377Z" fill="#C4C4C4"/>
<path d="M20.7778 342.857C20.7778 343.998 19.8475 344.922 18.7 344.922C17.5525 344.922 16.6222 343.998 16.6222 342.857C16.6222 341.717 17.5525 340.792 18.7 340.792C19.8475 340.792 20.7778 341.717 20.7778 342.857Z" fill="#C4C4C4"/>
<path d="M20.7778 326.338C20.7778 327.478 19.8475 328.403 18.7 328.403C17.5525 328.403 16.6222 327.478 16.6222 326.338C16.6222 325.197 17.5525 324.273 18.7 324.273C19.8475 324.273 20.7778 325.197 20.7778 326.338Z" fill="#C4C4C4"/>
<path d="M20.7778 309.818C20.7778 310.959 19.8475 311.883 18.7 311.883C17.5525 311.883 16.6222 310.959 16.6222 309.818C16.6222 308.678 17.5525 307.753 18.7 307.753C19.8475 307.753 20.7778 308.678 20.7778 309.818Z" fill="#C4C4C4"/>
<path d="M20.7778 293.299C20.7778 294.439 19.8475 295.364 18.7 295.364C17.5525 295.364 16.6222 294.439 16.6222 293.299C16.6222 292.158 17.5525 291.234 18.7 291.234C19.8475 291.234 20.7778 292.158 20.7778 293.299Z" fill="#C4C4C4"/>
<path d="M20.7778 276.779C20.7778 277.92 19.8475 278.844 18.7 278.844C17.5525 278.844 16.6222 277.92 16.6222 276.779C16.6222 275.639 17.5525 274.714 18.7 274.714C19.8475 274.714 20.7778 275.639 20.7778 276.779Z" fill="#C4C4C4"/>
<path d="M20.7778 260.26C20.7778 261.4 19.8475 262.325 18.7 262.325C17.5525 262.325 16.6222 261.4 16.6222 260.26C16.6222 259.119 17.5525 258.195 18.7 258.195C19.8475 258.195 20.7778 259.119 20.7778 260.26Z" fill="#C4C4C4"/>
<path d="M170.378 243.74C170.378 244.881 169.448 245.805 168.3 245.805C167.152 245.805 166.222 244.881 166.222 243.74C166.222 242.6 167.152 241.675 168.3 241.675C169.448 241.675 170.378 242.6 170.378 243.74Z" fill="#C4C4C4"/>
<path d="M170.378 227.221C170.378 228.361 169.448 229.286 168.3 229.286C167.152 229.286 166.222 228.361 166.222 227.221C166.222 226.08 167.152 225.156 168.3 225.156C169.448 225.156 170.378 226.08 170.378 227.221Z" fill="#C4C4C4"/>
<path d="M170.378 210.701C170.378 211.842 169.448 212.766 168.3 212.766C167.152 212.766 166.222 211.842 166.222 210.701C166.222 209.561 167.152 208.636 168.3 208.636C169.448 208.636 170.378 209.561 170.378 210.701Z" fill="#C4C4C4"/>
<path d="M170.378 194.182C170.378 195.322 169.448 196.247 168.3 196.247C167.152 196.247 166.222 195.322 166.222 194.182C166.222 193.041 167.152 192.117 168.3 192.117C169.448 192.117 170.378 193.041 170.378 194.182Z" fill="#C4C4C4"/>
<path d="M170.378 177.662C170.378 178.803 169.448 179.727 168.3 179.727C167.152 179.727 166.222 178.803 166.222 177.662C166.222 176.522 167.152 175.597 168.3 175.597C169.448 175.597 170.378 176.522 170.378 177.662Z" fill="#C4C4C4"/>
<path d="M170.378 161.143C170.378 162.283 169.448 163.208 168.3 163.208C167.152 163.208 166.222 162.283 166.222 161.143C166.222 160.002 167.152 159.078 168.3 159.078C169.448 159.078 170.378 160.002 170.378 161.143Z" fill="#C4C4C4"/>
<path d="M170.378 144.623C170.378 145.764 169.448 146.688 168.3 146.688C167.152 146.688 166.222 145.764 166.222 144.623C166.222 143.483 167.152 142.558 168.3 142.558C169.448 142.558 170.378 143.483 170.378 144.623Z" fill="#C4C4C4"/>
<path d="M170.378 128.104C170.378 129.244 169.448 130.169 168.3 130.169C167.152 130.169 166.222 129.244 166.222 128.104C166.222 126.963 167.152 126.039 168.3 126.039C169.448 126.039 170.378 126.963 170.378 128.104Z" fill="#C4C4C4"/>
<path d="M170.378 111.584C170.378 112.725 169.448 113.649 168.3 113.649C167.152 113.649 166.222 112.725 166.222 111.584C166.222 110.444 167.152 109.519 168.3 109.519C169.448 109.519 170.378 110.444 170.378 111.584Z" fill="#C4C4C4"/>
<path d="M170.378 95.0649C170.378 96.2054 169.448 97.1299 168.3 97.1299C167.152 97.1299 166.222 96.2054 166.222 95.0649C166.222 93.9245 167.152 93 168.3 93C169.448 93 170.378 93.9245 170.378 95.0649Z" fill="#C4C4C4"/>
<path d="M187 243.74C187 244.881 186.07 245.805 184.922 245.805C183.775 245.805 182.844 244.881 182.844 243.74C182.844 242.6 183.775 241.675 184.922 241.675C186.07 241.675 187 242.6 187 243.74Z" fill="#C4C4C4"/>
<path d="M187 227.221C187 228.361 186.07 229.286 184.922 229.286C183.775 229.286 182.844 228.361 182.844 227.221C182.844 226.08 183.775 225.156 184.922 225.156C186.07 225.156 187 226.08 187 227.221Z" fill="#C4C4C4"/>
<path d="M187 210.701C187 211.842 186.07 212.766 184.922 212.766C183.775 212.766 182.844 211.842 182.844 210.701C182.844 209.561 183.775 208.636 184.922 208.636C186.07 208.636 187 209.561 187 210.701Z" fill="#C4C4C4"/>
<path d="M187 194.182C187 195.322 186.07 196.247 184.922 196.247C183.775 196.247 182.844 195.322 182.844 194.182C182.844 193.041 183.775 192.117 184.922 192.117C186.07 192.117 187 193.041 187 194.182Z" fill="#C4C4C4"/>
<path d="M187 177.662C187 178.803 186.07 179.727 184.922 179.727C183.775 179.727 182.844 178.803 182.844 177.662C182.844 176.522 183.775 175.597 184.922 175.597C186.07 175.597 187 176.522 187 177.662Z" fill="#C4C4C4"/>
<path d="M187 161.143C187 162.283 186.07 163.208 184.922 163.208C183.775 163.208 182.844 162.283 182.844 161.143C182.844 160.002 183.775 159.078 184.922 159.078C186.07 159.078 187 160.002 187 161.143Z" fill="#C4C4C4"/>
<path d="M187 144.623C187 145.764 186.07 146.688 184.922 146.688C183.775 146.688 182.844 145.764 182.844 144.623C182.844 143.483 183.775 142.558 184.922 142.558C186.07 142.558 187 143.483 187 144.623Z" fill="#C4C4C4"/>
<path d="M187 128.104C187 129.244 186.07 130.169 184.922 130.169C183.775 130.169 182.844 129.244 182.844 128.104C182.844 126.963 183.775 126.039 184.922 126.039C186.07 126.039 187 126.963 187 128.104Z" fill="#C4C4C4"/>
<path d="M187 111.584C187 112.725 186.07 113.649 184.922 113.649C183.775 113.649 182.844 112.725 182.844 111.584C182.844 110.444 183.775 109.519 184.922 109.519C186.07 109.519 187 110.444 187 111.584Z" fill="#C4C4C4"/>
<path d="M187 95.0649C187 96.2054 186.07 97.1299 184.922 97.1299C183.775 97.1299 182.844 96.2054 182.844 95.0649C182.844 93.9245 183.775 93 184.922 93C186.07 93 187 93.9245 187 95.0649Z" fill="#C4C4C4"/>
<path d="M137.133 243.74C137.133 244.881 136.203 245.805 135.056 245.805C133.908 245.805 132.978 244.881 132.978 243.74C132.978 242.6 133.908 241.675 135.056 241.675C136.203 241.675 137.133 242.6 137.133 243.74Z" fill="#C4C4C4"/>
<path d="M137.133 227.221C137.133 228.361 136.203 229.286 135.056 229.286C133.908 229.286 132.978 228.361 132.978 227.221C132.978 226.08 133.908 225.156 135.056 225.156C136.203 225.156 137.133 226.08 137.133 227.221Z" fill="#C4C4C4"/>
<path d="M137.133 210.701C137.133 211.842 136.203 212.766 135.056 212.766C133.908 212.766 132.978 211.842 132.978 210.701C132.978 209.561 133.908 208.636 135.056 208.636C136.203 208.636 137.133 209.561 137.133 210.701Z" fill="#C4C4C4"/>
<path d="M137.133 194.182C137.133 195.322 136.203 196.247 135.056 196.247C133.908 196.247 132.978 195.322 132.978 194.182C132.978 193.041 133.908 192.117 135.056 192.117C136.203 192.117 137.133 193.041 137.133 194.182Z" fill="#C4C4C4"/>
<path d="M137.133 177.662C137.133 178.803 136.203 179.727 135.056 179.727C133.908 179.727 132.978 178.803 132.978 177.662C132.978 176.522 133.908 175.597 135.056 175.597C136.203 175.597 137.133 176.522 137.133 177.662Z" fill="#C4C4C4"/>
<path d="M137.133 161.143C137.133 162.283 136.203 163.208 135.056 163.208C133.908 163.208 132.978 162.283 132.978 161.143C132.978 160.002 133.908 159.078 135.056 159.078C136.203 159.078 137.133 160.002 137.133 161.143Z" fill="#C4C4C4"/>
<path d="M137.133 144.623C137.133 145.764 136.203 146.688 135.056 146.688C133.908 146.688 132.978 145.764 132.978 144.623C132.978 143.483 133.908 142.558 135.056 142.558C136.203 142.558 137.133 143.483 137.133 144.623Z" fill="#C4C4C4"/>
<path d="M137.133 128.104C137.133 129.244 136.203 130.169 135.056 130.169C133.908 130.169 132.978 129.244 132.978 128.104C132.978 126.963 133.908 126.039 135.056 126.039C136.203 126.039 137.133 126.963 137.133 128.104Z" fill="#C4C4C4"/>
<path d="M137.133 111.584C137.133 112.725 136.203 113.649 135.056 113.649C133.908 113.649 132.978 112.725 132.978 111.584C132.978 110.444 133.908 109.519 135.056 109.519C136.203 109.519 137.133 110.444 137.133 111.584Z" fill="#C4C4C4"/>
<path d="M137.133 95.0649C137.133 96.2054 136.203 97.1299 135.056 97.1299C133.908 97.1299 132.978 96.2054 132.978 95.0649C132.978 93.9245 133.908 93 135.056 93C136.203 93 137.133 93.9245 137.133 95.0649Z" fill="#C4C4C4"/>
<path d="M153.756 243.74C153.756 244.881 152.825 245.805 151.678 245.805C150.53 245.805 149.6 244.881 149.6 243.74C149.6 242.6 150.53 241.675 151.678 241.675C152.825 241.675 153.756 242.6 153.756 243.74Z" fill="#C4C4C4"/>
<path d="M153.756 227.221C153.756 228.361 152.825 229.286 151.678 229.286C150.53 229.286 149.6 228.361 149.6 227.221C149.6 226.08 150.53 225.156 151.678 225.156C152.825 225.156 153.756 226.08 153.756 227.221Z" fill="#C4C4C4"/>
<path d="M153.756 210.701C153.756 211.842 152.825 212.766 151.678 212.766C150.53 212.766 149.6 211.842 149.6 210.701C149.6 209.561 150.53 208.636 151.678 208.636C152.825 208.636 153.756 209.561 153.756 210.701Z" fill="#C4C4C4"/>
<path d="M153.756 194.182C153.756 195.322 152.825 196.247 151.678 196.247C150.53 196.247 149.6 195.322 149.6 194.182C149.6 193.041 150.53 192.117 151.678 192.117C152.825 192.117 153.756 193.041 153.756 194.182Z" fill="#C4C4C4"/>
<path d="M153.756 177.662C153.756 178.803 152.825 179.727 151.678 179.727C150.53 179.727 149.6 178.803 149.6 177.662C149.6 176.522 150.53 175.597 151.678 175.597C152.825 175.597 153.756 176.522 153.756 177.662Z" fill="#C4C4C4"/>
<path d="M153.756 161.143C153.756 162.283 152.825 163.208 151.678 163.208C150.53 163.208 149.6 162.283 149.6 161.143C149.6 160.002 150.53 159.078 151.678 159.078C152.825 159.078 153.756 160.002 153.756 161.143Z" fill="#C4C4C4"/>
<path d="M153.756 144.623C153.756 145.764 152.825 146.688 151.678 146.688C150.53 146.688 149.6 145.764 149.6 144.623C149.6 143.483 150.53 142.558 151.678 142.558C152.825 142.558 153.756 143.483 153.756 144.623Z" fill="#C4C4C4"/>
<path d="M153.756 128.104C153.756 129.244 152.825 130.169 151.678 130.169C150.53 130.169 149.6 129.244 149.6 128.104C149.6 126.963 150.53 126.039 151.678 126.039C152.825 126.039 153.756 126.963 153.756 128.104Z" fill="#C4C4C4"/>
<path d="M153.756 111.584C153.756 112.725 152.825 113.649 151.678 113.649C150.53 113.649 149.6 112.725 149.6 111.584C149.6 110.444 150.53 109.519 151.678 109.519C152.825 109.519 153.756 110.444 153.756 111.584Z" fill="#C4C4C4"/>
<path d="M153.756 95.0649C153.756 96.2054 152.825 97.1299 151.678 97.1299C150.53 97.1299 149.6 96.2054 149.6 95.0649C149.6 93.9245 150.53 93 151.678 93C152.825 93 153.756 93.9245 153.756 95.0649Z" fill="#C4C4C4"/>
<path d="M103.889 243.74C103.889 244.881 102.959 245.805 101.811 245.805C100.664 245.805 99.7333 244.881 99.7333 243.74C99.7333 242.6 100.664 241.675 101.811 241.675C102.959 241.675 103.889 242.6 103.889 243.74Z" fill="#C4C4C4"/>
<path d="M103.889 227.221C103.889 228.361 102.959 229.286 101.811 229.286C100.664 229.286 99.7333 228.361 99.7333 227.221C99.7333 226.08 100.664 225.156 101.811 225.156C102.959 225.156 103.889 226.08 103.889 227.221Z" fill="#C4C4C4"/>
<path d="M103.889 210.701C103.889 211.842 102.959 212.766 101.811 212.766C100.664 212.766 99.7333 211.842 99.7333 210.701C99.7333 209.561 100.664 208.636 101.811 208.636C102.959 208.636 103.889 209.561 103.889 210.701Z" fill="#C4C4C4"/>
<path d="M103.889 194.182C103.889 195.322 102.959 196.247 101.811 196.247C100.664 196.247 99.7333 195.322 99.7333 194.182C99.7333 193.041 100.664 192.117 101.811 192.117C102.959 192.117 103.889 193.041 103.889 194.182Z" fill="#C4C4C4"/>
<path d="M103.889 177.662C103.889 178.803 102.959 179.727 101.811 179.727C100.664 179.727 99.7333 178.803 99.7333 177.662C99.7333 176.522 100.664 175.597 101.811 175.597C102.959 175.597 103.889 176.522 103.889 177.662Z" fill="#C4C4C4"/>
<path d="M103.889 161.143C103.889 162.283 102.959 163.208 101.811 163.208C100.664 163.208 99.7333 162.283 99.7333 161.143C99.7333 160.002 100.664 159.078 101.811 159.078C102.959 159.078 103.889 160.002 103.889 161.143Z" fill="#C4C4C4"/>
<path d="M103.889 144.623C103.889 145.764 102.959 146.688 101.811 146.688C100.664 146.688 99.7333 145.764 99.7333 144.623C99.7333 143.483 100.664 142.558 101.811 142.558C102.959 142.558 103.889 143.483 103.889 144.623Z" fill="#C4C4C4"/>
<path d="M103.889 128.104C103.889 129.244 102.959 130.169 101.811 130.169C100.664 130.169 99.7333 129.244 99.7333 128.104C99.7333 126.963 100.664 126.039 101.811 126.039C102.959 126.039 103.889 126.963 103.889 128.104Z" fill="#C4C4C4"/>
<path d="M103.889 111.584C103.889 112.725 102.959 113.649 101.811 113.649C100.664 113.649 99.7333 112.725 99.7333 111.584C99.7333 110.444 100.664 109.519 101.811 109.519C102.959 109.519 103.889 110.444 103.889 111.584Z" fill="#C4C4C4"/>
<path d="M103.889 95.0649C103.889 96.2054 102.959 97.1299 101.811 97.1299C100.664 97.1299 99.7333 96.2054 99.7333 95.0649C99.7333 93.9245 100.664 93 101.811 93C102.959 93 103.889 93.9245 103.889 95.0649Z" fill="#C4C4C4"/>
<path d="M120.511 243.74C120.511 244.881 119.581 245.805 118.433 245.805C117.286 245.805 116.356 244.881 116.356 243.74C116.356 242.6 117.286 241.675 118.433 241.675C119.581 241.675 120.511 242.6 120.511 243.74Z" fill="#C4C4C4"/>
<path d="M120.511 227.221C120.511 228.361 119.581 229.286 118.433 229.286C117.286 229.286 116.356 228.361 116.356 227.221C116.356 226.08 117.286 225.156 118.433 225.156C119.581 225.156 120.511 226.08 120.511 227.221Z" fill="#C4C4C4"/>
<path d="M120.511 210.701C120.511 211.842 119.581 212.766 118.433 212.766C117.286 212.766 116.356 211.842 116.356 210.701C116.356 209.561 117.286 208.636 118.433 208.636C119.581 208.636 120.511 209.561 120.511 210.701Z" fill="#C4C4C4"/>
<path d="M120.511 194.182C120.511 195.322 119.581 196.247 118.433 196.247C117.286 196.247 116.356 195.322 116.356 194.182C116.356 193.041 117.286 192.117 118.433 192.117C119.581 192.117 120.511 193.041 120.511 194.182Z" fill="#C4C4C4"/>
<path d="M120.511 177.662C120.511 178.803 119.581 179.727 118.433 179.727C117.286 179.727 116.356 178.803 116.356 177.662C116.356 176.522 117.286 175.597 118.433 175.597C119.581 175.597 120.511 176.522 120.511 177.662Z" fill="#C4C4C4"/>
<path d="M120.511 161.143C120.511 162.283 119.581 163.208 118.433 163.208C117.286 163.208 116.356 162.283 116.356 161.143C116.356 160.002 117.286 159.078 118.433 159.078C119.581 159.078 120.511 160.002 120.511 161.143Z" fill="#C4C4C4"/>
<path d="M120.511 144.623C120.511 145.764 119.581 146.688 118.433 146.688C117.286 146.688 116.356 145.764 116.356 144.623C116.356 143.483 117.286 142.558 118.433 142.558C119.581 142.558 120.511 143.483 120.511 144.623Z" fill="#C4C4C4"/>
<path d="M120.511 128.104C120.511 129.244 119.581 130.169 118.433 130.169C117.286 130.169 116.356 129.244 116.356 128.104C116.356 126.963 117.286 126.039 118.433 126.039C119.581 126.039 120.511 126.963 120.511 128.104Z" fill="#C4C4C4"/>
<path d="M120.511 111.584C120.511 112.725 119.581 113.649 118.433 113.649C117.286 113.649 116.356 112.725 116.356 111.584C116.356 110.444 117.286 109.519 118.433 109.519C119.581 109.519 120.511 110.444 120.511 111.584Z" fill="#C4C4C4"/>
<path d="M120.511 95.0649C120.511 96.2054 119.581 97.1299 118.433 97.1299C117.286 97.1299 116.356 96.2054 116.356 95.0649C116.356 93.9245 117.286 93 118.433 93C119.581 93 120.511 93.9245 120.511 95.0649Z" fill="#C4C4C4"/>
<path d="M70.6444 243.74C70.6444 244.881 69.7142 245.805 68.5667 245.805C67.4191 245.805 66.4889 244.881 66.4889 243.74C66.4889 242.6 67.4191 241.675 68.5667 241.675C69.7142 241.675 70.6444 242.6 70.6444 243.74Z" fill="#C4C4C4"/>
<path d="M70.6444 227.221C70.6444 228.361 69.7142 229.286 68.5667 229.286C67.4191 229.286 66.4889 228.361 66.4889 227.221C66.4889 226.08 67.4191 225.156 68.5667 225.156C69.7142 225.156 70.6444 226.08 70.6444 227.221Z" fill="#C4C4C4"/>
<path d="M70.6444 210.701C70.6444 211.842 69.7142 212.766 68.5667 212.766C67.4191 212.766 66.4889 211.842 66.4889 210.701C66.4889 209.561 67.4191 208.636 68.5667 208.636C69.7142 208.636 70.6444 209.561 70.6444 210.701Z" fill="#C4C4C4"/>
<path d="M70.6444 194.182C70.6444 195.322 69.7142 196.247 68.5667 196.247C67.4191 196.247 66.4889 195.322 66.4889 194.182C66.4889 193.041 67.4191 192.117 68.5667 192.117C69.7142 192.117 70.6444 193.041 70.6444 194.182Z" fill="#C4C4C4"/>
<path d="M70.6444 177.662C70.6444 178.803 69.7142 179.727 68.5667 179.727C67.4191 179.727 66.4889 178.803 66.4889 177.662C66.4889 176.522 67.4191 175.597 68.5667 175.597C69.7142 175.597 70.6444 176.522 70.6444 177.662Z" fill="#C4C4C4"/>
<path d="M70.6444 161.143C70.6444 162.283 69.7142 163.208 68.5667 163.208C67.4191 163.208 66.4889 162.283 66.4889 161.143C66.4889 160.002 67.4191 159.078 68.5667 159.078C69.7142 159.078 70.6444 160.002 70.6444 161.143Z" fill="#C4C4C4"/>
<path d="M70.6444 144.623C70.6444 145.764 69.7142 146.688 68.5667 146.688C67.4191 146.688 66.4889 145.764 66.4889 144.623C66.4889 143.483 67.4191 142.558 68.5667 142.558C69.7142 142.558 70.6444 143.483 70.6444 144.623Z" fill="#C4C4C4"/>
<path d="M70.6444 128.104C70.6444 129.244 69.7142 130.169 68.5667 130.169C67.4191 130.169 66.4889 129.244 66.4889 128.104C66.4889 126.963 67.4191 126.039 68.5667 126.039C69.7142 126.039 70.6444 126.963 70.6444 128.104Z" fill="#C4C4C4"/>
<path d="M70.6444 111.584C70.6444 112.725 69.7142 113.649 68.5667 113.649C67.4191 113.649 66.4889 112.725 66.4889 111.584C66.4889 110.444 67.4191 109.519 68.5667 109.519C69.7142 109.519 70.6444 110.444 70.6444 111.584Z" fill="#C4C4C4"/>
<path d="M70.6444 95.0649C70.6444 96.2054 69.7142 97.1299 68.5667 97.1299C67.4191 97.1299 66.4889 96.2054 66.4889 95.0649C66.4889 93.9245 67.4191 93 68.5667 93C69.7142 93 70.6444 93.9245 70.6444 95.0649Z" fill="#C4C4C4"/>
<path d="M87.2667 243.74C87.2667 244.881 86.3364 245.805 85.1889 245.805C84.0414 245.805 83.1111 244.881 83.1111 243.74C83.1111 242.6 84.0414 241.675 85.1889 241.675C86.3364 241.675 87.2667 242.6 87.2667 243.74Z" fill="#C4C4C4"/>
<path d="M87.2667 227.221C87.2667 228.361 86.3364 229.286 85.1889 229.286C84.0414 229.286 83.1111 228.361 83.1111 227.221C83.1111 226.08 84.0414 225.156 85.1889 225.156C86.3364 225.156 87.2667 226.08 87.2667 227.221Z" fill="#C4C4C4"/>
<path d="M87.2667 210.701C87.2667 211.842 86.3364 212.766 85.1889 212.766C84.0414 212.766 83.1111 211.842 83.1111 210.701C83.1111 209.561 84.0414 208.636 85.1889 208.636C86.3364 208.636 87.2667 209.561 87.2667 210.701Z" fill="#C4C4C4"/>
<path d="M87.2667 194.182C87.2667 195.322 86.3364 196.247 85.1889 196.247C84.0414 196.247 83.1111 195.322 83.1111 194.182C83.1111 193.041 84.0414 192.117 85.1889 192.117C86.3364 192.117 87.2667 193.041 87.2667 194.182Z" fill="#C4C4C4"/>
<path d="M87.2667 177.662C87.2667 178.803 86.3364 179.727 85.1889 179.727C84.0414 179.727 83.1111 178.803 83.1111 177.662C83.1111 176.522 84.0414 175.597 85.1889 175.597C86.3364 175.597 87.2667 176.522 87.2667 177.662Z" fill="#C4C4C4"/>
<path d="M87.2667 161.143C87.2667 162.283 86.3364 163.208 85.1889 163.208C84.0414 163.208 83.1111 162.283 83.1111 161.143C83.1111 160.002 84.0414 159.078 85.1889 159.078C86.3364 159.078 87.2667 160.002 87.2667 161.143Z" fill="#C4C4C4"/>
<path d="M87.2667 144.623C87.2667 145.764 86.3364 146.688 85.1889 146.688C84.0414 146.688 83.1111 145.764 83.1111 144.623C83.1111 143.483 84.0414 142.558 85.1889 142.558C86.3364 142.558 87.2667 143.483 87.2667 144.623Z" fill="#C4C4C4"/>
<path d="M87.2667 128.104C87.2667 129.244 86.3364 130.169 85.1889 130.169C84.0414 130.169 83.1111 129.244 83.1111 128.104C83.1111 126.963 84.0414 126.039 85.1889 126.039C86.3364 126.039 87.2667 126.963 87.2667 128.104Z" fill="#C4C4C4"/>
<path d="M87.2667 111.584C87.2667 112.725 86.3364 113.649 85.1889 113.649C84.0414 113.649 83.1111 112.725 83.1111 111.584C83.1111 110.444 84.0414 109.519 85.1889 109.519C86.3364 109.519 87.2667 110.444 87.2667 111.584Z" fill="#C4C4C4"/>
<path d="M87.2667 95.0649C87.2667 96.2054 86.3364 97.1299 85.1889 97.1299C84.0414 97.1299 83.1111 96.2054 83.1111 95.0649C83.1111 93.9245 84.0414 93 85.1889 93C86.3364 93 87.2667 93.9245 87.2667 95.0649Z" fill="#C4C4C4"/>
<path d="M37.4 243.74C37.4 244.881 36.4697 245.805 35.3222 245.805C34.1747 245.805 33.2444 244.881 33.2444 243.74C33.2444 242.6 34.1747 241.675 35.3222 241.675C36.4697 241.675 37.4 242.6 37.4 243.74Z" fill="#C4C4C4"/>
<path d="M37.4 227.221C37.4 228.361 36.4697 229.286 35.3222 229.286C34.1747 229.286 33.2444 228.361 33.2444 227.221C33.2444 226.08 34.1747 225.156 35.3222 225.156C36.4697 225.156 37.4 226.08 37.4 227.221Z" fill="#C4C4C4"/>
<path d="M37.4 210.701C37.4 211.842 36.4697 212.766 35.3222 212.766C34.1747 212.766 33.2444 211.842 33.2444 210.701C33.2444 209.561 34.1747 208.636 35.3222 208.636C36.4697 208.636 37.4 209.561 37.4 210.701Z" fill="#C4C4C4"/>
<path d="M37.4 194.182C37.4 195.322 36.4697 196.247 35.3222 196.247C34.1747 196.247 33.2444 195.322 33.2444 194.182C33.2444 193.041 34.1747 192.117 35.3222 192.117C36.4697 192.117 37.4 193.041 37.4 194.182Z" fill="#C4C4C4"/>
<path d="M37.4 177.662C37.4 178.803 36.4697 179.727 35.3222 179.727C34.1747 179.727 33.2444 178.803 33.2444 177.662C33.2444 176.522 34.1747 175.597 35.3222 175.597C36.4697 175.597 37.4 176.522 37.4 177.662Z" fill="#C4C4C4"/>
<path d="M37.4 161.143C37.4 162.283 36.4697 163.208 35.3222 163.208C34.1747 163.208 33.2444 162.283 33.2444 161.143C33.2444 160.002 34.1747 159.078 35.3222 159.078C36.4697 159.078 37.4 160.002 37.4 161.143Z" fill="#C4C4C4"/>
<path d="M37.4 144.623C37.4 145.764 36.4697 146.688 35.3222 146.688C34.1747 146.688 33.2444 145.764 33.2444 144.623C33.2444 143.483 34.1747 142.558 35.3222 142.558C36.4697 142.558 37.4 143.483 37.4 144.623Z" fill="#C4C4C4"/>
<path d="M37.4 128.104C37.4 129.244 36.4697 130.169 35.3222 130.169C34.1747 130.169 33.2444 129.244 33.2444 128.104C33.2444 126.963 34.1747 126.039 35.3222 126.039C36.4697 126.039 37.4 126.963 37.4 128.104Z" fill="#C4C4C4"/>
<path d="M37.4 111.584C37.4 112.725 36.4697 113.649 35.3222 113.649C34.1747 113.649 33.2444 112.725 33.2444 111.584C33.2444 110.444 34.1747 109.519 35.3222 109.519C36.4697 109.519 37.4 110.444 37.4 111.584Z" fill="#C4C4C4"/>
<path d="M37.4 95.0649C37.4 96.2054 36.4697 97.1299 35.3222 97.1299C34.1747 97.1299 33.2444 96.2054 33.2444 95.0649C33.2444 93.9245 34.1747 93 35.3222 93C36.4697 93 37.4 93.9245 37.4 95.0649Z" fill="#C4C4C4"/>
<path d="M54.0222 243.74C54.0222 244.881 53.092 245.805 51.9444 245.805C50.7969 245.805 49.8667 244.881 49.8667 243.74C49.8667 242.6 50.7969 241.675 51.9444 241.675C53.092 241.675 54.0222 242.6 54.0222 243.74Z" fill="#C4C4C4"/>
<path d="M54.0222 227.221C54.0222 228.361 53.092 229.286 51.9444 229.286C50.7969 229.286 49.8667 228.361 49.8667 227.221C49.8667 226.08 50.7969 225.156 51.9444 225.156C53.092 225.156 54.0222 226.08 54.0222 227.221Z" fill="#C4C4C4"/>
<path d="M54.0222 210.701C54.0222 211.842 53.092 212.766 51.9444 212.766C50.7969 212.766 49.8667 211.842 49.8667 210.701C49.8667 209.561 50.7969 208.636 51.9444 208.636C53.092 208.636 54.0222 209.561 54.0222 210.701Z" fill="#C4C4C4"/>
<path d="M54.0222 194.182C54.0222 195.322 53.092 196.247 51.9444 196.247C50.7969 196.247 49.8667 195.322 49.8667 194.182C49.8667 193.041 50.7969 192.117 51.9444 192.117C53.092 192.117 54.0222 193.041 54.0222 194.182Z" fill="#C4C4C4"/>
<path d="M54.0222 177.662C54.0222 178.803 53.092 179.727 51.9444 179.727C50.7969 179.727 49.8667 178.803 49.8667 177.662C49.8667 176.522 50.7969 175.597 51.9444 175.597C53.092 175.597 54.0222 176.522 54.0222 177.662Z" fill="#C4C4C4"/>
<path d="M54.0222 161.143C54.0222 162.283 53.092 163.208 51.9444 163.208C50.7969 163.208 49.8667 162.283 49.8667 161.143C49.8667 160.002 50.7969 159.078 51.9444 159.078C53.092 159.078 54.0222 160.002 54.0222 161.143Z" fill="#C4C4C4"/>
<path d="M54.0222 144.623C54.0222 145.764 53.092 146.688 51.9444 146.688C50.7969 146.688 49.8667 145.764 49.8667 144.623C49.8667 143.483 50.7969 142.558 51.9444 142.558C53.092 142.558 54.0222 143.483 54.0222 144.623Z" fill="#C4C4C4"/>
<path d="M54.0222 128.104C54.0222 129.244 53.092 130.169 51.9444 130.169C50.7969 130.169 49.8667 129.244 49.8667 128.104C49.8667 126.963 50.7969 126.039 51.9444 126.039C53.092 126.039 54.0222 126.963 54.0222 128.104Z" fill="#C4C4C4"/>
<path d="M54.0222 111.584C54.0222 112.725 53.092 113.649 51.9444 113.649C50.7969 113.649 49.8667 112.725 49.8667 111.584C49.8667 110.444 50.7969 109.519 51.9444 109.519C53.092 109.519 54.0222 110.444 54.0222 111.584Z" fill="#C4C4C4"/>
<path d="M54.0222 95.0649C54.0222 96.2054 53.092 97.1299 51.9444 97.1299C50.7969 97.1299 49.8667 96.2054 49.8667 95.0649C49.8667 93.9245 50.7969 93 51.9444 93C53.092 93 54.0222 93.9245 54.0222 95.0649Z" fill="#C4C4C4"/>
<path d="M4.15556 243.74C4.15556 244.881 3.2253 245.805 2.07778 245.805C0.930253 245.805 0 244.881 0 243.74C0 242.6 0.930253 241.675 2.07778 241.675C3.2253 241.675 4.15556 242.6 4.15556 243.74Z" fill="#C4C4C4"/>
<path d="M4.15556 227.221C4.15556 228.361 3.2253 229.286 2.07778 229.286C0.930253 229.286 0 228.361 0 227.221C0 226.08 0.930253 225.156 2.07778 225.156C3.2253 225.156 4.15556 226.08 4.15556 227.221Z" fill="#C4C4C4"/>
<path d="M4.15556 210.701C4.15556 211.842 3.2253 212.766 2.07778 212.766C0.930253 212.766 0 211.842 0 210.701C0 209.561 0.930253 208.636 2.07778 208.636C3.2253 208.636 4.15556 209.561 4.15556 210.701Z" fill="#C4C4C4"/>
<path d="M4.15556 194.182C4.15556 195.322 3.2253 196.247 2.07778 196.247C0.930253 196.247 0 195.322 0 194.182C0 193.041 0.930253 192.117 2.07778 192.117C3.2253 192.117 4.15556 193.041 4.15556 194.182Z" fill="#C4C4C4"/>
<path d="M4.15556 177.662C4.15556 178.803 3.2253 179.727 2.07778 179.727C0.930253 179.727 0 178.803 0 177.662C0 176.522 0.930253 175.597 2.07778 175.597C3.2253 175.597 4.15556 176.522 4.15556 177.662Z" fill="#C4C4C4"/>
<path d="M4.15556 161.143C4.15556 162.283 3.2253 163.208 2.07778 163.208C0.930253 163.208 0 162.283 0 161.143C0 160.002 0.930253 159.078 2.07778 159.078C3.2253 159.078 4.15556 160.002 4.15556 161.143Z" fill="#C4C4C4"/>
<path d="M4.15556 144.623C4.15556 145.764 3.2253 146.688 2.07778 146.688C0.930253 146.688 0 145.764 0 144.623C0 143.483 0.930253 142.558 2.07778 142.558C3.2253 142.558 4.15556 143.483 4.15556 144.623Z" fill="#C4C4C4"/>
<path d="M4.15556 128.104C4.15556 129.244 3.2253 130.169 2.07778 130.169C0.930253 130.169 0 129.244 0 128.104C0 126.963 0.930253 126.039 2.07778 126.039C3.2253 126.039 4.15556 126.963 4.15556 128.104Z" fill="#C4C4C4"/>
<path d="M4.15556 111.584C4.15556 112.725 3.2253 113.649 2.07778 113.649C0.930253 113.649 0 112.725 0 111.584C0 110.444 0.930253 109.519 2.07778 109.519C3.2253 109.519 4.15556 110.444 4.15556 111.584Z" fill="#C4C4C4"/>
<path d="M4.15556 95.0649C4.15556 96.2054 3.2253 97.1299 2.07778 97.1299C0.930253 97.1299 0 96.2054 0 95.0649C0 93.9245 0.930253 93 2.07778 93C3.2253 93 4.15556 93.9245 4.15556 95.0649Z" fill="#C4C4C4"/>
<path d="M20.7778 243.74C20.7778 244.881 19.8475 245.805 18.7 245.805C17.5525 245.805 16.6222 244.881 16.6222 243.74C16.6222 242.6 17.5525 241.675 18.7 241.675C19.8475 241.675 20.7778 242.6 20.7778 243.74Z" fill="#C4C4C4"/>
<path d="M20.7778 227.221C20.7778 228.361 19.8475 229.286 18.7 229.286C17.5525 229.286 16.6222 228.361 16.6222 227.221C16.6222 226.08 17.5525 225.156 18.7 225.156C19.8475 225.156 20.7778 226.08 20.7778 227.221Z" fill="#C4C4C4"/>
<path d="M20.7778 210.701C20.7778 211.842 19.8475 212.766 18.7 212.766C17.5525 212.766 16.6222 211.842 16.6222 210.701C16.6222 209.561 17.5525 208.636 18.7 208.636C19.8475 208.636 20.7778 209.561 20.7778 210.701Z" fill="#C4C4C4"/>
<path d="M20.7778 194.182C20.7778 195.322 19.8475 196.247 18.7 196.247C17.5525 196.247 16.6222 195.322 16.6222 194.182C16.6222 193.041 17.5525 192.117 18.7 192.117C19.8475 192.117 20.7778 193.041 20.7778 194.182Z" fill="#C4C4C4"/>
<path d="M20.7778 177.662C20.7778 178.803 19.8475 179.727 18.7 179.727C17.5525 179.727 16.6222 178.803 16.6222 177.662C16.6222 176.522 17.5525 175.597 18.7 175.597C19.8475 175.597 20.7778 176.522 20.7778 177.662Z" fill="#C4C4C4"/>
<path d="M20.7778 161.143C20.7778 162.283 19.8475 163.208 18.7 163.208C17.5525 163.208 16.6222 162.283 16.6222 161.143C16.6222 160.002 17.5525 159.078 18.7 159.078C19.8475 159.078 20.7778 160.002 20.7778 161.143Z" fill="#C4C4C4"/>
<path d="M20.7778 144.623C20.7778 145.764 19.8475 146.688 18.7 146.688C17.5525 146.688 16.6222 145.764 16.6222 144.623C16.6222 143.483 17.5525 142.558 18.7 142.558C19.8475 142.558 20.7778 143.483 20.7778 144.623Z" fill="#C4C4C4"/>
<path d="M20.7778 128.104C20.7778 129.244 19.8475 130.169 18.7 130.169C17.5525 130.169 16.6222 129.244 16.6222 128.104C16.6222 126.963 17.5525 126.039 18.7 126.039C19.8475 126.039 20.7778 126.963 20.7778 128.104Z" fill="#C4C4C4"/>
<path d="M20.7778 111.584C20.7778 112.725 19.8475 113.649 18.7 113.649C17.5525 113.649 16.6222 112.725 16.6222 111.584C16.6222 110.444 17.5525 109.519 18.7 109.519C19.8475 109.519 20.7778 110.444 20.7778 111.584Z" fill="#C4C4C4"/>
<path d="M20.7778 95.0649C20.7778 96.2054 19.8475 97.1299 18.7 97.1299C17.5525 97.1299 16.6222 96.2054 16.6222 95.0649C16.6222 93.9245 17.5525 93 18.7 93C19.8475 93 20.7778 93.9245 20.7778 95.0649Z" fill="#C4C4C4"/>
</g>
<rect x="45" width="377" height="381" rx="6" fill="#F4F5FA"/>
<line x1="234.5" y1="63" x2="234.5" y2="368.63" stroke="#D9E2EC"/>
<line x1="407" y1="218.5" x2="61" y2="218.5" stroke="#D9E2EC"/>
<g filter="url(#filter0_d)">
<rect x="264" y="79" width="110" height="255" rx="6" fill="white"/>
</g>
<path d="M264 85C264 81.6863 266.686 79 270 79H368C371.314 79 374 81.6863 374 85V106H264V85Z" fill="#2C4CE8"/>
<path d="M299.185 89.4545H300.207C300.16 88.1378 298.946 87.1534 297.258 87.1534C295.588 87.1534 294.276 88.125 294.276 89.5909C294.276 90.767 295.128 91.4659 296.491 91.858L297.565 92.1648C298.486 92.4205 299.304 92.7443 299.304 93.6136C299.304 94.5682 298.383 95.1989 297.173 95.1989C296.133 95.1989 295.213 94.7386 295.128 93.75H294.037C294.139 95.1818 295.298 96.1534 297.173 96.1534C299.185 96.1534 300.327 95.0455 300.327 93.6307C300.327 91.9943 298.776 91.4659 297.872 91.2273L296.986 90.9886C296.338 90.8182 295.298 90.4773 295.298 89.5398C295.298 88.7045 296.065 88.0909 297.224 88.0909C298.281 88.0909 299.082 88.5938 299.185 89.4545ZM304.987 96.1364C306.76 96.1364 307.953 94.7898 307.953 92.7614C307.953 90.7159 306.76 89.3693 304.987 89.3693C303.214 89.3693 302.021 90.7159 302.021 92.7614C302.021 94.7898 303.214 96.1364 304.987 96.1364ZM304.987 95.233C303.64 95.233 303.027 94.0739 303.027 92.7614C303.027 91.4489 303.64 90.2727 304.987 90.2727C306.334 90.2727 306.947 91.4489 306.947 92.7614C306.947 94.0739 306.334 95.233 304.987 95.233ZM310.894 87.2727H309.888V96H310.894V87.2727ZM317.261 93.3239C317.261 94.5511 316.323 95.1136 315.573 95.1136C314.738 95.1136 314.141 94.5 314.141 93.5455V89.4545H313.136V93.6136C313.136 95.2841 314.022 96.0852 315.249 96.0852C316.238 96.0852 316.886 95.5568 317.193 94.892H317.261V96H318.266V89.4545H317.261V93.3239ZM323.355 89.4545H321.957V87.8864H320.952V89.4545H319.963V90.3068H320.952V94.3977C320.952 95.5398 321.872 96.0852 322.724 96.0852C323.099 96.0852 323.338 96.017 323.474 95.9659L323.27 95.0625C323.184 95.0795 323.048 95.1136 322.827 95.1136C322.383 95.1136 321.957 94.9773 321.957 94.125V90.3068H323.355V89.4545ZM325.338 96H326.344V89.4545H325.338V96ZM325.849 88.3807C326.241 88.3807 326.565 88.0739 326.565 87.6989C326.565 87.3239 326.241 87.017 325.849 87.017C325.457 87.017 325.133 87.3239 325.133 87.6989C325.133 88.0739 325.457 88.3807 325.849 88.3807ZM331.245 96.1364C333.018 96.1364 334.211 94.7898 334.211 92.7614C334.211 90.7159 333.018 89.3693 331.245 89.3693C329.472 89.3693 328.279 90.7159 328.279 92.7614C328.279 94.7898 329.472 96.1364 331.245 96.1364ZM331.245 95.233C329.898 95.233 329.285 94.0739 329.285 92.7614C329.285 91.4489 329.898 90.2727 331.245 90.2727C332.591 90.2727 333.205 91.4489 333.205 92.7614C333.205 94.0739 332.591 95.233 331.245 95.233ZM337.152 92.0625C337.152 90.9205 337.859 90.2727 338.822 90.2727C339.755 90.2727 340.322 90.8821 340.322 91.9091V96H341.328V91.8409C341.328 90.1705 340.437 89.3693 339.112 89.3693C338.123 89.3693 337.509 89.8125 337.203 90.4773H337.117V89.4545H336.146V96H337.152V92.0625Z" fill="#EDEFFD"/>
<rect x="275" y="130" width="86" height="26" rx="6" fill="#C6F7E2"/>
<path d="M290.29 141H294.48V139.859H291.674V134.455H290.29V141ZM297.53 134.455H296.147V141H297.53V134.455ZM303.75 136.57H305.165C304.986 135.276 303.823 134.365 302.343 134.365C300.614 134.365 299.304 135.612 299.304 137.734C299.304 139.805 300.544 141.089 302.379 141.089C304.034 141.089 305.226 140.044 305.226 138.322V137.497H302.487V138.539H303.855C303.826 139.392 303.193 139.865 302.385 139.865C301.356 139.865 300.707 139.089 300.707 137.721C300.707 136.359 301.362 135.589 302.366 135.589C303.078 135.589 303.555 135.957 303.75 136.57ZM307.016 141H308.4V138.296H311.209V141H312.59V134.455H311.209V137.155H308.4V134.455H307.016V141ZM314.231 135.596H316.235V141H317.603V135.596H319.607V134.455H314.231V135.596ZM326.717 134.455H325.34V138.571H325.282L322.457 134.455H321.242V141H322.626V136.88H322.674L325.522 141H326.717V134.455ZM329.994 134.455H328.61V141H329.994V134.455ZM337.358 134.455H335.98V138.571H335.923L333.097 134.455H331.883V141H333.267V136.88H333.315L336.162 141H337.358V134.455ZM343.582 136.57H344.997C344.818 135.276 343.655 134.365 342.175 134.365C340.446 134.365 339.136 135.612 339.136 137.734C339.136 139.805 340.376 141.089 342.211 141.089C343.866 141.089 345.058 140.044 345.058 138.322V137.497H342.319V138.539H343.687C343.658 139.392 343.026 139.865 342.217 139.865C341.188 139.865 340.539 139.089 340.539 137.721C340.539 136.359 341.194 135.589 342.198 135.589C342.91 135.589 343.387 135.957 343.582 136.57ZM302.359 152C304.353 152 305.561 150.766 305.561 148.721C305.561 146.682 304.353 145.455 302.378 145.455H300.039V152H302.359ZM301.422 150.814V146.64H302.305C303.532 146.64 304.181 147.267 304.181 148.721C304.181 150.181 303.532 150.814 302.301 150.814H301.422ZM307.336 152H311.76V150.859H308.72V149.296H311.52V148.155H308.72V146.596H311.747V145.455H307.336V152ZM313.597 145.455V152H314.94V147.724H314.994L316.688 151.968H317.602L319.296 147.74H319.35V152H320.692V145.455H318.986L317.183 149.852H317.106L315.304 145.455H313.597ZM328.677 148.727C328.677 146.586 327.347 145.365 325.612 145.365C323.867 145.365 322.547 146.586 322.547 148.727C322.547 150.859 323.867 152.089 325.612 152.089C327.347 152.089 328.677 150.869 328.677 148.727ZM327.274 148.727C327.274 150.114 326.615 150.865 325.612 150.865C324.605 150.865 323.95 150.114 323.95 148.727C323.95 147.34 324.605 146.589 325.612 146.589C326.615 146.589 327.274 147.34 327.274 148.727ZM334.002 147.337H335.329C335.31 146.17 334.351 145.365 332.893 145.365C331.458 145.365 330.407 146.158 330.413 147.347C330.41 148.312 331.091 148.865 332.197 149.13L332.909 149.309C333.622 149.482 334.018 149.686 334.022 150.127C334.018 150.607 333.565 150.933 332.862 150.933C332.142 150.933 331.625 150.6 331.58 149.945H330.241C330.276 151.361 331.289 152.093 332.877 152.093C334.475 152.093 335.415 151.329 335.418 150.13C335.415 149.04 334.594 148.462 333.456 148.206L332.868 148.066C332.299 147.935 331.823 147.724 331.832 147.254C331.832 146.832 332.206 146.522 332.884 146.522C333.545 146.522 333.951 146.822 334.002 147.337Z" fill="#189473"/>
<rect x="275" y="178" width="86" height="26" rx="6" fill="#C6F7E2"/>
<path d="M304.547 187.455H303.163V194H304.547V187.455ZM308.756 194C310.75 194 311.958 192.766 311.958 190.721C311.958 188.682 310.75 187.455 308.775 187.455H306.436V194H308.756ZM307.819 192.814V188.64H308.702C309.929 188.64 310.578 189.267 310.578 190.721C310.578 192.181 309.929 192.814 308.698 192.814H307.819ZM313.733 194H318.157V192.859H315.117V191.296H317.917V190.155H315.117V188.596H318.144V187.455H313.733V194ZM321.122 194L321.608 192.507H323.97L324.456 194H325.939L323.682 187.455H321.899L319.639 194H321.122ZM321.96 191.427L322.765 188.95H322.816L323.622 191.427H321.96ZM330.878 189.337H332.204C332.185 188.17 331.226 187.365 329.769 187.365C328.334 187.365 327.282 188.158 327.289 189.347C327.286 190.312 327.966 190.865 329.072 191.13L329.785 191.309C330.498 191.482 330.894 191.686 330.897 192.127C330.894 192.607 330.44 192.933 329.737 192.933C329.018 192.933 328.5 192.6 328.455 191.945H327.116C327.151 193.361 328.165 194.093 329.753 194.093C331.351 194.093 332.291 193.329 332.294 192.13C332.291 191.04 331.469 190.462 330.331 190.206L329.743 190.066C329.174 189.935 328.698 189.724 328.708 189.254C328.708 188.832 329.082 188.522 329.759 188.522C330.421 188.522 330.827 188.822 330.878 189.337Z" fill="#189473"/>
<rect x="275" y="229" width="86" height="26" rx="6" fill="#C6F7E2"/>
<path d="M296.949 240.746C296.766 239.234 295.622 238.365 294.107 238.365C292.378 238.365 291.058 239.586 291.058 241.727C291.058 243.862 292.356 245.089 294.107 245.089C295.785 245.089 296.798 243.974 296.949 242.769L295.549 242.763C295.418 243.463 294.868 243.865 294.13 243.865C293.136 243.865 292.461 243.127 292.461 241.727C292.461 240.366 293.126 239.589 294.139 239.589C294.897 239.589 295.443 240.027 295.549 240.746H296.949ZM298.691 245H300.075V242.68H301.085L302.325 245H303.853L302.462 242.456C303.207 242.136 303.619 241.488 303.619 240.593C303.619 239.292 302.759 238.455 301.273 238.455H298.691V245ZM300.075 241.567V239.586H301.008C301.807 239.586 302.194 239.941 302.194 240.593C302.194 241.241 301.807 241.567 301.014 241.567H300.075ZM306.475 245L306.961 243.507H309.323L309.809 245H311.292L309.035 238.455H307.252L304.992 245H306.475ZM307.313 242.427L308.118 239.95H308.169L308.975 242.427H307.313ZM312.759 245H317.771V243.859H314.495L317.764 239.276V238.455H312.753V239.596H316.026L312.759 244.179V245ZM319.199 238.455L321.586 242.686V245H322.961V242.686L325.348 238.455H323.798L322.306 241.273H322.242L320.749 238.455H319.199ZM332.09 245.089C333.567 245.089 334.628 244.3 334.631 243.239C334.628 242.421 333.998 241.753 333.212 241.622V241.577C333.896 241.436 334.385 240.845 334.388 240.126C334.385 239.113 333.414 238.365 332.09 238.365C330.764 238.365 329.793 239.113 329.796 240.126C329.793 240.842 330.275 241.436 330.972 241.577V241.622C330.173 241.753 329.55 242.421 329.553 243.239C329.55 244.3 330.614 245.089 332.09 245.089ZM332.09 244.073C331.432 244.073 330.991 243.683 330.991 243.13C330.991 242.565 331.454 242.156 332.09 242.156C332.723 242.156 333.19 242.565 333.19 243.13C333.19 243.686 332.746 244.073 332.09 244.073ZM332.09 241.149C331.538 241.149 331.144 240.788 331.144 240.27C331.144 239.759 331.531 239.407 332.09 239.407C332.647 239.407 333.036 239.762 333.036 240.27C333.036 240.788 332.64 241.149 332.09 241.149ZM337.503 238.455H336.48V239.151C336.48 239.691 336.288 240.085 336.074 240.423L336.675 240.778C337.126 240.401 337.503 239.73 337.503 239.145V238.455ZM342.868 240.337H344.194C344.175 239.17 343.216 238.365 341.759 238.365C340.324 238.365 339.272 239.158 339.279 240.347C339.275 241.312 339.956 241.865 341.062 242.13L341.775 242.309C342.487 242.482 342.884 242.686 342.887 243.127C342.884 243.607 342.43 243.933 341.727 243.933C341.008 243.933 340.49 243.6 340.445 242.945H339.106C339.141 244.361 340.154 245.093 341.743 245.093C343.341 245.093 344.28 244.329 344.284 243.13C344.28 242.04 343.459 241.462 342.321 241.206L341.733 241.066C341.164 240.935 340.688 240.724 340.698 240.254C340.698 239.832 341.072 239.522 341.749 239.522C342.411 239.522 342.817 239.822 342.868 240.337Z" fill="#189473"/>
<rect x="275" y="279" width="86" height="26" rx="6" fill="#C6F7E2"/>
<path d="M295.719 285.337H297.045C297.026 284.17 296.067 283.365 294.61 283.365C293.175 283.365 292.123 284.158 292.13 285.347C292.126 286.312 292.807 286.865 293.913 287.13L294.626 287.309C295.338 287.482 295.735 287.686 295.738 288.127C295.735 288.607 295.281 288.933 294.578 288.933C293.859 288.933 293.341 288.6 293.296 287.945H291.957C291.992 289.361 293.005 290.093 294.594 290.093C296.192 290.093 297.131 289.329 297.135 288.13C297.131 287.04 296.31 286.462 295.172 286.206L294.584 286.066C294.015 285.935 293.539 285.724 293.549 285.254C293.549 284.832 293.923 284.522 294.6 284.522C295.262 284.522 295.668 284.822 295.719 285.337ZM304.83 286.727C304.83 284.586 303.501 283.365 301.765 283.365C300.02 283.365 298.7 284.586 298.7 286.727C298.7 288.859 300.02 290.089 301.765 290.089C303.501 290.089 304.83 288.869 304.83 286.727ZM303.427 286.727C303.427 288.114 302.769 288.865 301.765 288.865C300.759 288.865 300.103 288.114 300.103 286.727C300.103 285.34 300.759 284.589 301.765 284.589C302.769 284.589 303.427 285.34 303.427 286.727ZM306.606 290H310.795V288.859H307.989V283.455H306.606V290ZM316.515 283.455V287.734C316.515 288.434 315.949 288.859 315.175 288.859C314.412 288.859 313.846 288.434 313.846 287.734V283.455H312.462V287.782C312.462 289.265 313.587 290.093 315.175 290.093C316.757 290.093 317.889 289.265 317.889 287.782V283.455H316.515ZM319.528 284.596H321.532V290H322.9V284.596H324.904V283.455H319.528V284.596ZM327.923 283.455H326.539V290H327.923V283.455ZM335.826 286.727C335.826 284.586 334.497 283.365 332.761 283.365C331.016 283.365 329.697 284.586 329.697 286.727C329.697 288.859 331.016 290.089 332.761 290.089C334.497 290.089 335.826 288.869 335.826 286.727ZM334.423 286.727C334.423 288.114 333.765 288.865 332.761 288.865C331.755 288.865 331.1 288.114 331.1 286.727C331.1 285.34 331.755 284.589 332.761 284.589C333.765 284.589 334.423 285.34 334.423 286.727ZM343.076 283.455H341.699V287.571H341.641L338.816 283.455H337.602V290H338.985V285.88H339.033L341.881 290H343.076V283.455ZM301.461 296.337H302.787C302.768 295.17 301.809 294.365 300.352 294.365C298.917 294.365 297.865 295.158 297.872 296.347C297.869 297.312 298.549 297.865 299.655 298.13L300.368 298.309C301.081 298.482 301.477 298.686 301.48 299.127C301.477 299.607 301.023 299.933 300.32 299.933C299.601 299.933 299.083 299.6 299.038 298.945H297.699C297.734 300.361 298.748 301.093 300.336 301.093C301.934 301.093 302.874 300.329 302.877 299.13C302.874 298.04 302.052 297.462 300.914 297.206L300.326 297.066C299.758 296.935 299.281 296.724 299.291 296.254C299.291 295.832 299.665 295.522 300.342 295.522C301.004 295.522 301.41 295.822 301.461 296.337ZM304.558 301H305.942V299.14L306.622 298.309L308.415 301H310.071L307.613 297.385L310.042 294.455H308.383L306.028 297.341H305.942V294.455H304.558V301ZM311.513 301H315.936V299.859H312.897V298.296H315.696V297.155H312.897V295.596H315.923V294.455H311.513V301ZM317.524 295.596H319.528V301H320.896V295.596H322.9V294.455H317.524V295.596ZM330.02 296.746C329.838 295.234 328.694 294.365 327.179 294.365C325.45 294.365 324.13 295.586 324.13 297.727C324.13 299.862 325.428 301.089 327.179 301.089C328.857 301.089 329.87 299.974 330.02 298.769L328.621 298.763C328.489 299.463 327.94 299.865 327.201 299.865C326.208 299.865 325.533 299.127 325.533 297.727C325.533 296.366 326.198 295.589 327.211 295.589C327.969 295.589 328.515 296.027 328.621 296.746H330.02ZM331.763 301H333.147V298.296H335.956V301H337.337V294.455H335.956V297.155H333.147V294.455H331.763V301Z" fill="#189473"/>
<path d="M283.191 38.593H286.308V47H288.436V38.593H291.553V36.8182H283.191V38.593ZM299.984 36.8182V43.4751C299.984 44.5639 299.104 45.2251 297.901 45.2251C296.713 45.2251 295.833 44.5639 295.833 43.4751V36.8182H293.68V43.5497C293.68 45.8565 295.43 47.1442 297.901 47.1442C300.362 47.1442 302.122 45.8565 302.122 43.5497V36.8182H299.984ZM304.643 47H311.523V45.2251H306.795V42.794H311.151V41.0192H306.795V38.593H311.504V36.8182H304.643V47ZM319.488 39.7464H321.552C321.522 37.9318 320.03 36.679 317.763 36.679C315.531 36.679 313.895 37.9119 313.905 39.7614C313.9 41.2628 314.959 42.1229 316.68 42.5355L317.788 42.8139C318.897 43.0824 319.513 43.4006 319.518 44.0866C319.513 44.8324 318.807 45.3395 317.714 45.3395C316.595 45.3395 315.79 44.8224 315.72 43.8033H313.637C313.692 46.0057 315.268 47.1442 317.738 47.1442C320.224 47.1442 321.686 45.956 321.691 44.0916C321.686 42.3963 320.408 41.4964 318.638 41.0987L317.724 40.88C316.839 40.6761 316.098 40.348 316.113 39.6172C316.113 38.9609 316.694 38.4787 317.748 38.4787C318.778 38.4787 319.409 38.946 319.488 39.7464ZM327.498 47C330.6 47 332.48 45.081 332.48 41.8991C332.48 38.7273 330.6 36.8182 327.528 36.8182H323.889V47H327.498ZM326.042 45.1555V38.6626H327.414C329.323 38.6626 330.332 39.6371 330.332 41.8991C330.332 44.1712 329.323 45.1555 327.409 45.1555H326.042ZM335.868 47L336.624 44.6783H340.298L341.054 47H343.361L339.851 36.8182H337.077L333.562 47H335.868ZM337.171 42.9979L338.424 39.1449H338.503L339.756 42.9979H337.171ZM343.7 36.8182L347.414 43.4006V47H349.552V43.4006L353.266 36.8182H350.855L348.533 41.2031H348.433L346.112 36.8182H343.7Z" fill="#486582"/>
<g filter="url(#filter1_d)">
<rect x="94" y="79" width="110" height="255" rx="6" fill="white"/>
</g>
<path d="M94 85C94 81.6863 96.6863 79 100 79H198C201.314 79 204 81.6863 204 85V106H94V85Z" fill="#2C4CE8"/>
<path d="M125.99 90C125.667 88.2102 124.235 87.1534 122.479 87.1534C120.246 87.1534 118.627 88.875 118.627 91.6364C118.627 94.3977 120.246 96.1193 122.479 96.1193C124.235 96.1193 125.667 95.0625 125.99 93.2727H124.934C124.678 94.483 123.638 95.1307 122.479 95.1307C120.894 95.1307 119.65 93.9034 119.65 91.6364C119.65 89.3693 120.894 88.142 122.479 88.142C123.638 88.142 124.678 88.7898 124.934 90H125.99ZM128.968 92.0625C128.968 90.9205 129.696 90.2727 130.689 90.2727C131.635 90.2727 132.206 90.8693 132.206 91.9091V96H133.212V91.8409C133.212 90.1577 132.317 89.3693 130.979 89.3693C129.948 89.3693 129.36 89.7997 129.053 90.4773H128.968V87.2727H127.962V96H128.968V92.0625ZM137.378 96.1534C138.52 96.1534 139.116 95.5398 139.321 95.1136H139.372V96H140.378V91.6875C140.378 89.608 138.793 89.3693 137.957 89.3693C136.969 89.3693 135.844 89.7102 135.332 90.9034L136.287 91.2443C136.509 90.767 137.033 90.2557 137.991 90.2557C138.916 90.2557 139.372 90.7457 139.372 91.5852V91.6193C139.372 92.1051 138.878 92.0625 137.685 92.2159C136.47 92.3736 135.145 92.642 135.145 94.142C135.145 95.4205 136.134 96.1534 137.378 96.1534ZM137.531 95.25C136.73 95.25 136.151 94.892 136.151 94.1932C136.151 93.4261 136.849 93.1875 137.634 93.0852C138.06 93.0341 139.202 92.9148 139.372 92.7102V93.6307C139.372 94.4489 138.724 95.25 137.531 95.25ZM143.619 87.2727H142.613V96H143.619V87.2727ZM146.867 87.2727H145.861V96H146.867V87.2727ZM151.853 96.1364C153.183 96.1364 154.154 95.4716 154.461 94.483L153.489 94.2102C153.234 94.892 152.641 95.233 151.853 95.233C150.673 95.233 149.859 94.4702 149.812 93.0682H154.563V92.642C154.563 90.2045 153.114 89.3693 151.751 89.3693C149.978 89.3693 148.802 90.767 148.802 92.7784C148.802 94.7898 149.961 96.1364 151.853 96.1364ZM149.812 92.1989C149.88 91.1804 150.6 90.2727 151.751 90.2727C152.842 90.2727 153.541 91.0909 153.541 92.1989H149.812ZM157.499 92.0625C157.499 90.9205 158.206 90.2727 159.169 90.2727C160.102 90.2727 160.669 90.8821 160.669 91.9091V96H161.675V91.8409C161.675 90.1705 160.784 89.3693 159.459 89.3693C158.47 89.3693 157.857 89.8125 157.55 90.4773H157.465V89.4545H156.493V96H157.499V92.0625ZM166.555 98.5909C168.123 98.5909 169.384 97.875 169.384 96.1875V89.4545H168.413V90.4943H168.31C168.089 90.1534 167.68 89.3693 166.401 89.3693C164.748 89.3693 163.606 90.6818 163.606 92.6932C163.606 94.7386 164.799 95.8977 166.384 95.8977C167.663 95.8977 168.072 95.1477 168.293 94.7898H168.379V96.1193C168.379 97.2102 167.612 97.7045 166.555 97.7045C165.366 97.7045 164.948 97.0781 164.68 96.7159L163.879 97.2784C164.288 97.9645 165.093 98.5909 166.555 98.5909ZM166.521 94.9943C165.259 94.9943 164.612 94.0398 164.612 92.6761C164.612 91.3466 165.242 90.2727 166.521 90.2727C167.748 90.2727 168.396 91.2614 168.396 92.6761C168.396 94.125 167.731 94.9943 166.521 94.9943ZM174.369 96.1364C175.699 96.1364 176.671 95.4716 176.977 94.483L176.006 94.2102C175.75 94.892 175.158 95.233 174.369 95.233C173.189 95.233 172.375 94.4702 172.328 93.0682H177.08V92.642C177.08 90.2045 175.631 89.3693 174.267 89.3693C172.494 89.3693 171.318 90.767 171.318 92.7784C171.318 94.7898 172.477 96.1364 174.369 96.1364ZM172.328 92.1989C172.396 91.1804 173.117 90.2727 174.267 90.2727C175.358 90.2727 176.057 91.0909 176.057 92.1989H172.328Z" fill="#EDEFFD"/>
<rect x="105" y="130" width="86" height="26" rx="6" fill="#C6F7E2"/>
<path d="M116.184 141H120.374V139.859H117.568V134.455H116.184V141ZM127.801 137.727C127.801 135.586 126.471 134.365 124.736 134.365C122.991 134.365 121.671 135.586 121.671 137.727C121.671 139.859 122.991 141.089 124.736 141.089C126.471 141.089 127.801 139.869 127.801 137.727ZM126.398 137.727C126.398 139.114 125.739 139.865 124.736 139.865C123.729 139.865 123.074 139.114 123.074 137.727C123.074 136.34 123.729 135.589 124.736 135.589C125.739 135.589 126.398 136.34 126.398 137.727ZM135.051 134.455H133.673V138.571H133.616L130.79 134.455H129.576V141H130.96V136.88H131.008L133.855 141H135.051V134.455ZM141.275 136.57H142.69C142.511 135.276 141.348 134.365 139.868 134.365C138.139 134.365 136.829 135.612 136.829 137.734C136.829 139.805 138.069 141.089 139.903 141.089C141.559 141.089 142.751 140.044 142.751 138.322V137.497H140.012V138.539H141.38C141.351 139.392 140.718 139.865 139.91 139.865C138.881 139.865 138.232 139.089 138.232 137.721C138.232 136.359 138.887 135.589 139.891 135.589C140.603 135.589 141.08 135.957 141.275 136.57ZM147.788 137.216H144.502V138.213H147.788V137.216ZM149.128 135.596H151.132V141H152.5V135.596H154.504V134.455H149.128V135.596ZM156.139 141H160.562V139.859H157.523V138.296H160.323V137.155H157.523V135.596H160.55V134.455H156.139V141ZM162.4 141H163.784V138.68H164.794L166.034 141H167.562L166.171 138.456C166.916 138.136 167.328 137.488 167.328 136.593C167.328 135.292 166.468 134.455 164.982 134.455H162.4V141ZM163.784 137.567V135.586H164.717C165.516 135.586 165.903 135.941 165.903 136.593C165.903 137.241 165.516 137.567 164.723 137.567H163.784ZM169.056 134.455V141H170.399V136.724H170.453L172.147 140.968H173.061L174.755 136.74H174.809V141H176.151V134.455H174.445L172.642 138.852H172.565L170.763 134.455H169.056ZM138.765 147.57H140.181C140.002 146.276 138.839 145.365 137.359 145.365C135.63 145.365 134.32 146.612 134.32 148.734C134.32 150.805 135.56 152.089 137.394 152.089C139.05 152.089 140.242 151.044 140.242 149.322V148.497H137.503V149.539H138.871C138.842 150.392 138.209 150.865 137.401 150.865C136.371 150.865 135.723 150.089 135.723 148.721C135.723 147.359 136.378 146.589 137.381 146.589C138.094 146.589 138.57 146.957 138.765 147.57ZM148.046 148.727C148.046 146.586 146.717 145.365 144.981 145.365C143.236 145.365 141.916 146.586 141.916 148.727C141.916 150.859 143.236 152.089 144.981 152.089C146.717 152.089 148.046 150.869 148.046 148.727ZM146.643 148.727C146.643 150.114 145.985 150.865 144.981 150.865C143.974 150.865 143.319 150.114 143.319 148.727C143.319 147.34 143.974 146.589 144.981 146.589C145.985 146.589 146.643 147.34 146.643 148.727ZM150.492 152L150.978 150.507H153.34L153.826 152H155.309L153.053 145.455H151.269L149.01 152H150.492ZM151.33 149.427L152.135 146.95H152.186L152.992 149.427H151.33ZM156.847 152H161.037V150.859H158.231V145.455H156.847V152Z" fill="#189473"/>
<rect x="105" y="180" width="86" height="26" rx="6" fill="#C6F7E2"/>
<path d="M137.007 189.455V196H138.349V191.724H138.404L140.097 195.968H141.011L142.705 191.74H142.76V196H144.102V189.455H142.395L140.593 193.852H140.516L138.714 189.455H137.007ZM147.2 196L147.685 194.507H150.047L150.533 196H152.016L149.76 189.455H147.976L145.717 196H147.2ZM148.037 193.427L148.842 190.95H148.893L149.699 193.427H148.037ZM153.554 196H154.938V193.878H156.101C157.606 193.878 158.482 192.98 158.482 191.673C158.482 190.372 157.622 189.455 156.136 189.455H153.554V196ZM154.938 192.769V190.586H155.871C156.67 190.586 157.057 191.021 157.057 191.673C157.057 192.321 156.67 192.769 155.877 192.769H154.938Z" fill="#189473"/>
<rect x="106" y="229" width="86" height="26" rx="6" fill="#C6F7E2"/>
<path d="M128.569 240L129.055 238.507H131.417L131.903 240H133.386L131.129 233.455H129.346L127.086 240H128.569ZM129.407 237.427L130.212 234.95H130.263L131.068 237.427H129.407ZM138.325 235.337H139.651C139.632 234.17 138.673 233.365 137.216 233.365C135.781 233.365 134.729 234.158 134.736 235.347C134.732 236.312 135.413 236.865 136.519 237.13L137.232 237.309C137.944 237.482 138.341 237.686 138.344 238.127C138.341 238.607 137.887 238.933 137.184 238.933C136.465 238.933 135.947 238.6 135.902 237.945H134.563C134.598 239.361 135.611 240.093 137.2 240.093C138.798 240.093 139.737 239.329 139.741 238.13C139.737 237.04 138.916 236.462 137.778 236.206L137.19 236.066C136.621 235.935 136.145 235.724 136.155 235.254C136.155 234.832 136.529 234.522 137.206 234.522C137.868 234.522 138.274 234.822 138.325 235.337ZM141.421 240H142.805V238.14L143.486 237.309L145.279 240H146.935L144.477 236.385L146.906 233.455H145.247L142.892 236.341H142.805V233.455H141.421V240ZM150.96 234.596H152.964V240H154.332V234.596H156.336V233.455H150.96V234.596ZM157.971 240H159.355V237.296H162.164V240H163.545V233.455H162.164V236.155H159.355V233.455H157.971V240ZM165.436 240H169.859V238.859H166.82V237.296H169.62V236.155H166.82V234.596H169.847V233.455H165.436V240ZM126.395 251H130.818V249.859H127.779V248.296H130.579V247.155H127.779V245.596H130.806V244.455H126.395V251ZM133.953 244.455H132.384L134.394 247.727L132.346 251H133.931L135.273 248.766H135.324L136.667 251H138.258L136.216 247.727L138.214 244.455H136.651L135.324 246.685H135.273L133.953 244.455ZM139.839 251H141.223V248.878H142.387C143.892 248.878 144.768 247.98 144.768 246.673C144.768 245.372 143.908 244.455 142.422 244.455H139.839V251ZM141.223 247.769V245.586H142.157C142.956 245.586 143.342 246.021 143.342 246.673C143.342 247.321 142.956 247.769 142.163 247.769H141.223ZM146.417 251H150.84V249.859H147.8V248.296H150.6V247.155H147.8V245.596H150.827V244.455H146.417V251ZM152.677 251H154.061V248.68H155.071L156.311 251H157.839L156.449 248.456C157.193 248.136 157.606 247.488 157.606 246.593C157.606 245.292 156.746 244.455 155.26 244.455H152.677V251ZM154.061 247.567V245.586H154.994C155.793 245.586 156.18 245.941 156.18 246.593C156.18 247.241 155.793 247.567 155.001 247.567H154.061ZM159.084 245.596H161.088V251H162.456V245.596H164.46V244.455H159.084V245.596ZM169.646 246.337H170.972C170.953 245.17 169.994 244.365 168.537 244.365C167.102 244.365 166.051 245.158 166.057 246.347C166.054 247.312 166.734 247.865 167.84 248.13L168.553 248.309C169.266 248.482 169.662 248.686 169.665 249.127C169.662 249.607 169.208 249.933 168.505 249.933C167.786 249.933 167.268 249.6 167.223 248.945H165.884C165.919 250.361 166.933 251.093 168.521 251.093C170.119 251.093 171.059 250.329 171.062 249.13C171.059 248.04 170.237 247.462 169.1 247.206L168.511 247.066C167.943 246.935 167.466 246.724 167.476 246.254C167.476 245.832 167.85 245.522 168.527 245.522C169.189 245.522 169.595 245.822 169.646 246.337Z" fill="#189473"/>
<rect x="106" y="279" width="86" height="26" rx="6" fill="#C6F7E2"/>
<path d="M118.407 290H119.791V287.296H122.6V290H123.981V283.455H122.6V286.155H119.791V283.455H118.407V290ZM131.887 286.727C131.887 284.586 130.557 283.365 128.822 283.365C127.077 283.365 125.757 284.586 125.757 286.727C125.757 288.859 127.077 290.089 128.822 290.089C130.557 290.089 131.887 288.869 131.887 286.727ZM130.484 286.727C130.484 288.114 129.826 288.865 128.822 288.865C127.815 288.865 127.16 288.114 127.16 286.727C127.16 285.34 127.815 284.589 128.822 284.589C129.826 284.589 130.484 285.34 130.484 286.727ZM135.136 290H136.484L137.727 285.721H137.779L139.025 290H140.374L142.247 283.455H140.735L139.652 288.012H139.594L138.402 283.455H137.107L135.912 288.002H135.858L134.774 283.455H133.263L135.136 290ZM146.57 283.455V290H147.913V285.724H147.967L149.661 289.968H150.575L152.269 285.74H152.323V290H153.666V283.455H151.959L150.156 287.852H150.08L148.277 283.455H146.57ZM157.019 283.455H155.635V290H157.019V283.455ZM163.238 285.57H164.654C164.475 284.276 163.311 283.365 161.832 283.365C160.103 283.365 158.792 284.612 158.792 286.734C158.792 288.805 160.032 290.089 161.867 290.089C163.522 290.089 164.714 289.044 164.714 287.322V286.497H161.975V287.539H163.343C163.315 288.392 162.682 288.865 161.873 288.865C160.844 288.865 160.195 288.089 160.195 286.721C160.195 285.359 160.85 284.589 161.854 284.589C162.567 284.589 163.043 284.957 163.238 285.57ZM166.504 290H167.888V287.296H170.697V290H172.078V283.455H170.697V286.155H167.888V283.455H166.504V290ZM173.72 284.596H175.723V290H177.091V284.596H179.095V283.455H173.72V284.596ZM138.086 301H139.434L140.678 296.721H140.729L141.975 301H143.324L145.197 294.455H143.685L142.602 299.012H142.544L141.352 294.455H140.058L138.862 299.002H138.808L137.725 294.455H136.213L138.086 301ZM146.688 301H151.111V299.859H148.071V298.296H150.871V297.155H148.071V295.596H151.098V294.455H146.688V301ZM154.064 294.455H153.041V295.151C153.041 295.691 152.849 296.085 152.635 296.423L153.236 296.778C153.687 296.401 154.064 295.73 154.064 295.145V294.455ZM159.429 296.337H160.755C160.736 295.17 159.777 294.365 158.32 294.365C156.885 294.365 155.833 295.158 155.84 296.347C155.836 297.312 156.517 297.865 157.623 298.13L158.336 298.309C159.048 298.482 159.445 298.686 159.448 299.127C159.445 299.607 158.991 299.933 158.288 299.933C157.569 299.933 157.051 299.6 157.006 298.945H155.667C155.702 300.361 156.715 301.093 158.304 301.093C159.902 301.093 160.841 300.329 160.845 299.13C160.841 298.04 160.02 297.462 158.882 297.206L158.294 297.066C157.725 296.935 157.249 296.724 157.259 296.254C157.259 295.832 157.633 295.522 158.31 295.522C158.972 295.522 159.378 295.822 159.429 296.337Z" fill="#189473"/>
<path d="M115.019 38.8182V49H117.107V42.348H117.191L119.826 48.9503H121.248L123.883 42.3729H123.968V49H126.056V38.8182H123.401L120.597 45.6591H120.478L117.674 38.8182H115.019ZM138.059 43.9091C138.059 40.5781 135.991 38.679 133.291 38.679C130.577 38.679 128.523 40.5781 128.523 43.9091C128.523 47.2251 130.577 49.1392 133.291 49.1392C135.991 49.1392 138.059 47.2401 138.059 43.9091ZM135.876 43.9091C135.876 46.0668 134.852 47.2351 133.291 47.2351C131.725 47.2351 130.706 46.0668 130.706 43.9091C130.706 41.7514 131.725 40.5831 133.291 40.5831C134.852 40.5831 135.876 41.7514 135.876 43.9091ZM148.92 38.8182H146.777V45.2216H146.688L142.293 38.8182H140.403V49H142.556V42.5916H142.631L147.06 49H148.92V38.8182ZM155.058 49C158.16 49 160.039 47.081 160.039 43.8991C160.039 40.7273 158.16 38.8182 155.088 38.8182H151.448V49H155.058ZM153.601 47.1555V40.6626H154.973C156.882 40.6626 157.892 41.6371 157.892 43.8991C157.892 46.1712 156.882 47.1555 154.968 47.1555H153.601ZM163.428 49L164.184 46.6783H167.858L168.613 49H170.92L167.41 38.8182H164.636L161.121 49H163.428ZM164.731 44.9979L165.983 41.1449H166.063L167.316 44.9979H164.731ZM171.26 38.8182L174.974 45.4006V49H177.112V45.4006L180.825 38.8182H178.414L176.092 43.2031H175.993L173.671 38.8182H171.26Z" fill="#486582"/>
<defs>
<filter id="filter0_d" x="261" y="77" width="116" height="261" filterUnits="userSpaceOnUse" color-interpolation-filters="sRGB">
<feFlood flood-opacity="0" result="BackgroundImageFix"/>
<feColorMatrix in="SourceAlpha" type="matrix" values="0 0 0 0 0 0 0 0 0 0 0 0 0 0 0 0 0 0 127 0"/>
<feOffset dy="1"/>
<feGaussianBlur stdDeviation="1.5"/>
<feColorMatrix type="matrix" values="0 0 0 0 0 0 0 0 0 0 0 0 0 0 0 0 0 0 0.2 0"/>
<feBlend mode="multiply" in2="BackgroundImageFix" result="effect1_dropShadow"/>
<feBlend mode="normal" in="SourceGraphic" in2="effect1_dropShadow" result="shape"/>
</filter>
<filter id="filter1_d" x="91" y="77" width="116" height="261" filterUnits="userSpaceOnUse" color-interpolation-filters="sRGB">
<feFlood flood-opacity="0" result="BackgroundImageFix"/>
<feColorMatrix in="SourceAlpha" type="matrix" values="0 0 0 0 0 0 0 0 0 0 0 0 0 0 0 0 0 0 127 0"/>
<feOffset dy="1"/>
<feGaussianBlur stdDeviation="1.5"/>
<feColorMatrix type="matrix" values="0 0 0 0 0 0 0 0 0 0 0 0 0 0 0 0 0 0 0.2 0"/>
<feBlend mode="multiply" in2="BackgroundImageFix" result="effect1_dropShadow"/>
<feBlend mode="normal" in="SourceGraphic" in2="effect1_dropShadow" result="shape"/>
</filter>
</defs>
</svg>
