<svg width="198" height="233" viewBox="0 0 198 233" fill="none" xmlns="http://www.w3.org/2000/svg">
<mask id="mask0" mask-type="alpha" maskUnits="userSpaceOnUse" x="43" y="101" width="155" height="91">
<g opacity="0.5">
<path d="M196.141 108.996C196.693 108.993 197.144 109.437 197.148 109.988C197.151 110.54 196.707 110.99 196.154 110.994C195.601 110.998 195.15 110.553 195.147 110.002C195.143 109.45 195.588 109 196.141 108.996Z" fill="#9FB3C8"/>
<path d="M188.136 109.05C188.689 109.046 189.14 109.49 189.143 110.042C189.147 110.593 188.702 111.043 188.149 111.047C187.597 111.051 187.146 110.607 187.142 110.055C187.138 109.503 187.583 109.053 188.136 109.05Z" fill="#9FB3C8"/>
<path d="M180.131 109.103C180.684 109.099 181.135 109.543 181.139 110.095C181.142 110.646 180.697 111.097 180.145 111.1C179.592 111.104 179.141 110.66 179.138 110.108C179.134 109.557 179.579 109.107 180.131 109.103Z" fill="#9FB3C8"/>
<path d="M172.127 109.156C172.679 109.152 173.13 109.597 173.134 110.148C173.138 110.7 172.693 111.15 172.14 111.154C171.588 111.157 171.137 110.713 171.133 110.161C171.129 109.61 171.574 109.16 172.127 109.156Z" fill="#9FB3C8"/>
<path d="M164.122 109.209C164.675 109.206 165.126 109.65 165.13 110.201C165.133 110.753 164.688 111.203 164.136 111.207C163.583 111.21 163.132 110.766 163.128 110.215C163.125 109.663 163.57 109.213 164.122 109.209Z" fill="#9FB3C8"/>
<path d="M156.118 109.263C156.67 109.259 157.121 109.703 157.125 110.255C157.129 110.806 156.684 111.256 156.131 111.26C155.578 111.264 155.127 110.819 155.124 110.268C155.12 109.716 155.565 109.266 156.118 109.263Z" fill="#9FB3C8"/>
<path d="M148.113 109.316C148.666 109.312 149.117 109.756 149.12 110.308C149.124 110.859 148.679 111.31 148.126 111.313C147.574 111.317 147.123 110.873 147.119 110.321C147.116 109.77 147.561 109.319 148.113 109.316Z" fill="#9FB3C8"/>
<path d="M140.109 109.369C140.661 109.365 141.112 109.809 141.116 110.361C141.119 110.913 140.674 111.363 140.122 111.366C139.569 111.37 139.118 110.926 139.115 110.374C139.111 109.823 139.556 109.373 140.109 109.369Z" fill="#9FB3C8"/>
<path d="M132.104 109.422C132.657 109.419 133.108 109.863 133.111 110.414C133.115 110.966 132.67 111.416 132.117 111.42C131.565 111.423 131.114 110.979 131.11 110.428C131.106 109.876 131.551 109.426 132.104 109.422Z" fill="#9FB3C8"/>
<path d="M124.099 109.475C124.652 109.472 125.103 109.916 125.107 110.467C125.11 111.019 124.665 111.469 124.113 111.473C123.56 111.477 123.109 111.032 123.106 110.481C123.102 109.929 123.547 109.479 124.099 109.475Z" fill="#9FB3C8"/>
<path d="M196.088 101.007C196.64 101.003 197.091 101.447 197.095 101.999C197.098 102.55 196.653 103 196.101 103.004C195.548 103.008 195.097 102.564 195.094 102.012C195.09 101.46 195.535 101.01 196.088 101.007Z" fill="#9FB3C8"/>
<path d="M188.083 101.06C188.636 101.056 189.086 101.5 189.09 102.052C189.094 102.604 188.649 103.054 188.096 103.057C187.544 103.061 187.093 102.617 187.089 102.065C187.085 101.514 187.53 101.064 188.083 101.06Z" fill="#9FB3C8"/>
<path d="M180.078 101.113C180.631 101.109 181.082 101.554 181.086 102.105C181.089 102.657 180.644 103.107 180.092 103.111C179.539 103.114 179.088 102.67 179.084 102.118C179.081 101.567 179.526 101.117 180.078 101.113Z" fill="#9FB3C8"/>
<path d="M172.074 101.166C172.626 101.163 173.077 101.607 173.081 102.158C173.085 102.71 172.64 103.16 172.087 103.164C171.534 103.167 171.084 102.723 171.08 102.172C171.076 101.62 171.521 101.17 172.074 101.166Z" fill="#9FB3C8"/>
<path d="M164.069 101.22C164.622 101.216 165.073 101.66 165.076 102.212C165.08 102.763 164.635 103.213 164.082 103.217C163.53 103.221 163.079 102.776 163.075 102.225C163.072 101.673 163.517 101.223 164.069 101.22Z" fill="#9FB3C8"/>
<path d="M156.065 101.273C156.617 101.269 157.068 101.713 157.072 102.265C157.076 102.816 156.631 103.267 156.078 103.27C155.525 103.274 155.074 102.83 155.071 102.278C155.067 101.727 155.512 101.276 156.065 101.273Z" fill="#9FB3C8"/>
<path d="M148.06 101.326C148.613 101.322 149.064 101.766 149.067 102.318C149.071 102.87 148.626 103.32 148.073 103.323C147.521 103.327 147.07 102.883 147.066 102.331C147.062 101.78 147.507 101.33 148.06 101.326Z" fill="#9FB3C8"/>
<path d="M140.055 101.379C140.608 101.376 141.059 101.82 141.063 102.371C141.066 102.923 140.621 103.373 140.069 103.377C139.516 103.38 139.065 102.936 139.062 102.385C139.058 101.833 139.503 101.383 140.055 101.379Z" fill="#9FB3C8"/>
<path d="M132.051 101.432C132.604 101.429 133.054 101.873 133.058 102.424C133.062 102.976 132.617 103.426 132.064 103.43C131.512 103.434 131.061 102.989 131.057 102.438C131.053 101.886 131.498 101.436 132.051 101.432Z" fill="#9FB3C8"/>
<path d="M124.046 101.486C124.599 101.482 125.05 101.926 125.054 102.478C125.057 103.029 124.612 103.479 124.06 103.483C123.507 103.487 123.056 103.043 123.052 102.491C123.049 101.939 123.494 101.489 124.046 101.486Z" fill="#9FB3C8"/>
<path d="M196.247 124.976C196.799 124.972 197.25 125.416 197.254 125.968C197.258 126.52 196.813 126.97 196.26 126.973C195.708 126.977 195.257 126.533 195.253 125.981C195.249 125.43 195.694 124.98 196.247 124.976Z" fill="#9FB3C8"/>
<path d="M188.242 125.029C188.795 125.025 189.246 125.47 189.25 126.021C189.253 126.573 188.808 127.023 188.256 127.027C187.703 127.03 187.252 126.586 187.248 126.035C187.245 125.483 187.69 125.033 188.242 125.029Z" fill="#9FB3C8"/>
<path d="M180.238 125.082C180.79 125.079 181.241 125.523 181.245 126.074C181.249 126.626 180.804 127.076 180.251 127.08C179.698 127.083 179.247 126.639 179.244 126.088C179.24 125.536 179.685 125.086 180.238 125.082Z" fill="#9FB3C8"/>
<path d="M172.233 125.136C172.786 125.132 173.237 125.576 173.24 126.128C173.244 126.679 172.799 127.129 172.246 127.133C171.694 127.137 171.243 126.693 171.239 126.141C171.236 125.589 171.681 125.139 172.233 125.136Z" fill="#9FB3C8"/>
<path d="M164.229 125.189C164.781 125.185 165.232 125.629 165.236 126.181C165.239 126.732 164.794 127.183 164.242 127.186C163.689 127.19 163.238 126.746 163.235 126.194C163.231 125.643 163.676 125.192 164.229 125.189Z" fill="#9FB3C8"/>
<path d="M156.224 125.242C156.777 125.238 157.228 125.683 157.231 126.234C157.235 126.786 156.79 127.236 156.237 127.239C155.685 127.243 155.234 126.799 155.23 126.247C155.226 125.696 155.671 125.246 156.224 125.242Z" fill="#9FB3C8"/>
<path d="M148.219 125.295C148.772 125.292 149.223 125.736 149.227 126.287C149.23 126.839 148.785 127.289 148.233 127.293C147.68 127.296 147.229 126.852 147.225 126.301C147.222 125.749 147.667 125.299 148.219 125.295Z" fill="#9FB3C8"/>
<path d="M140.215 125.348C140.767 125.345 141.218 125.789 141.222 126.341C141.226 126.892 140.781 127.342 140.228 127.346C139.676 127.35 139.225 126.905 139.221 126.354C139.217 125.802 139.662 125.352 140.215 125.348Z" fill="#9FB3C8"/>
<path d="M132.21 125.402C132.763 125.398 133.214 125.842 133.217 126.394C133.221 126.945 132.776 127.395 132.224 127.399C131.671 127.403 131.22 126.959 131.216 126.407C131.213 125.855 131.658 125.405 132.21 125.402Z" fill="#9FB3C8"/>
<path d="M124.206 125.455C124.758 125.451 125.209 125.895 125.213 126.447C125.217 126.999 124.772 127.449 124.219 127.452C123.666 127.456 123.215 127.012 123.212 126.46C123.208 125.909 123.653 125.459 124.206 125.455Z" fill="#9FB3C8"/>
<path d="M196.194 116.986C196.746 116.982 197.197 117.427 197.201 117.978C197.205 118.53 196.76 118.98 196.207 118.984C195.654 118.987 195.203 118.543 195.2 117.992C195.196 117.44 195.641 116.99 196.194 116.986Z" fill="#9FB3C8"/>
<path d="M188.189 117.039C188.742 117.036 189.193 117.48 189.196 118.031C189.2 118.583 188.755 119.033 188.202 119.037C187.65 119.04 187.199 118.596 187.195 118.045C187.192 117.493 187.637 117.043 188.189 117.039Z" fill="#9FB3C8"/>
<path d="M180.185 117.093C180.737 117.089 181.188 117.533 181.192 118.085C181.195 118.636 180.75 119.086 180.198 119.09C179.645 119.094 179.194 118.65 179.191 118.098C179.187 117.546 179.632 117.096 180.185 117.093Z" fill="#9FB3C8"/>
<path d="M172.18 117.146C172.733 117.142 173.184 117.586 173.187 118.138C173.191 118.689 172.746 119.14 172.193 119.143C171.641 119.147 171.19 118.703 171.186 118.151C171.182 117.6 171.627 117.149 172.18 117.146Z" fill="#9FB3C8"/>
<path d="M164.175 117.199C164.728 117.195 165.179 117.64 165.183 118.191C165.186 118.743 164.741 119.193 164.189 119.196C163.636 119.2 163.185 118.756 163.182 118.204C163.178 117.653 163.623 117.203 164.175 117.199Z" fill="#9FB3C8"/>
<path d="M156.171 117.252C156.723 117.249 157.174 117.693 157.178 118.244C157.182 118.796 156.737 119.246 156.184 119.25C155.632 119.253 155.181 118.809 155.177 118.258C155.173 117.706 155.618 117.256 156.171 117.252Z" fill="#9FB3C8"/>
<path d="M148.166 117.305C148.719 117.302 149.17 117.746 149.174 118.298C149.177 118.849 148.732 119.299 148.18 119.303C147.627 119.307 147.176 118.862 147.172 118.311C147.169 117.759 147.614 117.309 148.166 117.305Z" fill="#9FB3C8"/>
<path d="M140.162 117.359C140.714 117.355 141.165 117.799 141.169 118.351C141.173 118.902 140.728 119.352 140.175 119.356C139.622 119.36 139.171 118.916 139.168 118.364C139.164 117.813 139.609 117.362 140.162 117.359Z" fill="#9FB3C8"/>
<path d="M132.157 117.412C132.71 117.408 133.161 117.852 133.164 118.404C133.168 118.956 132.723 119.406 132.17 119.409C131.618 119.413 131.167 118.969 131.163 118.417C131.16 117.866 131.605 117.416 132.157 117.412Z" fill="#9FB3C8"/>
<path d="M124.153 117.465C124.705 117.461 125.156 117.906 125.16 118.457C125.163 119.009 124.718 119.459 124.166 119.463C123.613 119.466 123.162 119.022 123.159 118.471C123.155 117.919 123.6 117.469 124.153 117.465Z" fill="#9FB3C8"/>
<path d="M196.353 140.955C196.906 140.952 197.357 141.396 197.36 141.947C197.364 142.499 196.919 142.949 196.366 142.953C195.814 142.957 195.363 142.512 195.359 141.961C195.356 141.409 195.801 140.959 196.353 140.955Z" fill="#9FB3C8"/>
<path d="M188.349 141.009C188.901 141.005 189.352 141.449 189.356 142.001C189.359 142.552 188.914 143.002 188.362 143.006C187.809 143.01 187.358 142.566 187.355 142.014C187.351 141.462 187.796 141.012 188.349 141.009Z" fill="#9FB3C8"/>
<path d="M180.344 141.062C180.897 141.058 181.348 141.502 181.351 142.054C181.355 142.605 180.91 143.056 180.357 143.059C179.805 143.063 179.354 142.619 179.35 142.067C179.346 141.516 179.791 141.066 180.344 141.062Z" fill="#9FB3C8"/>
<path d="M172.339 141.115C172.892 141.111 173.343 141.556 173.347 142.107C173.35 142.659 172.905 143.109 172.353 143.113C171.8 143.116 171.349 142.672 171.345 142.12C171.342 141.569 171.787 141.119 172.339 141.115Z" fill="#9FB3C8"/>
<path d="M164.335 141.168C164.887 141.165 165.338 141.609 165.342 142.16C165.346 142.712 164.901 143.162 164.348 143.166C163.795 143.169 163.345 142.725 163.341 142.174C163.337 141.622 163.782 141.172 164.335 141.168Z" fill="#9FB3C8"/>
<path d="M156.33 141.222C156.883 141.218 157.334 141.662 157.337 142.214C157.341 142.765 156.896 143.215 156.344 143.219C155.791 143.223 155.34 142.778 155.336 142.227C155.333 141.675 155.778 141.225 156.33 141.222Z" fill="#9FB3C8"/>
<path d="M148.326 141.275C148.878 141.271 149.329 141.715 149.333 142.267C149.337 142.818 148.892 143.269 148.339 143.272C147.786 143.276 147.335 142.832 147.332 142.28C147.328 141.729 147.773 141.278 148.326 141.275Z" fill="#9FB3C8"/>
<path d="M140.321 141.328C140.874 141.324 141.325 141.768 141.328 142.32C141.332 142.872 140.887 143.322 140.334 143.325C139.782 143.329 139.331 142.885 139.327 142.333C139.323 141.782 139.768 141.332 140.321 141.328Z" fill="#9FB3C8"/>
<path d="M132.317 141.381C132.869 141.378 133.32 141.822 133.324 142.373C133.327 142.925 132.882 143.375 132.33 143.379C131.777 143.382 131.326 142.938 131.323 142.387C131.319 141.835 131.764 141.385 132.317 141.381Z" fill="#9FB3C8"/>
<path d="M124.312 141.434C124.865 141.431 125.315 141.875 125.319 142.426C125.323 142.978 124.878 143.428 124.325 143.432C123.773 143.436 123.322 142.991 123.318 142.44C123.314 141.888 123.759 141.438 124.312 141.434Z" fill="#9FB3C8"/>
<path d="M196.3 132.966C196.853 132.962 197.304 133.406 197.307 133.958C197.311 134.509 196.866 134.959 196.313 134.963C195.761 134.967 195.31 134.523 195.306 133.971C195.302 133.419 195.747 132.969 196.3 132.966Z" fill="#9FB3C8"/>
<path d="M188.295 133.019C188.848 133.015 189.299 133.459 189.303 134.011C189.306 134.563 188.861 135.013 188.309 135.016C187.756 135.02 187.305 134.576 187.301 134.024C187.298 133.473 187.743 133.023 188.295 133.019Z" fill="#9FB3C8"/>
<path d="M180.291 133.072C180.843 133.068 181.294 133.513 181.298 134.064C181.302 134.616 180.857 135.066 180.304 135.07C179.752 135.073 179.301 134.629 179.297 134.077C179.293 133.526 179.738 133.076 180.291 133.072Z" fill="#9FB3C8"/>
<path d="M172.286 133.125C172.839 133.122 173.29 133.566 173.293 134.117C173.297 134.669 172.852 135.119 172.3 135.123C171.747 135.126 171.296 134.682 171.292 134.131C171.289 133.579 171.734 133.129 172.286 133.125Z" fill="#9FB3C8"/>
<path d="M164.282 133.179C164.834 133.175 165.285 133.619 165.289 134.171C165.293 134.722 164.848 135.172 164.295 135.176C163.742 135.18 163.291 134.735 163.288 134.184C163.284 133.632 163.729 133.182 164.282 133.179Z" fill="#9FB3C8"/>
<path d="M156.277 133.232C156.83 133.228 157.281 133.672 157.284 134.224C157.288 134.775 156.843 135.226 156.29 135.229C155.738 135.233 155.287 134.789 155.283 134.237C155.28 133.686 155.725 133.235 156.277 133.232Z" fill="#9FB3C8"/>
<path d="M148.273 133.285C148.825 133.281 149.276 133.725 149.28 134.277C149.283 134.829 148.838 135.279 148.286 135.282C147.733 135.286 147.282 134.842 147.279 134.29C147.275 133.739 147.72 133.289 148.273 133.285Z" fill="#9FB3C8"/>
<path d="M140.268 133.338C140.821 133.335 141.272 133.779 141.275 134.33C141.279 134.882 140.834 135.332 140.281 135.336C139.729 135.339 139.278 134.895 139.274 134.344C139.27 133.792 139.715 133.342 140.268 133.338Z" fill="#9FB3C8"/>
<path d="M132.263 133.391C132.816 133.388 133.267 133.832 133.271 134.383C133.274 134.935 132.829 135.385 132.277 135.389C131.724 135.393 131.273 134.948 131.269 134.397C131.266 133.845 131.711 133.395 132.263 133.391Z" fill="#9FB3C8"/>
<path d="M124.259 133.445C124.811 133.441 125.262 133.885 125.266 134.437C125.27 134.988 124.825 135.438 124.272 135.442C123.72 135.446 123.269 135.002 123.265 134.45C123.261 133.898 123.706 133.448 124.259 133.445Z" fill="#9FB3C8"/>
<path d="M196.459 156.935C197.012 156.931 197.463 157.375 197.467 157.927C197.47 158.479 197.025 158.929 196.473 158.932C195.92 158.936 195.469 158.492 195.465 157.94C195.462 157.389 195.907 156.939 196.459 156.935Z" fill="#9FB3C8"/>
<path d="M188.455 156.988C189.007 156.984 189.458 157.429 189.462 157.98C189.466 158.532 189.021 158.982 188.468 158.986C187.915 158.989 187.465 158.545 187.461 157.994C187.457 157.442 187.902 156.992 188.455 156.988Z" fill="#9FB3C8"/>
<path d="M180.45 157.041C181.003 157.038 181.454 157.482 181.457 158.033C181.461 158.585 181.016 159.035 180.463 159.039C179.911 159.042 179.46 158.598 179.456 158.047C179.453 157.495 179.898 157.045 180.45 157.041Z" fill="#9FB3C8"/>
<path d="M172.446 157.095C172.998 157.091 173.449 157.535 173.453 158.087C173.457 158.638 173.012 159.088 172.459 159.092C171.906 159.096 171.455 158.652 171.452 158.1C171.448 157.548 171.893 157.098 172.446 157.095Z" fill="#9FB3C8"/>
<path d="M164.441 157.148C164.994 157.144 165.445 157.588 165.448 158.14C165.452 158.691 165.007 159.142 164.454 159.145C163.902 159.149 163.451 158.705 163.447 158.153C163.443 157.602 163.888 157.151 164.441 157.148Z" fill="#9FB3C8"/>
<path d="M156.436 157.201C156.989 157.197 157.44 157.642 157.444 158.193C157.447 158.745 157.002 159.195 156.45 159.198C155.897 159.202 155.446 158.758 155.443 158.206C155.439 157.655 155.884 157.205 156.436 157.201Z" fill="#9FB3C8"/>
<path d="M148.432 157.254C148.985 157.251 149.435 157.695 149.439 158.246C149.443 158.798 148.998 159.248 148.445 159.252C147.893 159.255 147.442 158.811 147.438 158.26C147.434 157.708 147.879 157.258 148.432 157.254Z" fill="#9FB3C8"/>
<path d="M140.427 157.307C140.98 157.304 141.431 157.748 141.435 158.3C141.438 158.851 140.993 159.301 140.441 159.305C139.888 159.309 139.437 158.864 139.433 158.313C139.43 157.761 139.875 157.311 140.427 157.307Z" fill="#9FB3C8"/>
<path d="M132.423 157.361C132.975 157.357 133.426 157.801 133.43 158.353C133.434 158.904 132.989 159.354 132.436 159.358C131.883 159.362 131.433 158.918 131.429 158.366C131.425 157.814 131.87 157.364 132.423 157.361Z" fill="#9FB3C8"/>
<path d="M124.418 157.414C124.971 157.41 125.422 157.854 125.425 158.406C125.429 158.958 124.984 159.408 124.431 159.411C123.879 159.415 123.428 158.971 123.424 158.419C123.421 157.868 123.866 157.418 124.418 157.414Z" fill="#9FB3C8"/>
<path d="M196.406 148.945C196.959 148.941 197.41 149.386 197.413 149.937C197.417 150.489 196.972 150.939 196.42 150.943C195.867 150.946 195.416 150.502 195.412 149.951C195.409 149.399 195.854 148.949 196.406 148.945Z" fill="#9FB3C8"/>
<path d="M188.402 148.998C188.954 148.995 189.405 149.439 189.409 149.99C189.413 150.542 188.968 150.992 188.415 150.996C187.862 150.999 187.411 150.555 187.408 150.004C187.404 149.452 187.849 149.002 188.402 148.998Z" fill="#9FB3C8"/>
<path d="M180.397 149.052C180.95 149.048 181.401 149.492 181.404 150.044C181.408 150.595 180.963 151.045 180.41 151.049C179.858 151.053 179.407 150.609 179.403 150.057C179.399 149.505 179.844 149.055 180.397 149.052Z" fill="#9FB3C8"/>
<path d="M172.393 149.105C172.945 149.101 173.396 149.545 173.4 150.097C173.403 150.648 172.958 151.099 172.406 151.102C171.853 151.106 171.402 150.662 171.399 150.11C171.395 149.559 171.84 149.108 172.393 149.105Z" fill="#9FB3C8"/>
<path d="M164.388 149.158C164.941 149.154 165.391 149.599 165.395 150.15C165.399 150.702 164.954 151.152 164.401 151.155C163.849 151.159 163.398 150.715 163.394 150.163C163.39 149.612 163.835 149.162 164.388 149.158Z" fill="#9FB3C8"/>
<path d="M156.383 149.211C156.936 149.208 157.387 149.652 157.391 150.203C157.394 150.755 156.949 151.205 156.397 151.209C155.844 151.212 155.393 150.768 155.389 150.217C155.386 149.665 155.831 149.215 156.383 149.211Z" fill="#9FB3C8"/>
<path d="M148.379 149.264C148.931 149.261 149.382 149.705 149.386 150.257C149.39 150.808 148.945 151.258 148.392 151.262C147.839 151.266 147.389 150.821 147.385 150.27C147.381 149.718 147.826 149.268 148.379 149.264Z" fill="#9FB3C8"/>
<path d="M140.374 149.318C140.927 149.314 141.378 149.758 141.381 150.31C141.385 150.861 140.94 151.311 140.387 151.315C139.835 151.319 139.384 150.875 139.38 150.323C139.377 149.772 139.822 149.321 140.374 149.318Z" fill="#9FB3C8"/>
<path d="M132.37 149.371C132.922 149.367 133.373 149.811 133.377 150.363C133.381 150.915 132.936 151.365 132.383 151.368C131.83 151.372 131.379 150.928 131.376 150.376C131.372 149.825 131.817 149.375 132.37 149.371Z" fill="#9FB3C8"/>
<path d="M124.365 149.424C124.918 149.42 125.369 149.865 125.372 150.416C125.376 150.968 124.931 151.418 124.378 151.422C123.826 151.425 123.375 150.981 123.371 150.43C123.367 149.878 123.812 149.428 124.365 149.424Z" fill="#9FB3C8"/>
<path d="M196.566 172.914C197.118 172.911 197.569 173.355 197.573 173.906C197.576 174.458 197.131 174.908 196.579 174.912C196.026 174.916 195.575 174.471 195.572 173.92C195.568 173.368 196.013 172.918 196.566 172.914Z" fill="#9FB3C8"/>
<path d="M188.561 172.968C189.114 172.964 189.565 173.408 189.568 173.96C189.572 174.511 189.127 174.961 188.574 174.965C188.022 174.969 187.571 174.525 187.567 173.973C187.563 173.421 188.008 172.971 188.561 172.968Z" fill="#9FB3C8"/>
<path d="M180.556 173.021C181.109 173.017 181.56 173.461 181.564 174.013C181.567 174.565 181.122 175.015 180.57 175.018C180.017 175.022 179.566 174.578 179.563 174.026C179.559 173.475 180.004 173.025 180.556 173.021Z" fill="#9FB3C8"/>
<path d="M172.552 173.074C173.104 173.07 173.555 173.515 173.559 174.066C173.563 174.618 173.118 175.068 172.565 175.072C172.013 175.075 171.562 174.631 171.558 174.079C171.554 173.528 171.999 173.078 172.552 173.074Z" fill="#9FB3C8"/>
<path d="M164.547 173.127C165.1 173.124 165.551 173.568 165.555 174.119C165.558 174.671 165.113 175.121 164.561 175.125C164.008 175.128 163.557 174.684 163.553 174.133C163.55 173.581 163.995 173.131 164.547 173.127Z" fill="#9FB3C8"/>
<path d="M156.543 173.181C157.095 173.177 157.546 173.621 157.55 174.173C157.554 174.724 157.109 175.174 156.556 175.178C156.003 175.182 155.552 174.737 155.549 174.186C155.545 173.634 155.99 173.184 156.543 173.181Z" fill="#9FB3C8"/>
<path d="M148.538 173.234C149.091 173.23 149.542 173.674 149.545 174.226C149.549 174.777 149.104 175.228 148.551 175.231C147.999 175.235 147.548 174.791 147.544 174.239C147.541 173.688 147.986 173.237 148.538 173.234Z" fill="#9FB3C8"/>
<path d="M140.534 173.287C141.086 173.283 141.537 173.727 141.541 174.279C141.544 174.831 141.099 175.281 140.547 175.284C139.994 175.288 139.543 174.844 139.54 174.292C139.536 173.741 139.981 173.291 140.534 173.287Z" fill="#9FB3C8"/>
<path d="M132.529 173.34C133.082 173.337 133.533 173.781 133.536 174.332C133.54 174.884 133.095 175.334 132.542 175.338C131.99 175.341 131.539 174.897 131.535 174.346C131.531 173.794 131.976 173.344 132.529 173.34Z" fill="#9FB3C8"/>
<path d="M124.524 173.393C125.077 173.39 125.528 173.834 125.532 174.385C125.535 174.937 125.09 175.387 124.538 175.391C123.985 175.395 123.534 174.95 123.531 174.399C123.527 173.847 123.972 173.397 124.524 173.393Z" fill="#9FB3C8"/>
<path d="M196.512 164.925C197.065 164.921 197.516 165.365 197.52 165.917C197.523 166.468 197.078 166.918 196.526 166.922C195.973 166.926 195.522 166.482 195.519 165.93C195.515 165.378 195.96 164.928 196.512 164.925Z" fill="#9FB3C8"/>
<path d="M188.508 164.978C189.061 164.974 189.511 165.418 189.515 165.97C189.519 166.522 189.074 166.972 188.521 166.975C187.969 166.979 187.518 166.535 187.514 165.983C187.51 165.432 187.955 164.982 188.508 164.978Z" fill="#9FB3C8"/>
<path d="M180.503 165.031C181.056 165.027 181.507 165.472 181.511 166.023C181.514 166.575 181.069 167.025 180.517 167.029C179.964 167.032 179.513 166.588 179.509 166.036C179.506 165.485 179.951 165.035 180.503 165.031Z" fill="#9FB3C8"/>
<path d="M172.499 165.084C173.051 165.081 173.502 165.525 173.506 166.076C173.51 166.628 173.065 167.078 172.512 167.082C171.959 167.085 171.508 166.641 171.505 166.09C171.501 165.538 171.946 165.088 172.499 165.084Z" fill="#9FB3C8"/>
<path d="M164.494 165.138C165.047 165.134 165.498 165.578 165.501 166.13C165.505 166.681 165.06 167.131 164.507 167.135C163.955 167.139 163.504 166.695 163.5 166.143C163.497 165.591 163.942 165.141 164.494 165.138Z" fill="#9FB3C8"/>
<path d="M156.49 165.191C157.042 165.187 157.493 165.631 157.497 166.183C157.5 166.734 157.055 167.185 156.503 167.188C155.95 167.192 155.499 166.748 155.496 166.196C155.492 165.645 155.937 165.194 156.49 165.191Z" fill="#9FB3C8"/>
<path d="M148.485 165.244C149.038 165.24 149.489 165.684 149.492 166.236C149.496 166.788 149.051 167.238 148.498 167.241C147.946 167.245 147.495 166.801 147.491 166.249C147.487 165.698 147.932 165.248 148.485 165.244Z" fill="#9FB3C8"/>
<path d="M140.48 165.297C141.033 165.294 141.484 165.738 141.488 166.289C141.491 166.841 141.046 167.291 140.494 167.295C139.941 167.298 139.49 166.854 139.487 166.303C139.483 165.751 139.928 165.301 140.48 165.297Z" fill="#9FB3C8"/>
<path d="M132.476 165.35C133.028 165.347 133.479 165.791 133.483 166.343C133.487 166.894 133.042 167.344 132.489 167.348C131.937 167.352 131.486 166.907 131.482 166.356C131.478 165.804 131.923 165.354 132.476 165.35Z" fill="#9FB3C8"/>
<path d="M124.471 165.404C125.024 165.4 125.475 165.844 125.479 166.396C125.482 166.947 125.037 167.397 124.485 167.401C123.932 167.405 123.481 166.961 123.477 166.409C123.474 165.857 123.919 165.407 124.471 165.404Z" fill="#9FB3C8"/>
<path d="M196.672 188.894C197.224 188.89 197.675 189.334 197.679 189.886C197.683 190.438 197.238 190.888 196.685 190.891C196.133 190.895 195.682 190.451 195.678 189.899C195.674 189.348 196.119 188.898 196.672 188.894Z" fill="#9FB3C8"/>
<path d="M188.667 188.947C189.22 188.943 189.671 189.388 189.674 189.939C189.678 190.491 189.233 190.941 188.681 190.945C188.128 190.948 187.677 190.504 187.673 189.953C187.67 189.401 188.115 188.951 188.667 188.947Z" fill="#9FB3C8"/>
<path d="M180.663 189C181.215 188.997 181.666 189.441 181.67 189.992C181.674 190.544 181.229 190.994 180.676 190.998C180.123 191.001 179.672 190.557 179.669 190.006C179.665 189.454 180.11 189.004 180.663 189Z" fill="#9FB3C8"/>
<path d="M172.658 189.054C173.211 189.05 173.662 189.494 173.665 190.046C173.669 190.597 173.224 191.047 172.671 191.051C172.119 191.055 171.668 190.611 171.664 190.059C171.661 189.507 172.106 189.057 172.658 189.054Z" fill="#9FB3C8"/>
<path d="M164.654 189.107C165.206 189.103 165.657 189.547 165.661 190.099C165.664 190.65 165.219 191.101 164.667 191.104C164.114 191.108 163.663 190.664 163.66 190.112C163.656 189.561 164.101 189.11 164.654 189.107Z" fill="#9FB3C8"/>
<path d="M156.649 189.16C157.202 189.156 157.653 189.601 157.656 190.152C157.66 190.704 157.215 191.154 156.662 191.157C156.11 191.161 155.659 190.717 155.655 190.165C155.651 189.614 156.096 189.164 156.649 189.16Z" fill="#9FB3C8"/>
<path d="M148.644 189.213C149.197 189.21 149.648 189.654 149.652 190.205C149.655 190.757 149.21 191.207 148.658 191.211C148.105 191.214 147.654 190.77 147.65 190.219C147.647 189.667 148.092 189.217 148.644 189.213Z" fill="#9FB3C8"/>
<path d="M140.64 189.266C141.192 189.263 141.643 189.707 141.647 190.259C141.651 190.81 141.206 191.26 140.653 191.264C140.101 191.268 139.65 190.823 139.646 190.272C139.642 189.72 140.087 189.27 140.64 189.266Z" fill="#9FB3C8"/>
<path d="M132.635 189.32C133.188 189.316 133.639 189.76 133.642 190.312C133.646 190.863 133.201 191.313 132.649 191.317C132.096 191.321 131.645 190.877 131.641 190.325C131.638 189.773 132.083 189.323 132.635 189.32Z" fill="#9FB3C8"/>
<path d="M124.631 189.373C125.183 189.369 125.634 189.813 125.638 190.365C125.642 190.917 125.197 191.367 124.644 191.37C124.091 191.374 123.64 190.93 123.637 190.378C123.633 189.827 124.078 189.377 124.631 189.373Z" fill="#9FB3C8"/>
<path d="M196.619 180.904C197.171 180.9 197.622 181.345 197.626 181.896C197.63 182.448 197.185 182.898 196.632 182.902C196.079 182.905 195.628 182.461 195.625 181.91C195.621 181.358 196.066 180.908 196.619 180.904Z" fill="#9FB3C8"/>
<path d="M188.614 180.957C189.167 180.954 189.618 181.398 189.621 181.949C189.625 182.501 189.18 182.951 188.627 182.955C188.075 182.959 187.624 182.514 187.62 181.963C187.617 181.411 188.062 180.961 188.614 180.957Z" fill="#9FB3C8"/>
<path d="M180.61 181.011C181.162 181.007 181.613 181.451 181.617 182.003C181.62 182.554 181.175 183.004 180.623 183.008C180.07 183.012 179.619 182.568 179.616 182.016C179.612 181.464 180.057 181.014 180.61 181.011Z" fill="#9FB3C8"/>
<path d="M172.605 181.064C173.158 181.06 173.609 181.504 173.612 182.056C173.616 182.607 173.171 183.058 172.618 183.061C172.066 183.065 171.615 182.621 171.611 182.069C171.607 181.518 172.052 181.068 172.605 181.064Z" fill="#9FB3C8"/>
<path d="M164.6 181.117C165.153 181.113 165.604 181.558 165.608 182.109C165.611 182.661 165.166 183.111 164.614 183.114C164.061 183.118 163.61 182.674 163.606 182.122C163.603 181.571 164.048 181.121 164.6 181.117Z" fill="#9FB3C8"/>
<path d="M156.596 181.17C157.148 181.167 157.599 181.611 157.603 182.162C157.607 182.714 157.162 183.164 156.609 183.168C156.057 183.171 155.606 182.727 155.602 182.176C155.598 181.624 156.043 181.174 156.596 181.17Z" fill="#9FB3C8"/>
<path d="M148.591 181.223C149.144 181.22 149.595 181.664 149.598 182.216C149.602 182.767 149.157 183.217 148.605 183.221C148.052 183.225 147.601 182.78 147.597 182.229C147.594 181.677 148.039 181.227 148.591 181.223Z" fill="#9FB3C8"/>
<path d="M140.587 181.277C141.139 181.273 141.59 181.717 141.594 182.269C141.598 182.82 141.153 183.27 140.6 183.274C140.047 183.278 139.596 182.834 139.593 182.282C139.589 181.731 140.034 181.28 140.587 181.277Z" fill="#9FB3C8"/>
<path d="M132.582 181.33C133.135 181.326 133.586 181.77 133.589 182.322C133.593 182.874 133.148 183.324 132.595 183.327C132.043 183.331 131.592 182.887 131.588 182.335C131.585 181.784 132.03 181.334 132.582 181.33Z" fill="#9FB3C8"/>
<path d="M124.578 181.383C125.13 181.379 125.581 181.824 125.585 182.375C125.588 182.927 125.143 183.377 124.591 183.381C124.038 183.384 123.587 182.94 123.584 182.389C123.58 181.837 124.025 181.387 124.578 181.383Z" fill="#9FB3C8"/>
<path d="M116.095 109.529C116.647 109.525 117.098 109.969 117.102 110.521C117.106 111.072 116.661 111.522 116.108 111.526C115.556 111.53 115.105 111.086 115.101 110.534C115.097 109.982 115.542 109.532 116.095 109.529Z" fill="#9FB3C8"/>
<path d="M108.09 109.582C108.643 109.578 109.094 110.022 109.098 110.574C109.101 111.125 108.656 111.576 108.104 111.579C107.551 111.583 107.1 111.139 107.096 110.587C107.093 110.036 107.538 109.586 108.09 109.582Z" fill="#9FB3C8"/>
<path d="M100.086 109.635C100.638 109.631 101.089 110.076 101.093 110.627C101.097 111.179 100.652 111.629 100.099 111.633C99.5464 111.636 99.0955 111.192 99.0918 110.64C99.0881 110.089 99.5331 109.639 100.086 109.635Z" fill="#9FB3C8"/>
<path d="M92.0812 109.688C92.6338 109.685 93.0847 110.129 93.0884 110.68C93.092 111.232 92.647 111.682 92.0944 111.686C91.5418 111.689 91.0909 111.245 91.0872 110.694C91.0836 110.142 91.5286 109.692 92.0812 109.688Z" fill="#9FB3C8"/>
<path d="M84.0766 109.742C84.6292 109.738 85.0801 110.182 85.0838 110.734C85.0875 111.285 84.6425 111.735 84.0899 111.739C83.5373 111.743 83.0863 111.298 83.0827 110.747C83.079 110.195 83.524 109.745 84.0766 109.742Z" fill="#9FB3C8"/>
<path d="M76.072 109.795C76.6246 109.791 77.0756 110.235 77.0792 110.787C77.0829 111.338 76.6379 111.788 76.0853 111.792C75.5327 111.796 75.0818 111.352 75.0781 110.8C75.0744 110.249 75.5194 109.798 76.072 109.795Z" fill="#9FB3C8"/>
<path d="M68.0674 109.848C68.62 109.844 69.071 110.288 69.0747 110.84C69.0783 111.392 68.6333 111.842 68.0807 111.845C67.5281 111.849 67.0772 111.405 67.0735 110.853C67.0698 110.302 67.5148 109.852 68.0674 109.848Z" fill="#9FB3C8"/>
<path d="M60.0629 109.901C60.6155 109.897 61.0664 110.342 61.0701 110.893C61.0737 111.445 60.6288 111.895 60.0762 111.899C59.5236 111.902 59.0726 111.458 59.0689 110.907C59.0653 110.355 59.5103 109.905 60.0629 109.901Z" fill="#9FB3C8"/>
<path d="M52.0583 109.954C52.6109 109.951 53.0618 110.395 53.0655 110.946C53.0692 111.498 52.6242 111.948 52.0716 111.952C51.519 111.956 51.068 111.511 51.0644 110.96C51.0607 110.408 51.5057 109.958 52.0583 109.954Z" fill="#9FB3C8"/>
<path d="M44.0537 110.008C44.6063 110.004 45.0573 110.448 45.0609 111C45.0646 111.551 44.6196 112.001 44.067 112.005C43.5144 112.009 43.0635 111.565 43.0598 111.013C43.0561 110.461 43.5011 110.011 44.0537 110.008Z" fill="#9FB3C8"/>
<path d="M116.042 101.539C116.594 101.535 117.045 101.979 117.049 102.531C117.053 103.083 116.608 103.533 116.055 103.536C115.502 103.54 115.051 103.096 115.048 102.544C115.044 101.993 115.489 101.543 116.042 101.539Z" fill="#9FB3C8"/>
<path d="M108.037 101.592C108.59 101.588 109.041 102.033 109.044 102.584C109.048 103.136 108.603 103.586 108.05 103.59C107.498 103.593 107.047 103.149 107.043 102.597C107.04 102.046 107.485 101.596 108.037 101.592Z" fill="#9FB3C8"/>
<path d="M100.033 101.645C100.585 101.642 101.036 102.086 101.04 102.637C101.043 103.189 100.598 103.639 100.046 103.643C99.4933 103.646 99.0424 103.202 99.0387 102.651C99.035 102.099 99.48 101.649 100.033 101.645Z" fill="#9FB3C8"/>
<path d="M92.028 101.699C92.5806 101.695 93.0316 102.139 93.0353 102.691C93.0389 103.242 92.5939 103.692 92.0413 103.696C91.4887 103.7 91.0378 103.255 91.0341 102.704C91.0304 102.152 91.4754 101.702 92.028 101.699Z" fill="#9FB3C8"/>
<path d="M84.0235 101.752C84.5761 101.748 85.027 102.192 85.0307 102.744C85.0343 103.295 84.5893 103.746 84.0367 103.749C83.4841 103.753 83.0332 103.309 83.0295 102.757C83.0259 102.206 83.4709 101.755 84.0235 101.752Z" fill="#9FB3C8"/>
<path d="M76.0189 101.805C76.5715 101.801 77.0224 102.245 77.0261 102.797C77.0298 103.349 76.5848 103.799 76.0322 103.802C75.4796 103.806 75.0286 103.362 75.025 102.81C75.0213 102.259 75.4663 101.809 76.0189 101.805Z" fill="#9FB3C8"/>
<path d="M68.0143 101.858C68.5669 101.855 69.0179 102.299 69.0215 102.85C69.0252 103.402 68.5802 103.852 68.0276 103.856C67.475 103.859 67.0241 103.415 67.0204 102.864C67.0167 102.312 67.4617 101.862 68.0143 101.858Z" fill="#9FB3C8"/>
<path d="M60.0097 101.911C60.5623 101.908 61.0133 102.352 61.017 102.903C61.0206 103.455 60.5756 103.905 60.023 103.909C59.4704 103.913 59.0195 103.468 59.0158 102.917C59.0121 102.365 59.4571 101.915 60.0097 101.911Z" fill="#9FB3C8"/>
<path d="M52.0052 101.965C52.5578 101.961 53.0087 102.405 53.0124 102.957C53.0161 103.508 52.5711 103.958 52.0185 103.962C51.4659 103.966 51.0149 103.522 51.0112 102.97C51.0076 102.418 51.4526 101.968 52.0052 101.965Z" fill="#9FB3C8"/>
<path d="M44.0006 102.018C44.5532 102.014 45.0041 102.458 45.0078 103.01C45.0115 103.562 44.5665 104.012 44.0139 104.015C43.4613 104.019 43.0103 103.575 43.0067 103.023C43.003 102.472 43.448 102.022 44.0006 102.018Z" fill="#9FB3C8"/>
<path d="M116.201 125.508C116.754 125.504 117.205 125.949 117.208 126.5C117.212 127.052 116.767 127.502 116.214 127.506C115.662 127.509 115.211 127.065 115.207 126.513C115.204 125.962 115.649 125.512 116.201 125.508Z" fill="#9FB3C8"/>
<path d="M108.197 125.561C108.749 125.558 109.2 126.002 109.204 126.553C109.207 127.105 108.762 127.555 108.21 127.559C107.657 127.562 107.206 127.118 107.203 126.567C107.199 126.015 107.644 125.565 108.197 125.561Z" fill="#9FB3C8"/>
<path d="M100.192 125.615C100.745 125.611 101.196 126.055 101.199 126.607C101.203 127.158 100.758 127.608 100.205 127.612C99.6527 127.616 99.2017 127.172 99.1981 126.62C99.1944 126.068 99.6394 125.618 100.192 125.615Z" fill="#9FB3C8"/>
<path d="M92.1874 125.668C92.74 125.664 93.191 126.108 93.1946 126.66C93.1983 127.211 92.7533 127.662 92.2007 127.665C91.6481 127.669 91.1971 127.225 91.1935 126.673C91.1898 126.122 91.6348 125.671 92.1874 125.668Z" fill="#9FB3C8"/>
<path d="M84.1828 125.721C84.7354 125.717 85.1864 126.161 85.19 126.713C85.1937 127.265 84.7487 127.715 84.1961 127.718C83.6435 127.722 83.1926 127.278 83.1889 126.726C83.1852 126.175 83.6302 125.725 84.1828 125.721Z" fill="#9FB3C8"/>
<path d="M76.1783 125.774C76.7309 125.771 77.1818 126.215 77.1855 126.766C77.1891 127.318 76.7441 127.768 76.1915 127.772C75.6389 127.775 75.188 127.331 75.1843 126.78C75.1807 126.228 75.6257 125.778 76.1783 125.774Z" fill="#9FB3C8"/>
<path d="M68.1737 125.827C68.7263 125.824 69.1772 126.268 69.1809 126.82C69.1846 127.371 68.7396 127.821 68.187 127.825C67.6344 127.829 67.1834 127.384 67.1798 126.833C67.1761 126.281 67.6211 125.831 68.1737 125.827Z" fill="#9FB3C8"/>
<path d="M60.1691 125.881C60.7217 125.877 61.1727 126.321 61.1763 126.873C61.18 127.424 60.735 127.874 60.1824 127.878C59.6298 127.882 59.1789 127.438 59.1752 126.886C59.1715 126.334 59.6165 125.884 60.1691 125.881Z" fill="#9FB3C8"/>
<path d="M52.1645 125.934C52.7171 125.93 53.1681 126.374 53.1718 126.926C53.1754 127.478 52.7304 127.928 52.1778 127.931C51.6252 127.935 51.1743 127.491 51.1706 126.939C51.1669 126.388 51.6119 125.938 52.1645 125.934Z" fill="#9FB3C8"/>
<path d="M44.16 125.987C44.7126 125.983 45.1635 126.428 45.1672 126.979C45.1708 127.531 44.7258 127.981 44.1732 127.985C43.6206 127.988 43.1697 127.544 43.166 126.992C43.1624 126.441 43.6074 125.991 44.16 125.987Z" fill="#9FB3C8"/>
<path d="M116.148 117.518C116.701 117.515 117.152 117.959 117.155 118.51C117.159 119.062 116.714 119.512 116.161 119.516C115.609 119.519 115.158 119.075 115.154 118.524C115.15 117.972 115.595 117.522 116.148 117.518Z" fill="#9FB3C8"/>
<path d="M108.143 117.572C108.696 117.568 109.147 118.012 109.151 118.564C109.154 119.115 108.709 119.565 108.157 119.569C107.604 119.573 107.153 119.129 107.15 118.577C107.146 118.025 107.591 117.575 108.143 117.572Z" fill="#9FB3C8"/>
<path d="M100.139 117.625C100.691 117.621 101.142 118.065 101.146 118.617C101.15 119.168 100.705 119.619 100.152 119.622C99.5995 119.626 99.1486 119.182 99.1449 118.63C99.1413 118.079 99.5863 117.628 100.139 117.625Z" fill="#9FB3C8"/>
<path d="M92.1343 117.678C92.6869 117.674 93.1378 118.119 93.1415 118.67C93.1452 119.222 92.7002 119.672 92.1476 119.675C91.595 119.679 91.144 119.235 91.1404 118.683C91.1367 118.132 91.5817 117.682 92.1343 117.678Z" fill="#9FB3C8"/>
<path d="M84.1297 117.731C84.6823 117.728 85.1333 118.172 85.1369 118.723C85.1406 119.275 84.6956 119.725 84.143 119.729C83.5904 119.732 83.1395 119.288 83.1358 118.737C83.1321 118.185 83.5771 117.735 84.1297 117.731Z" fill="#9FB3C8"/>
<path d="M76.1251 117.784C76.6777 117.781 77.1287 118.225 77.1324 118.777C77.136 119.328 76.691 119.778 76.1384 119.782C75.5858 119.786 75.1349 119.341 75.1312 118.79C75.1275 118.238 75.5725 117.788 76.1251 117.784Z" fill="#9FB3C8"/>
<path d="M68.1206 117.838C68.6732 117.834 69.1241 118.278 69.1278 118.83C69.1314 119.381 68.6864 119.831 68.1338 119.835C67.5812 119.839 67.1303 119.395 67.1266 118.843C67.123 118.291 67.568 117.841 68.1206 117.838Z" fill="#9FB3C8"/>
<path d="M60.116 117.891C60.6686 117.887 61.1195 118.331 61.1232 118.883C61.1269 119.435 60.6819 119.885 60.1293 119.888C59.5767 119.892 59.1257 119.448 59.1221 118.896C59.1184 118.345 59.5634 117.895 60.116 117.891Z" fill="#9FB3C8"/>
<path d="M52.1114 117.944C52.664 117.94 53.115 118.385 53.1186 118.936C53.1223 119.488 52.6773 119.938 52.1247 119.942C51.5721 119.945 51.1212 119.501 51.1175 118.95C51.1138 118.398 51.5588 117.948 52.1114 117.944Z" fill="#9FB3C8"/>
<path d="M44.1068 117.997C44.6594 117.994 45.1104 118.438 45.1141 118.989C45.1177 119.541 44.6727 119.991 44.1201 119.995C43.5675 119.998 43.1166 119.554 43.1129 119.003C43.1092 118.451 43.5542 118.001 44.1068 117.997Z" fill="#9FB3C8"/>
<path d="M116.307 141.488C116.86 141.484 117.311 141.928 117.315 142.48C117.318 143.031 116.873 143.481 116.321 143.485C115.768 143.489 115.317 143.045 115.313 142.493C115.31 141.941 115.755 141.491 116.307 141.488Z" fill="#9FB3C8"/>
<path d="M108.303 141.541C108.855 141.537 109.306 141.981 109.31 142.533C109.314 143.084 108.869 143.535 108.316 143.538C107.763 143.542 107.313 143.098 107.309 142.546C107.305 141.995 107.75 141.545 108.303 141.541Z" fill="#9FB3C8"/>
<path d="M100.298 141.594C100.851 141.59 101.302 142.035 101.305 142.586C101.309 143.138 100.864 143.588 100.312 143.592C99.7589 143.595 99.308 143.151 99.3043 142.599C99.3006 142.048 99.7456 141.598 100.298 141.594Z" fill="#9FB3C8"/>
<path d="M92.2937 141.647C92.8463 141.644 93.2972 142.088 93.3009 142.639C93.3045 143.191 92.8595 143.641 92.3069 143.645C91.7543 143.648 91.3034 143.204 91.2997 142.653C91.2961 142.101 91.7411 141.651 92.2937 141.647Z" fill="#9FB3C8"/>
<path d="M84.2891 141.701C84.8417 141.697 85.2926 142.141 85.2963 142.693C85.3 143.244 84.855 143.694 84.3024 143.698C83.7498 143.702 83.2988 143.257 83.2952 142.706C83.2915 142.154 83.7365 141.704 84.2891 141.701Z" fill="#9FB3C8"/>
<path d="M76.2845 141.754C76.8371 141.75 77.2881 142.194 77.2917 142.746C77.2954 143.297 76.8504 143.747 76.2978 143.751C75.7452 143.755 75.2942 143.311 75.2906 142.759C75.2869 142.208 75.7319 141.757 76.2845 141.754Z" fill="#9FB3C8"/>
<path d="M68.2799 141.807C68.8325 141.803 69.2835 142.247 69.2871 142.799C69.2908 143.351 68.8458 143.801 68.2932 143.804C67.7406 143.808 67.2897 143.364 67.286 142.812C67.2823 142.261 67.7273 141.811 68.2799 141.807Z" fill="#9FB3C8"/>
<path d="M60.2754 141.86C60.828 141.856 61.2789 142.301 61.2826 142.852C61.2862 143.404 60.8412 143.854 60.2886 143.858C59.736 143.861 59.2851 143.417 59.2814 142.866C59.2778 142.314 59.7228 141.864 60.2754 141.86Z" fill="#9FB3C8"/>
<path d="M52.2708 141.913C52.8234 141.91 53.2743 142.354 53.278 142.905C53.2817 143.457 52.8367 143.907 52.2841 143.911C51.7315 143.915 51.2805 143.47 51.2769 142.919C51.2732 142.367 51.7182 141.917 52.2708 141.913Z" fill="#9FB3C8"/>
<path d="M44.2662 141.967C44.8188 141.963 45.2698 142.407 45.2734 142.959C45.2771 143.51 44.8321 143.96 44.2795 143.964C43.7269 143.968 43.2759 143.524 43.2723 142.972C43.2686 142.42 43.7136 141.97 44.2662 141.967Z" fill="#9FB3C8"/>
<path d="M116.254 133.498C116.807 133.494 117.258 133.938 117.261 134.49C117.265 135.042 116.82 135.492 116.268 135.495C115.715 135.499 115.264 135.055 115.26 134.503C115.257 133.952 115.702 133.502 116.254 133.498Z" fill="#9FB3C8"/>
<path d="M108.25 133.551C108.802 133.547 109.253 133.992 109.257 134.543C109.261 135.095 108.816 135.545 108.263 135.549C107.71 135.552 107.259 135.108 107.256 134.556C107.252 134.005 107.697 133.555 108.25 133.551Z" fill="#9FB3C8"/>
<path d="M100.245 133.604C100.798 133.601 101.249 134.045 101.252 134.596C101.256 135.148 100.811 135.598 100.258 135.602C99.7058 135.605 99.2548 135.161 99.2512 134.61C99.2475 134.058 99.6925 133.608 100.245 133.604Z" fill="#9FB3C8"/>
<path d="M92.2405 133.658C92.7931 133.654 93.2441 134.098 93.2477 134.65C93.2514 135.201 92.8064 135.651 92.2538 135.655C91.7012 135.659 91.2503 135.214 91.2466 134.663C91.2429 134.111 91.6879 133.661 92.2405 133.658Z" fill="#9FB3C8"/>
<path d="M84.236 133.711C84.7886 133.707 85.2395 134.151 85.2432 134.703C85.2468 135.254 84.8018 135.705 84.2492 135.708C83.6966 135.712 83.2457 135.268 83.242 134.716C83.2384 134.165 83.6834 133.714 84.236 133.711Z" fill="#9FB3C8"/>
<path d="M76.2314 133.764C76.784 133.76 77.2349 134.204 77.2386 134.756C77.2423 135.308 76.7973 135.758 76.2447 135.761C75.6921 135.765 75.2411 135.321 75.2375 134.769C75.2338 134.218 75.6788 133.768 76.2314 133.764Z" fill="#9FB3C8"/>
<path d="M68.2268 133.817C68.7794 133.814 69.2304 134.258 69.234 134.809C69.2377 135.361 68.7927 135.811 68.2401 135.815C67.6875 135.818 67.2365 135.374 67.2329 134.823C67.2292 134.271 67.6742 133.821 68.2268 133.817Z" fill="#9FB3C8"/>
<path d="M60.2222 133.87C60.7748 133.867 61.2258 134.311 61.2294 134.862C61.2331 135.414 60.7881 135.864 60.2355 135.868C59.6829 135.872 59.232 135.427 59.2283 134.876C59.2246 134.324 59.6696 133.874 60.2222 133.87Z" fill="#9FB3C8"/>
<path d="M52.2177 133.924C52.7703 133.92 53.2212 134.364 53.2249 134.916C53.2285 135.467 52.7835 135.917 52.2309 135.921C51.6783 135.925 51.2274 135.481 51.2237 134.929C51.2201 134.377 51.6651 133.927 52.2177 133.924Z" fill="#9FB3C8"/>
<path d="M44.2131 133.977C44.7657 133.973 45.2166 134.417 45.2203 134.969C45.224 135.521 44.779 135.971 44.2264 135.974C43.6738 135.978 43.2228 135.534 43.2192 134.982C43.2155 134.431 43.6605 133.981 44.2131 133.977Z" fill="#9FB3C8"/>
<path d="M116.414 157.467C116.966 157.463 117.417 157.908 117.421 158.459C117.425 159.011 116.98 159.461 116.427 159.465C115.874 159.468 115.423 159.024 115.42 158.472C115.416 157.921 115.861 157.471 116.414 157.467Z" fill="#9FB3C8"/>
<path d="M108.409 157.52C108.962 157.517 109.413 157.961 109.416 158.512C109.42 159.064 108.975 159.514 108.422 159.518C107.87 159.521 107.419 159.077 107.415 158.526C107.411 157.974 107.856 157.524 108.409 157.52Z" fill="#9FB3C8"/>
<path d="M100.404 157.574C100.957 157.57 101.408 158.014 101.412 158.566C101.415 159.117 100.97 159.567 100.418 159.571C99.8651 159.575 99.4142 159.131 99.4105 158.579C99.4069 158.027 99.8519 157.577 100.404 157.574Z" fill="#9FB3C8"/>
<path d="M92.3999 157.627C92.9525 157.623 93.4034 158.067 93.4071 158.619C93.4108 159.17 92.9658 159.621 92.4132 159.624C91.8606 159.628 91.4096 159.184 91.406 158.632C91.4023 158.081 91.8473 157.63 92.3999 157.627Z" fill="#9FB3C8"/>
<path d="M84.3953 157.68C84.9479 157.676 85.3989 158.12 85.4025 158.672C85.4062 159.224 84.9612 159.674 84.4086 159.677C83.856 159.681 83.4051 159.237 83.4014 158.685C83.3977 158.134 83.8427 157.684 84.3953 157.68Z" fill="#9FB3C8"/>
<path d="M76.3908 157.733C76.9434 157.73 77.3943 158.174 77.398 158.725C77.4016 159.277 76.9566 159.727 76.404 159.731C75.8514 159.734 75.4005 159.29 75.3968 158.739C75.3932 158.187 75.8382 157.737 76.3908 157.733Z" fill="#9FB3C8"/>
<path d="M68.3862 157.786C68.9388 157.783 69.3897 158.227 69.3934 158.779C69.3971 159.33 68.9521 159.78 68.3995 159.784C67.8469 159.788 67.3959 159.343 67.3922 158.792C67.3886 158.24 67.8336 157.79 68.3862 157.786Z" fill="#9FB3C8"/>
<path d="M60.3816 157.84C60.9342 157.836 61.3851 158.28 61.3888 158.832C61.3925 159.383 60.9475 159.833 60.3949 159.837C59.8423 159.841 59.3913 159.397 59.3877 158.845C59.384 158.293 59.829 157.843 60.3816 157.84Z" fill="#9FB3C8"/>
<path d="M52.377 157.893C52.9296 157.889 53.3806 158.333 53.3842 158.885C53.3879 159.437 52.9429 159.887 52.3903 159.89C51.8377 159.894 51.3868 159.45 51.3831 158.898C51.3794 158.347 51.8244 157.897 52.377 157.893Z" fill="#9FB3C8"/>
<path d="M44.3725 157.946C44.9251 157.942 45.376 158.387 45.3797 158.938C45.3833 159.49 44.9383 159.94 44.3857 159.944C43.8331 159.947 43.3822 159.503 43.3785 158.951C43.3749 158.4 43.8199 157.95 44.3725 157.946Z" fill="#9FB3C8"/>
<path d="M116.36 149.477C116.913 149.474 117.364 149.918 117.368 150.469C117.371 151.021 116.926 151.471 116.374 151.475C115.821 151.478 115.37 151.034 115.367 150.483C115.363 149.931 115.808 149.481 116.36 149.477Z" fill="#9FB3C8"/>
<path d="M108.356 149.531C108.909 149.527 109.359 149.971 109.363 150.523C109.367 151.074 108.922 151.524 108.369 151.528C107.817 151.532 107.366 151.088 107.362 150.536C107.358 149.984 107.803 149.534 108.356 149.531Z" fill="#9FB3C8"/>
<path d="M100.351 149.584C100.904 149.58 101.355 150.024 101.359 150.576C101.362 151.127 100.917 151.578 100.365 151.581C99.812 151.585 99.3611 151.141 99.3574 150.589C99.3538 150.038 99.7987 149.587 100.351 149.584Z" fill="#9FB3C8"/>
<path d="M92.3468 149.637C92.8994 149.633 93.3503 150.078 93.354 150.629C93.3577 151.181 92.9127 151.631 92.3601 151.634C91.8075 151.638 91.3565 151.194 91.3528 150.642C91.3492 150.091 91.7942 149.641 92.3468 149.637Z" fill="#9FB3C8"/>
<path d="M84.3422 149.69C84.8948 149.687 85.3457 150.131 85.3494 150.682C85.3531 151.234 84.9081 151.684 84.3555 151.688C83.8029 151.691 83.3519 151.247 83.3483 150.696C83.3446 150.144 83.7896 149.694 84.3422 149.69Z" fill="#9FB3C8"/>
<path d="M76.3376 149.743C76.8902 149.74 77.3412 150.184 77.3448 150.736C77.3485 151.287 76.9035 151.737 76.3509 151.741C75.7983 151.745 75.3474 151.3 75.3437 150.749C75.34 150.197 75.785 149.747 76.3376 149.743Z" fill="#9FB3C8"/>
<path d="M68.3331 149.797C68.8857 149.793 69.3366 150.237 69.3403 150.789C69.3439 151.34 68.8989 151.79 68.3463 151.794C67.7937 151.798 67.3428 151.354 67.3391 150.802C67.3355 150.25 67.7805 149.8 68.3331 149.797Z" fill="#9FB3C8"/>
<path d="M60.3285 149.85C60.8811 149.846 61.332 150.29 61.3357 150.842C61.3394 151.394 60.8944 151.844 60.3418 151.847C59.7892 151.851 59.3382 151.407 59.3346 150.855C59.3309 150.304 59.7759 149.854 60.3285 149.85Z" fill="#9FB3C8"/>
<path d="M52.3239 149.903C52.8765 149.899 53.3275 150.344 53.3311 150.895C53.3348 151.447 52.8898 151.897 52.3372 151.901C51.7846 151.904 51.3336 151.46 51.33 150.909C51.3263 150.357 51.7713 149.907 52.3239 149.903Z" fill="#9FB3C8"/>
<path d="M44.3193 149.956C44.8719 149.953 45.3229 150.397 45.3265 150.948C45.3302 151.5 44.8852 151.95 44.3326 151.954C43.78 151.957 43.3291 151.513 43.3254 150.962C43.3217 150.41 43.7667 149.96 44.3193 149.956Z" fill="#9FB3C8"/>
<path d="M116.52 173.447C117.072 173.443 117.523 173.887 117.527 174.439C117.531 174.99 117.086 175.44 116.533 175.444C115.981 175.448 115.53 175.004 115.526 174.452C115.522 173.9 115.967 173.45 116.52 173.447Z" fill="#9FB3C8"/>
<path d="M108.515 173.5C109.068 173.496 109.519 173.94 109.523 174.492C109.526 175.043 109.081 175.494 108.529 175.497C107.976 175.501 107.525 175.057 107.521 174.505C107.518 173.954 107.963 173.504 108.515 173.5Z" fill="#9FB3C8"/>
<path d="M100.511 173.553C101.063 173.549 101.514 173.994 101.518 174.545C101.522 175.097 101.077 175.547 100.524 175.551C99.9714 175.554 99.5205 175.11 99.5168 174.558C99.5131 174.007 99.9581 173.557 100.511 173.553Z" fill="#9FB3C8"/>
<path d="M92.5061 173.606C93.0587 173.603 93.5097 174.047 93.5134 174.598C93.517 175.15 93.072 175.6 92.5194 175.604C91.9668 175.607 91.5159 175.163 91.5122 174.612C91.5085 174.06 91.9535 173.61 92.5061 173.606Z" fill="#9FB3C8"/>
<path d="M84.5016 173.66C85.0542 173.656 85.5051 174.1 85.5088 174.652C85.5124 175.203 85.0675 175.653 84.5148 175.657C83.9622 175.661 83.5113 175.216 83.5076 174.665C83.504 174.113 83.949 173.663 84.5016 173.66Z" fill="#9FB3C8"/>
<path d="M76.497 173.713C77.0496 173.709 77.5005 174.153 77.5042 174.705C77.5079 175.256 77.0629 175.706 76.5103 175.71C75.9577 175.714 75.5067 175.27 75.5031 174.718C75.4994 174.167 75.9444 173.716 76.497 173.713Z" fill="#9FB3C8"/>
<path d="M68.4924 173.766C69.045 173.762 69.496 174.206 69.4996 174.758C69.5033 175.31 69.0583 175.76 68.5057 175.763C67.9531 175.767 67.5022 175.323 67.4985 174.771C67.4948 174.22 67.9398 173.77 68.4924 173.766Z" fill="#9FB3C8"/>
<path d="M60.4879 173.819C61.0405 173.816 61.4914 174.26 61.4951 174.811C61.4987 175.363 61.0537 175.813 60.5011 175.817C59.9485 175.82 59.4976 175.376 59.4939 174.825C59.4903 174.273 59.9352 173.823 60.4879 173.819Z" fill="#9FB3C8"/>
<path d="M52.4833 173.872C53.0359 173.869 53.4868 174.313 53.4905 174.864C53.4942 175.416 53.0492 175.866 52.4966 175.87C51.944 175.874 51.493 175.429 51.4893 174.878C51.4857 174.326 51.9307 173.876 52.4833 173.872Z" fill="#9FB3C8"/>
<path d="M44.4787 173.926C45.0313 173.922 45.4822 174.366 45.4859 174.918C45.4896 175.469 45.0446 175.919 44.492 175.923C43.9394 175.927 43.4884 175.483 43.4848 174.931C43.4811 174.379 43.9261 173.929 44.4787 173.926Z" fill="#9FB3C8"/>
<path d="M116.467 165.457C117.019 165.453 117.47 165.897 117.474 166.449C117.478 167.001 117.033 167.451 116.48 167.454C115.927 167.458 115.476 167.014 115.473 166.462C115.469 165.911 115.914 165.461 116.467 165.457Z" fill="#9FB3C8"/>
<path d="M108.462 165.51C109.015 165.506 109.466 165.951 109.469 166.502C109.473 167.054 109.028 167.504 108.475 167.508C107.923 167.511 107.472 167.067 107.468 166.515C107.465 165.964 107.91 165.514 108.462 165.51Z" fill="#9FB3C8"/>
<path d="M100.458 165.563C101.01 165.56 101.461 166.004 101.465 166.555C101.468 167.107 101.023 167.557 100.471 167.561C99.9183 167.564 99.4673 167.12 99.4637 166.569C99.46 166.017 99.905 165.567 100.458 165.563Z" fill="#9FB3C8"/>
<path d="M92.453 165.617C93.0056 165.613 93.4566 166.057 93.4602 166.609C93.4639 167.16 93.0189 167.61 92.4663 167.614C91.9137 167.618 91.4628 167.173 91.4591 166.622C91.4554 166.07 91.9004 165.62 92.453 165.617Z" fill="#9FB3C8"/>
<path d="M84.4484 165.67C85.001 165.666 85.452 166.11 85.4557 166.662C85.4593 167.213 85.0143 167.664 84.4617 167.667C83.9091 167.671 83.4582 167.227 83.4545 166.675C83.4509 166.124 83.8958 165.673 84.4484 165.67Z" fill="#9FB3C8"/>
<path d="M76.4439 165.723C76.9965 165.719 77.4474 166.163 77.4511 166.715C77.4548 167.267 77.0098 167.717 76.4572 167.72C75.9046 167.724 75.4536 167.28 75.4499 166.728C75.4463 166.177 75.8913 165.727 76.4439 165.723Z" fill="#9FB3C8"/>
<path d="M68.4393 165.776C68.9919 165.773 69.4428 166.217 69.4465 166.768C69.4502 167.32 69.0052 167.77 68.4526 167.774C67.9 167.777 67.449 167.333 67.4454 166.782C67.4417 166.23 67.8867 165.78 68.4393 165.776Z" fill="#9FB3C8"/>
<path d="M60.4347 165.829C60.9873 165.826 61.4383 166.27 61.4419 166.821C61.4456 167.373 61.0006 167.823 60.448 167.827C59.8954 167.831 59.4445 167.386 59.4408 166.835C59.4371 166.283 59.8821 165.833 60.4347 165.829Z" fill="#9FB3C8"/>
<path d="M52.4302 165.883C52.9828 165.879 53.4337 166.323 53.4374 166.875C53.441 167.426 52.996 167.876 52.4434 167.88C51.8908 167.884 51.4399 167.44 51.4362 166.888C51.4326 166.336 51.8776 165.886 52.4302 165.883Z" fill="#9FB3C8"/>
<path d="M44.4256 165.936C44.9782 165.932 45.4291 166.376 45.4328 166.928C45.4365 167.48 44.9915 167.93 44.4389 167.933C43.8863 167.937 43.4353 167.493 43.4316 166.941C43.428 166.39 43.873 165.94 44.4256 165.936Z" fill="#9FB3C8"/>
<path d="M116.626 189.426C117.179 189.422 117.63 189.867 117.633 190.418C117.637 190.97 117.192 191.42 116.639 191.424C116.087 191.427 115.636 190.983 115.632 190.432C115.629 189.88 116.074 189.43 116.626 189.426Z" fill="#9FB3C8"/>
<path d="M108.622 189.479C109.174 189.476 109.625 189.92 109.629 190.471C109.632 191.023 109.187 191.473 108.635 191.477C108.082 191.48 107.631 191.036 107.628 190.485C107.624 189.933 108.069 189.483 108.622 189.479Z" fill="#9FB3C8"/>
<path d="M100.617 189.533C101.17 189.529 101.621 189.973 101.624 190.525C101.628 191.076 101.183 191.526 100.63 191.53C100.078 191.534 99.6267 191.09 99.623 190.538C99.6194 189.986 100.064 189.536 100.617 189.533Z" fill="#9FB3C8"/>
<path d="M92.6124 189.586C93.165 189.582 93.6159 190.026 93.6196 190.578C93.6233 191.129 93.1783 191.58 92.6257 191.583C92.0731 191.587 91.6221 191.143 91.6185 190.591C91.6148 190.04 92.0598 189.589 92.6124 189.586Z" fill="#9FB3C8"/>
<path d="M84.6078 189.639C85.1604 189.635 85.6114 190.08 85.615 190.631C85.6187 191.183 85.1737 191.633 84.6211 191.636C84.0685 191.64 83.6176 191.196 83.6139 190.644C83.6102 190.093 84.0552 189.643 84.6078 189.639Z" fill="#9FB3C8"/>
<path d="M76.6032 189.692C77.1558 189.689 77.6068 190.133 77.6105 190.684C77.6141 191.236 77.1691 191.686 76.6165 191.69C76.0639 191.693 75.613 191.249 75.6093 190.698C75.6056 190.146 76.0506 189.696 76.6032 189.692Z" fill="#9FB3C8"/>
<path d="M68.5987 189.745C69.1513 189.742 69.6022 190.186 69.6059 190.738C69.6095 191.289 69.1645 191.739 68.6119 191.743C68.0593 191.747 67.6084 191.302 67.6047 190.751C67.6011 190.199 68.0461 189.749 68.5987 189.745Z" fill="#9FB3C8"/>
<path d="M60.5941 189.799C61.1467 189.795 61.5976 190.239 61.6013 190.791C61.605 191.342 61.16 191.792 60.6074 191.796C60.0548 191.8 59.6038 191.356 59.6002 190.804C59.5965 190.252 60.0415 189.802 60.5941 189.799Z" fill="#9FB3C8"/>
<path d="M52.5895 189.852C53.1421 189.848 53.5931 190.292 53.5967 190.844C53.6004 191.396 53.1554 191.846 52.6028 191.849C52.0502 191.853 51.5993 191.409 51.5956 190.857C51.5919 190.306 52.0369 189.856 52.5895 189.852Z" fill="#9FB3C8"/>
<path d="M44.5849 189.905C45.1375 189.901 45.5885 190.346 45.5922 190.897C45.5958 191.449 45.1508 191.899 44.5982 191.903C44.0456 191.906 43.5947 191.462 43.591 190.91C43.5873 190.359 44.0323 189.909 44.5849 189.905Z" fill="#9FB3C8"/>
<path d="M116.573 181.436C117.126 181.433 117.577 181.877 117.58 182.428C117.584 182.98 117.139 183.43 116.586 183.434C116.034 183.437 115.583 182.993 115.579 182.442C115.575 181.89 116.02 181.44 116.573 181.436Z" fill="#9FB3C8"/>
<path d="M108.568 181.49C109.121 181.486 109.572 181.93 109.576 182.482C109.579 183.033 109.134 183.483 108.582 183.487C108.029 183.491 107.578 183.047 107.574 182.495C107.571 181.943 108.016 181.493 108.568 181.49Z" fill="#9FB3C8"/>
<path d="M100.564 181.543C101.116 181.539 101.567 181.983 101.571 182.535C101.575 183.086 101.13 183.537 100.577 183.54C100.025 183.544 99.5736 183.1 99.5699 182.548C99.5662 181.997 100.011 181.546 100.564 181.543Z" fill="#9FB3C8"/>
<path d="M92.5593 181.596C93.1119 181.592 93.5628 182.037 93.5665 182.588C93.5701 183.14 93.1251 183.59 92.5725 183.593C92.0199 183.597 91.569 183.153 91.5653 182.601C91.5617 182.05 92.0067 181.6 92.5593 181.596Z" fill="#9FB3C8"/>
<path d="M84.5547 181.649C85.1073 181.646 85.5582 182.09 85.5619 182.641C85.5656 183.193 85.1206 183.643 84.568 183.647C84.0154 183.65 83.5644 183.206 83.5608 182.655C83.5571 182.103 84.0021 181.653 84.5547 181.649Z" fill="#9FB3C8"/>
<path d="M76.5501 181.702C77.1027 181.699 77.5537 182.143 77.5573 182.695C77.561 183.246 77.116 183.696 76.5634 183.7C76.0108 183.704 75.5599 183.259 75.5562 182.708C75.5525 182.156 75.9975 181.706 76.5501 181.702Z" fill="#9FB3C8"/>
<path d="M68.5455 181.756C69.0981 181.752 69.5491 182.196 69.5528 182.748C69.5564 183.299 69.1114 183.749 68.5588 183.753C68.0062 183.757 67.5553 183.313 67.5516 182.761C67.5479 182.21 67.9929 181.759 68.5455 181.756Z" fill="#9FB3C8"/>
<path d="M60.541 181.809C61.0936 181.805 61.5445 182.249 61.5482 182.801C61.5519 183.353 61.1069 183.803 60.5543 183.806C60.0017 183.81 59.5507 183.366 59.547 182.814C59.5434 182.263 59.9884 181.813 60.541 181.809Z" fill="#9FB3C8"/>
<path d="M52.5364 181.862C53.089 181.858 53.5399 182.303 53.5436 182.854C53.5473 183.406 53.1023 183.856 52.5497 183.86C51.9971 183.863 51.5461 183.419 51.5425 182.868C51.5388 182.316 51.9838 181.866 52.5364 181.862Z" fill="#9FB3C8"/>
<path d="M44.5318 181.915C45.0844 181.912 45.5354 182.356 45.539 182.907C45.5427 183.459 45.0977 183.909 44.5451 183.913C43.9925 183.916 43.5416 183.472 43.5379 182.921C43.5342 182.369 43.9792 181.919 44.5318 181.915Z" fill="#9FB3C8"/>
</g>
</mask>
<g mask="url(#mask0)">
<path d="M164 139.5C164 165.181 143.181 186 117.5 186C91.8188 186 71 165.181 71 139.5C71 113.819 91.8188 93 117.5 93C143.181 93 164 113.819 164 139.5Z" fill="#C4C4C4"/>
</g>
<path d="M49.7801 124.018C49.7635 122.577 50.1118 121.155 50.7926 119.885C50.7176 118.635 48.4801 111.152 47.6401 98.0125C47.5951 97.3075 47.5634 96.5958 47.5451 95.8775L40.1826 96.43L42.5726 128.405L50.6126 127.805C50.0537 126.621 49.7691 125.327 49.7801 124.018Z" fill="#D9E2EC"/>
<path d="M76 1.5C70.8375 1.5 63.97 4 59 4C54.5125 4 46.315 0.75 42 0.75C39.25 0.75 26.25 2.03 26.25 12.5C26.25 17.225 31.25 21.75 32.25 23C33.25 24.25 35.0825 31.25 39.75 31.25C46.27 31.25 50.7725 26.5 56.75 26.5C60.8675 26.5 61.94 27.5 64 27.5C65.5 27.5 67.75 26.795 67.75 26.75C67.75 25.985 67.5975 19.5 68.5 18.4475C69.75 16.9475 85.6625 19.18 85.6625 13.8925C86.775 14.8925 87.835 19.1425 87.835 20.01C88.555 19.25 91.25 16 91.25 12.5C91.25 9.335 89 1.5 76 1.5Z" fill="#243B53"/>
<path d="M49.7803 124.018C49.7637 122.577 50.112 121.155 50.7928 119.885C50.7178 118.635 48.5228 111.292 47.6653 98.385L42.6953 98.75L45.0853 130.725L52.6378 130.16C50.9553 129.128 49.7803 126.765 49.7803 124.018Z" fill="#F4F5FA"/>
<path d="M17.9974 75.3575C27.4276 75.3575 35.0724 67.7128 35.0724 58.2825C35.0724 48.8522 27.4276 41.2075 17.9974 41.2075C8.5671 41.2075 0.922363 48.8522 0.922363 58.2825C0.922363 67.7128 8.5671 75.3575 17.9974 75.3575Z" fill="#D9E2EC"/>
<path d="M42.2848 45.87L21.7373 50.0125L26.7773 59.975L42.2848 45.87Z" fill="#D9E2EC"/>
<path d="M109.822 19.865L130.025 25.4475V14.2825L109.822 19.865Z" fill="#D9E2EC"/>
<path d="M16.7216 60.9091H18.4261C18.4261 59.0909 18.8736 58.2955 20.1591 57.5142C21.4091 56.7543 22.1477 55.6605 22.1477 54.0909C22.1477 51.875 20.5284 50.2557 18.0284 50.2557C15.7273 50.2557 13.902 51.6761 13.7955 54.0909H15.5852C15.6918 52.4148 16.8636 51.733 18.0284 51.733C19.3636 51.733 20.4432 52.6136 20.4432 54.0057C20.4432 55.1349 19.7969 55.9446 18.9659 56.4489C17.5597 57.3011 16.7216 58.1392 16.7216 60.9091ZM17.6307 65.2273C18.3977 65.2273 18.9943 64.6307 18.9943 63.8636C18.9943 63.0966 18.3977 62.5 17.6307 62.5C16.8636 62.5 16.267 63.0966 16.267 63.8636C16.267 64.6307 16.8636 65.2273 17.6307 65.2273Z" fill="#829AB1"/>
<path d="M156.505 5.3575H117.518V32.5075H156.505V5.3575Z" fill="#D9E2EC"/>
<path d="M128.2 20.805C129.236 20.805 130.075 19.9655 130.075 18.93C130.075 17.8945 129.236 17.055 128.2 17.055C127.165 17.055 126.325 17.8945 126.325 18.93C126.325 19.9655 127.165 20.805 128.2 20.805Z" fill="white"/>
<path d="M137.01 20.805C138.045 20.805 138.885 19.9655 138.885 18.93C138.885 17.8945 138.045 17.055 137.01 17.055C135.974 17.055 135.135 17.8945 135.135 18.93C135.135 19.9655 135.974 20.805 137.01 20.805Z" fill="white"/>
<path d="M145.822 20.805C146.858 20.805 147.697 19.9655 147.697 18.93C147.697 17.8945 146.858 17.055 145.822 17.055C144.787 17.055 143.947 17.8945 143.947 18.93C143.947 19.9655 144.787 20.805 145.822 20.805Z" fill="white"/>
<path d="M106.372 62C108.857 63.915 113.062 67.635 115.122 70.3225C117.18 68.7975 140.58 49.3625 141.037 48.295C141.95 47.7625 143.932 50.735 141.037 53.1725C143.017 53.0975 154.68 52.7925 154.68 53.1725C154.68 53.5525 157.195 54.6225 140.045 57.365C137.76 60.115 117.18 84.345 113.827 84.345C111.537 84.345 104.452 78.1675 100.002 73.495" stroke="#243B53" stroke-width="0.75" stroke-linecap="round" stroke-linejoin="round"/>
<path d="M99.1723 69.02C102.575 66.88 106.195 63.1425 107.28 60.2175C107.922 58.4825 97.3323 50.4675 90.7798 49.325" stroke="#243B53" stroke-width="0.75" stroke-linecap="round" stroke-linejoin="round"/>
<path d="M57.3301 105.282C63.1051 109.752 96.2876 119.282 99.1001 116.38C101.913 113.477 106.948 51.0375 82.3001 43.515" fill="white"/>
<path d="M57.3301 105.282C63.1051 109.752 96.2876 119.282 99.1001 116.38C101.913 113.477 106.948 51.0375 82.3001 43.515" stroke="#243B53" stroke-width="0.75" stroke-linecap="round" stroke-linejoin="round"/>
<path d="M73.2924 43.1325C68.3149 44.0825 64.5624 46.8825 61.7549 50.79" stroke="#243B53" stroke-width="0.75" stroke-linecap="round" stroke-linejoin="round"/>
<path d="M77.7949 49.39C80.0449 49.39 82.2949 48.965 82.2949 48.14V37.915" stroke="#243B53" stroke-width="0.75" stroke-linecap="round" stroke-linejoin="round"/>
<path d="M73.2925 38.0625V43.1325" stroke="#243B53" stroke-width="0.75" stroke-linecap="round" stroke-linejoin="round"/>
<path d="M77.7076 39.7325C83.3699 39.7325 87.9601 32.0374 87.9601 22.545C87.9601 13.0526 83.3699 5.35748 77.7076 5.35748C72.0453 5.35748 67.4551 13.0526 67.4551 22.545C67.4551 32.0374 72.0453 39.7325 77.7076 39.7325Z" stroke="#243B53" stroke-width="0.75" stroke-miterlimit="10"/>
<path d="M65.4251 54.5375C64.8701 52.715 64.0101 51.385 62.7601 50.985C55.9376 48.8 47.8551 64.3875 48.6226 67.0725C49.3476 69.61 54.8001 72.295 59.5101 73.195" stroke="#243B53" stroke-width="0.75" stroke-linecap="round" stroke-linejoin="round"/>
<path d="M65.3852 216.133V225.638L52.2002 232.585L59.8702 224.123V215.638" stroke="#243B53" stroke-width="0.75" stroke-linecap="round" stroke-linejoin="round"/>
<path d="M99.8574 215.348V225.638H118.007L105.907 219.72V214.838" stroke="#243B53" stroke-width="0.75" stroke-linecap="round" stroke-linejoin="round"/>
<path d="M58.3012 106C58.1737 106 58.0937 109.965 58.0512 116.387C58.2437 118.452 58.3787 119.87 58.3787 120.035C58.3761 120.053 58.3699 120.069 58.3604 120.085C58.351 120.1 58.3384 120.113 58.3237 120.122C58.9489 121.356 59.2679 122.722 59.2537 124.105C59.2774 125.701 58.8436 127.27 58.0037 128.627C57.9612 160.877 58.3012 216.22 58.3012 216.22H65.9862L87.4187 115.635C79.1237 114.047 65.5087 109.035 58.3012 106Z" fill="#5670ED"/>
<path d="M99.0996 116.38C99.2671 119.678 107.062 215.348 107.062 215.348H99.0996L78.4346 143.5C78.4346 143.5 83.8171 114.75 84.1846 114.818C85.9396 115.28 95.6796 117 99.0996 116.38Z" fill="#5670ED"/>
<path d="M56.9122 96.9475C56.4747 100.33 58.4572 119.317 58.4572 119.947C58.4546 119.965 58.4484 119.982 58.4389 119.997C58.4295 120.012 58.4169 120.025 58.4022 120.035C59.0274 121.269 59.3464 122.635 59.3322 124.018C59.3377 125.102 59.1454 126.179 58.7647 127.195L66.7147 126.6L64.3247 94.625L57.2647 95.1525C57.0847 95.935 56.9622 96.5525 56.9122 96.9475Z" fill="#D9E2EC"/>
<path d="M58.4574 119.948C58.4548 119.965 58.4486 119.982 58.4392 119.997C58.4297 120.012 58.4172 120.025 58.4024 120.035C59.0277 121.269 59.3467 122.635 59.3324 124.018C59.3324 126.518 58.3624 128.69 56.9249 129.848L69.2274 128.928L66.8374 96.9525L56.8599 97.7025C56.6999 102.5 58.4574 119.355 58.4574 119.948Z" fill="#F4F5FA"/>
<path d="M63.0427 99.635C63.0724 100.042 62.9396 100.444 62.6735 100.753C62.4073 101.062 62.0295 101.254 61.6227 101.285C61.2162 101.314 60.8148 101.181 60.5061 100.915C60.1974 100.649 60.0066 100.271 59.9752 99.865L59.5952 94.785C59.5662 94.3783 59.6993 93.9765 59.9653 93.6674C60.2313 93.3584 60.6087 93.167 61.0152 93.135V93.135C61.4216 93.1067 61.8226 93.2401 62.1312 93.506C62.4397 93.7719 62.6308 94.1489 62.6627 94.555L62.8652 97.2475" stroke="#243B53" stroke-width="0.75" stroke-linecap="round" stroke-linejoin="round"/>
<path d="M50.8899 69.71C49.5699 74.6375 46.9399 87.08 47.6399 98.0125C48.4799 111.153 50.7174 118.63 50.7924 119.885C50.1116 121.155 49.7632 122.577 49.7799 124.018C49.7799 127.725 51.9174 130.733 54.5549 130.733C57.1924 130.733 59.3324 127.733 59.3324 124.018C59.3467 122.635 59.0277 121.269 58.4024 120.035C58.4172 120.025 58.4297 120.012 58.4392 119.997C58.4486 119.982 58.4549 119.965 58.4574 119.948C58.4574 119.318 56.4749 100.33 56.9124 96.9475C57.2824 94.0675 61.4949 79.47 62.6324 73.725" fill="white"/>
<path d="M50.8899 69.71C49.5699 74.6375 46.9399 87.08 47.6399 98.0125C48.4799 111.153 50.7174 118.63 50.7924 119.885C50.1116 121.155 49.7632 122.577 49.7799 124.018C49.7799 127.725 51.9174 130.733 54.5549 130.733C57.1924 130.733 59.3324 127.733 59.3324 124.018C59.3467 122.635 59.0277 121.269 58.4024 120.035C58.4172 120.025 58.4297 120.012 58.4392 119.997C58.4486 119.982 58.4549 119.965 58.4574 119.948C58.4574 119.318 56.4749 100.33 56.9124 96.9475C57.2824 94.0675 61.4949 79.47 62.6324 73.725" stroke="#243B53" stroke-width="0.75" stroke-linecap="round" stroke-linejoin="round"/>
</svg>
