<svg width="226" height="233" viewBox="0 0 226 233" fill="none" xmlns="http://www.w3.org/2000/svg">
<g opacity="0.5">
<path d="M224.141 131.996C224.693 131.993 225.144 132.437 225.148 132.988C225.151 133.54 224.707 133.99 224.154 133.994C223.601 133.997 223.15 133.553 223.147 133.002C223.143 132.45 223.588 132 224.141 131.996Z" fill="#9FB3C8"/>
<path d="M216.136 132.05C216.689 132.046 217.14 132.49 217.143 133.042C217.147 133.593 216.702 134.043 216.149 134.047C215.597 134.051 215.146 133.607 215.142 133.055C215.138 132.503 215.583 132.053 216.136 132.05Z" fill="#9FB3C8"/>
<path d="M208.131 132.103C208.684 132.099 209.135 132.543 209.139 133.095C209.142 133.646 208.697 134.097 208.145 134.1C207.592 134.104 207.141 133.66 207.138 133.108C207.134 132.557 207.579 132.106 208.131 132.103Z" fill="#9FB3C8"/>
<path d="M200.127 132.156C200.679 132.152 201.13 132.597 201.134 133.148C201.138 133.7 200.693 134.15 200.14 134.153C199.588 134.157 199.137 133.713 199.133 133.161C199.129 132.61 199.574 132.16 200.127 132.156Z" fill="#9FB3C8"/>
<path d="M192.122 132.209C192.675 132.206 193.126 132.65 193.13 133.201C193.133 133.753 192.688 134.203 192.136 134.207C191.583 134.21 191.132 133.766 191.128 133.215C191.125 132.663 191.57 132.213 192.122 132.209Z" fill="#9FB3C8"/>
<path d="M184.118 132.262C184.67 132.259 185.121 132.703 185.125 133.255C185.129 133.806 184.684 134.256 184.131 134.26C183.578 134.264 183.127 133.819 183.124 133.268C183.12 132.716 183.565 132.266 184.118 132.262Z" fill="#9FB3C8"/>
<path d="M176.113 132.316C176.666 132.312 177.117 132.756 177.12 133.308C177.124 133.859 176.679 134.309 176.126 134.313C175.574 134.317 175.123 133.873 175.119 133.321C175.116 132.77 175.561 132.319 176.113 132.316Z" fill="#9FB3C8"/>
<path d="M168.109 132.369C168.661 132.365 169.112 132.809 169.116 133.361C169.119 133.913 168.674 134.363 168.122 134.366C167.569 134.37 167.118 133.926 167.115 133.374C167.111 132.823 167.556 132.373 168.109 132.369Z" fill="#9FB3C8"/>
<path d="M160.104 132.422C160.657 132.418 161.108 132.863 161.111 133.414C161.115 133.966 160.67 134.416 160.117 134.42C159.565 134.423 159.114 133.979 159.11 133.428C159.106 132.876 159.551 132.426 160.104 132.422Z" fill="#9FB3C8"/>
<path d="M152.099 132.475C152.652 132.472 153.103 132.916 153.107 133.467C153.11 134.019 152.665 134.469 152.113 134.473C151.56 134.476 151.109 134.032 151.106 133.481C151.102 132.929 151.547 132.479 152.099 132.475Z" fill="#9FB3C8"/>
<path d="M224.088 124.007C224.64 124.003 225.091 124.447 225.095 124.999C225.098 125.55 224.653 126 224.101 126.004C223.548 126.008 223.097 125.564 223.094 125.012C223.09 124.46 223.535 124.01 224.088 124.007Z" fill="#9FB3C8"/>
<path d="M216.083 124.06C216.636 124.056 217.086 124.5 217.09 125.052C217.094 125.603 216.649 126.054 216.096 126.057C215.544 126.061 215.093 125.617 215.089 125.065C215.085 124.514 215.53 124.064 216.083 124.06Z" fill="#9FB3C8"/>
<path d="M208.078 124.113C208.631 124.109 209.082 124.554 209.086 125.105C209.089 125.657 208.644 126.107 208.092 126.111C207.539 126.114 207.088 125.67 207.084 125.118C207.081 124.567 207.526 124.117 208.078 124.113Z" fill="#9FB3C8"/>
<path d="M200.074 124.166C200.626 124.163 201.077 124.607 201.081 125.158C201.085 125.71 200.64 126.16 200.087 126.164C199.534 126.167 199.084 125.723 199.08 125.172C199.076 124.62 199.521 124.17 200.074 124.166Z" fill="#9FB3C8"/>
<path d="M192.069 124.22C192.622 124.216 193.073 124.66 193.076 125.212C193.08 125.763 192.635 126.213 192.082 126.217C191.53 126.221 191.079 125.776 191.075 125.225C191.072 124.673 191.517 124.223 192.069 124.22Z" fill="#9FB3C8"/>
<path d="M184.065 124.273C184.617 124.269 185.068 124.713 185.072 125.265C185.076 125.816 184.631 126.266 184.078 126.27C183.525 126.274 183.074 125.83 183.071 125.278C183.067 124.727 183.512 124.276 184.065 124.273Z" fill="#9FB3C8"/>
<path d="M176.06 124.326C176.613 124.322 177.064 124.766 177.067 125.318C177.071 125.87 176.626 126.32 176.073 126.323C175.521 126.327 175.07 125.883 175.066 125.331C175.062 124.78 175.507 124.33 176.06 124.326Z" fill="#9FB3C8"/>
<path d="M168.055 124.379C168.608 124.376 169.059 124.82 169.063 125.371C169.066 125.923 168.621 126.373 168.069 126.377C167.516 126.38 167.065 125.936 167.062 125.385C167.058 124.833 167.503 124.383 168.055 124.379Z" fill="#9FB3C8"/>
<path d="M160.051 124.432C160.604 124.429 161.054 124.873 161.058 125.424C161.062 125.976 160.617 126.426 160.064 126.43C159.512 126.434 159.061 125.989 159.057 125.438C159.053 124.886 159.498 124.436 160.051 124.432Z" fill="#9FB3C8"/>
<path d="M152.046 124.486C152.599 124.482 153.05 124.926 153.054 125.478C153.057 126.029 152.612 126.479 152.06 126.483C151.507 126.487 151.056 126.043 151.052 125.491C151.049 124.939 151.494 124.489 152.046 124.486Z" fill="#9FB3C8"/>
<path d="M224.247 147.976C224.799 147.972 225.25 148.416 225.254 148.968C225.258 149.52 224.813 149.97 224.26 149.973C223.708 149.977 223.257 149.533 223.253 148.981C223.249 148.43 223.694 147.98 224.247 147.976Z" fill="#9FB3C8"/>
<path d="M216.242 148.029C216.795 148.025 217.246 148.47 217.25 149.021C217.253 149.573 216.808 150.023 216.256 150.027C215.703 150.03 215.252 149.586 215.248 149.034C215.245 148.483 215.69 148.033 216.242 148.029Z" fill="#9FB3C8"/>
<path d="M208.238 148.082C208.79 148.079 209.241 148.523 209.245 149.074C209.249 149.626 208.804 150.076 208.251 150.08C207.698 150.083 207.247 149.639 207.244 149.088C207.24 148.536 207.685 148.086 208.238 148.082Z" fill="#9FB3C8"/>
<path d="M200.233 148.136C200.786 148.132 201.237 148.576 201.24 149.128C201.244 149.679 200.799 150.129 200.246 150.133C199.694 150.137 199.243 149.692 199.239 149.141C199.236 148.589 199.681 148.139 200.233 148.136Z" fill="#9FB3C8"/>
<path d="M192.229 148.189C192.781 148.185 193.232 148.629 193.236 149.181C193.239 149.732 192.794 150.183 192.242 150.186C191.689 150.19 191.238 149.746 191.235 149.194C191.231 148.643 191.676 148.192 192.229 148.189Z" fill="#9FB3C8"/>
<path d="M184.224 148.242C184.777 148.238 185.228 148.682 185.231 149.234C185.235 149.786 184.79 150.236 184.237 150.239C183.685 150.243 183.234 149.799 183.23 149.247C183.226 148.696 183.671 148.246 184.224 148.242Z" fill="#9FB3C8"/>
<path d="M176.219 148.295C176.772 148.292 177.223 148.736 177.227 149.287C177.23 149.839 176.785 150.289 176.233 150.293C175.68 150.296 175.229 149.852 175.225 149.301C175.222 148.749 175.667 148.299 176.219 148.295Z" fill="#9FB3C8"/>
<path d="M168.215 148.348C168.767 148.345 169.218 148.789 169.222 149.34C169.226 149.892 168.781 150.342 168.228 150.346C167.676 150.35 167.225 149.905 167.221 149.354C167.217 148.802 167.662 148.352 168.215 148.348Z" fill="#9FB3C8"/>
<path d="M160.21 148.402C160.763 148.398 161.214 148.842 161.217 149.394C161.221 149.945 160.776 150.395 160.224 150.399C159.671 150.403 159.22 149.959 159.216 149.407C159.213 148.855 159.658 148.405 160.21 148.402Z" fill="#9FB3C8"/>
<path d="M152.206 148.455C152.758 148.451 153.209 148.895 153.213 149.447C153.217 149.999 152.772 150.449 152.219 150.452C151.666 150.456 151.215 150.012 151.212 149.46C151.208 148.909 151.653 148.459 152.206 148.455Z" fill="#9FB3C8"/>
<path d="M224.194 139.986C224.746 139.982 225.197 140.427 225.201 140.978C225.205 141.53 224.76 141.98 224.207 141.984C223.654 141.987 223.203 141.543 223.2 140.992C223.196 140.44 223.641 139.99 224.194 139.986Z" fill="#9FB3C8"/>
<path d="M216.189 140.039C216.742 140.036 217.193 140.48 217.196 141.031C217.2 141.583 216.755 142.033 216.202 142.037C215.65 142.04 215.199 141.596 215.195 141.045C215.192 140.493 215.637 140.043 216.189 140.039Z" fill="#9FB3C8"/>
<path d="M208.185 140.093C208.737 140.089 209.188 140.533 209.192 141.085C209.195 141.636 208.75 142.086 208.198 142.09C207.645 142.094 207.194 141.65 207.191 141.098C207.187 140.546 207.632 140.096 208.185 140.093Z" fill="#9FB3C8"/>
<path d="M200.18 140.146C200.733 140.142 201.184 140.586 201.187 141.138C201.191 141.689 200.746 142.14 200.193 142.143C199.641 142.147 199.19 141.703 199.186 141.151C199.182 140.6 199.627 140.149 200.18 140.146Z" fill="#9FB3C8"/>
<path d="M192.175 140.199C192.728 140.195 193.179 140.64 193.183 141.191C193.186 141.743 192.741 142.193 192.189 142.196C191.636 142.2 191.185 141.756 191.182 141.204C191.178 140.653 191.623 140.203 192.175 140.199Z" fill="#9FB3C8"/>
<path d="M184.171 140.252C184.723 140.249 185.174 140.693 185.178 141.244C185.182 141.796 184.737 142.246 184.184 142.25C183.632 142.253 183.181 141.809 183.177 141.258C183.173 140.706 183.618 140.256 184.171 140.252Z" fill="#9FB3C8"/>
<path d="M176.166 140.305C176.719 140.302 177.17 140.746 177.174 141.298C177.177 141.849 176.732 142.299 176.18 142.303C175.627 142.307 175.176 141.862 175.172 141.311C175.169 140.759 175.614 140.309 176.166 140.305Z" fill="#9FB3C8"/>
<path d="M168.162 140.359C168.714 140.355 169.165 140.799 169.169 141.351C169.173 141.902 168.728 142.352 168.175 142.356C167.622 142.36 167.171 141.916 167.168 141.364C167.164 140.812 167.609 140.362 168.162 140.359Z" fill="#9FB3C8"/>
<path d="M160.157 140.412C160.71 140.408 161.161 140.852 161.164 141.404C161.168 141.956 160.723 142.406 160.17 142.409C159.618 142.413 159.167 141.969 159.163 141.417C159.16 140.866 159.605 140.416 160.157 140.412Z" fill="#9FB3C8"/>
<path d="M152.153 140.465C152.705 140.461 153.156 140.906 153.16 141.457C153.163 142.009 152.718 142.459 152.166 142.463C151.613 142.466 151.162 142.022 151.159 141.47C151.155 140.919 151.6 140.469 152.153 140.465Z" fill="#9FB3C8"/>
<path d="M224.353 163.955C224.906 163.952 225.357 164.396 225.36 164.947C225.364 165.499 224.919 165.949 224.366 165.953C223.814 165.956 223.363 165.512 223.359 164.961C223.356 164.409 223.801 163.959 224.353 163.955Z" fill="#9FB3C8"/>
<path d="M216.349 164.009C216.901 164.005 217.352 164.449 217.356 165.001C217.359 165.552 216.914 166.002 216.362 166.006C215.809 166.01 215.358 165.566 215.355 165.014C215.351 164.462 215.796 164.012 216.349 164.009Z" fill="#9FB3C8"/>
<path d="M208.344 164.062C208.897 164.058 209.348 164.502 209.351 165.054C209.355 165.605 208.91 166.056 208.357 166.059C207.805 166.063 207.354 165.619 207.35 165.067C207.346 164.516 207.791 164.066 208.344 164.062Z" fill="#9FB3C8"/>
<path d="M200.339 164.115C200.892 164.111 201.343 164.556 201.347 165.107C201.35 165.659 200.905 166.109 200.353 166.112C199.8 166.116 199.349 165.672 199.345 165.12C199.342 164.569 199.787 164.119 200.339 164.115Z" fill="#9FB3C8"/>
<path d="M192.335 164.168C192.887 164.165 193.338 164.609 193.342 165.16C193.346 165.712 192.901 166.162 192.348 166.166C191.795 166.169 191.345 165.725 191.341 165.174C191.337 164.622 191.782 164.172 192.335 164.168Z" fill="#9FB3C8"/>
<path d="M184.33 164.221C184.883 164.218 185.334 164.662 185.337 165.214C185.341 165.765 184.896 166.215 184.344 166.219C183.791 166.223 183.34 165.778 183.336 165.227C183.333 164.675 183.778 164.225 184.33 164.221Z" fill="#9FB3C8"/>
<path d="M176.326 164.275C176.878 164.271 177.329 164.715 177.333 165.267C177.337 165.818 176.892 166.268 176.339 166.272C175.786 166.276 175.335 165.832 175.332 165.28C175.328 164.729 175.773 164.278 176.326 164.275Z" fill="#9FB3C8"/>
<path d="M168.321 164.328C168.874 164.324 169.325 164.768 169.328 165.32C169.332 165.872 168.887 166.322 168.334 166.325C167.782 166.329 167.331 165.885 167.327 165.333C167.323 164.782 167.768 164.332 168.321 164.328Z" fill="#9FB3C8"/>
<path d="M160.317 164.381C160.869 164.377 161.32 164.822 161.324 165.373C161.327 165.925 160.882 166.375 160.33 166.379C159.777 166.382 159.326 165.938 159.323 165.387C159.319 164.835 159.764 164.385 160.317 164.381Z" fill="#9FB3C8"/>
<path d="M152.312 164.434C152.865 164.431 153.315 164.875 153.319 165.426C153.323 165.978 152.878 166.428 152.325 166.432C151.773 166.435 151.322 165.991 151.318 165.44C151.314 164.888 151.759 164.438 152.312 164.434Z" fill="#9FB3C8"/>
<path d="M224.3 155.966C224.853 155.962 225.304 156.406 225.307 156.958C225.311 157.509 224.866 157.959 224.313 157.963C223.761 157.967 223.31 157.523 223.306 156.971C223.302 156.419 223.747 155.969 224.3 155.966Z" fill="#9FB3C8"/>
<path d="M216.295 156.019C216.848 156.015 217.299 156.459 217.303 157.011C217.306 157.562 216.861 158.013 216.309 158.016C215.756 158.02 215.305 157.576 215.301 157.024C215.298 156.473 215.743 156.023 216.295 156.019Z" fill="#9FB3C8"/>
<path d="M208.291 156.072C208.843 156.068 209.294 156.513 209.298 157.064C209.302 157.616 208.857 158.066 208.304 158.07C207.752 158.073 207.301 157.629 207.297 157.077C207.293 156.526 207.738 156.076 208.291 156.072Z" fill="#9FB3C8"/>
<path d="M200.286 156.125C200.839 156.122 201.29 156.566 201.293 157.117C201.297 157.669 200.852 158.119 200.3 158.123C199.747 158.126 199.296 157.682 199.292 157.131C199.289 156.579 199.734 156.129 200.286 156.125Z" fill="#9FB3C8"/>
<path d="M192.282 156.179C192.834 156.175 193.285 156.619 193.289 157.171C193.293 157.722 192.848 158.172 192.295 158.176C191.742 158.18 191.291 157.735 191.288 157.184C191.284 156.632 191.729 156.182 192.282 156.179Z" fill="#9FB3C8"/>
<path d="M184.277 156.232C184.83 156.228 185.281 156.672 185.284 157.224C185.288 157.775 184.843 158.225 184.29 158.229C183.738 158.233 183.287 157.789 183.283 157.237C183.28 156.686 183.725 156.235 184.277 156.232Z" fill="#9FB3C8"/>
<path d="M176.273 156.285C176.825 156.281 177.276 156.725 177.28 157.277C177.283 157.829 176.838 158.279 176.286 158.282C175.733 158.286 175.282 157.842 175.279 157.29C175.275 156.739 175.72 156.289 176.273 156.285Z" fill="#9FB3C8"/>
<path d="M168.268 156.338C168.821 156.335 169.272 156.779 169.275 157.33C169.279 157.882 168.834 158.332 168.281 158.336C167.729 158.339 167.278 157.895 167.274 157.344C167.27 156.792 167.715 156.342 168.268 156.338Z" fill="#9FB3C8"/>
<path d="M160.263 156.391C160.816 156.388 161.267 156.832 161.271 157.383C161.274 157.935 160.829 158.385 160.277 158.389C159.724 158.393 159.273 157.948 159.269 157.397C159.266 156.845 159.711 156.395 160.263 156.391Z" fill="#9FB3C8"/>
<path d="M152.259 156.445C152.811 156.441 153.262 156.885 153.266 157.437C153.27 157.988 152.825 158.438 152.272 158.442C151.72 158.446 151.269 158.002 151.265 157.45C151.261 156.898 151.706 156.448 152.259 156.445Z" fill="#9FB3C8"/>
<path d="M224.459 179.935C225.012 179.931 225.463 180.375 225.467 180.927C225.47 181.479 225.025 181.929 224.473 181.932C223.92 181.936 223.469 181.492 223.465 180.94C223.462 180.389 223.907 179.939 224.459 179.935Z" fill="#9FB3C8"/>
<path d="M216.455 179.988C217.007 179.984 217.458 180.429 217.462 180.98C217.466 181.532 217.021 181.982 216.468 181.986C215.915 181.989 215.465 181.545 215.461 180.993C215.457 180.442 215.902 179.992 216.455 179.988Z" fill="#9FB3C8"/>
<path d="M208.45 180.041C209.003 180.038 209.454 180.482 209.457 181.033C209.461 181.585 209.016 182.035 208.463 182.039C207.911 182.042 207.46 181.598 207.456 181.047C207.453 180.495 207.898 180.045 208.45 180.041Z" fill="#9FB3C8"/>
<path d="M200.446 180.095C200.998 180.091 201.449 180.535 201.453 181.087C201.457 181.638 201.012 182.088 200.459 182.092C199.906 182.096 199.455 181.651 199.452 181.1C199.448 180.548 199.893 180.098 200.446 180.095Z" fill="#9FB3C8"/>
<path d="M192.441 180.148C192.994 180.144 193.445 180.588 193.448 181.14C193.452 181.691 193.007 182.142 192.454 182.145C191.902 182.149 191.451 181.705 191.447 181.153C191.443 180.602 191.888 180.151 192.441 180.148Z" fill="#9FB3C8"/>
<path d="M184.436 180.201C184.989 180.197 185.44 180.641 185.444 181.193C185.447 181.745 185.002 182.195 184.45 182.198C183.897 182.202 183.446 181.758 183.443 181.206C183.439 180.655 183.884 180.205 184.436 180.201Z" fill="#9FB3C8"/>
<path d="M176.432 180.254C176.985 180.251 177.435 180.695 177.439 181.246C177.443 181.798 176.998 182.248 176.445 182.252C175.893 182.255 175.442 181.811 175.438 181.26C175.434 180.708 175.879 180.258 176.432 180.254Z" fill="#9FB3C8"/>
<path d="M168.427 180.307C168.98 180.304 169.431 180.748 169.435 181.299C169.438 181.851 168.993 182.301 168.441 182.305C167.888 182.309 167.437 181.864 167.433 181.313C167.43 180.761 167.875 180.311 168.427 180.307Z" fill="#9FB3C8"/>
<path d="M160.423 180.361C160.975 180.357 161.426 180.801 161.43 181.353C161.434 181.904 160.989 182.354 160.436 182.358C159.883 182.362 159.433 181.918 159.429 181.366C159.425 180.814 159.87 180.364 160.423 180.361Z" fill="#9FB3C8"/>
<path d="M152.418 180.414C152.971 180.41 153.422 180.854 153.425 181.406C153.429 181.958 152.984 182.408 152.431 182.411C151.879 182.415 151.428 181.971 151.424 181.419C151.421 180.868 151.866 180.418 152.418 180.414Z" fill="#9FB3C8"/>
<path d="M224.406 171.945C224.959 171.941 225.41 172.386 225.413 172.937C225.417 173.489 224.972 173.939 224.42 173.943C223.867 173.946 223.416 173.502 223.412 172.951C223.409 172.399 223.854 171.949 224.406 171.945Z" fill="#9FB3C8"/>
<path d="M216.402 171.998C216.954 171.995 217.405 172.439 217.409 172.99C217.413 173.542 216.968 173.992 216.415 173.996C215.862 173.999 215.411 173.555 215.408 173.004C215.404 172.452 215.849 172.002 216.402 171.998Z" fill="#9FB3C8"/>
<path d="M208.397 172.052C208.95 172.048 209.401 172.492 209.404 173.044C209.408 173.595 208.963 174.045 208.41 174.049C207.858 174.053 207.407 173.609 207.403 173.057C207.399 172.505 207.844 172.055 208.397 172.052Z" fill="#9FB3C8"/>
<path d="M200.393 172.105C200.945 172.101 201.396 172.545 201.4 173.097C201.403 173.648 200.958 174.099 200.406 174.102C199.853 174.106 199.402 173.662 199.399 173.11C199.395 172.559 199.84 172.108 200.393 172.105Z" fill="#9FB3C8"/>
<path d="M192.388 172.158C192.941 172.154 193.391 172.599 193.395 173.15C193.399 173.702 192.954 174.152 192.401 174.155C191.849 174.159 191.398 173.715 191.394 173.163C191.39 172.612 191.835 172.162 192.388 172.158Z" fill="#9FB3C8"/>
<path d="M184.383 172.211C184.936 172.208 185.387 172.652 185.391 173.203C185.394 173.755 184.949 174.205 184.397 174.209C183.844 174.212 183.393 173.768 183.389 173.217C183.386 172.665 183.831 172.215 184.383 172.211Z" fill="#9FB3C8"/>
<path d="M176.379 172.264C176.931 172.261 177.382 172.705 177.386 173.257C177.39 173.808 176.945 174.258 176.392 174.262C175.839 174.266 175.389 173.821 175.385 173.27C175.381 172.718 175.826 172.268 176.379 172.264Z" fill="#9FB3C8"/>
<path d="M168.374 172.318C168.927 172.314 169.378 172.758 169.381 173.31C169.385 173.861 168.94 174.311 168.387 174.315C167.835 174.319 167.384 173.875 167.38 173.323C167.377 172.771 167.822 172.321 168.374 172.318Z" fill="#9FB3C8"/>
<path d="M160.37 172.371C160.922 172.367 161.373 172.811 161.377 173.363C161.381 173.915 160.936 174.365 160.383 174.368C159.83 174.372 159.379 173.928 159.376 173.376C159.372 172.825 159.817 172.375 160.37 172.371Z" fill="#9FB3C8"/>
<path d="M152.365 172.424C152.918 172.42 153.369 172.865 153.372 173.416C153.376 173.968 152.931 174.418 152.378 174.422C151.826 174.425 151.375 173.981 151.371 173.429C151.367 172.878 151.812 172.428 152.365 172.424Z" fill="#9FB3C8"/>
<path d="M224.566 195.914C225.118 195.911 225.569 196.355 225.573 196.906C225.576 197.458 225.131 197.908 224.579 197.912C224.026 197.916 223.575 197.471 223.572 196.92C223.568 196.368 224.013 195.918 224.566 195.914Z" fill="#9FB3C8"/>
<path d="M216.561 195.968C217.114 195.964 217.565 196.408 217.568 196.96C217.572 197.511 217.127 197.961 216.574 197.965C216.022 197.969 215.571 197.525 215.567 196.973C215.563 196.421 216.008 195.971 216.561 195.968Z" fill="#9FB3C8"/>
<path d="M208.556 196.021C209.109 196.017 209.56 196.461 209.564 197.013C209.567 197.564 209.122 198.015 208.57 198.018C208.017 198.022 207.566 197.578 207.563 197.026C207.559 196.475 208.004 196.025 208.556 196.021Z" fill="#9FB3C8"/>
<path d="M200.552 196.074C201.104 196.07 201.555 196.515 201.559 197.066C201.563 197.618 201.118 198.068 200.565 198.071C200.013 198.075 199.562 197.631 199.558 197.079C199.554 196.528 199.999 196.078 200.552 196.074Z" fill="#9FB3C8"/>
<path d="M192.547 196.127C193.1 196.124 193.551 196.568 193.555 197.119C193.558 197.671 193.113 198.121 192.561 198.125C192.008 198.128 191.557 197.684 191.553 197.133C191.55 196.581 191.995 196.131 192.547 196.127Z" fill="#9FB3C8"/>
<path d="M184.543 196.18C185.095 196.177 185.546 196.621 185.55 197.173C185.554 197.724 185.109 198.174 184.556 198.178C184.003 198.182 183.552 197.737 183.549 197.186C183.545 196.634 183.99 196.184 184.543 196.18Z" fill="#9FB3C8"/>
<path d="M176.538 196.234C177.091 196.23 177.542 196.674 177.545 197.226C177.549 197.777 177.104 198.227 176.551 198.231C175.999 198.235 175.548 197.791 175.544 197.239C175.541 196.688 175.986 196.237 176.538 196.234Z" fill="#9FB3C8"/>
<path d="M168.534 196.287C169.086 196.283 169.537 196.727 169.541 197.279C169.544 197.831 169.099 198.281 168.547 198.284C167.994 198.288 167.543 197.844 167.54 197.292C167.536 196.741 167.981 196.291 168.534 196.287Z" fill="#9FB3C8"/>
<path d="M160.529 196.34C161.082 196.336 161.533 196.781 161.536 197.332C161.54 197.884 161.095 198.334 160.542 198.338C159.99 198.341 159.539 197.897 159.535 197.346C159.531 196.794 159.976 196.344 160.529 196.34Z" fill="#9FB3C8"/>
<path d="M152.524 196.393C153.077 196.39 153.528 196.834 153.532 197.385C153.535 197.937 153.09 198.387 152.538 198.391C151.985 198.394 151.534 197.95 151.531 197.399C151.527 196.847 151.972 196.397 152.524 196.393Z" fill="#9FB3C8"/>
<path d="M224.512 187.925C225.065 187.921 225.516 188.365 225.52 188.917C225.523 189.468 225.078 189.918 224.526 189.922C223.973 189.926 223.522 189.482 223.519 188.93C223.515 188.378 223.96 187.928 224.512 187.925Z" fill="#9FB3C8"/>
<path d="M216.508 187.978C217.061 187.974 217.511 188.418 217.515 188.97C217.519 189.522 217.074 189.972 216.521 189.975C215.969 189.979 215.518 189.535 215.514 188.983C215.51 188.432 215.955 187.982 216.508 187.978Z" fill="#9FB3C8"/>
<path d="M208.503 188.031C209.056 188.027 209.507 188.472 209.511 189.023C209.514 189.575 209.069 190.025 208.517 190.029C207.964 190.032 207.513 189.588 207.509 189.036C207.506 188.485 207.951 188.035 208.503 188.031Z" fill="#9FB3C8"/>
<path d="M200.499 188.084C201.051 188.081 201.502 188.525 201.506 189.076C201.51 189.628 201.065 190.078 200.512 190.082C199.959 190.085 199.508 189.641 199.505 189.09C199.501 188.538 199.946 188.088 200.499 188.084Z" fill="#9FB3C8"/>
<path d="M192.494 188.138C193.047 188.134 193.498 188.578 193.501 189.13C193.505 189.681 193.06 190.131 192.507 190.135C191.955 190.139 191.504 189.694 191.5 189.143C191.497 188.591 191.942 188.141 192.494 188.138Z" fill="#9FB3C8"/>
<path d="M184.49 188.191C185.042 188.187 185.493 188.631 185.497 189.183C185.5 189.734 185.055 190.185 184.503 190.188C183.95 190.192 183.499 189.748 183.496 189.196C183.492 188.645 183.937 188.194 184.49 188.191Z" fill="#9FB3C8"/>
<path d="M176.485 188.244C177.038 188.24 177.489 188.684 177.492 189.236C177.496 189.788 177.051 190.238 176.498 190.241C175.946 190.245 175.495 189.801 175.491 189.249C175.487 188.698 175.932 188.248 176.485 188.244Z" fill="#9FB3C8"/>
<path d="M168.48 188.297C169.033 188.294 169.484 188.738 169.488 189.289C169.491 189.841 169.046 190.291 168.494 190.295C167.941 190.298 167.49 189.854 167.487 189.303C167.483 188.751 167.928 188.301 168.48 188.297Z" fill="#9FB3C8"/>
<path d="M160.476 188.35C161.028 188.347 161.479 188.791 161.483 189.342C161.487 189.894 161.042 190.344 160.489 190.348C159.937 190.352 159.486 189.907 159.482 189.356C159.478 188.804 159.923 188.354 160.476 188.35Z" fill="#9FB3C8"/>
<path d="M152.471 188.404C153.024 188.4 153.475 188.844 153.479 189.396C153.482 189.947 153.037 190.397 152.485 190.401C151.932 190.405 151.481 189.961 151.477 189.409C151.474 188.857 151.919 188.407 152.471 188.404Z" fill="#9FB3C8"/>
<path d="M224.672 211.894C225.224 211.89 225.675 212.334 225.679 212.886C225.683 213.438 225.238 213.888 224.685 213.891C224.133 213.895 223.682 213.451 223.678 212.899C223.674 212.348 224.119 211.898 224.672 211.894Z" fill="#9FB3C8"/>
<path d="M216.667 211.947C217.22 211.943 217.671 212.388 217.674 212.939C217.678 213.491 217.233 213.941 216.681 213.945C216.128 213.948 215.677 213.504 215.673 212.952C215.67 212.401 216.115 211.951 216.667 211.947Z" fill="#9FB3C8"/>
<path d="M208.663 212C209.215 211.997 209.666 212.441 209.67 212.992C209.674 213.544 209.229 213.994 208.676 213.998C208.123 214.001 207.672 213.557 207.669 213.006C207.665 212.454 208.11 212.004 208.663 212Z" fill="#9FB3C8"/>
<path d="M200.658 212.054C201.211 212.05 201.662 212.494 201.665 213.046C201.669 213.597 201.224 214.047 200.671 214.051C200.119 214.055 199.668 213.611 199.664 213.059C199.661 212.507 200.106 212.057 200.658 212.054Z" fill="#9FB3C8"/>
<path d="M192.654 212.107C193.206 212.103 193.657 212.547 193.661 213.099C193.664 213.65 193.219 214.101 192.667 214.104C192.114 214.108 191.663 213.664 191.66 213.112C191.656 212.561 192.101 212.11 192.654 212.107Z" fill="#9FB3C8"/>
<path d="M184.649 212.16C185.202 212.156 185.653 212.6 185.656 213.152C185.66 213.704 185.215 214.154 184.662 214.157C184.11 214.161 183.659 213.717 183.655 213.165C183.651 212.614 184.096 212.164 184.649 212.16Z" fill="#9FB3C8"/>
<path d="M176.644 212.213C177.197 212.21 177.648 212.654 177.652 213.205C177.655 213.757 177.21 214.207 176.658 214.211C176.105 214.214 175.654 213.77 175.65 213.219C175.647 212.667 176.092 212.217 176.644 212.213Z" fill="#9FB3C8"/>
<path d="M168.64 212.266C169.192 212.263 169.643 212.707 169.647 213.259C169.651 213.81 169.206 214.26 168.653 214.264C168.101 214.268 167.65 213.823 167.646 213.272C167.642 212.72 168.087 212.27 168.64 212.266Z" fill="#9FB3C8"/>
<path d="M160.635 212.32C161.188 212.316 161.639 212.76 161.642 213.312C161.646 213.863 161.201 214.313 160.649 214.317C160.096 214.321 159.645 213.877 159.641 213.325C159.638 212.773 160.083 212.323 160.635 212.32Z" fill="#9FB3C8"/>
<path d="M152.631 212.373C153.183 212.369 153.634 212.813 153.638 213.365C153.642 213.917 153.197 214.367 152.644 214.37C152.091 214.374 151.64 213.93 151.637 213.378C151.633 212.827 152.078 212.377 152.631 212.373Z" fill="#9FB3C8"/>
<path d="M224.619 203.904C225.171 203.9 225.622 204.345 225.626 204.896C225.63 205.448 225.185 205.898 224.632 205.902C224.079 205.905 223.628 205.461 223.625 204.91C223.621 204.358 224.066 203.908 224.619 203.904Z" fill="#9FB3C8"/>
<path d="M216.614 203.957C217.167 203.954 217.618 204.398 217.621 204.949C217.625 205.501 217.18 205.951 216.627 205.955C216.075 205.958 215.624 205.514 215.62 204.963C215.617 204.411 216.062 203.961 216.614 203.957Z" fill="#9FB3C8"/>
<path d="M208.61 204.011C209.162 204.007 209.613 204.451 209.617 205.003C209.62 205.554 209.175 206.004 208.623 206.008C208.07 206.012 207.619 205.568 207.616 205.016C207.612 204.464 208.057 204.014 208.61 204.011Z" fill="#9FB3C8"/>
<path d="M200.605 204.064C201.158 204.06 201.609 204.504 201.612 205.056C201.616 205.607 201.171 206.058 200.618 206.061C200.066 206.065 199.615 205.621 199.611 205.069C199.607 204.518 200.052 204.067 200.605 204.064Z" fill="#9FB3C8"/>
<path d="M192.6 204.117C193.153 204.113 193.604 204.558 193.608 205.109C193.611 205.661 193.166 206.111 192.614 206.114C192.061 206.118 191.61 205.674 191.606 205.122C191.603 204.571 192.048 204.121 192.6 204.117Z" fill="#9FB3C8"/>
<path d="M184.596 204.17C185.148 204.167 185.599 204.611 185.603 205.162C185.607 205.714 185.162 206.164 184.609 206.168C184.057 206.171 183.606 205.727 183.602 205.176C183.598 204.624 184.043 204.174 184.596 204.17Z" fill="#9FB3C8"/>
<path d="M176.591 204.223C177.144 204.22 177.595 204.664 177.598 205.216C177.602 205.767 177.157 206.217 176.605 206.221C176.052 206.225 175.601 205.78 175.597 205.229C175.594 204.677 176.039 204.227 176.591 204.223Z" fill="#9FB3C8"/>
<path d="M168.587 204.277C169.139 204.273 169.59 204.717 169.594 205.269C169.598 205.82 169.153 206.27 168.6 206.274C168.047 206.278 167.596 205.834 167.593 205.282C167.589 204.73 168.034 204.28 168.587 204.277Z" fill="#9FB3C8"/>
<path d="M160.582 204.33C161.135 204.326 161.586 204.77 161.589 205.322C161.593 205.874 161.148 206.324 160.595 206.327C160.043 206.331 159.592 205.887 159.588 205.335C159.585 204.784 160.03 204.334 160.582 204.33Z" fill="#9FB3C8"/>
<path d="M152.578 204.383C153.13 204.379 153.581 204.824 153.585 205.375C153.588 205.927 153.143 206.377 152.591 206.381C152.038 206.384 151.587 205.94 151.584 205.389C151.58 204.837 152.025 204.387 152.578 204.383Z" fill="#9FB3C8"/>
<path d="M144.095 132.529C144.647 132.525 145.098 132.969 145.102 133.521C145.106 134.072 144.661 134.522 144.108 134.526C143.556 134.53 143.105 134.086 143.101 133.534C143.097 132.982 143.542 132.532 144.095 132.529Z" fill="#9FB3C8"/>
<path d="M136.09 132.582C136.643 132.578 137.094 133.022 137.098 133.574C137.101 134.125 136.656 134.576 136.104 134.579C135.551 134.583 135.1 134.139 135.096 133.587C135.093 133.036 135.538 132.585 136.09 132.582Z" fill="#9FB3C8"/>
<path d="M128.086 132.635C128.638 132.631 129.089 133.076 129.093 133.627C129.097 134.179 128.652 134.629 128.099 134.632C127.546 134.636 127.095 134.192 127.092 133.64C127.088 133.089 127.533 132.639 128.086 132.635Z" fill="#9FB3C8"/>
<path d="M120.081 132.688C120.634 132.685 121.085 133.129 121.088 133.68C121.092 134.232 120.647 134.682 120.094 134.686C119.542 134.689 119.091 134.245 119.087 133.694C119.084 133.142 119.529 132.692 120.081 132.688Z" fill="#9FB3C8"/>
<path d="M112.077 132.741C112.629 132.738 113.08 133.182 113.084 133.734C113.087 134.285 112.642 134.735 112.09 134.739C111.537 134.743 111.086 134.298 111.083 133.747C111.079 133.195 111.524 132.745 112.077 132.741Z" fill="#9FB3C8"/>
<path d="M104.072 132.795C104.625 132.791 105.076 133.235 105.079 133.787C105.083 134.338 104.638 134.788 104.085 134.792C103.533 134.796 103.082 134.352 103.078 133.8C103.074 133.248 103.519 132.798 104.072 132.795Z" fill="#9FB3C8"/>
<path d="M96.0674 132.848C96.62 132.844 97.071 133.288 97.0747 133.84C97.0783 134.392 96.6333 134.842 96.0807 134.845C95.5281 134.849 95.0772 134.405 95.0735 133.853C95.0698 133.302 95.5148 132.852 96.0674 132.848Z" fill="#9FB3C8"/>
<path d="M88.0629 132.901C88.6155 132.897 89.0664 133.342 89.0701 133.893C89.0737 134.445 88.6288 134.895 88.0762 134.899C87.5235 134.902 87.0726 134.458 87.0689 133.907C87.0653 133.355 87.5103 132.905 88.0629 132.901Z" fill="#9FB3C8"/>
<path d="M80.0583 132.954C80.6109 132.951 81.0618 133.395 81.0655 133.946C81.0692 134.498 80.6242 134.948 80.0716 134.952C79.519 134.955 79.068 134.511 79.0644 133.96C79.0607 133.408 79.5057 132.958 80.0583 132.954Z" fill="#9FB3C8"/>
<path d="M72.0537 133.008C72.6063 133.004 73.0573 133.448 73.0609 134C73.0646 134.551 72.6196 135.001 72.067 135.005C71.5144 135.009 71.0635 134.565 71.0598 134.013C71.0561 133.461 71.5011 133.011 72.0537 133.008Z" fill="#9FB3C8"/>
<path d="M144.042 124.539C144.594 124.535 145.045 124.979 145.049 125.531C145.053 126.082 144.608 126.533 144.055 126.536C143.502 126.54 143.051 126.096 143.048 125.544C143.044 124.993 143.489 124.543 144.042 124.539Z" fill="#9FB3C8"/>
<path d="M136.037 124.592C136.59 124.588 137.041 125.033 137.044 125.584C137.048 126.136 136.603 126.586 136.05 126.589C135.498 126.593 135.047 126.149 135.043 125.597C135.04 125.046 135.485 124.596 136.037 124.592Z" fill="#9FB3C8"/>
<path d="M128.033 124.645C128.585 124.642 129.036 125.086 129.04 125.637C129.043 126.189 128.598 126.639 128.046 126.643C127.493 126.646 127.042 126.202 127.039 125.651C127.035 125.099 127.48 124.649 128.033 124.645Z" fill="#9FB3C8"/>
<path d="M120.028 124.699C120.581 124.695 121.032 125.139 121.035 125.691C121.039 126.242 120.594 126.692 120.041 126.696C119.489 126.7 119.038 126.255 119.034 125.704C119.03 125.152 119.475 124.702 120.028 124.699Z" fill="#9FB3C8"/>
<path d="M112.023 124.752C112.576 124.748 113.027 125.192 113.031 125.744C113.034 126.295 112.589 126.745 112.037 126.749C111.484 126.753 111.033 126.309 111.03 125.757C111.026 125.206 111.471 124.755 112.023 124.752Z" fill="#9FB3C8"/>
<path d="M104.019 124.805C104.571 124.801 105.022 125.245 105.026 125.797C105.03 126.349 104.585 126.799 104.032 126.802C103.48 126.806 103.029 126.362 103.025 125.81C103.021 125.259 103.466 124.809 104.019 124.805Z" fill="#9FB3C8"/>
<path d="M96.0143 124.858C96.5669 124.854 97.0179 125.299 97.0215 125.85C97.0252 126.402 96.5802 126.852 96.0276 126.856C95.475 126.859 95.0241 126.415 95.0204 125.864C95.0167 125.312 95.4617 124.862 96.0143 124.858Z" fill="#9FB3C8"/>
<path d="M88.0097 124.911C88.5623 124.908 89.0133 125.352 89.017 125.903C89.0206 126.455 88.5756 126.905 88.023 126.909C87.4704 126.912 87.0195 126.468 87.0158 125.917C87.0121 125.365 87.4571 124.915 88.0097 124.911Z" fill="#9FB3C8"/>
<path d="M80.0052 124.965C80.5578 124.961 81.0087 125.405 81.0124 125.957C81.0161 126.508 80.5711 126.958 80.0185 126.962C79.4659 126.966 79.0149 126.522 79.0112 125.97C79.0076 125.418 79.4526 124.968 80.0052 124.965Z" fill="#9FB3C8"/>
<path d="M72.0006 125.018C72.5532 125.014 73.0041 125.458 73.0078 126.01C73.0115 126.561 72.5665 127.012 72.0139 127.015C71.4613 127.019 71.0103 126.575 71.0067 126.023C71.003 125.472 71.448 125.022 72.0006 125.018Z" fill="#9FB3C8"/>
<path d="M144.201 148.508C144.754 148.504 145.205 148.949 145.208 149.5C145.212 150.052 144.767 150.502 144.214 150.506C143.662 150.509 143.211 150.065 143.207 149.513C143.204 148.962 143.649 148.512 144.201 148.508Z" fill="#9FB3C8"/>
<path d="M136.197 148.561C136.749 148.558 137.2 149.002 137.204 149.553C137.207 150.105 136.762 150.555 136.21 150.559C135.657 150.562 135.206 150.118 135.203 149.567C135.199 149.015 135.644 148.565 136.197 148.561Z" fill="#9FB3C8"/>
<path d="M128.192 148.615C128.745 148.611 129.196 149.055 129.199 149.607C129.203 150.158 128.758 150.608 128.205 150.612C127.653 150.616 127.202 150.171 127.198 149.62C127.194 149.068 127.639 148.618 128.192 148.615Z" fill="#9FB3C8"/>
<path d="M120.187 148.668C120.74 148.664 121.191 149.108 121.195 149.66C121.198 150.211 120.753 150.662 120.201 150.665C119.648 150.669 119.197 150.225 119.193 149.673C119.19 149.122 119.635 148.671 120.187 148.668Z" fill="#9FB3C8"/>
<path d="M112.183 148.721C112.735 148.717 113.186 149.161 113.19 149.713C113.194 150.265 112.749 150.715 112.196 150.718C111.644 150.722 111.193 150.278 111.189 149.726C111.185 149.175 111.63 148.725 112.183 148.721Z" fill="#9FB3C8"/>
<path d="M104.178 148.774C104.731 148.771 105.182 149.215 105.185 149.766C105.189 150.318 104.744 150.768 104.192 150.772C103.639 150.775 103.188 150.331 103.184 149.78C103.181 149.228 103.626 148.778 104.178 148.774Z" fill="#9FB3C8"/>
<path d="M96.1737 148.827C96.7263 148.824 97.1772 149.268 97.1809 149.819C97.1846 150.371 96.7396 150.821 96.187 150.825C95.6344 150.829 95.1834 150.384 95.1798 149.833C95.1761 149.281 95.6211 148.831 96.1737 148.827Z" fill="#9FB3C8"/>
<path d="M88.1691 148.881C88.7217 148.877 89.1727 149.321 89.1763 149.873C89.18 150.424 88.735 150.874 88.1824 150.878C87.6298 150.882 87.1789 150.438 87.1752 149.886C87.1715 149.334 87.6165 148.884 88.1691 148.881Z" fill="#9FB3C8"/>
<path d="M80.1645 148.934C80.7171 148.93 81.1681 149.374 81.1718 149.926C81.1754 150.477 80.7304 150.928 80.1778 150.931C79.6252 150.935 79.1743 150.491 79.1706 149.939C79.1669 149.388 79.6119 148.938 80.1645 148.934Z" fill="#9FB3C8"/>
<path d="M72.16 148.987C72.7126 148.983 73.1635 149.428 73.1672 149.979C73.1708 150.531 72.7258 150.981 72.1732 150.985C71.6206 150.988 71.1697 150.544 71.166 149.992C71.1624 149.441 71.6074 148.991 72.16 148.987Z" fill="#9FB3C8"/>
<path d="M144.148 140.518C144.701 140.515 145.152 140.959 145.155 141.51C145.159 142.062 144.714 142.512 144.161 142.516C143.609 142.519 143.158 142.075 143.154 141.524C143.15 140.972 143.595 140.522 144.148 140.518Z" fill="#9FB3C8"/>
<path d="M136.143 140.572C136.696 140.568 137.147 141.012 137.151 141.564C137.154 142.115 136.709 142.565 136.157 142.569C135.604 142.573 135.153 142.129 135.15 141.577C135.146 141.025 135.591 140.575 136.143 140.572Z" fill="#9FB3C8"/>
<path d="M128.139 140.625C128.691 140.621 129.142 141.065 129.146 141.617C129.15 142.168 128.705 142.619 128.152 142.622C127.6 142.626 127.149 142.182 127.145 141.63C127.141 141.079 127.586 140.628 128.139 140.625Z" fill="#9FB3C8"/>
<path d="M120.134 140.678C120.687 140.674 121.138 141.118 121.141 141.67C121.145 142.222 120.7 142.672 120.148 142.675C119.595 142.679 119.144 142.235 119.14 141.683C119.137 141.132 119.582 140.682 120.134 140.678Z" fill="#9FB3C8"/>
<path d="M112.13 140.731C112.682 140.728 113.133 141.172 113.137 141.723C113.141 142.275 112.696 142.725 112.143 142.729C111.59 142.732 111.139 142.288 111.136 141.737C111.132 141.185 111.577 140.735 112.13 140.731Z" fill="#9FB3C8"/>
<path d="M104.125 140.784C104.678 140.781 105.129 141.225 105.132 141.777C105.136 142.328 104.691 142.778 104.138 142.782C103.586 142.786 103.135 142.341 103.131 141.79C103.128 141.238 103.573 140.788 104.125 140.784Z" fill="#9FB3C8"/>
<path d="M96.1206 140.838C96.6732 140.834 97.1241 141.278 97.1278 141.83C97.1314 142.381 96.6864 142.831 96.1338 142.835C95.5812 142.839 95.1303 142.395 95.1266 141.843C95.123 141.291 95.568 140.841 96.1206 140.838Z" fill="#9FB3C8"/>
<path d="M88.116 140.891C88.6686 140.887 89.1195 141.331 89.1232 141.883C89.1269 142.435 88.6819 142.885 88.1293 142.888C87.5767 142.892 87.1257 142.448 87.1221 141.896C87.1184 141.345 87.5634 140.895 88.116 140.891Z" fill="#9FB3C8"/>
<path d="M80.1114 140.944C80.664 140.94 81.115 141.385 81.1186 141.936C81.1223 142.488 80.6773 142.938 80.1247 142.942C79.5721 142.945 79.1212 142.501 79.1175 141.949C79.1138 141.398 79.5588 140.948 80.1114 140.944Z" fill="#9FB3C8"/>
<path d="M72.1068 140.997C72.6594 140.994 73.1104 141.438 73.1141 141.989C73.1177 142.541 72.6727 142.991 72.1201 142.995C71.5675 142.998 71.1166 142.554 71.1129 142.003C71.1092 141.451 71.5542 141.001 72.1068 140.997Z" fill="#9FB3C8"/>
<path d="M144.307 164.488C144.86 164.484 145.311 164.928 145.315 165.48C145.318 166.031 144.873 166.481 144.321 166.485C143.768 166.489 143.317 166.045 143.313 165.493C143.31 164.941 143.755 164.491 144.307 164.488Z" fill="#9FB3C8"/>
<path d="M136.303 164.541C136.855 164.537 137.306 164.981 137.31 165.533C137.314 166.084 136.869 166.535 136.316 166.538C135.763 166.542 135.313 166.098 135.309 165.546C135.305 164.995 135.75 164.544 136.303 164.541Z" fill="#9FB3C8"/>
<path d="M128.298 164.594C128.851 164.59 129.302 165.035 129.305 165.586C129.309 166.138 128.864 166.588 128.312 166.591C127.759 166.595 127.308 166.151 127.304 165.599C127.301 165.048 127.746 164.598 128.298 164.594Z" fill="#9FB3C8"/>
<path d="M120.294 164.647C120.846 164.644 121.297 165.088 121.301 165.639C121.305 166.191 120.86 166.641 120.307 166.645C119.754 166.648 119.303 166.204 119.3 165.653C119.296 165.101 119.741 164.651 120.294 164.647Z" fill="#9FB3C8"/>
<path d="M112.289 164.7C112.842 164.697 113.293 165.141 113.296 165.693C113.3 166.244 112.855 166.694 112.302 166.698C111.75 166.702 111.299 166.257 111.295 165.706C111.291 165.154 111.736 164.704 112.289 164.7Z" fill="#9FB3C8"/>
<path d="M104.285 164.754C104.837 164.75 105.288 165.194 105.292 165.746C105.295 166.297 104.85 166.747 104.298 166.751C103.745 166.755 103.294 166.311 103.291 165.759C103.287 165.207 103.732 164.757 104.285 164.754Z" fill="#9FB3C8"/>
<path d="M96.2799 164.807C96.8325 164.803 97.2835 165.247 97.2871 165.799C97.2908 166.351 96.8458 166.801 96.2932 166.804C95.7406 166.808 95.2897 166.364 95.286 165.812C95.2823 165.261 95.7273 164.811 96.2799 164.807Z" fill="#9FB3C8"/>
<path d="M88.2754 164.86C88.828 164.856 89.2789 165.301 89.2826 165.852C89.2862 166.404 88.8412 166.854 88.2886 166.858C87.736 166.861 87.2851 166.417 87.2814 165.866C87.2778 165.314 87.7228 164.864 88.2754 164.86Z" fill="#9FB3C8"/>
<path d="M80.2708 164.913C80.8234 164.91 81.2743 165.354 81.278 165.905C81.2817 166.457 80.8367 166.907 80.2841 166.911C79.7315 166.914 79.2805 166.47 79.2769 165.919C79.2732 165.367 79.7182 164.917 80.2708 164.913Z" fill="#9FB3C8"/>
<path d="M72.2662 164.967C72.8188 164.963 73.2698 165.407 73.2734 165.959C73.2771 166.51 72.8321 166.96 72.2795 166.964C71.7269 166.968 71.2759 166.524 71.2723 165.972C71.2686 165.42 71.7136 164.97 72.2662 164.967Z" fill="#9FB3C8"/>
<path d="M144.254 156.498C144.807 156.494 145.258 156.938 145.261 157.49C145.265 158.041 144.82 158.492 144.268 158.495C143.715 158.499 143.264 158.055 143.26 157.503C143.257 156.952 143.702 156.502 144.254 156.498Z" fill="#9FB3C8"/>
<path d="M136.25 156.551C136.802 156.547 137.253 156.992 137.257 157.543C137.261 158.095 136.816 158.545 136.263 158.548C135.71 158.552 135.259 158.108 135.256 157.556C135.252 157.005 135.697 156.555 136.25 156.551Z" fill="#9FB3C8"/>
<path d="M128.245 156.604C128.798 156.601 129.249 157.045 129.252 157.596C129.256 158.148 128.811 158.598 128.258 158.602C127.706 158.605 127.255 158.161 127.251 157.61C127.248 157.058 127.693 156.608 128.245 156.604Z" fill="#9FB3C8"/>
<path d="M120.241 156.658C120.793 156.654 121.244 157.098 121.248 157.65C121.251 158.201 120.806 158.651 120.254 158.655C119.701 158.659 119.25 158.214 119.247 157.663C119.243 157.111 119.688 156.661 120.241 156.658Z" fill="#9FB3C8"/>
<path d="M112.236 156.711C112.789 156.707 113.24 157.151 113.243 157.703C113.247 158.254 112.802 158.704 112.249 158.708C111.697 158.712 111.246 158.268 111.242 157.716C111.238 157.165 111.683 156.714 112.236 156.711Z" fill="#9FB3C8"/>
<path d="M104.231 156.764C104.784 156.76 105.235 157.204 105.239 157.756C105.242 158.308 104.797 158.758 104.245 158.761C103.692 158.765 103.241 158.321 103.237 157.769C103.234 157.218 103.679 156.768 104.231 156.764Z" fill="#9FB3C8"/>
<path d="M96.2268 156.817C96.7794 156.813 97.2304 157.258 97.234 157.809C97.2377 158.361 96.7927 158.811 96.2401 158.815C95.6875 158.818 95.2365 158.374 95.2329 157.823C95.2292 157.271 95.6742 156.821 96.2268 156.817Z" fill="#9FB3C8"/>
<path d="M88.2222 156.87C88.7748 156.867 89.2258 157.311 89.2294 157.862C89.2331 158.414 88.7881 158.864 88.2355 158.868C87.6829 158.871 87.232 158.427 87.2283 157.876C87.2246 157.324 87.6696 156.874 88.2222 156.87Z" fill="#9FB3C8"/>
<path d="M80.2177 156.924C80.7703 156.92 81.2212 157.364 81.2249 157.916C81.2285 158.467 80.7835 158.917 80.2309 158.921C79.6783 158.925 79.2274 158.481 79.2237 157.929C79.2201 157.377 79.6651 156.927 80.2177 156.924Z" fill="#9FB3C8"/>
<path d="M72.2131 156.977C72.7657 156.973 73.2166 157.417 73.2203 157.969C73.224 158.52 72.779 158.971 72.2264 158.974C71.6738 158.978 71.2228 158.534 71.2192 157.982C71.2155 157.431 71.6605 156.981 72.2131 156.977Z" fill="#9FB3C8"/>
<path d="M144.414 180.467C144.966 180.463 145.417 180.908 145.421 181.459C145.425 182.011 144.98 182.461 144.427 182.465C143.874 182.468 143.423 182.024 143.42 181.472C143.416 180.921 143.861 180.471 144.414 180.467Z" fill="#9FB3C8"/>
<path d="M136.409 180.52C136.962 180.517 137.413 180.961 137.416 181.512C137.42 182.064 136.975 182.514 136.422 182.518C135.87 182.521 135.419 182.077 135.415 181.526C135.411 180.974 135.856 180.524 136.409 180.52Z" fill="#9FB3C8"/>
<path d="M128.404 180.574C128.957 180.57 129.408 181.014 129.412 181.566C129.415 182.117 128.97 182.567 128.418 182.571C127.865 182.575 127.414 182.13 127.411 181.579C127.407 181.027 127.852 180.577 128.404 180.574Z" fill="#9FB3C8"/>
<path d="M120.4 180.627C120.953 180.623 121.403 181.067 121.407 181.619C121.411 182.17 120.966 182.621 120.413 182.624C119.861 182.628 119.41 182.184 119.406 181.632C119.402 181.081 119.847 180.63 120.4 180.627Z" fill="#9FB3C8"/>
<path d="M112.395 180.68C112.948 180.676 113.399 181.12 113.403 181.672C113.406 182.224 112.961 182.674 112.409 182.677C111.856 182.681 111.405 182.237 111.401 181.685C111.398 181.134 111.843 180.684 112.395 180.68Z" fill="#9FB3C8"/>
<path d="M104.391 180.733C104.943 180.73 105.394 181.174 105.398 181.725C105.402 182.277 104.957 182.727 104.404 182.731C103.851 182.734 103.4 182.29 103.397 181.739C103.393 181.187 103.838 180.737 104.391 180.733Z" fill="#9FB3C8"/>
<path d="M96.3862 180.786C96.9388 180.783 97.3897 181.227 97.3934 181.778C97.3971 182.33 96.9521 182.78 96.3995 182.784C95.8469 182.788 95.3959 182.343 95.3922 181.792C95.3886 181.24 95.8336 180.79 96.3862 180.786Z" fill="#9FB3C8"/>
<path d="M88.3816 180.84C88.9342 180.836 89.3851 181.28 89.3888 181.832C89.3925 182.383 88.9475 182.833 88.3949 182.837C87.8423 182.841 87.3913 182.397 87.3877 181.845C87.384 181.293 87.829 180.843 88.3816 180.84Z" fill="#9FB3C8"/>
<path d="M80.377 180.893C80.9296 180.889 81.3806 181.333 81.3842 181.885C81.3879 182.437 80.9429 182.887 80.3903 182.89C79.8377 182.894 79.3868 182.45 79.3831 181.898C79.3794 181.347 79.8244 180.897 80.377 180.893Z" fill="#9FB3C8"/>
<path d="M72.3725 180.946C72.9251 180.942 73.376 181.387 73.3797 181.938C73.3833 182.49 72.9383 182.94 72.3857 182.944C71.8331 182.947 71.3822 182.503 71.3785 181.951C71.3749 181.4 71.8199 180.95 72.3725 180.946Z" fill="#9FB3C8"/>
<path d="M144.36 172.477C144.913 172.474 145.364 172.918 145.368 173.469C145.371 174.021 144.926 174.471 144.374 174.475C143.821 174.478 143.37 174.034 143.367 173.483C143.363 172.931 143.808 172.481 144.36 172.477Z" fill="#9FB3C8"/>
<path d="M136.356 172.531C136.909 172.527 137.359 172.971 137.363 173.523C137.367 174.074 136.922 174.524 136.369 174.528C135.817 174.532 135.366 174.088 135.362 173.536C135.358 172.984 135.803 172.534 136.356 172.531Z" fill="#9FB3C8"/>
<path d="M128.351 172.584C128.904 172.58 129.355 173.024 129.359 173.576C129.362 174.127 128.917 174.578 128.365 174.581C127.812 174.585 127.361 174.141 127.357 173.589C127.354 173.038 127.799 172.587 128.351 172.584Z" fill="#9FB3C8"/>
<path d="M120.347 172.637C120.899 172.633 121.35 173.077 121.354 173.629C121.358 174.181 120.913 174.631 120.36 174.634C119.807 174.638 119.357 174.194 119.353 173.642C119.349 173.091 119.794 172.641 120.347 172.637Z" fill="#9FB3C8"/>
<path d="M112.342 172.69C112.895 172.687 113.346 173.131 113.349 173.682C113.353 174.234 112.908 174.684 112.355 174.688C111.803 174.691 111.352 174.247 111.348 173.696C111.345 173.144 111.79 172.694 112.342 172.69Z" fill="#9FB3C8"/>
<path d="M104.338 172.743C104.89 172.74 105.341 173.184 105.345 173.736C105.349 174.287 104.904 174.737 104.351 174.741C103.798 174.745 103.347 174.3 103.344 173.749C103.34 173.197 103.785 172.747 104.338 172.743Z" fill="#9FB3C8"/>
<path d="M96.3331 172.797C96.8857 172.793 97.3366 173.237 97.3403 173.789C97.3439 174.34 96.8989 174.79 96.3463 174.794C95.7937 174.798 95.3428 174.354 95.3391 173.802C95.3355 173.25 95.7805 172.8 96.3331 172.797Z" fill="#9FB3C8"/>
<path d="M88.3285 172.85C88.8811 172.846 89.332 173.29 89.3357 173.842C89.3394 174.394 88.8944 174.844 88.3418 174.847C87.7892 174.851 87.3382 174.407 87.3346 173.855C87.3309 173.304 87.7759 172.854 88.3285 172.85Z" fill="#9FB3C8"/>
<path d="M80.3239 172.903C80.8765 172.899 81.3275 173.344 81.3311 173.895C81.3348 174.447 80.8898 174.897 80.3372 174.901C79.7846 174.904 79.3336 174.46 79.33 173.908C79.3263 173.357 79.7713 172.907 80.3239 172.903Z" fill="#9FB3C8"/>
<path d="M72.3193 172.956C72.8719 172.953 73.3229 173.397 73.3265 173.948C73.3302 174.5 72.8852 174.95 72.3326 174.954C71.78 174.957 71.3291 174.513 71.3254 173.962C71.3217 173.41 71.7667 172.96 72.3193 172.956Z" fill="#9FB3C8"/>
<path d="M144.52 196.447C145.072 196.443 145.523 196.887 145.527 197.439C145.531 197.99 145.086 198.44 144.533 198.444C143.981 198.448 143.53 198.004 143.526 197.452C143.522 196.9 143.967 196.45 144.52 196.447Z" fill="#9FB3C8"/>
<path d="M136.515 196.5C137.068 196.496 137.519 196.94 137.523 197.492C137.526 198.043 137.081 198.494 136.529 198.497C135.976 198.501 135.525 198.057 135.521 197.505C135.518 196.954 135.963 196.503 136.515 196.5Z" fill="#9FB3C8"/>
<path d="M128.511 196.553C129.063 196.549 129.514 196.994 129.518 197.545C129.522 198.097 129.077 198.547 128.524 198.55C127.971 198.554 127.52 198.11 127.517 197.558C127.513 197.007 127.958 196.557 128.511 196.553Z" fill="#9FB3C8"/>
<path d="M120.506 196.606C121.059 196.603 121.51 197.047 121.513 197.598C121.517 198.15 121.072 198.6 120.519 198.604C119.967 198.607 119.516 198.163 119.512 197.612C119.509 197.06 119.954 196.61 120.506 196.606Z" fill="#9FB3C8"/>
<path d="M112.502 196.659C113.054 196.656 113.505 197.1 113.509 197.652C113.512 198.203 113.067 198.653 112.515 198.657C111.962 198.661 111.511 198.216 111.508 197.665C111.504 197.113 111.949 196.663 112.502 196.659Z" fill="#9FB3C8"/>
<path d="M104.497 196.713C105.05 196.709 105.501 197.153 105.504 197.705C105.508 198.256 105.063 198.706 104.51 198.71C103.958 198.714 103.507 198.27 103.503 197.718C103.499 197.166 103.944 196.716 104.497 196.713Z" fill="#9FB3C8"/>
<path d="M96.4924 196.766C97.045 196.762 97.496 197.206 97.4996 197.758C97.5033 198.31 97.0583 198.76 96.5057 198.763C95.9531 198.767 95.5022 198.323 95.4985 197.771C95.4948 197.22 95.9398 196.77 96.4924 196.766Z" fill="#9FB3C8"/>
<path d="M88.4879 196.819C89.0405 196.815 89.4914 197.26 89.4951 197.811C89.4987 198.363 89.0537 198.813 88.5011 198.817C87.9485 198.82 87.4976 198.376 87.4939 197.825C87.4903 197.273 87.9352 196.823 88.4879 196.819Z" fill="#9FB3C8"/>
<path d="M80.4833 196.872C81.0359 196.869 81.4868 197.313 81.4905 197.864C81.4942 198.416 81.0492 198.866 80.4966 198.87C79.944 198.873 79.493 198.429 79.4893 197.878C79.4857 197.326 79.9307 196.876 80.4833 196.872Z" fill="#9FB3C8"/>
<path d="M72.4787 196.926C73.0313 196.922 73.4822 197.366 73.4859 197.918C73.4896 198.469 73.0446 198.919 72.492 198.923C71.9394 198.927 71.4884 198.483 71.4848 197.931C71.4811 197.379 71.9261 196.929 72.4787 196.926Z" fill="#9FB3C8"/>
<path d="M144.467 188.457C145.019 188.453 145.47 188.897 145.474 189.449C145.478 190 145.033 190.451 144.48 190.454C143.927 190.458 143.476 190.014 143.473 189.462C143.469 188.911 143.914 188.461 144.467 188.457Z" fill="#9FB3C8"/>
<path d="M136.462 188.51C137.015 188.506 137.466 188.951 137.469 189.502C137.473 190.054 137.028 190.504 136.475 190.508C135.923 190.511 135.472 190.067 135.468 189.515C135.465 188.964 135.91 188.514 136.462 188.51Z" fill="#9FB3C8"/>
<path d="M128.458 188.563C129.01 188.56 129.461 189.004 129.465 189.555C129.468 190.107 129.023 190.557 128.471 190.561C127.918 190.564 127.467 190.12 127.464 189.569C127.46 189.017 127.905 188.567 128.458 188.563Z" fill="#9FB3C8"/>
<path d="M120.453 188.617C121.006 188.613 121.457 189.057 121.46 189.609C121.464 190.16 121.019 190.61 120.466 190.614C119.914 190.618 119.463 190.173 119.459 189.622C119.455 189.07 119.9 188.62 120.453 188.617Z" fill="#9FB3C8"/>
<path d="M112.448 188.67C113.001 188.666 113.452 189.11 113.456 189.662C113.459 190.213 113.014 190.663 112.462 190.667C111.909 190.671 111.458 190.227 111.455 189.675C111.451 189.124 111.896 188.673 112.448 188.67Z" fill="#9FB3C8"/>
<path d="M104.444 188.723C104.996 188.719 105.447 189.163 105.451 189.715C105.455 190.267 105.01 190.717 104.457 190.72C103.905 190.724 103.454 190.28 103.45 189.728C103.446 189.177 103.891 188.727 104.444 188.723Z" fill="#9FB3C8"/>
<path d="M96.4393 188.776C96.9919 188.772 97.4428 189.217 97.4465 189.768C97.4502 190.32 97.0052 190.77 96.4526 190.774C95.9 190.777 95.449 190.333 95.4454 189.782C95.4417 189.23 95.8867 188.78 96.4393 188.776Z" fill="#9FB3C8"/>
<path d="M88.4347 188.829C88.9873 188.826 89.4383 189.27 89.4419 189.821C89.4456 190.373 89.0006 190.823 88.448 190.827C87.8954 190.831 87.4445 190.386 87.4408 189.835C87.4371 189.283 87.8821 188.833 88.4347 188.829Z" fill="#9FB3C8"/>
<path d="M80.4302 188.883C80.9828 188.879 81.4337 189.323 81.4374 189.875C81.441 190.426 80.996 190.876 80.4434 190.88C79.8908 190.884 79.4399 190.44 79.4362 189.888C79.4326 189.336 79.8776 188.886 80.4302 188.883Z" fill="#9FB3C8"/>
<path d="M72.4256 188.936C72.9782 188.932 73.4291 189.376 73.4328 189.928C73.4365 190.479 72.9915 190.93 72.4389 190.933C71.8863 190.937 71.4353 190.493 71.4316 189.941C71.428 189.39 71.873 188.94 72.4256 188.936Z" fill="#9FB3C8"/>
<path d="M144.626 212.426C145.179 212.422 145.63 212.867 145.633 213.418C145.637 213.97 145.192 214.42 144.639 214.424C144.087 214.427 143.636 213.983 143.632 213.431C143.629 212.88 144.074 212.43 144.626 212.426Z" fill="#9FB3C8"/>
<path d="M136.622 212.479C137.174 212.476 137.625 212.92 137.629 213.471C137.632 214.023 137.187 214.473 136.635 214.477C136.082 214.48 135.631 214.036 135.628 213.485C135.624 212.933 136.069 212.483 136.622 212.479Z" fill="#9FB3C8"/>
<path d="M128.617 212.533C129.17 212.529 129.621 212.973 129.624 213.525C129.628 214.076 129.183 214.526 128.63 214.53C128.078 214.534 127.627 214.089 127.623 213.538C127.619 212.986 128.064 212.536 128.617 212.533Z" fill="#9FB3C8"/>
<path d="M120.612 212.586C121.165 212.582 121.616 213.026 121.62 213.578C121.623 214.129 121.178 214.58 120.626 214.583C120.073 214.587 119.622 214.143 119.618 213.591C119.615 213.04 120.06 212.589 120.612 212.586Z" fill="#9FB3C8"/>
<path d="M112.608 212.639C113.16 212.635 113.611 213.079 113.615 213.631C113.619 214.183 113.174 214.633 112.621 214.636C112.068 214.64 111.618 214.196 111.614 213.644C111.61 213.093 112.055 212.643 112.608 212.639Z" fill="#9FB3C8"/>
<path d="M104.603 212.692C105.156 212.689 105.607 213.133 105.61 213.684C105.614 214.236 105.169 214.686 104.617 214.69C104.064 214.693 103.613 214.249 103.609 213.698C103.606 213.146 104.051 212.696 104.603 212.692Z" fill="#9FB3C8"/>
<path d="M96.5987 212.745C97.1513 212.742 97.6022 213.186 97.6059 213.737C97.6095 214.289 97.1645 214.739 96.6119 214.743C96.0593 214.747 95.6084 214.302 95.6047 213.751C95.6011 213.199 96.0461 212.749 96.5987 212.745Z" fill="#9FB3C8"/>
<path d="M88.5941 212.799C89.1467 212.795 89.5976 213.239 89.6013 213.791C89.605 214.342 89.16 214.792 88.6074 214.796C88.0548 214.8 87.6038 214.356 87.6002 213.804C87.5965 213.252 88.0415 212.802 88.5941 212.799Z" fill="#9FB3C8"/>
<path d="M80.5895 212.852C81.1421 212.848 81.5931 213.292 81.5967 213.844C81.6004 214.396 81.1554 214.846 80.6028 214.849C80.0502 214.853 79.5993 214.409 79.5956 213.857C79.5919 213.306 80.0369 212.856 80.5895 212.852Z" fill="#9FB3C8"/>
<path d="M72.5849 212.905C73.1375 212.901 73.5885 213.346 73.5922 213.897C73.5958 214.449 73.1508 214.899 72.5982 214.903C72.0456 214.906 71.5947 214.462 71.591 213.91C71.5873 213.359 72.0323 212.909 72.5849 212.905Z" fill="#9FB3C8"/>
<path d="M144.573 204.436C145.126 204.433 145.577 204.877 145.58 205.428C145.584 205.98 145.139 206.43 144.586 206.434C144.034 206.437 143.583 205.993 143.579 205.442C143.575 204.89 144.02 204.44 144.573 204.436Z" fill="#9FB3C8"/>
<path d="M136.568 204.49C137.121 204.486 137.572 204.93 137.576 205.482C137.579 206.033 137.134 206.483 136.582 206.487C136.029 206.491 135.578 206.047 135.574 205.495C135.571 204.943 136.016 204.493 136.568 204.49Z" fill="#9FB3C8"/>
<path d="M128.564 204.543C129.116 204.539 129.567 204.983 129.571 205.535C129.575 206.086 129.13 206.537 128.577 206.54C128.025 206.544 127.574 206.1 127.57 205.548C127.566 204.997 128.011 204.546 128.564 204.543Z" fill="#9FB3C8"/>
<path d="M120.559 204.596C121.112 204.592 121.563 205.037 121.566 205.588C121.57 206.14 121.125 206.59 120.573 206.593C120.02 206.597 119.569 206.153 119.565 205.601C119.562 205.05 120.007 204.6 120.559 204.596Z" fill="#9FB3C8"/>
<path d="M112.555 204.649C113.107 204.646 113.558 205.09 113.562 205.641C113.566 206.193 113.121 206.643 112.568 206.647C112.015 206.65 111.564 206.206 111.561 205.655C111.557 205.103 112.002 204.653 112.555 204.649Z" fill="#9FB3C8"/>
<path d="M104.55 204.702C105.103 204.699 105.554 205.143 105.557 205.695C105.561 206.246 105.116 206.696 104.563 206.7C104.011 206.704 103.56 206.259 103.556 205.708C103.553 205.156 103.998 204.706 104.55 204.702Z" fill="#9FB3C8"/>
<path d="M96.5455 204.756C97.0981 204.752 97.5491 205.196 97.5528 205.748C97.5564 206.299 97.1114 206.749 96.5588 206.753C96.0062 206.757 95.5553 206.313 95.5516 205.761C95.5479 205.209 95.9929 204.759 96.5455 204.756Z" fill="#9FB3C8"/>
<path d="M88.541 204.809C89.0936 204.805 89.5445 205.249 89.5482 205.801C89.5519 206.353 89.1069 206.803 88.5543 206.806C88.0017 206.81 87.5507 206.366 87.547 205.814C87.5434 205.263 87.9884 204.813 88.541 204.809Z" fill="#9FB3C8"/>
<path d="M80.5364 204.862C81.089 204.858 81.5399 205.303 81.5436 205.854C81.5473 206.406 81.1023 206.856 80.5497 206.86C79.9971 206.863 79.5461 206.419 79.5425 205.867C79.5388 205.316 79.9838 204.866 80.5364 204.862Z" fill="#9FB3C8"/>
<path d="M72.5318 204.915C73.0844 204.912 73.5354 205.356 73.539 205.907C73.5427 206.459 73.0977 206.909 72.5451 206.913C71.9925 206.916 71.5416 206.472 71.5379 205.921C71.5342 205.369 71.9792 204.919 72.5318 204.915Z" fill="#9FB3C8"/>
</g>
<path d="M56.9122 96.9475C56.4747 100.33 58.4572 119.317 58.4572 119.947C58.4546 119.965 58.4484 119.982 58.4389 119.997C58.4295 120.012 58.4169 120.025 58.4022 120.035C59.0274 121.269 59.3464 122.635 59.3322 124.018C59.3377 125.102 59.1454 126.179 58.7647 127.195L66.7147 126.6L64.3247 94.625L57.2647 95.1525C57.0847 95.935 56.9622 96.5525 56.9122 96.9475Z" fill="#D9E2EC"/>
<path d="M49.7801 124.018C49.7635 122.577 50.1118 121.155 50.7926 119.885C50.7176 118.635 48.4801 111.152 47.6401 98.0125C47.5951 97.3075 47.5634 96.5958 47.5451 95.8775L40.1826 96.43L42.5726 128.405L50.6126 127.805C50.0537 126.621 49.7691 125.327 49.7801 124.018Z" fill="#D9E2EC"/>
<path d="M76 1.5C70.8375 1.5 63.97 4 59 4C54.5125 4 46.315 0.75 42 0.75C39.25 0.75 26.25 2.03 26.25 12.5C26.25 17.225 31.25 21.75 32.25 23C33.25 24.25 35.0825 31.25 39.75 31.25C46.27 31.25 50.7725 26.5 56.75 26.5C60.8675 26.5 61.94 27.5 64 27.5C65.5 27.5 67.75 26.795 67.75 26.75C67.75 25.985 67.5975 19.5 68.5 18.4475C69.75 16.9475 85.6625 19.18 85.6625 13.8925C86.775 14.8925 87.835 19.1425 87.835 20.01C88.555 19.25 91.25 16 91.25 12.5C91.25 9.335 89 1.5 76 1.5Z" fill="#243B53"/>
<path d="M58.4574 119.948C58.4548 119.965 58.4486 119.982 58.4392 119.997C58.4297 120.012 58.4172 120.025 58.4024 120.035C59.0277 121.269 59.3467 122.635 59.3324 124.018C59.3324 126.518 58.3624 128.69 56.9249 129.848L69.2274 128.928L66.8374 96.9525L56.8599 97.7025C56.6999 102.5 58.4574 119.355 58.4574 119.948Z" fill="#F4F5FA"/>
<path d="M49.7803 124.018C49.7637 122.577 50.112 121.155 50.7928 119.885C50.7178 118.635 48.5228 111.293 47.6653 98.385L42.6953 98.75L45.0853 130.725L52.6378 130.16C50.9553 129.128 49.7803 126.765 49.7803 124.018Z" fill="#F4F5FA"/>
<path d="M17.9974 75.3575C27.4276 75.3575 35.0724 67.7128 35.0724 58.2825C35.0724 48.8523 27.4276 41.2075 17.9974 41.2075C8.5671 41.2075 0.922363 48.8523 0.922363 58.2825C0.922363 67.7128 8.5671 75.3575 17.9974 75.3575Z" fill="#D9E2EC"/>
<path d="M42.2848 45.87L21.7373 50.0125L26.7773 59.9749L42.2848 45.87Z" fill="#D9E2EC"/>
<path d="M109.822 19.865L130.025 25.4475V14.2825L109.822 19.865Z" fill="#D9E2EC"/>
<path d="M16.7216 60.9091H18.4261C18.4261 59.0909 18.8736 58.2955 20.1591 57.5142C21.4091 56.7543 22.1477 55.6605 22.1477 54.0909C22.1477 51.875 20.5284 50.2557 18.0284 50.2557C15.7273 50.2557 13.902 51.6761 13.7955 54.0909H15.5852C15.6918 52.4148 16.8636 51.733 18.0284 51.733C19.3636 51.733 20.4432 52.6136 20.4432 54.0057C20.4432 55.1349 19.7969 55.9446 18.9659 56.4489C17.5597 57.3011 16.7216 58.1392 16.7216 60.9091ZM17.6307 65.1136C18.3338 65.1136 18.9091 64.5384 18.9091 63.8352C18.9091 63.1321 18.3338 62.5568 17.6307 62.5568C16.9276 62.5568 16.3523 63.1321 16.3523 63.8352C16.3523 64.5384 16.9276 65.1136 17.6307 65.1136Z" fill="#243B53"/>
<path d="M156.505 5.35748H117.518V32.5075H156.505V5.35748Z" fill="#D9E2EC"/>
<path d="M128.2 20.805C129.236 20.805 130.075 19.9655 130.075 18.93C130.075 17.8945 129.236 17.055 128.2 17.055C127.165 17.055 126.325 17.8945 126.325 18.93C126.325 19.9655 127.165 20.805 128.2 20.805Z" fill="white"/>
<path d="M137.01 20.805C138.045 20.805 138.885 19.9655 138.885 18.93C138.885 17.8945 138.045 17.055 137.01 17.055C135.974 17.055 135.135 17.8945 135.135 18.93C135.135 19.9655 135.974 20.805 137.01 20.805Z" fill="white"/>
<path d="M145.822 20.805C146.858 20.805 147.697 19.9655 147.697 18.93C147.697 17.8945 146.858 17.055 145.822 17.055C144.787 17.055 143.947 17.8945 143.947 18.93C143.947 19.9655 144.787 20.805 145.822 20.805Z" fill="white"/>
<path d="M106.372 62C108.857 63.915 113.062 67.635 115.122 70.3225C117.18 68.7975 140.58 49.3625 141.037 48.295C141.95 47.7625 143.932 50.735 141.037 53.1725C143.017 53.0975 154.68 52.7925 154.68 53.1725C154.68 53.5525 157.195 54.6225 140.045 57.365C137.76 60.115 117.18 84.345 113.827 84.345C111.537 84.345 104.452 78.1675 100.002 73.495" stroke="#243B53" stroke-width="0.75" stroke-linecap="round" stroke-linejoin="round"/>
<path d="M99.1723 69.02C102.575 66.88 106.195 63.1425 107.28 60.2175C107.922 58.4825 97.3323 50.4675 90.7798 49.325" stroke="#243B53" stroke-width="0.75" stroke-linecap="round" stroke-linejoin="round"/>
<path d="M57.3301 105.282C63.1051 109.752 96.2876 119.283 99.1001 116.38C101.913 113.478 106.948 51.0375 82.3001 43.515" fill="white"/>
<path d="M57.3301 105.282C63.1051 109.752 96.2876 119.282 99.1001 116.38C101.913 113.477 106.948 51.0375 82.3001 43.515" stroke="#243B53" stroke-width="0.75" stroke-linecap="round" stroke-linejoin="round"/>
<path d="M73.2924 43.1325C68.3149 44.0825 64.5624 46.8825 61.7549 50.79" stroke="#243B53" stroke-width="0.75" stroke-linecap="round" stroke-linejoin="round"/>
<path d="M77.7949 49.39C80.0449 49.39 82.2949 48.965 82.2949 48.14V37.915" stroke="#243B53" stroke-width="0.75" stroke-linecap="round" stroke-linejoin="round"/>
<path d="M73.2925 38.0625V43.1325" stroke="#243B53" stroke-width="0.75" stroke-linecap="round" stroke-linejoin="round"/>
<path d="M77.7076 39.7325C83.3699 39.7325 87.9601 32.0374 87.9601 22.545C87.9601 13.0526 83.3699 5.35748 77.7076 5.35748C72.0453 5.35748 67.4551 13.0526 67.4551 22.545C67.4551 32.0374 72.0453 39.7325 77.7076 39.7325Z" stroke="#243B53" stroke-width="0.75" stroke-miterlimit="10"/>
<path d="M50.8899 69.71C49.5699 74.6375 46.9399 87.08 47.6399 98.0125C48.4799 111.153 50.7174 118.63 50.7924 119.885C50.1116 121.155 49.7632 122.577 49.7799 124.018C49.7799 127.725 51.9174 130.733 54.5549 130.733C57.1924 130.733 59.3324 127.733 59.3324 124.018C59.3467 122.635 59.0277 121.269 58.4024 120.035C58.4172 120.025 58.4297 120.012 58.4392 119.997C58.4486 119.982 58.4549 119.965 58.4574 119.948C58.4574 119.318 56.4749 100.33 56.9124 96.9475C57.2824 94.0675 61.4949 79.47 62.6324 73.725" stroke="#243B53" stroke-width="0.75" stroke-linecap="round" stroke-linejoin="round"/>
<path d="M65.4251 54.5375C64.8701 52.715 64.0101 51.385 62.7601 50.985C55.9376 48.8 47.8551 64.3875 48.6226 67.0725C49.3476 69.61 54.8001 72.295 59.5101 73.195" stroke="#243B53" stroke-width="0.75" stroke-linecap="round" stroke-linejoin="round"/>
<path d="M63.0427 99.635C63.0724 100.042 62.9396 100.444 62.6735 100.753C62.4073 101.062 62.0295 101.254 61.6227 101.285C61.2162 101.314 60.8148 101.181 60.5061 100.915C60.1974 100.649 60.0066 100.271 59.9752 99.865L59.5952 94.785C59.5662 94.3783 59.6993 93.9765 59.9653 93.6674C60.2313 93.3584 60.6087 93.167 61.0152 93.135V93.135C61.4216 93.1067 61.8226 93.2401 62.1312 93.506C62.4397 93.7719 62.6308 94.1489 62.6627 94.555L62.8652 97.2475" stroke="#243B53" stroke-width="0.75" stroke-linecap="round" stroke-linejoin="round"/>
<path d="M65.3852 216.133V225.638L52.2002 232.585L59.8702 224.123V215.638" stroke="#243B53" stroke-width="0.75" stroke-linecap="round" stroke-linejoin="round"/>
<path d="M99.8574 215.348V225.638H118.007L105.907 219.72V214.838" stroke="#243B53" stroke-width="0.75" stroke-linecap="round" stroke-linejoin="round"/>
<path d="M58.3012 106C58.1737 106 58.0937 109.965 58.0512 116.387C58.2437 118.452 58.3787 119.87 58.3787 120.035C58.3761 120.053 58.3699 120.069 58.3604 120.085C58.351 120.1 58.3384 120.113 58.3237 120.122C58.9489 121.356 59.2679 122.722 59.2537 124.105C59.2774 125.701 58.8436 127.27 58.0037 128.627C57.9612 160.877 58.3012 216.22 58.3012 216.22H65.9862L87.4187 115.635C79.1237 114.047 65.5087 109.035 58.3012 106Z" fill="#5670ED"/>
<path d="M99.0996 116.38C99.2671 119.678 107.062 215.348 107.062 215.348H99.0996L78.4346 143.5C78.4346 143.5 83.8171 114.75 84.1846 114.818C85.9396 115.28 95.6796 117 99.0996 116.38Z" fill="#5670ED"/>
</svg>
