<svg width="318" height="340" viewBox="0 0 318 340" fill="none" xmlns="http://www.w3.org/2000/svg">
<g opacity="0.5">
<path d="M2.06493 298.378C0.924492 298.378 -7.40679e-06 297.448 -7.35663e-06 296.3C-7.30647e-06 295.152 0.924492 294.222 2.06493 294.222C3.20535 294.222 4.12984 295.152 4.12984 296.3C4.12984 297.448 3.20535 298.378 2.06493 298.378Z" fill="#C4C4C4"/>
<path d="M18.5844 298.378C17.444 298.378 16.5195 297.448 16.5195 296.3C16.5195 295.152 17.444 294.222 18.5844 294.222C19.7248 294.222 20.6493 295.152 20.6493 296.3C20.6493 297.448 19.7248 298.378 18.5844 298.378Z" fill="#C4C4C4"/>
<path d="M35.1039 298.378C33.9635 298.378 33.0389 297.448 33.0389 296.3C33.0389 295.152 33.9635 294.222 35.1039 294.222C36.2443 294.222 37.1688 295.152 37.1688 296.3C37.1688 297.448 36.2443 298.378 35.1039 298.378Z" fill="#C4C4C4"/>
<path d="M51.6234 298.378C50.4829 298.378 49.5584 297.448 49.5584 296.3C49.5584 295.152 50.4829 294.222 51.6234 294.222C52.7638 294.222 53.6883 295.152 53.6883 296.3C53.6883 297.448 52.7638 298.378 51.6234 298.378Z" fill="#C4C4C4"/>
<path d="M68.1428 298.378C67.0024 298.378 66.0779 297.448 66.0779 296.3C66.0779 295.152 67.0024 294.222 68.1428 294.222C69.2833 294.222 70.2078 295.152 70.2078 296.3C70.2078 297.448 69.2833 298.378 68.1428 298.378Z" fill="#C4C4C4"/>
<path d="M84.6623 298.378C83.5219 298.378 82.5974 297.448 82.5974 296.3C82.5974 295.152 83.5219 294.222 84.6623 294.222C85.8028 294.222 86.7273 295.152 86.7273 296.3C86.7273 297.448 85.8028 298.378 84.6623 298.378Z" fill="#C4C4C4"/>
<path d="M101.182 298.378C100.041 298.378 99.1169 297.448 99.1169 296.3C99.1169 295.152 100.041 294.222 101.182 294.222C102.322 294.222 103.247 295.152 103.247 296.3C103.247 297.448 102.322 298.378 101.182 298.378Z" fill="#C4C4C4"/>
<path d="M117.701 298.378C116.561 298.378 115.636 297.448 115.636 296.3C115.636 295.152 116.561 294.222 117.701 294.222C118.842 294.222 119.766 295.152 119.766 296.3C119.766 297.448 118.842 298.378 117.701 298.378Z" fill="#C4C4C4"/>
<path d="M134.221 298.378C133.08 298.378 132.156 297.448 132.156 296.3C132.156 295.152 133.08 294.222 134.221 294.222C135.361 294.222 136.286 295.152 136.286 296.3C136.286 297.448 135.361 298.378 134.221 298.378Z" fill="#C4C4C4"/>
<path d="M150.74 298.378C149.6 298.378 148.675 297.448 148.675 296.3C148.675 295.152 149.6 294.222 150.74 294.222C151.881 294.222 152.805 295.152 152.805 296.3C152.805 297.448 151.881 298.378 150.74 298.378Z" fill="#C4C4C4"/>
<path d="M2.06493 315C0.924491 315 -8.13337e-06 314.07 -8.08321e-06 312.922C-8.03305e-06 311.775 0.924492 310.844 2.06493 310.844C3.20534 310.844 4.12984 311.775 4.12984 312.922C4.12984 314.07 3.20534 315 2.06493 315Z" fill="#C4C4C4"/>
<path d="M18.5844 315C17.444 315 16.5195 314.07 16.5195 312.922C16.5195 311.775 17.444 310.844 18.5844 310.844C19.7248 310.844 20.6493 311.775 20.6493 312.922C20.6493 314.07 19.7248 315 18.5844 315Z" fill="#C4C4C4"/>
<path d="M35.1039 315C33.9635 315 33.0389 314.07 33.0389 312.922C33.0389 311.775 33.9635 310.844 35.1039 310.844C36.2443 310.844 37.1688 311.775 37.1688 312.922C37.1688 314.07 36.2443 315 35.1039 315Z" fill="#C4C4C4"/>
<path d="M51.6234 315C50.4829 315 49.5584 314.07 49.5584 312.922C49.5584 311.775 50.4829 310.844 51.6234 310.844C52.7638 310.844 53.6883 311.775 53.6883 312.922C53.6883 314.07 52.7638 315 51.6234 315Z" fill="#C4C4C4"/>
<path d="M68.1428 315C67.0024 315 66.0779 314.07 66.0779 312.922C66.0779 311.775 67.0024 310.844 68.1428 310.844C69.2833 310.844 70.2078 311.775 70.2078 312.922C70.2078 314.07 69.2833 315 68.1428 315Z" fill="#C4C4C4"/>
<path d="M84.6623 315C83.5219 315 82.5974 314.07 82.5974 312.922C82.5974 311.775 83.5219 310.844 84.6623 310.844C85.8028 310.844 86.7273 311.775 86.7273 312.922C86.7273 314.07 85.8028 315 84.6623 315Z" fill="#C4C4C4"/>
<path d="M101.182 315C100.041 315 99.1169 314.07 99.1169 312.922C99.1169 311.775 100.041 310.844 101.182 310.844C102.322 310.844 103.247 311.775 103.247 312.922C103.247 314.07 102.322 315 101.182 315Z" fill="#C4C4C4"/>
<path d="M117.701 315C116.561 315 115.636 314.07 115.636 312.922C115.636 311.775 116.561 310.844 117.701 310.844C118.842 310.844 119.766 311.775 119.766 312.922C119.766 314.07 118.842 315 117.701 315Z" fill="#C4C4C4"/>
<path d="M134.221 315C133.08 315 132.156 314.07 132.156 312.922C132.156 311.775 133.08 310.844 134.221 310.844C135.361 310.844 136.286 311.775 136.286 312.922C136.286 314.07 135.361 315 134.221 315Z" fill="#C4C4C4"/>
<path d="M150.74 315C149.6 315 148.675 314.07 148.675 312.922C148.675 311.775 149.6 310.844 150.74 310.844C151.881 310.844 152.805 311.775 152.805 312.922C152.805 314.07 151.881 315 150.74 315Z" fill="#C4C4C4"/>
<path d="M2.06494 265.133C0.924494 265.133 -5.95363e-06 264.203 -5.90347e-06 263.056C-5.85331e-06 261.908 0.924494 260.978 2.06494 260.978C3.20535 260.978 4.12985 261.908 4.12985 263.056C4.12985 264.203 3.20535 265.133 2.06494 265.133Z" fill="#C4C4C4"/>
<path d="M18.5844 265.133C17.444 265.133 16.5195 264.203 16.5195 263.056C16.5195 261.908 17.444 260.978 18.5844 260.978C19.7248 260.978 20.6493 261.908 20.6493 263.056C20.6493 264.203 19.7248 265.133 18.5844 265.133Z" fill="#C4C4C4"/>
<path d="M35.1039 265.133C33.9635 265.133 33.0389 264.203 33.0389 263.056C33.0389 261.908 33.9635 260.978 35.1039 260.978C36.2443 260.978 37.1688 261.908 37.1688 263.056C37.1688 264.203 36.2443 265.133 35.1039 265.133Z" fill="#C4C4C4"/>
<path d="M51.6234 265.133C50.4829 265.133 49.5584 264.203 49.5584 263.056C49.5584 261.908 50.4829 260.978 51.6234 260.978C52.7638 260.978 53.6883 261.908 53.6883 263.056C53.6883 264.203 52.7638 265.133 51.6234 265.133Z" fill="#C4C4C4"/>
<path d="M68.1428 265.133C67.0024 265.133 66.0779 264.203 66.0779 263.056C66.0779 261.908 67.0024 260.978 68.1428 260.978C69.2833 260.978 70.2078 261.908 70.2078 263.056C70.2078 264.203 69.2833 265.133 68.1428 265.133Z" fill="#C4C4C4"/>
<path d="M84.6623 265.133C83.5219 265.133 82.5974 264.203 82.5974 263.056C82.5974 261.908 83.5219 260.978 84.6623 260.978C85.8028 260.978 86.7273 261.908 86.7273 263.056C86.7273 264.203 85.8028 265.133 84.6623 265.133Z" fill="#C4C4C4"/>
<path d="M101.182 265.133C100.041 265.133 99.1169 264.203 99.1169 263.056C99.1169 261.908 100.041 260.978 101.182 260.978C102.322 260.978 103.247 261.908 103.247 263.056C103.247 264.203 102.322 265.133 101.182 265.133Z" fill="#C4C4C4"/>
<path d="M117.701 265.133C116.561 265.133 115.636 264.203 115.636 263.056C115.636 261.908 116.561 260.978 117.701 260.978C118.842 260.978 119.766 261.908 119.766 263.056C119.766 264.203 118.842 265.133 117.701 265.133Z" fill="#C4C4C4"/>
<path d="M134.221 265.133C133.08 265.133 132.156 264.203 132.156 263.056C132.156 261.908 133.08 260.978 134.221 260.978C135.361 260.978 136.286 261.908 136.286 263.056C136.286 264.203 135.361 265.133 134.221 265.133Z" fill="#C4C4C4"/>
<path d="M150.74 265.133C149.6 265.133 148.675 264.203 148.675 263.056C148.675 261.908 149.6 260.978 150.74 260.978C151.881 260.978 152.805 261.908 152.805 263.056C152.805 264.203 151.881 265.133 150.74 265.133Z" fill="#C4C4C4"/>
<path d="M2.06493 281.756C0.924493 281.756 -6.68021e-06 280.825 -6.63005e-06 279.678C-6.57989e-06 278.53 0.924493 277.6 2.06493 277.6C3.20535 277.6 4.12985 278.53 4.12985 279.678C4.12985 280.825 3.20535 281.756 2.06493 281.756Z" fill="#C4C4C4"/>
<path d="M18.5844 281.756C17.444 281.756 16.5195 280.825 16.5195 279.678C16.5195 278.53 17.444 277.6 18.5844 277.6C19.7248 277.6 20.6493 278.53 20.6493 279.678C20.6493 280.825 19.7248 281.756 18.5844 281.756Z" fill="#C4C4C4"/>
<path d="M35.1039 281.756C33.9635 281.756 33.0389 280.825 33.0389 279.678C33.0389 278.53 33.9635 277.6 35.1039 277.6C36.2443 277.6 37.1688 278.53 37.1688 279.678C37.1688 280.825 36.2443 281.756 35.1039 281.756Z" fill="#C4C4C4"/>
<path d="M51.6234 281.756C50.4829 281.756 49.5584 280.825 49.5584 279.678C49.5584 278.53 50.4829 277.6 51.6234 277.6C52.7638 277.6 53.6883 278.53 53.6883 279.678C53.6883 280.825 52.7638 281.756 51.6234 281.756Z" fill="#C4C4C4"/>
<path d="M68.1428 281.756C67.0024 281.756 66.0779 280.825 66.0779 279.678C66.0779 278.53 67.0024 277.6 68.1428 277.6C69.2833 277.6 70.2078 278.53 70.2078 279.678C70.2078 280.825 69.2833 281.756 68.1428 281.756Z" fill="#C4C4C4"/>
<path d="M84.6623 281.756C83.5219 281.756 82.5974 280.825 82.5974 279.678C82.5974 278.53 83.5219 277.6 84.6623 277.6C85.8028 277.6 86.7273 278.53 86.7273 279.678C86.7273 280.825 85.8028 281.756 84.6623 281.756Z" fill="#C4C4C4"/>
<path d="M101.182 281.756C100.041 281.756 99.1169 280.825 99.1169 279.678C99.1169 278.53 100.041 277.6 101.182 277.6C102.322 277.6 103.247 278.53 103.247 279.678C103.247 280.825 102.322 281.756 101.182 281.756Z" fill="#C4C4C4"/>
<path d="M117.701 281.756C116.561 281.756 115.636 280.825 115.636 279.678C115.636 278.53 116.561 277.6 117.701 277.6C118.842 277.6 119.766 278.53 119.766 279.678C119.766 280.825 118.842 281.756 117.701 281.756Z" fill="#C4C4C4"/>
<path d="M134.221 281.756C133.08 281.756 132.156 280.825 132.156 279.678C132.156 278.53 133.08 277.6 134.221 277.6C135.361 277.6 136.286 278.53 136.286 279.678C136.286 280.825 135.361 281.756 134.221 281.756Z" fill="#C4C4C4"/>
<path d="M150.74 281.756C149.6 281.756 148.675 280.825 148.675 279.678C148.675 278.53 149.6 277.6 150.74 277.6C151.881 277.6 152.805 278.53 152.805 279.678C152.805 280.825 151.881 281.756 150.74 281.756Z" fill="#C4C4C4"/>
<path d="M2.06494 231.889C0.924495 231.889 -4.50046e-06 230.959 -4.45031e-06 229.811C-4.40014e-06 228.664 0.924495 227.733 2.06494 227.733C3.20535 227.733 4.12985 228.664 4.12985 229.811C4.12985 230.959 3.20535 231.889 2.06494 231.889Z" fill="#C4C4C4"/>
<path d="M18.5844 231.889C17.444 231.889 16.5195 230.959 16.5195 229.811C16.5195 228.664 17.444 227.733 18.5844 227.733C19.7248 227.733 20.6493 228.664 20.6493 229.811C20.6493 230.959 19.7248 231.889 18.5844 231.889Z" fill="#C4C4C4"/>
<path d="M35.1039 231.889C33.9635 231.889 33.0389 230.959 33.0389 229.811C33.0389 228.664 33.9635 227.733 35.1039 227.733C36.2443 227.733 37.1688 228.664 37.1688 229.811C37.1688 230.959 36.2443 231.889 35.1039 231.889Z" fill="#C4C4C4"/>
<path d="M51.6234 231.889C50.4829 231.889 49.5584 230.959 49.5584 229.811C49.5584 228.664 50.4829 227.733 51.6234 227.733C52.7638 227.733 53.6883 228.664 53.6883 229.811C53.6883 230.959 52.7638 231.889 51.6234 231.889Z" fill="#C4C4C4"/>
<path d="M68.1428 231.889C67.0024 231.889 66.0779 230.959 66.0779 229.811C66.0779 228.664 67.0024 227.733 68.1428 227.733C69.2833 227.733 70.2078 228.664 70.2078 229.811C70.2078 230.959 69.2833 231.889 68.1428 231.889Z" fill="#C4C4C4"/>
<path d="M84.6623 231.889C83.5219 231.889 82.5974 230.959 82.5974 229.811C82.5974 228.664 83.5219 227.733 84.6623 227.733C85.8028 227.733 86.7273 228.664 86.7273 229.811C86.7273 230.959 85.8028 231.889 84.6623 231.889Z" fill="#C4C4C4"/>
<path d="M101.182 231.889C100.041 231.889 99.1169 230.959 99.1169 229.811C99.1169 228.664 100.041 227.733 101.182 227.733C102.322 227.733 103.247 228.664 103.247 229.811C103.247 230.959 102.322 231.889 101.182 231.889Z" fill="#C4C4C4"/>
<path d="M117.701 231.889C116.561 231.889 115.636 230.959 115.636 229.811C115.636 228.664 116.561 227.733 117.701 227.733C118.842 227.733 119.766 228.664 119.766 229.811C119.766 230.959 118.842 231.889 117.701 231.889Z" fill="#C4C4C4"/>
<path d="M134.221 231.889C133.08 231.889 132.156 230.959 132.156 229.811C132.156 228.664 133.08 227.733 134.221 227.733C135.361 227.733 136.286 228.664 136.286 229.811C136.286 230.959 135.361 231.889 134.221 231.889Z" fill="#C4C4C4"/>
<path d="M150.74 231.889C149.6 231.889 148.675 230.959 148.675 229.811C148.675 228.664 149.6 227.733 150.74 227.733C151.881 227.733 152.805 228.664 152.805 229.811C152.805 230.959 151.881 231.889 150.74 231.889Z" fill="#C4C4C4"/>
<path d="M2.06494 248.511C0.924494 248.511 -5.22705e-06 247.581 -5.17689e-06 246.433C-5.12673e-06 245.286 0.924494 244.356 2.06494 244.356C3.20535 244.356 4.12985 245.286 4.12985 246.433C4.12985 247.581 3.20535 248.511 2.06494 248.511Z" fill="#C4C4C4"/>
<path d="M18.5844 248.511C17.444 248.511 16.5195 247.581 16.5195 246.433C16.5195 245.286 17.444 244.356 18.5844 244.356C19.7248 244.356 20.6493 245.286 20.6493 246.433C20.6493 247.581 19.7248 248.511 18.5844 248.511Z" fill="#C4C4C4"/>
<path d="M35.1039 248.511C33.9635 248.511 33.0389 247.581 33.0389 246.433C33.0389 245.286 33.9635 244.356 35.1039 244.356C36.2443 244.356 37.1688 245.286 37.1688 246.433C37.1688 247.581 36.2443 248.511 35.1039 248.511Z" fill="#C4C4C4"/>
<path d="M51.6234 248.511C50.4829 248.511 49.5584 247.581 49.5584 246.433C49.5584 245.286 50.4829 244.356 51.6234 244.356C52.7638 244.356 53.6883 245.286 53.6883 246.433C53.6883 247.581 52.7638 248.511 51.6234 248.511Z" fill="#C4C4C4"/>
<path d="M68.1428 248.511C67.0024 248.511 66.0779 247.581 66.0779 246.433C66.0779 245.286 67.0024 244.356 68.1428 244.356C69.2833 244.356 70.2078 245.286 70.2078 246.433C70.2078 247.581 69.2833 248.511 68.1428 248.511Z" fill="#C4C4C4"/>
<path d="M84.6623 248.511C83.5219 248.511 82.5974 247.581 82.5974 246.433C82.5974 245.286 83.5219 244.356 84.6623 244.356C85.8028 244.356 86.7273 245.286 86.7273 246.433C86.7273 247.581 85.8028 248.511 84.6623 248.511Z" fill="#C4C4C4"/>
<path d="M101.182 248.511C100.041 248.511 99.1169 247.581 99.1169 246.433C99.1169 245.286 100.041 244.356 101.182 244.356C102.322 244.356 103.247 245.286 103.247 246.433C103.247 247.581 102.322 248.511 101.182 248.511Z" fill="#C4C4C4"/>
<path d="M117.701 248.511C116.561 248.511 115.636 247.581 115.636 246.433C115.636 245.286 116.561 244.356 117.701 244.356C118.842 244.356 119.766 245.286 119.766 246.433C119.766 247.581 118.842 248.511 117.701 248.511Z" fill="#C4C4C4"/>
<path d="M134.221 248.511C133.08 248.511 132.156 247.581 132.156 246.433C132.156 245.286 133.08 244.356 134.221 244.356C135.361 244.356 136.286 245.286 136.286 246.433C136.286 247.581 135.361 248.511 134.221 248.511Z" fill="#C4C4C4"/>
<path d="M150.74 248.511C149.6 248.511 148.675 247.581 148.675 246.433C148.675 245.286 149.6 244.356 150.74 244.356C151.881 244.356 152.805 245.286 152.805 246.433C152.805 247.581 151.881 248.511 150.74 248.511Z" fill="#C4C4C4"/>
<path d="M2.06494 198.644C0.924496 198.644 -3.0473e-06 197.714 -2.99714e-06 196.567C-2.94698e-06 195.419 0.924497 194.489 2.06494 194.489C3.20535 194.489 4.12985 195.419 4.12985 196.567C4.12985 197.714 3.20535 198.644 2.06494 198.644Z" fill="#C4C4C4"/>
<path d="M18.5844 198.644C17.444 198.644 16.5195 197.714 16.5195 196.567C16.5195 195.419 17.444 194.489 18.5844 194.489C19.7248 194.489 20.6494 195.419 20.6494 196.567C20.6493 197.714 19.7248 198.644 18.5844 198.644Z" fill="#C4C4C4"/>
<path d="M35.1039 198.644C33.9635 198.644 33.0389 197.714 33.0389 196.567C33.0389 195.419 33.9635 194.489 35.1039 194.489C36.2443 194.489 37.1688 195.419 37.1688 196.567C37.1688 197.714 36.2443 198.644 35.1039 198.644Z" fill="#C4C4C4"/>
<path d="M51.6234 198.644C50.4829 198.644 49.5584 197.714 49.5584 196.567C49.5584 195.419 50.4829 194.489 51.6234 194.489C52.7638 194.489 53.6883 195.419 53.6883 196.567C53.6883 197.714 52.7638 198.644 51.6234 198.644Z" fill="#C4C4C4"/>
<path d="M68.1428 198.644C67.0024 198.644 66.0779 197.714 66.0779 196.567C66.0779 195.419 67.0024 194.489 68.1428 194.489C69.2833 194.489 70.2078 195.419 70.2078 196.567C70.2078 197.714 69.2833 198.644 68.1428 198.644Z" fill="#C4C4C4"/>
<path d="M84.6623 198.644C83.5219 198.644 82.5974 197.714 82.5974 196.567C82.5974 195.419 83.5219 194.489 84.6623 194.489C85.8028 194.489 86.7273 195.419 86.7273 196.567C86.7273 197.714 85.8028 198.644 84.6623 198.644Z" fill="#C4C4C4"/>
<path d="M101.182 198.644C100.041 198.644 99.1169 197.714 99.1169 196.567C99.1169 195.419 100.041 194.489 101.182 194.489C102.322 194.489 103.247 195.419 103.247 196.567C103.247 197.714 102.322 198.644 101.182 198.644Z" fill="#C4C4C4"/>
<path d="M117.701 198.644C116.561 198.644 115.636 197.714 115.636 196.567C115.636 195.419 116.561 194.489 117.701 194.489C118.842 194.489 119.766 195.419 119.766 196.567C119.766 197.714 118.842 198.644 117.701 198.644Z" fill="#C4C4C4"/>
<path d="M134.221 198.644C133.08 198.644 132.156 197.714 132.156 196.567C132.156 195.419 133.08 194.489 134.221 194.489C135.361 194.489 136.286 195.419 136.286 196.567C136.286 197.714 135.361 198.644 134.221 198.644Z" fill="#C4C4C4"/>
<path d="M150.74 198.644C149.6 198.644 148.675 197.714 148.675 196.567C148.675 195.419 149.6 194.489 150.74 194.489C151.881 194.489 152.805 195.419 152.805 196.567C152.805 197.714 151.881 198.644 150.74 198.644Z" fill="#C4C4C4"/>
<path d="M2.06494 215.267C0.924496 215.267 -3.77388e-06 214.336 -3.72372e-06 213.189C-3.67356e-06 212.041 0.924496 211.111 2.06494 211.111C3.20535 211.111 4.12985 212.041 4.12985 213.189C4.12985 214.336 3.20535 215.267 2.06494 215.267Z" fill="#C4C4C4"/>
<path d="M18.5844 215.267C17.444 215.267 16.5195 214.336 16.5195 213.189C16.5195 212.041 17.444 211.111 18.5844 211.111C19.7248 211.111 20.6493 212.041 20.6493 213.189C20.6493 214.336 19.7248 215.267 18.5844 215.267Z" fill="#C4C4C4"/>
<path d="M35.1039 215.267C33.9635 215.267 33.0389 214.336 33.0389 213.189C33.0389 212.041 33.9635 211.111 35.1039 211.111C36.2443 211.111 37.1688 212.041 37.1688 213.189C37.1688 214.336 36.2443 215.267 35.1039 215.267Z" fill="#C4C4C4"/>
<path d="M51.6234 215.267C50.4829 215.267 49.5584 214.336 49.5584 213.189C49.5584 212.041 50.4829 211.111 51.6234 211.111C52.7638 211.111 53.6883 212.041 53.6883 213.189C53.6883 214.336 52.7638 215.267 51.6234 215.267Z" fill="#C4C4C4"/>
<path d="M68.1428 215.267C67.0024 215.267 66.0779 214.336 66.0779 213.189C66.0779 212.041 67.0024 211.111 68.1428 211.111C69.2833 211.111 70.2078 212.041 70.2078 213.189C70.2078 214.336 69.2833 215.267 68.1428 215.267Z" fill="#C4C4C4"/>
<path d="M84.6623 215.267C83.5219 215.267 82.5974 214.336 82.5974 213.189C82.5974 212.041 83.5219 211.111 84.6623 211.111C85.8028 211.111 86.7273 212.041 86.7273 213.189C86.7273 214.336 85.8028 215.267 84.6623 215.267Z" fill="#C4C4C4"/>
<path d="M101.182 215.267C100.041 215.267 99.1169 214.336 99.1169 213.189C99.1169 212.041 100.041 211.111 101.182 211.111C102.322 211.111 103.247 212.041 103.247 213.189C103.247 214.336 102.322 215.267 101.182 215.267Z" fill="#C4C4C4"/>
<path d="M117.701 215.267C116.561 215.267 115.636 214.336 115.636 213.189C115.636 212.041 116.561 211.111 117.701 211.111C118.842 211.111 119.766 212.041 119.766 213.189C119.766 214.336 118.842 215.267 117.701 215.267Z" fill="#C4C4C4"/>
<path d="M134.221 215.267C133.08 215.267 132.156 214.336 132.156 213.189C132.156 212.041 133.08 211.111 134.221 211.111C135.361 211.111 136.286 212.041 136.286 213.189C136.286 214.336 135.361 215.267 134.221 215.267Z" fill="#C4C4C4"/>
<path d="M150.74 215.267C149.6 215.267 148.675 214.336 148.675 213.189C148.675 212.041 149.6 211.111 150.74 211.111C151.881 211.111 152.805 212.041 152.805 213.189C152.805 214.336 151.881 215.267 150.74 215.267Z" fill="#C4C4C4"/>
<path d="M2.06494 165.4C0.924498 165.4 -1.59414e-06 164.47 -1.54398e-06 163.322C-1.49382e-06 162.175 0.924498 161.244 2.06494 161.244C3.20535 161.244 4.12985 162.175 4.12985 163.322C4.12985 164.47 3.20535 165.4 2.06494 165.4Z" fill="#C4C4C4"/>
<path d="M18.5844 165.4C17.444 165.4 16.5195 164.47 16.5195 163.322C16.5195 162.175 17.444 161.244 18.5844 161.244C19.7248 161.244 20.6494 162.175 20.6494 163.322C20.6494 164.47 19.7248 165.4 18.5844 165.4Z" fill="#C4C4C4"/>
<path d="M35.1039 165.4C33.9635 165.4 33.0389 164.47 33.0389 163.322C33.0389 162.175 33.9635 161.244 35.1039 161.244C36.2443 161.244 37.1688 162.175 37.1688 163.322C37.1688 164.47 36.2443 165.4 35.1039 165.4Z" fill="#C4C4C4"/>
<path d="M51.6234 165.4C50.4829 165.4 49.5584 164.47 49.5584 163.322C49.5584 162.175 50.4829 161.244 51.6234 161.244C52.7638 161.244 53.6883 162.175 53.6883 163.322C53.6883 164.47 52.7638 165.4 51.6234 165.4Z" fill="#C4C4C4"/>
<path d="M68.1429 165.4C67.0024 165.4 66.0779 164.47 66.0779 163.322C66.0779 162.175 67.0024 161.244 68.1429 161.244C69.2833 161.244 70.2078 162.175 70.2078 163.322C70.2078 164.47 69.2833 165.4 68.1429 165.4Z" fill="#C4C4C4"/>
<path d="M84.6623 165.4C83.5219 165.4 82.5974 164.47 82.5974 163.322C82.5974 162.175 83.5219 161.244 84.6623 161.244C85.8028 161.244 86.7273 162.175 86.7273 163.322C86.7273 164.47 85.8028 165.4 84.6623 165.4Z" fill="#C4C4C4"/>
<path d="M101.182 165.4C100.041 165.4 99.1169 164.47 99.1169 163.322C99.1169 162.175 100.041 161.244 101.182 161.244C102.322 161.244 103.247 162.175 103.247 163.322C103.247 164.47 102.322 165.4 101.182 165.4Z" fill="#C4C4C4"/>
<path d="M117.701 165.4C116.561 165.4 115.636 164.47 115.636 163.322C115.636 162.175 116.561 161.244 117.701 161.244C118.842 161.244 119.766 162.175 119.766 163.322C119.766 164.47 118.842 165.4 117.701 165.4Z" fill="#C4C4C4"/>
<path d="M134.221 165.4C133.08 165.4 132.156 164.47 132.156 163.322C132.156 162.175 133.08 161.244 134.221 161.244C135.361 161.244 136.286 162.175 136.286 163.322C136.286 164.47 135.361 165.4 134.221 165.4Z" fill="#C4C4C4"/>
<path d="M150.74 165.4C149.6 165.4 148.675 164.47 148.675 163.322C148.675 162.175 149.6 161.244 150.74 161.244C151.881 161.244 152.805 162.175 152.805 163.322C152.805 164.47 151.881 165.4 150.74 165.4Z" fill="#C4C4C4"/>
<path d="M2.06494 182.022C0.924497 182.022 -2.32072e-06 181.092 -2.27056e-06 179.944C-2.2204e-06 178.797 0.924497 177.867 2.06494 177.867C3.20535 177.867 4.12985 178.797 4.12985 179.944C4.12985 181.092 3.20535 182.022 2.06494 182.022Z" fill="#C4C4C4"/>
<path d="M18.5844 182.022C17.444 182.022 16.5195 181.092 16.5195 179.944C16.5195 178.797 17.444 177.867 18.5844 177.867C19.7248 177.867 20.6494 178.797 20.6494 179.944C20.6494 181.092 19.7248 182.022 18.5844 182.022Z" fill="#C4C4C4"/>
<path d="M35.1039 182.022C33.9635 182.022 33.0389 181.092 33.0389 179.944C33.0389 178.797 33.9635 177.867 35.1039 177.867C36.2443 177.867 37.1688 178.797 37.1688 179.944C37.1688 181.092 36.2443 182.022 35.1039 182.022Z" fill="#C4C4C4"/>
<path d="M51.6234 182.022C50.4829 182.022 49.5584 181.092 49.5584 179.944C49.5584 178.797 50.4829 177.867 51.6234 177.867C52.7638 177.867 53.6883 178.797 53.6883 179.944C53.6883 181.092 52.7638 182.022 51.6234 182.022Z" fill="#C4C4C4"/>
<path d="M68.1429 182.022C67.0024 182.022 66.0779 181.092 66.0779 179.944C66.0779 178.797 67.0024 177.867 68.1429 177.867C69.2833 177.867 70.2078 178.797 70.2078 179.944C70.2078 181.092 69.2833 182.022 68.1429 182.022Z" fill="#C4C4C4"/>
<path d="M84.6623 182.022C83.5219 182.022 82.5974 181.092 82.5974 179.944C82.5974 178.797 83.5219 177.867 84.6623 177.867C85.8028 177.867 86.7273 178.797 86.7273 179.944C86.7273 181.092 85.8028 182.022 84.6623 182.022Z" fill="#C4C4C4"/>
<path d="M101.182 182.022C100.041 182.022 99.1169 181.092 99.1169 179.944C99.1169 178.797 100.041 177.867 101.182 177.867C102.322 177.867 103.247 178.797 103.247 179.944C103.247 181.092 102.322 182.022 101.182 182.022Z" fill="#C4C4C4"/>
<path d="M117.701 182.022C116.561 182.022 115.636 181.092 115.636 179.944C115.636 178.797 116.561 177.867 117.701 177.867C118.842 177.867 119.766 178.797 119.766 179.944C119.766 181.092 118.842 182.022 117.701 182.022Z" fill="#C4C4C4"/>
<path d="M134.221 182.022C133.08 182.022 132.156 181.092 132.156 179.944C132.156 178.797 133.08 177.867 134.221 177.867C135.361 177.867 136.286 178.797 136.286 179.944C136.286 181.092 135.361 182.022 134.221 182.022Z" fill="#C4C4C4"/>
<path d="M150.74 182.022C149.6 182.022 148.675 181.092 148.675 179.944C148.675 178.797 149.6 177.867 150.74 177.867C151.881 177.867 152.805 178.797 152.805 179.944C152.805 181.092 151.881 182.022 150.74 182.022Z" fill="#C4C4C4"/>
<path d="M2.06494 132.156C0.924499 132.156 -1.40982e-07 131.225 -9.08225e-08 130.078C-4.06627e-08 128.93 0.9245 128 2.06494 128C3.20535 128 4.12985 128.93 4.12985 130.078C4.12985 131.225 3.20535 132.156 2.06494 132.156Z" fill="#C4C4C4"/>
<path d="M18.5844 132.156C17.444 132.156 16.5195 131.225 16.5195 130.078C16.5195 128.93 17.444 128 18.5844 128C19.7248 128 20.6494 128.93 20.6494 130.078C20.6494 131.225 19.7248 132.156 18.5844 132.156Z" fill="#C4C4C4"/>
<path d="M35.1039 132.156C33.9635 132.156 33.0389 131.225 33.0389 130.078C33.0389 128.93 33.9635 128 35.1039 128C36.2443 128 37.1688 128.93 37.1688 130.078C37.1688 131.225 36.2443 132.156 35.1039 132.156Z" fill="#C4C4C4"/>
<path d="M51.6234 132.156C50.4829 132.156 49.5584 131.225 49.5584 130.078C49.5584 128.93 50.4829 128 51.6234 128C52.7638 128 53.6883 128.93 53.6883 130.078C53.6883 131.225 52.7638 132.156 51.6234 132.156Z" fill="#C4C4C4"/>
<path d="M68.1429 132.156C67.0024 132.156 66.0779 131.225 66.0779 130.078C66.0779 128.93 67.0024 128 68.1429 128C69.2833 128 70.2078 128.93 70.2078 130.078C70.2078 131.225 69.2833 132.156 68.1429 132.156Z" fill="#C4C4C4"/>
<path d="M84.6623 132.156C83.5219 132.156 82.5974 131.225 82.5974 130.078C82.5974 128.93 83.5219 128 84.6623 128C85.8028 128 86.7273 128.93 86.7273 130.078C86.7273 131.225 85.8028 132.156 84.6623 132.156Z" fill="#C4C4C4"/>
<path d="M101.182 132.156C100.041 132.156 99.1169 131.225 99.1169 130.078C99.1169 128.93 100.041 128 101.182 128C102.322 128 103.247 128.93 103.247 130.078C103.247 131.225 102.322 132.156 101.182 132.156Z" fill="#C4C4C4"/>
<path d="M117.701 132.156C116.561 132.156 115.636 131.225 115.636 130.078C115.636 128.93 116.561 128 117.701 128C118.842 128 119.766 128.93 119.766 130.078C119.766 131.225 118.842 132.156 117.701 132.156Z" fill="#C4C4C4"/>
<path d="M134.221 132.156C133.08 132.156 132.156 131.225 132.156 130.078C132.156 128.93 133.08 128 134.221 128C135.361 128 136.286 128.93 136.286 130.078C136.286 131.225 135.361 132.156 134.221 132.156Z" fill="#C4C4C4"/>
<path d="M150.74 132.156C149.6 132.156 148.675 131.225 148.675 130.078C148.675 128.93 149.6 128 150.74 128C151.881 128 152.805 128.93 152.805 130.078C152.805 131.225 151.881 132.156 150.74 132.156Z" fill="#C4C4C4"/>
<path d="M2.06494 148.778C0.924499 148.778 -8.67563e-07 147.848 -8.17403e-07 146.7C-7.67243e-07 145.552 0.924499 144.622 2.06494 144.622C3.20535 144.622 4.12985 145.552 4.12985 146.7C4.12985 147.848 3.20535 148.778 2.06494 148.778Z" fill="#C4C4C4"/>
<path d="M18.5844 148.778C17.444 148.778 16.5195 147.848 16.5195 146.7C16.5195 145.552 17.444 144.622 18.5844 144.622C19.7248 144.622 20.6494 145.552 20.6494 146.7C20.6494 147.848 19.7248 148.778 18.5844 148.778Z" fill="#C4C4C4"/>
<path d="M35.1039 148.778C33.9635 148.778 33.0389 147.848 33.0389 146.7C33.0389 145.552 33.9635 144.622 35.1039 144.622C36.2443 144.622 37.1688 145.552 37.1688 146.7C37.1688 147.848 36.2443 148.778 35.1039 148.778Z" fill="#C4C4C4"/>
<path d="M51.6234 148.778C50.4829 148.778 49.5584 147.848 49.5584 146.7C49.5584 145.552 50.4829 144.622 51.6234 144.622C52.7638 144.622 53.6883 145.552 53.6883 146.7C53.6883 147.848 52.7638 148.778 51.6234 148.778Z" fill="#C4C4C4"/>
<path d="M68.1429 148.778C67.0024 148.778 66.0779 147.848 66.0779 146.7C66.0779 145.552 67.0024 144.622 68.1429 144.622C69.2833 144.622 70.2078 145.552 70.2078 146.7C70.2078 147.848 69.2833 148.778 68.1429 148.778Z" fill="#C4C4C4"/>
<path d="M84.6623 148.778C83.5219 148.778 82.5974 147.848 82.5974 146.7C82.5974 145.552 83.5219 144.622 84.6623 144.622C85.8028 144.622 86.7273 145.552 86.7273 146.7C86.7273 147.848 85.8028 148.778 84.6623 148.778Z" fill="#C4C4C4"/>
<path d="M101.182 148.778C100.041 148.778 99.1169 147.848 99.1169 146.7C99.1169 145.552 100.041 144.622 101.182 144.622C102.322 144.622 103.247 145.552 103.247 146.7C103.247 147.848 102.322 148.778 101.182 148.778Z" fill="#C4C4C4"/>
<path d="M117.701 148.778C116.561 148.778 115.636 147.848 115.636 146.7C115.636 145.552 116.561 144.622 117.701 144.622C118.842 144.622 119.766 145.552 119.766 146.7C119.766 147.848 118.842 148.778 117.701 148.778Z" fill="#C4C4C4"/>
<path d="M134.221 148.778C133.08 148.778 132.156 147.848 132.156 146.7C132.156 145.552 133.08 144.622 134.221 144.622C135.361 144.622 136.286 145.552 136.286 146.7C136.286 147.848 135.361 148.778 134.221 148.778Z" fill="#C4C4C4"/>
<path d="M150.74 148.778C149.6 148.778 148.675 147.848 148.675 146.7C148.675 145.552 149.6 144.622 150.74 144.622C151.881 144.622 152.805 145.552 152.805 146.7C152.805 147.848 151.881 148.778 150.74 148.778Z" fill="#C4C4C4"/>
<path d="M167.26 298.378C166.119 298.378 165.195 297.448 165.195 296.3C165.195 295.152 166.119 294.222 167.26 294.222C168.4 294.222 169.325 295.152 169.325 296.3C169.325 297.448 168.4 298.378 167.26 298.378Z" fill="#C4C4C4"/>
<path d="M183.779 298.378C182.639 298.378 181.714 297.448 181.714 296.3C181.714 295.152 182.639 294.222 183.779 294.222C184.92 294.222 185.844 295.152 185.844 296.3C185.844 297.448 184.92 298.378 183.779 298.378Z" fill="#C4C4C4"/>
<path d="M200.299 298.378C199.158 298.378 198.234 297.448 198.234 296.3C198.234 295.152 199.158 294.222 200.299 294.222C201.439 294.222 202.364 295.152 202.364 296.3C202.364 297.448 201.439 298.378 200.299 298.378Z" fill="#C4C4C4"/>
<path d="M216.818 298.378C215.678 298.378 214.753 297.448 214.753 296.3C214.753 295.152 215.678 294.222 216.818 294.222C217.959 294.222 218.883 295.152 218.883 296.3C218.883 297.448 217.959 298.378 216.818 298.378Z" fill="#C4C4C4"/>
<path d="M233.338 298.378C232.197 298.378 231.273 297.448 231.273 296.3C231.273 295.152 232.197 294.222 233.338 294.222C234.478 294.222 235.403 295.152 235.403 296.3C235.403 297.448 234.478 298.378 233.338 298.378Z" fill="#C4C4C4"/>
<path d="M249.857 298.378C248.717 298.378 247.792 297.448 247.792 296.3C247.792 295.152 248.717 294.222 249.857 294.222C250.998 294.222 251.922 295.152 251.922 296.3C251.922 297.448 250.998 298.378 249.857 298.378Z" fill="#C4C4C4"/>
<path d="M266.377 298.378C265.236 298.378 264.312 297.448 264.312 296.3C264.312 295.152 265.236 294.222 266.377 294.222C267.517 294.222 268.442 295.152 268.442 296.3C268.442 297.448 267.517 298.378 266.377 298.378Z" fill="#C4C4C4"/>
<path d="M282.896 298.378C281.756 298.378 280.831 297.448 280.831 296.3C280.831 295.152 281.756 294.222 282.896 294.222C284.037 294.222 284.961 295.152 284.961 296.3C284.961 297.448 284.037 298.378 282.896 298.378Z" fill="#C4C4C4"/>
<path d="M299.416 298.378C298.275 298.378 297.351 297.448 297.351 296.3C297.351 295.152 298.275 294.222 299.416 294.222C300.556 294.222 301.481 295.152 301.481 296.3C301.481 297.448 300.556 298.378 299.416 298.378Z" fill="#C4C4C4"/>
<path d="M315.935 298.378C314.795 298.378 313.87 297.448 313.87 296.3C313.87 295.152 314.795 294.222 315.935 294.222C317.075 294.222 318 295.152 318 296.3C318 297.448 317.075 298.378 315.935 298.378Z" fill="#C4C4C4"/>
<path d="M167.26 315C166.119 315 165.195 314.07 165.195 312.922C165.195 311.775 166.119 310.844 167.26 310.844C168.4 310.844 169.325 311.775 169.325 312.922C169.325 314.07 168.4 315 167.26 315Z" fill="#C4C4C4"/>
<path d="M183.779 315C182.639 315 181.714 314.07 181.714 312.922C181.714 311.775 182.639 310.844 183.779 310.844C184.92 310.844 185.844 311.775 185.844 312.922C185.844 314.07 184.92 315 183.779 315Z" fill="#C4C4C4"/>
<path d="M200.299 315C199.158 315 198.234 314.07 198.234 312.922C198.234 311.775 199.158 310.844 200.299 310.844C201.439 310.844 202.364 311.775 202.364 312.922C202.364 314.07 201.439 315 200.299 315Z" fill="#C4C4C4"/>
<path d="M216.818 315C215.678 315 214.753 314.07 214.753 312.922C214.753 311.775 215.678 310.844 216.818 310.844C217.959 310.844 218.883 311.775 218.883 312.922C218.883 314.07 217.959 315 216.818 315Z" fill="#C4C4C4"/>
<path d="M233.338 315C232.197 315 231.273 314.07 231.273 312.922C231.273 311.775 232.197 310.844 233.338 310.844C234.478 310.844 235.403 311.775 235.403 312.922C235.403 314.07 234.478 315 233.338 315Z" fill="#C4C4C4"/>
<path d="M249.857 315C248.717 315 247.792 314.07 247.792 312.922C247.792 311.775 248.717 310.844 249.857 310.844C250.998 310.844 251.922 311.775 251.922 312.922C251.922 314.07 250.998 315 249.857 315Z" fill="#C4C4C4"/>
<path d="M266.377 315C265.236 315 264.312 314.07 264.312 312.922C264.312 311.775 265.236 310.844 266.377 310.844C267.517 310.844 268.442 311.775 268.442 312.922C268.442 314.07 267.517 315 266.377 315Z" fill="#C4C4C4"/>
<path d="M282.896 315C281.756 315 280.831 314.07 280.831 312.922C280.831 311.775 281.756 310.844 282.896 310.844C284.037 310.844 284.961 311.775 284.961 312.922C284.961 314.07 284.037 315 282.896 315Z" fill="#C4C4C4"/>
<path d="M299.416 315C298.275 315 297.351 314.07 297.351 312.922C297.351 311.775 298.275 310.844 299.416 310.844C300.556 310.844 301.481 311.775 301.481 312.922C301.481 314.07 300.556 315 299.416 315Z" fill="#C4C4C4"/>
<path d="M315.935 315C314.795 315 313.87 314.07 313.87 312.922C313.87 311.775 314.795 310.844 315.935 310.844C317.075 310.844 318 311.775 318 312.922C318 314.07 317.075 315 315.935 315Z" fill="#C4C4C4"/>
<path d="M167.26 265.133C166.119 265.133 165.195 264.203 165.195 263.056C165.195 261.908 166.119 260.978 167.26 260.978C168.4 260.978 169.325 261.908 169.325 263.056C169.325 264.203 168.4 265.133 167.26 265.133Z" fill="#C4C4C4"/>
<path d="M183.779 265.133C182.639 265.133 181.714 264.203 181.714 263.056C181.714 261.908 182.639 260.978 183.779 260.978C184.92 260.978 185.844 261.908 185.844 263.056C185.844 264.203 184.92 265.133 183.779 265.133Z" fill="#C4C4C4"/>
<path d="M200.299 265.133C199.158 265.133 198.234 264.203 198.234 263.056C198.234 261.908 199.158 260.978 200.299 260.978C201.439 260.978 202.364 261.908 202.364 263.056C202.364 264.203 201.439 265.133 200.299 265.133Z" fill="#C4C4C4"/>
<path d="M216.818 265.133C215.678 265.133 214.753 264.203 214.753 263.056C214.753 261.908 215.678 260.978 216.818 260.978C217.959 260.978 218.883 261.908 218.883 263.056C218.883 264.203 217.959 265.133 216.818 265.133Z" fill="#C4C4C4"/>
<path d="M233.338 265.133C232.197 265.133 231.273 264.203 231.273 263.056C231.273 261.908 232.197 260.978 233.338 260.978C234.478 260.978 235.403 261.908 235.403 263.056C235.403 264.203 234.478 265.133 233.338 265.133Z" fill="#C4C4C4"/>
<path d="M249.857 265.133C248.717 265.133 247.792 264.203 247.792 263.056C247.792 261.908 248.717 260.978 249.857 260.978C250.998 260.978 251.922 261.908 251.922 263.056C251.922 264.203 250.998 265.133 249.857 265.133Z" fill="#C4C4C4"/>
<path d="M266.377 265.133C265.236 265.133 264.312 264.203 264.312 263.056C264.312 261.908 265.236 260.978 266.377 260.978C267.517 260.978 268.442 261.908 268.442 263.056C268.442 264.203 267.517 265.133 266.377 265.133Z" fill="#C4C4C4"/>
<path d="M282.896 265.133C281.756 265.133 280.831 264.203 280.831 263.056C280.831 261.908 281.756 260.978 282.896 260.978C284.037 260.978 284.961 261.908 284.961 263.056C284.961 264.203 284.037 265.133 282.896 265.133Z" fill="#C4C4C4"/>
<path d="M299.416 265.133C298.275 265.133 297.351 264.203 297.351 263.056C297.351 261.908 298.275 260.978 299.416 260.978C300.556 260.978 301.481 261.908 301.481 263.056C301.481 264.203 300.556 265.133 299.416 265.133Z" fill="#C4C4C4"/>
<path d="M315.935 265.133C314.795 265.133 313.87 264.203 313.87 263.056C313.87 261.908 314.795 260.978 315.935 260.978C317.075 260.978 318 261.908 318 263.056C318 264.203 317.075 265.133 315.935 265.133Z" fill="#C4C4C4"/>
<path d="M167.26 281.756C166.119 281.756 165.195 280.825 165.195 279.678C165.195 278.53 166.119 277.6 167.26 277.6C168.4 277.6 169.325 278.53 169.325 279.678C169.325 280.825 168.4 281.756 167.26 281.756Z" fill="#C4C4C4"/>
<path d="M183.779 281.756C182.639 281.756 181.714 280.825 181.714 279.678C181.714 278.53 182.639 277.6 183.779 277.6C184.92 277.6 185.844 278.53 185.844 279.678C185.844 280.825 184.92 281.756 183.779 281.756Z" fill="#C4C4C4"/>
<path d="M200.299 281.756C199.158 281.756 198.234 280.825 198.234 279.678C198.234 278.53 199.158 277.6 200.299 277.6C201.439 277.6 202.364 278.53 202.364 279.678C202.364 280.825 201.439 281.756 200.299 281.756Z" fill="#C4C4C4"/>
<path d="M216.818 281.756C215.678 281.756 214.753 280.825 214.753 279.678C214.753 278.53 215.678 277.6 216.818 277.6C217.959 277.6 218.883 278.53 218.883 279.678C218.883 280.825 217.959 281.756 216.818 281.756Z" fill="#C4C4C4"/>
<path d="M233.338 281.756C232.197 281.756 231.273 280.825 231.273 279.678C231.273 278.53 232.197 277.6 233.338 277.6C234.478 277.6 235.403 278.53 235.403 279.678C235.403 280.825 234.478 281.756 233.338 281.756Z" fill="#C4C4C4"/>
<path d="M249.857 281.756C248.717 281.756 247.792 280.825 247.792 279.678C247.792 278.53 248.717 277.6 249.857 277.6C250.998 277.6 251.922 278.53 251.922 279.678C251.922 280.825 250.998 281.756 249.857 281.756Z" fill="#C4C4C4"/>
<path d="M266.377 281.756C265.236 281.756 264.312 280.825 264.312 279.678C264.312 278.53 265.236 277.6 266.377 277.6C267.517 277.6 268.442 278.53 268.442 279.678C268.442 280.825 267.517 281.756 266.377 281.756Z" fill="#C4C4C4"/>
<path d="M282.896 281.756C281.756 281.756 280.831 280.825 280.831 279.678C280.831 278.53 281.756 277.6 282.896 277.6C284.037 277.6 284.961 278.53 284.961 279.678C284.961 280.825 284.037 281.756 282.896 281.756Z" fill="#C4C4C4"/>
<path d="M299.416 281.756C298.275 281.756 297.351 280.825 297.351 279.678C297.351 278.53 298.275 277.6 299.416 277.6C300.556 277.6 301.481 278.53 301.481 279.678C301.481 280.825 300.556 281.756 299.416 281.756Z" fill="#C4C4C4"/>
<path d="M315.935 281.756C314.795 281.756 313.87 280.825 313.87 279.678C313.87 278.53 314.795 277.6 315.935 277.6C317.075 277.6 318 278.53 318 279.678C318 280.825 317.075 281.756 315.935 281.756Z" fill="#C4C4C4"/>
<path d="M167.26 231.889C166.119 231.889 165.195 230.959 165.195 229.811C165.195 228.664 166.119 227.733 167.26 227.733C168.4 227.733 169.325 228.664 169.325 229.811C169.325 230.959 168.4 231.889 167.26 231.889Z" fill="#C4C4C4"/>
<path d="M183.779 231.889C182.639 231.889 181.714 230.959 181.714 229.811C181.714 228.664 182.639 227.733 183.779 227.733C184.92 227.733 185.844 228.664 185.844 229.811C185.844 230.959 184.92 231.889 183.779 231.889Z" fill="#C4C4C4"/>
<path d="M200.299 231.889C199.158 231.889 198.234 230.959 198.234 229.811C198.234 228.664 199.158 227.733 200.299 227.733C201.439 227.733 202.364 228.664 202.364 229.811C202.364 230.959 201.439 231.889 200.299 231.889Z" fill="#C4C4C4"/>
<path d="M216.818 231.889C215.678 231.889 214.753 230.959 214.753 229.811C214.753 228.664 215.678 227.733 216.818 227.733C217.959 227.733 218.883 228.664 218.883 229.811C218.883 230.959 217.959 231.889 216.818 231.889Z" fill="#C4C4C4"/>
<path d="M233.338 231.889C232.197 231.889 231.273 230.959 231.273 229.811C231.273 228.664 232.197 227.733 233.338 227.733C234.478 227.733 235.403 228.664 235.403 229.811C235.403 230.959 234.478 231.889 233.338 231.889Z" fill="#C4C4C4"/>
<path d="M249.857 231.889C248.717 231.889 247.792 230.959 247.792 229.811C247.792 228.664 248.717 227.733 249.857 227.733C250.998 227.733 251.922 228.664 251.922 229.811C251.922 230.959 250.998 231.889 249.857 231.889Z" fill="#C4C4C4"/>
<path d="M266.377 231.889C265.236 231.889 264.312 230.959 264.312 229.811C264.312 228.664 265.236 227.733 266.377 227.733C267.517 227.733 268.442 228.664 268.442 229.811C268.442 230.959 267.517 231.889 266.377 231.889Z" fill="#C4C4C4"/>
<path d="M282.896 231.889C281.756 231.889 280.831 230.959 280.831 229.811C280.831 228.664 281.756 227.733 282.896 227.733C284.037 227.733 284.961 228.664 284.961 229.811C284.961 230.959 284.037 231.889 282.896 231.889Z" fill="#C4C4C4"/>
<path d="M299.416 231.889C298.275 231.889 297.351 230.959 297.351 229.811C297.351 228.664 298.275 227.733 299.416 227.733C300.556 227.733 301.481 228.664 301.481 229.811C301.481 230.959 300.556 231.889 299.416 231.889Z" fill="#C4C4C4"/>
<path d="M315.935 231.889C314.795 231.889 313.87 230.959 313.87 229.811C313.87 228.664 314.795 227.733 315.935 227.733C317.075 227.733 318 228.664 318 229.811C318 230.959 317.075 231.889 315.935 231.889Z" fill="#C4C4C4"/>
<path d="M167.26 248.511C166.119 248.511 165.195 247.581 165.195 246.433C165.195 245.286 166.119 244.356 167.26 244.356C168.4 244.356 169.325 245.286 169.325 246.433C169.325 247.581 168.4 248.511 167.26 248.511Z" fill="#C4C4C4"/>
<path d="M183.779 248.511C182.639 248.511 181.714 247.581 181.714 246.433C181.714 245.286 182.639 244.356 183.779 244.356C184.92 244.356 185.844 245.286 185.844 246.433C185.844 247.581 184.92 248.511 183.779 248.511Z" fill="#C4C4C4"/>
<path d="M200.299 248.511C199.158 248.511 198.234 247.581 198.234 246.433C198.234 245.286 199.158 244.356 200.299 244.356C201.439 244.356 202.364 245.286 202.364 246.433C202.364 247.581 201.439 248.511 200.299 248.511Z" fill="#C4C4C4"/>
<path d="M216.818 248.511C215.678 248.511 214.753 247.581 214.753 246.433C214.753 245.286 215.678 244.356 216.818 244.356C217.959 244.356 218.883 245.286 218.883 246.433C218.883 247.581 217.959 248.511 216.818 248.511Z" fill="#C4C4C4"/>
<path d="M233.338 248.511C232.197 248.511 231.273 247.581 231.273 246.433C231.273 245.286 232.197 244.356 233.338 244.356C234.478 244.356 235.403 245.286 235.403 246.433C235.403 247.581 234.478 248.511 233.338 248.511Z" fill="#C4C4C4"/>
<path d="M249.857 248.511C248.717 248.511 247.792 247.581 247.792 246.433C247.792 245.286 248.717 244.356 249.857 244.356C250.998 244.356 251.922 245.286 251.922 246.433C251.922 247.581 250.998 248.511 249.857 248.511Z" fill="#C4C4C4"/>
<path d="M266.377 248.511C265.236 248.511 264.312 247.581 264.312 246.433C264.312 245.286 265.236 244.356 266.377 244.356C267.517 244.356 268.442 245.286 268.442 246.433C268.442 247.581 267.517 248.511 266.377 248.511Z" fill="#C4C4C4"/>
<path d="M282.896 248.511C281.756 248.511 280.831 247.581 280.831 246.433C280.831 245.286 281.756 244.356 282.896 244.356C284.037 244.356 284.961 245.286 284.961 246.433C284.961 247.581 284.037 248.511 282.896 248.511Z" fill="#C4C4C4"/>
<path d="M299.416 248.511C298.275 248.511 297.351 247.581 297.351 246.433C297.351 245.286 298.275 244.356 299.416 244.356C300.556 244.356 301.481 245.286 301.481 246.433C301.481 247.581 300.556 248.511 299.416 248.511Z" fill="#C4C4C4"/>
<path d="M315.935 248.511C314.795 248.511 313.87 247.581 313.87 246.433C313.87 245.286 314.795 244.356 315.935 244.356C317.075 244.356 318 245.286 318 246.433C318 247.581 317.075 248.511 315.935 248.511Z" fill="#C4C4C4"/>
<path d="M167.26 198.644C166.119 198.644 165.195 197.714 165.195 196.567C165.195 195.419 166.119 194.489 167.26 194.489C168.4 194.489 169.325 195.419 169.325 196.567C169.325 197.714 168.4 198.644 167.26 198.644Z" fill="#C4C4C4"/>
<path d="M183.779 198.644C182.639 198.644 181.714 197.714 181.714 196.567C181.714 195.419 182.639 194.489 183.779 194.489C184.92 194.489 185.844 195.419 185.844 196.567C185.844 197.714 184.92 198.644 183.779 198.644Z" fill="#C4C4C4"/>
<path d="M200.299 198.644C199.158 198.644 198.234 197.714 198.234 196.567C198.234 195.419 199.158 194.489 200.299 194.489C201.439 194.489 202.364 195.419 202.364 196.567C202.364 197.714 201.439 198.644 200.299 198.644Z" fill="#C4C4C4"/>
<path d="M216.818 198.644C215.678 198.644 214.753 197.714 214.753 196.567C214.753 195.419 215.678 194.489 216.818 194.489C217.959 194.489 218.883 195.419 218.883 196.567C218.883 197.714 217.959 198.644 216.818 198.644Z" fill="#C4C4C4"/>
<path d="M233.338 198.644C232.197 198.644 231.273 197.714 231.273 196.567C231.273 195.419 232.197 194.489 233.338 194.489C234.478 194.489 235.403 195.419 235.403 196.567C235.403 197.714 234.478 198.644 233.338 198.644Z" fill="#C4C4C4"/>
<path d="M249.857 198.644C248.717 198.644 247.792 197.714 247.792 196.567C247.792 195.419 248.717 194.489 249.857 194.489C250.998 194.489 251.922 195.419 251.922 196.567C251.922 197.714 250.998 198.644 249.857 198.644Z" fill="#C4C4C4"/>
<path d="M266.377 198.644C265.236 198.644 264.312 197.714 264.312 196.567C264.312 195.419 265.236 194.489 266.377 194.489C267.517 194.489 268.442 195.419 268.442 196.567C268.442 197.714 267.517 198.644 266.377 198.644Z" fill="#C4C4C4"/>
<path d="M282.896 198.644C281.756 198.644 280.831 197.714 280.831 196.567C280.831 195.419 281.756 194.489 282.896 194.489C284.037 194.489 284.961 195.419 284.961 196.567C284.961 197.714 284.037 198.644 282.896 198.644Z" fill="#C4C4C4"/>
<path d="M299.416 198.644C298.275 198.644 297.351 197.714 297.351 196.567C297.351 195.419 298.275 194.489 299.416 194.489C300.556 194.489 301.481 195.419 301.481 196.567C301.481 197.714 300.556 198.644 299.416 198.644Z" fill="#C4C4C4"/>
<path d="M315.935 198.644C314.795 198.644 313.87 197.714 313.87 196.567C313.87 195.419 314.795 194.489 315.935 194.489C317.075 194.489 318 195.419 318 196.567C318 197.714 317.075 198.644 315.935 198.644Z" fill="#C4C4C4"/>
<path d="M167.26 215.267C166.119 215.267 165.195 214.336 165.195 213.189C165.195 212.041 166.119 211.111 167.26 211.111C168.4 211.111 169.325 212.041 169.325 213.189C169.325 214.336 168.4 215.267 167.26 215.267Z" fill="#C4C4C4"/>
<path d="M183.779 215.267C182.639 215.267 181.714 214.336 181.714 213.189C181.714 212.041 182.639 211.111 183.779 211.111C184.92 211.111 185.844 212.041 185.844 213.189C185.844 214.336 184.92 215.267 183.779 215.267Z" fill="#C4C4C4"/>
<path d="M200.299 215.267C199.158 215.267 198.234 214.336 198.234 213.189C198.234 212.041 199.158 211.111 200.299 211.111C201.439 211.111 202.364 212.041 202.364 213.189C202.364 214.336 201.439 215.267 200.299 215.267Z" fill="#C4C4C4"/>
<path d="M216.818 215.267C215.678 215.267 214.753 214.336 214.753 213.189C214.753 212.041 215.678 211.111 216.818 211.111C217.959 211.111 218.883 212.041 218.883 213.189C218.883 214.336 217.959 215.267 216.818 215.267Z" fill="#C4C4C4"/>
<path d="M233.338 215.267C232.197 215.267 231.273 214.336 231.273 213.189C231.273 212.041 232.197 211.111 233.338 211.111C234.478 211.111 235.403 212.041 235.403 213.189C235.403 214.336 234.478 215.267 233.338 215.267Z" fill="#C4C4C4"/>
<path d="M249.857 215.267C248.717 215.267 247.792 214.336 247.792 213.189C247.792 212.041 248.717 211.111 249.857 211.111C250.998 211.111 251.922 212.041 251.922 213.189C251.922 214.336 250.998 215.267 249.857 215.267Z" fill="#C4C4C4"/>
<path d="M266.377 215.267C265.236 215.267 264.312 214.336 264.312 213.189C264.312 212.041 265.236 211.111 266.377 211.111C267.517 211.111 268.442 212.041 268.442 213.189C268.442 214.336 267.517 215.267 266.377 215.267Z" fill="#C4C4C4"/>
<path d="M282.896 215.267C281.756 215.267 280.831 214.336 280.831 213.189C280.831 212.041 281.756 211.111 282.896 211.111C284.037 211.111 284.961 212.041 284.961 213.189C284.961 214.336 284.037 215.267 282.896 215.267Z" fill="#C4C4C4"/>
<path d="M299.416 215.267C298.275 215.267 297.351 214.336 297.351 213.189C297.351 212.041 298.275 211.111 299.416 211.111C300.556 211.111 301.481 212.041 301.481 213.189C301.481 214.336 300.556 215.267 299.416 215.267Z" fill="#C4C4C4"/>
<path d="M315.935 215.267C314.795 215.267 313.87 214.336 313.87 213.189C313.87 212.041 314.795 211.111 315.935 211.111C317.075 211.111 318 212.041 318 213.189C318 214.336 317.075 215.267 315.935 215.267Z" fill="#C4C4C4"/>
<path d="M167.26 165.4C166.119 165.4 165.195 164.47 165.195 163.322C165.195 162.175 166.119 161.244 167.26 161.244C168.4 161.244 169.325 162.175 169.325 163.322C169.325 164.47 168.4 165.4 167.26 165.4Z" fill="#C4C4C4"/>
<path d="M183.779 165.4C182.639 165.4 181.714 164.47 181.714 163.322C181.714 162.175 182.639 161.244 183.779 161.244C184.92 161.244 185.844 162.175 185.844 163.322C185.844 164.47 184.92 165.4 183.779 165.4Z" fill="#C4C4C4"/>
<path d="M200.299 165.4C199.158 165.4 198.234 164.47 198.234 163.322C198.234 162.175 199.158 161.244 200.299 161.244C201.439 161.244 202.364 162.175 202.364 163.322C202.364 164.47 201.439 165.4 200.299 165.4Z" fill="#C4C4C4"/>
<path d="M216.818 165.4C215.678 165.4 214.753 164.47 214.753 163.322C214.753 162.175 215.678 161.244 216.818 161.244C217.959 161.244 218.883 162.175 218.883 163.322C218.883 164.47 217.959 165.4 216.818 165.4Z" fill="#C4C4C4"/>
<path d="M233.338 165.4C232.197 165.4 231.273 164.47 231.273 163.322C231.273 162.175 232.197 161.244 233.338 161.244C234.478 161.244 235.403 162.175 235.403 163.322C235.403 164.47 234.478 165.4 233.338 165.4Z" fill="#C4C4C4"/>
<path d="M249.857 165.4C248.717 165.4 247.792 164.47 247.792 163.322C247.792 162.175 248.717 161.244 249.857 161.244C250.998 161.244 251.922 162.175 251.922 163.322C251.922 164.47 250.998 165.4 249.857 165.4Z" fill="#C4C4C4"/>
<path d="M266.377 165.4C265.236 165.4 264.312 164.47 264.312 163.322C264.312 162.175 265.236 161.244 266.377 161.244C267.517 161.244 268.442 162.175 268.442 163.322C268.442 164.47 267.517 165.4 266.377 165.4Z" fill="#C4C4C4"/>
<path d="M282.896 165.4C281.756 165.4 280.831 164.47 280.831 163.322C280.831 162.175 281.756 161.244 282.896 161.244C284.037 161.244 284.961 162.175 284.961 163.322C284.961 164.47 284.037 165.4 282.896 165.4Z" fill="#C4C4C4"/>
<path d="M299.416 165.4C298.275 165.4 297.351 164.47 297.351 163.322C297.351 162.175 298.275 161.244 299.416 161.244C300.556 161.244 301.481 162.175 301.481 163.322C301.481 164.47 300.556 165.4 299.416 165.4Z" fill="#C4C4C4"/>
<path d="M315.935 165.4C314.795 165.4 313.87 164.47 313.87 163.322C313.87 162.175 314.795 161.244 315.935 161.244C317.075 161.244 318 162.175 318 163.322C318 164.47 317.075 165.4 315.935 165.4Z" fill="#C4C4C4"/>
<path d="M167.26 182.022C166.119 182.022 165.195 181.092 165.195 179.944C165.195 178.797 166.119 177.867 167.26 177.867C168.4 177.867 169.325 178.797 169.325 179.944C169.325 181.092 168.4 182.022 167.26 182.022Z" fill="#C4C4C4"/>
<path d="M183.779 182.022C182.639 182.022 181.714 181.092 181.714 179.944C181.714 178.797 182.639 177.867 183.779 177.867C184.92 177.867 185.844 178.797 185.844 179.944C185.844 181.092 184.92 182.022 183.779 182.022Z" fill="#C4C4C4"/>
<path d="M200.299 182.022C199.158 182.022 198.234 181.092 198.234 179.944C198.234 178.797 199.158 177.867 200.299 177.867C201.439 177.867 202.364 178.797 202.364 179.944C202.364 181.092 201.439 182.022 200.299 182.022Z" fill="#C4C4C4"/>
<path d="M216.818 182.022C215.678 182.022 214.753 181.092 214.753 179.944C214.753 178.797 215.678 177.867 216.818 177.867C217.959 177.867 218.883 178.797 218.883 179.944C218.883 181.092 217.959 182.022 216.818 182.022Z" fill="#C4C4C4"/>
<path d="M233.338 182.022C232.197 182.022 231.273 181.092 231.273 179.944C231.273 178.797 232.197 177.867 233.338 177.867C234.478 177.867 235.403 178.797 235.403 179.944C235.403 181.092 234.478 182.022 233.338 182.022Z" fill="#C4C4C4"/>
<path d="M249.857 182.022C248.717 182.022 247.792 181.092 247.792 179.944C247.792 178.797 248.717 177.867 249.857 177.867C250.998 177.867 251.922 178.797 251.922 179.944C251.922 181.092 250.998 182.022 249.857 182.022Z" fill="#C4C4C4"/>
<path d="M266.377 182.022C265.236 182.022 264.312 181.092 264.312 179.944C264.312 178.797 265.236 177.867 266.377 177.867C267.517 177.867 268.442 178.797 268.442 179.944C268.442 181.092 267.517 182.022 266.377 182.022Z" fill="#C4C4C4"/>
<path d="M282.896 182.022C281.756 182.022 280.831 181.092 280.831 179.944C280.831 178.797 281.756 177.867 282.896 177.867C284.037 177.867 284.961 178.797 284.961 179.944C284.961 181.092 284.037 182.022 282.896 182.022Z" fill="#C4C4C4"/>
<path d="M299.416 182.022C298.275 182.022 297.351 181.092 297.351 179.944C297.351 178.797 298.275 177.867 299.416 177.867C300.556 177.867 301.481 178.797 301.481 179.944C301.481 181.092 300.556 182.022 299.416 182.022Z" fill="#C4C4C4"/>
<path d="M315.935 182.022C314.795 182.022 313.87 181.092 313.87 179.944C313.87 178.797 314.795 177.867 315.935 177.867C317.075 177.867 318 178.797 318 179.944C318 181.092 317.075 182.022 315.935 182.022Z" fill="#C4C4C4"/>
<path d="M167.26 132.156C166.119 132.156 165.195 131.225 165.195 130.078C165.195 128.93 166.119 128 167.26 128C168.4 128 169.325 128.93 169.325 130.078C169.325 131.225 168.4 132.156 167.26 132.156Z" fill="#C4C4C4"/>
<path d="M183.779 132.156C182.639 132.156 181.714 131.225 181.714 130.078C181.714 128.93 182.639 128 183.779 128C184.92 128 185.844 128.93 185.844 130.078C185.844 131.225 184.92 132.156 183.779 132.156Z" fill="#C4C4C4"/>
<path d="M200.299 132.156C199.158 132.156 198.234 131.225 198.234 130.078C198.234 128.93 199.158 128 200.299 128C201.439 128 202.364 128.93 202.364 130.078C202.364 131.225 201.439 132.156 200.299 132.156Z" fill="#C4C4C4"/>
<path d="M216.818 132.156C215.678 132.156 214.753 131.225 214.753 130.078C214.753 128.93 215.678 128 216.818 128C217.959 128 218.883 128.93 218.883 130.078C218.883 131.225 217.959 132.156 216.818 132.156Z" fill="#C4C4C4"/>
<path d="M233.338 132.156C232.197 132.156 231.273 131.225 231.273 130.078C231.273 128.93 232.197 128 233.338 128C234.478 128 235.403 128.93 235.403 130.078C235.403 131.225 234.478 132.156 233.338 132.156Z" fill="#C4C4C4"/>
<path d="M249.857 132.156C248.717 132.156 247.792 131.225 247.792 130.078C247.792 128.93 248.717 128 249.857 128C250.998 128 251.922 128.93 251.922 130.078C251.922 131.225 250.998 132.156 249.857 132.156Z" fill="#C4C4C4"/>
<path d="M266.377 132.156C265.236 132.156 264.312 131.225 264.312 130.078C264.312 128.93 265.236 128 266.377 128C267.517 128 268.442 128.93 268.442 130.078C268.442 131.225 267.517 132.156 266.377 132.156Z" fill="#C4C4C4"/>
<path d="M282.896 132.156C281.756 132.156 280.831 131.225 280.831 130.078C280.831 128.93 281.756 128 282.896 128C284.037 128 284.961 128.93 284.961 130.078C284.961 131.225 284.037 132.156 282.896 132.156Z" fill="#C4C4C4"/>
<path d="M299.416 132.156C298.275 132.156 297.351 131.225 297.351 130.078C297.351 128.93 298.275 128 299.416 128C300.556 128 301.481 128.93 301.481 130.078C301.481 131.225 300.556 132.156 299.416 132.156Z" fill="#C4C4C4"/>
<path d="M315.935 132.156C314.795 132.156 313.87 131.225 313.87 130.078C313.87 128.93 314.795 128 315.935 128C317.075 128 318 128.93 318 130.078C318 131.225 317.075 132.156 315.935 132.156Z" fill="#C4C4C4"/>
<path d="M167.26 148.778C166.119 148.778 165.195 147.848 165.195 146.7C165.195 145.552 166.119 144.622 167.26 144.622C168.4 144.622 169.325 145.552 169.325 146.7C169.325 147.848 168.4 148.778 167.26 148.778Z" fill="#C4C4C4"/>
<path d="M183.779 148.778C182.639 148.778 181.714 147.848 181.714 146.7C181.714 145.552 182.639 144.622 183.779 144.622C184.92 144.622 185.844 145.552 185.844 146.7C185.844 147.848 184.92 148.778 183.779 148.778Z" fill="#C4C4C4"/>
<path d="M200.299 148.778C199.158 148.778 198.234 147.848 198.234 146.7C198.234 145.552 199.158 144.622 200.299 144.622C201.439 144.622 202.364 145.552 202.364 146.7C202.364 147.848 201.439 148.778 200.299 148.778Z" fill="#C4C4C4"/>
<path d="M216.818 148.778C215.678 148.778 214.753 147.848 214.753 146.7C214.753 145.552 215.678 144.622 216.818 144.622C217.959 144.622 218.883 145.552 218.883 146.7C218.883 147.848 217.959 148.778 216.818 148.778Z" fill="#C4C4C4"/>
<path d="M233.338 148.778C232.197 148.778 231.273 147.848 231.273 146.7C231.273 145.552 232.197 144.622 233.338 144.622C234.478 144.622 235.403 145.552 235.403 146.7C235.403 147.848 234.478 148.778 233.338 148.778Z" fill="#C4C4C4"/>
<path d="M249.857 148.778C248.717 148.778 247.792 147.848 247.792 146.7C247.792 145.552 248.717 144.622 249.857 144.622C250.998 144.622 251.922 145.552 251.922 146.7C251.922 147.848 250.998 148.778 249.857 148.778Z" fill="#C4C4C4"/>
<path d="M266.377 148.778C265.236 148.778 264.312 147.848 264.312 146.7C264.312 145.552 265.236 144.622 266.377 144.622C267.517 144.622 268.442 145.552 268.442 146.7C268.442 147.848 267.517 148.778 266.377 148.778Z" fill="#C4C4C4"/>
<path d="M282.896 148.778C281.756 148.778 280.831 147.848 280.831 146.7C280.831 145.552 281.756 144.622 282.896 144.622C284.037 144.622 284.961 145.552 284.961 146.7C284.961 147.848 284.037 148.778 282.896 148.778Z" fill="#C4C4C4"/>
<path d="M299.416 148.778C298.275 148.778 297.351 147.848 297.351 146.7C297.351 145.552 298.275 144.622 299.416 144.622C300.556 144.622 301.481 145.552 301.481 146.7C301.481 147.848 300.556 148.778 299.416 148.778Z" fill="#C4C4C4"/>
<path d="M315.935 148.778C314.795 148.778 313.87 147.848 313.87 146.7C313.87 145.552 314.795 144.622 315.935 144.622C317.075 144.622 318 145.552 318 146.7C318 147.848 317.075 148.778 315.935 148.778Z" fill="#C4C4C4"/>
</g>
<rect x="46" y="10" width="173" height="330" rx="6" fill="#F4F5FA"/>
<line x1="203" y1="200.735" x2="61" y2="200.735" stroke="#D9E2EC"/>
<g filter="url(#filter0_d)">
<rect x="79" y="60" width="110" height="255" rx="6" fill="white"/>
</g>
<path d="M79 66C79 62.6863 81.6863 60 85 60H183C186.314 60 189 62.6863 189 66V87H79V66Z" fill="#2C4CE8"/>
<path d="M116.996 77H122.11V76.0625H118.053V68.2727H116.996V77ZM126.754 77.1364C128.084 77.1364 129.055 76.4716 129.362 75.483L128.391 75.2102C128.135 75.892 127.543 76.233 126.754 76.233C125.574 76.233 124.76 75.4702 124.713 74.0682H129.464V73.642C129.464 71.2045 128.016 70.3693 126.652 70.3693C124.879 70.3693 123.703 71.767 123.703 73.7784C123.703 75.7898 124.862 77.1364 126.754 77.1364ZM124.713 73.1989C124.781 72.1804 125.501 71.2727 126.652 71.2727C127.743 71.2727 128.442 72.0909 128.442 73.1989H124.713ZM133.32 77.1534C134.462 77.1534 135.059 76.5398 135.264 76.1136H135.315V77H136.32V72.6875C136.32 70.608 134.735 70.3693 133.9 70.3693C132.911 70.3693 131.786 70.7102 131.275 71.9034L132.23 72.2443C132.451 71.767 132.975 71.2557 133.934 71.2557C134.859 71.2557 135.315 71.7457 135.315 72.5852V72.6193C135.315 73.1051 134.82 73.0625 133.627 73.2159C132.413 73.3736 131.087 73.642 131.087 75.142C131.087 76.4205 132.076 77.1534 133.32 77.1534ZM133.474 76.25C132.673 76.25 132.093 75.892 132.093 75.1932C132.093 74.4261 132.792 74.1875 133.576 74.0852C134.002 74.0341 135.144 73.9148 135.315 73.7102V74.6307C135.315 75.4489 134.667 76.25 133.474 76.25ZM138.556 77H139.562V72.858C139.562 71.9759 140.261 71.3239 141.215 71.3239C141.467 71.3239 141.654 71.3707 141.795 71.4432L142.136 70.5909C141.931 70.446 141.663 70.3523 141.3 70.3523C140.508 70.3523 139.83 70.7955 139.596 71.4432H139.528V70.4545H138.556V77ZM144.567 73.0625C144.567 71.9205 145.275 71.2727 146.238 71.2727C147.171 71.2727 147.738 71.8821 147.738 72.9091V77H148.743V72.8409C148.743 71.1705 147.853 70.3693 146.527 70.3693C145.539 70.3693 144.925 70.8125 144.618 71.4773H144.533V70.4545H143.561V77H144.567V73.0625Z" fill="#EDEFFD"/>
<rect x="91" y="102" width="86" height="188" rx="6" fill="#C6F7E2"/>
<path d="M121.502 194.089C122.96 194.089 123.95 193.14 123.947 191.817C123.95 190.564 123.075 189.663 121.895 189.663C121.32 189.663 120.825 189.903 120.595 190.225H120.556L120.726 188.586H123.586V187.455H119.585L119.275 190.906L120.505 191.127C120.706 190.855 121.096 190.686 121.483 190.686C122.141 190.689 122.614 191.165 122.614 191.852C122.614 192.533 122.151 193.003 121.502 193.003C120.953 193.003 120.508 192.658 120.476 192.15H119.134C119.16 193.281 120.147 194.089 121.502 194.089ZM129.662 194L130.148 192.507H132.51L132.995 194H134.478L132.222 187.455H130.439L128.179 194H129.662ZM130.499 191.427L131.305 188.95H131.356L132.161 191.427H130.499ZM141.484 189.746C141.302 188.234 140.157 187.365 138.642 187.365C136.913 187.365 135.593 188.586 135.593 190.727C135.593 192.862 136.891 194.089 138.642 194.089C140.32 194.089 141.334 192.974 141.484 191.769L140.084 191.763C139.953 192.463 139.403 192.865 138.665 192.865C137.671 192.865 136.997 192.127 136.997 190.727C136.997 189.366 137.661 188.589 138.674 188.589C139.432 188.589 139.978 189.027 140.084 189.746H141.484ZM142.977 188.596H144.981V194H146.349V188.596H148.353V187.455H142.977V188.596ZM107.248 198.455H105.864V205H107.248V198.455ZM114.611 198.455H113.234V202.571H113.176L110.351 198.455H109.136V205H110.52V200.88H110.568L113.416 205H114.611V198.455ZM116.255 199.596H118.259V205H119.627V199.596H121.631V198.455H116.255V199.596ZM123.266 205H127.689V203.859H124.65V202.296H127.45V201.155H124.65V199.596H127.677V198.455H123.266V205ZM129.527 205H130.911V202.68H131.921L133.161 205H134.688L133.298 202.456C134.043 202.136 134.455 201.488 134.455 200.593C134.455 199.292 133.595 198.455 132.109 198.455H129.527V205ZM130.911 201.567V199.586H131.844C132.643 199.586 133.03 199.941 133.03 200.593C133.03 201.241 132.643 201.567 131.85 201.567H130.911ZM137.366 198.455H135.828L138.088 205H139.871L142.128 198.455H140.594L139.008 203.428H138.948L137.366 198.455ZM145.049 198.455H143.666V205H145.049V198.455ZM146.938 205H151.361V203.859H148.322V202.296H151.122V201.155H148.322V199.596H151.349V198.455H146.938V205ZM154.672 205H156.021L157.264 200.721H157.315L158.562 205H159.91L161.783 198.455H160.272L159.188 203.012H159.131L157.938 198.455H156.644L155.449 203.002H155.394L154.311 198.455H152.799L154.672 205Z" fill="#189473"/>
<path d="M105.458 40H107.611V35.794H111.752V34.0192H107.611V31.593H112.2V29.8182H105.458V40ZM114.398 40H116.55V36.3906H118.121L120.05 40H122.427L120.264 36.0426C121.422 35.5455 122.064 34.5362 122.064 33.1442C122.064 31.1207 120.726 29.8182 118.415 29.8182H114.398V40ZM116.55 34.6605V31.5781H118.002C119.245 31.5781 119.847 32.13 119.847 33.1442C119.847 34.1534 119.245 34.6605 118.012 34.6605H116.55ZM126.488 29.8182H124.335V40H126.488V29.8182ZM132.618 40C135.721 40 137.6 38.081 137.6 34.8991C137.6 31.7273 135.721 29.8182 132.648 29.8182H129.009V40H132.618ZM131.162 38.1555V31.6626H132.534C134.443 31.6626 135.452 32.6371 135.452 34.8991C135.452 37.1712 134.443 38.1555 132.529 38.1555H131.162ZM140.989 40L141.744 37.6783H145.418L146.174 40H148.481L144.971 29.8182H142.197L138.682 40H140.989ZM142.291 35.9979L143.544 32.1449H143.623L144.876 35.9979H142.291ZM148.821 29.8182L152.534 36.4006V40H154.672V36.4006L158.386 29.8182H155.975L153.653 34.2031H153.554L151.232 29.8182H148.821Z" fill="#486582"/>
<defs>
<filter id="filter0_d" x="76" y="58" width="116" height="261" filterUnits="userSpaceOnUse" color-interpolation-filters="sRGB">
<feFlood flood-opacity="0" result="BackgroundImageFix"/>
<feColorMatrix in="SourceAlpha" type="matrix" values="0 0 0 0 0 0 0 0 0 0 0 0 0 0 0 0 0 0 127 0"/>
<feOffset dy="1"/>
<feGaussianBlur stdDeviation="1.5"/>
<feColorMatrix type="matrix" values="0 0 0 0 0 0 0 0 0 0 0 0 0 0 0 0 0 0 0.2 0"/>
<feBlend mode="multiply" in2="BackgroundImageFix" result="effect1_dropShadow"/>
<feBlend mode="normal" in="SourceGraphic" in2="effect1_dropShadow" result="shape"/>
</filter>
</defs>
</svg>
