<svg width="252" height="255" viewBox="0 0 252 255" fill="none" xmlns="http://www.w3.org/2000/svg">
<g opacity="0.5">
<path d="M195.141 147.996C195.693 147.993 196.144 148.437 196.148 148.988C196.152 149.54 195.707 149.99 195.154 149.994C194.601 149.998 194.15 149.553 194.147 149.002C194.143 148.45 194.588 148 195.141 147.996Z" fill="#D9E2EC"/>
<path d="M187.136 148.05C187.689 148.046 188.14 148.49 188.143 149.042C188.147 149.593 187.702 150.043 187.149 150.047C186.597 150.051 186.146 149.607 186.142 149.055C186.138 148.503 186.583 148.053 187.136 148.05Z" fill="#D9E2EC"/>
<path d="M179.131 148.103C179.684 148.099 180.135 148.543 180.139 149.095C180.142 149.646 179.697 150.097 179.145 150.1C178.592 150.104 178.141 149.66 178.138 149.108C178.134 148.557 178.579 148.107 179.131 148.103Z" fill="#D9E2EC"/>
<path d="M171.127 148.156C171.679 148.152 172.13 148.597 172.134 149.148C172.138 149.7 171.693 150.15 171.14 150.154C170.588 150.157 170.137 149.713 170.133 149.161C170.129 148.61 170.574 148.16 171.127 148.156Z" fill="#D9E2EC"/>
<path d="M163.122 148.209C163.675 148.206 164.126 148.65 164.13 149.201C164.133 149.753 163.688 150.203 163.136 150.207C162.583 150.21 162.132 149.766 162.128 149.215C162.125 148.663 162.57 148.213 163.122 148.209Z" fill="#D9E2EC"/>
<path d="M155.118 148.263C155.67 148.259 156.121 148.703 156.125 149.255C156.129 149.806 155.684 150.256 155.131 150.26C154.578 150.264 154.127 149.819 154.124 149.268C154.12 148.716 154.565 148.266 155.118 148.263Z" fill="#D9E2EC"/>
<path d="M147.113 148.316C147.666 148.312 148.117 148.756 148.12 149.308C148.124 149.859 147.679 150.31 147.126 150.313C146.574 150.317 146.123 149.873 146.119 149.321C146.116 148.77 146.561 148.319 147.113 148.316Z" fill="#D9E2EC"/>
<path d="M139.109 148.369C139.661 148.365 140.112 148.809 140.116 149.361C140.119 149.913 139.674 150.363 139.122 150.366C138.569 150.37 138.118 149.926 138.115 149.374C138.111 148.823 138.556 148.373 139.109 148.369Z" fill="#D9E2EC"/>
<path d="M131.104 148.422C131.657 148.419 132.108 148.863 132.111 149.414C132.115 149.966 131.67 150.416 131.117 150.42C130.565 150.423 130.114 149.979 130.11 149.428C130.106 148.876 130.551 148.426 131.104 148.422Z" fill="#D9E2EC"/>
<path d="M123.099 148.475C123.652 148.472 124.103 148.916 124.107 149.467C124.11 150.019 123.665 150.469 123.113 150.473C122.56 150.477 122.109 150.032 122.106 149.481C122.102 148.929 122.547 148.479 123.099 148.475Z" fill="#D9E2EC"/>
<path d="M195.088 140.007C195.64 140.003 196.091 140.447 196.095 140.999C196.098 141.55 195.653 142 195.101 142.004C194.548 142.008 194.097 141.564 194.094 141.012C194.09 140.46 194.535 140.01 195.088 140.007Z" fill="#D9E2EC"/>
<path d="M187.083 140.06C187.636 140.056 188.086 140.5 188.09 141.052C188.094 141.604 187.649 142.054 187.096 142.057C186.544 142.061 186.093 141.617 186.089 141.065C186.085 140.514 186.53 140.064 187.083 140.06Z" fill="#D9E2EC"/>
<path d="M179.078 140.113C179.631 140.109 180.082 140.554 180.086 141.105C180.089 141.657 179.644 142.107 179.092 142.111C178.539 142.114 178.088 141.67 178.084 141.118C178.081 140.567 178.526 140.117 179.078 140.113Z" fill="#D9E2EC"/>
<path d="M171.074 140.166C171.626 140.163 172.077 140.607 172.081 141.158C172.085 141.71 171.64 142.16 171.087 142.164C170.534 142.167 170.084 141.723 170.08 141.172C170.076 140.62 170.521 140.17 171.074 140.166Z" fill="#D9E2EC"/>
<path d="M163.069 140.22C163.622 140.216 164.073 140.66 164.076 141.212C164.08 141.763 163.635 142.213 163.082 142.217C162.53 142.221 162.079 141.776 162.075 141.225C162.072 140.673 162.517 140.223 163.069 140.22Z" fill="#D9E2EC"/>
<path d="M155.065 140.273C155.617 140.269 156.068 140.713 156.072 141.265C156.076 141.816 155.631 142.267 155.078 142.27C154.525 142.274 154.074 141.83 154.071 141.278C154.067 140.727 154.512 140.276 155.065 140.273Z" fill="#D9E2EC"/>
<path d="M147.06 140.326C147.613 140.322 148.064 140.766 148.067 141.318C148.071 141.87 147.626 142.32 147.073 142.323C146.521 142.327 146.07 141.883 146.066 141.331C146.062 140.78 146.507 140.33 147.06 140.326Z" fill="#D9E2EC"/>
<path d="M139.055 140.379C139.608 140.376 140.059 140.82 140.063 141.371C140.066 141.923 139.621 142.373 139.069 142.377C138.516 142.38 138.065 141.936 138.062 141.385C138.058 140.833 138.503 140.383 139.055 140.379Z" fill="#D9E2EC"/>
<path d="M131.051 140.432C131.604 140.429 132.054 140.873 132.058 141.424C132.062 141.976 131.617 142.426 131.064 142.43C130.512 142.434 130.061 141.989 130.057 141.438C130.053 140.886 130.498 140.436 131.051 140.432Z" fill="#D9E2EC"/>
<path d="M123.046 140.486C123.599 140.482 124.05 140.926 124.054 141.478C124.057 142.029 123.612 142.479 123.06 142.483C122.507 142.487 122.056 142.043 122.052 141.491C122.049 140.939 122.494 140.489 123.046 140.486Z" fill="#D9E2EC"/>
<path d="M195.247 163.976C195.799 163.972 196.25 164.416 196.254 164.968C196.258 165.52 195.813 165.97 195.26 165.973C194.708 165.977 194.257 165.533 194.253 164.981C194.249 164.43 194.694 163.98 195.247 163.976Z" fill="#D9E2EC"/>
<path d="M187.242 164.029C187.795 164.025 188.246 164.47 188.25 165.021C188.253 165.573 187.808 166.023 187.256 166.027C186.703 166.03 186.252 165.586 186.248 165.035C186.245 164.483 186.69 164.033 187.242 164.029Z" fill="#D9E2EC"/>
<path d="M179.238 164.082C179.79 164.079 180.241 164.523 180.245 165.074C180.249 165.626 179.804 166.076 179.251 166.08C178.698 166.083 178.247 165.639 178.244 165.088C178.24 164.536 178.685 164.086 179.238 164.082Z" fill="#D9E2EC"/>
<path d="M171.233 164.136C171.786 164.132 172.237 164.576 172.24 165.128C172.244 165.679 171.799 166.129 171.246 166.133C170.694 166.137 170.243 165.693 170.239 165.141C170.236 164.589 170.681 164.139 171.233 164.136Z" fill="#D9E2EC"/>
<path d="M163.229 164.189C163.781 164.185 164.232 164.629 164.236 165.181C164.239 165.732 163.794 166.183 163.242 166.186C162.689 166.19 162.238 165.746 162.235 165.194C162.231 164.643 162.676 164.192 163.229 164.189Z" fill="#D9E2EC"/>
<path d="M155.224 164.242C155.777 164.238 156.228 164.683 156.231 165.234C156.235 165.786 155.79 166.236 155.237 166.239C154.685 166.243 154.234 165.799 154.23 165.247C154.226 164.696 154.671 164.246 155.224 164.242Z" fill="#D9E2EC"/>
<path d="M147.219 164.295C147.772 164.292 148.223 164.736 148.227 165.287C148.23 165.839 147.785 166.289 147.233 166.293C146.68 166.296 146.229 165.852 146.225 165.301C146.222 164.749 146.667 164.299 147.219 164.295Z" fill="#D9E2EC"/>
<path d="M139.215 164.348C139.767 164.345 140.218 164.789 140.222 165.341C140.226 165.892 139.781 166.342 139.228 166.346C138.676 166.35 138.225 165.905 138.221 165.354C138.217 164.802 138.662 164.352 139.215 164.348Z" fill="#D9E2EC"/>
<path d="M131.21 164.402C131.763 164.398 132.214 164.842 132.217 165.394C132.221 165.945 131.776 166.395 131.224 166.399C130.671 166.403 130.22 165.959 130.216 165.407C130.213 164.855 130.658 164.405 131.21 164.402Z" fill="#D9E2EC"/>
<path d="M123.206 164.455C123.758 164.451 124.209 164.895 124.213 165.447C124.217 165.999 123.772 166.449 123.219 166.452C122.666 166.456 122.215 166.012 122.212 165.46C122.208 164.909 122.653 164.459 123.206 164.455Z" fill="#D9E2EC"/>
<path d="M195.194 155.986C195.746 155.982 196.197 156.427 196.201 156.978C196.205 157.53 195.76 157.98 195.207 157.984C194.654 157.987 194.203 157.543 194.2 156.992C194.196 156.44 194.641 155.99 195.194 155.986Z" fill="#D9E2EC"/>
<path d="M187.189 156.039C187.742 156.036 188.193 156.48 188.196 157.031C188.2 157.583 187.755 158.033 187.202 158.037C186.65 158.04 186.199 157.596 186.195 157.045C186.192 156.493 186.637 156.043 187.189 156.039Z" fill="#D9E2EC"/>
<path d="M179.185 156.093C179.737 156.089 180.188 156.533 180.192 157.085C180.195 157.636 179.75 158.086 179.198 158.09C178.645 158.094 178.194 157.65 178.191 157.098C178.187 156.546 178.632 156.096 179.185 156.093Z" fill="#D9E2EC"/>
<path d="M171.18 156.146C171.733 156.142 172.184 156.586 172.187 157.138C172.191 157.689 171.746 158.14 171.193 158.143C170.641 158.147 170.19 157.703 170.186 157.151C170.182 156.6 170.627 156.149 171.18 156.146Z" fill="#D9E2EC"/>
<path d="M163.175 156.199C163.728 156.195 164.179 156.64 164.183 157.191C164.186 157.743 163.741 158.193 163.189 158.196C162.636 158.2 162.185 157.756 162.182 157.204C162.178 156.653 162.623 156.203 163.175 156.199Z" fill="#D9E2EC"/>
<path d="M155.171 156.252C155.723 156.249 156.174 156.693 156.178 157.244C156.182 157.796 155.737 158.246 155.184 158.25C154.632 158.253 154.181 157.809 154.177 157.258C154.173 156.706 154.618 156.256 155.171 156.252Z" fill="#D9E2EC"/>
<path d="M147.166 156.305C147.719 156.302 148.17 156.746 148.174 157.298C148.177 157.849 147.732 158.299 147.18 158.303C146.627 158.307 146.176 157.862 146.172 157.311C146.169 156.759 146.614 156.309 147.166 156.305Z" fill="#D9E2EC"/>
<path d="M139.162 156.359C139.714 156.355 140.165 156.799 140.169 157.351C140.173 157.902 139.728 158.352 139.175 158.356C138.622 158.36 138.171 157.916 138.168 157.364C138.164 156.813 138.609 156.362 139.162 156.359Z" fill="#D9E2EC"/>
<path d="M131.157 156.412C131.71 156.408 132.161 156.852 132.164 157.404C132.168 157.956 131.723 158.406 131.17 158.409C130.618 158.413 130.167 157.969 130.163 157.417C130.16 156.866 130.605 156.416 131.157 156.412Z" fill="#D9E2EC"/>
<path d="M123.153 156.465C123.705 156.461 124.156 156.906 124.16 157.457C124.163 158.009 123.718 158.459 123.166 158.463C122.613 158.466 122.162 158.022 122.159 157.471C122.155 156.919 122.6 156.469 123.153 156.465Z" fill="#D9E2EC"/>
<path d="M195.353 179.955C195.906 179.952 196.357 180.396 196.36 180.947C196.364 181.499 195.919 181.949 195.366 181.953C194.814 181.957 194.363 181.512 194.359 180.961C194.356 180.409 194.801 179.959 195.353 179.955Z" fill="#D9E2EC"/>
<path d="M187.349 180.009C187.901 180.005 188.352 180.449 188.356 181.001C188.359 181.552 187.914 182.002 187.362 182.006C186.809 182.01 186.358 181.566 186.355 181.014C186.351 180.462 186.796 180.012 187.349 180.009Z" fill="#D9E2EC"/>
<path d="M179.344 180.062C179.897 180.058 180.348 180.502 180.351 181.054C180.355 181.606 179.91 182.056 179.357 182.059C178.805 182.063 178.354 181.619 178.35 181.067C178.346 180.516 178.791 180.066 179.344 180.062Z" fill="#D9E2EC"/>
<path d="M171.339 180.115C171.892 180.111 172.343 180.556 172.347 181.107C172.35 181.659 171.905 182.109 171.353 182.113C170.8 182.116 170.349 181.672 170.345 181.12C170.342 180.569 170.787 180.119 171.339 180.115Z" fill="#D9E2EC"/>
<path d="M163.335 180.168C163.887 180.165 164.338 180.609 164.342 181.16C164.346 181.712 163.901 182.162 163.348 182.166C162.795 182.169 162.345 181.725 162.341 181.174C162.337 180.622 162.782 180.172 163.335 180.168Z" fill="#D9E2EC"/>
<path d="M155.33 180.222C155.883 180.218 156.334 180.662 156.337 181.214C156.341 181.765 155.896 182.215 155.344 182.219C154.791 182.223 154.34 181.778 154.336 181.227C154.333 180.675 154.778 180.225 155.33 180.222Z" fill="#D9E2EC"/>
<path d="M147.326 180.275C147.878 180.271 148.329 180.715 148.333 181.267C148.337 181.818 147.892 182.269 147.339 182.272C146.786 182.276 146.335 181.832 146.332 181.28C146.328 180.729 146.773 180.278 147.326 180.275Z" fill="#D9E2EC"/>
<path d="M139.321 180.328C139.874 180.324 140.325 180.768 140.328 181.32C140.332 181.872 139.887 182.322 139.334 182.325C138.782 182.329 138.331 181.885 138.327 181.333C138.323 180.782 138.768 180.332 139.321 180.328Z" fill="#D9E2EC"/>
<path d="M131.317 180.381C131.869 180.378 132.32 180.822 132.324 181.373C132.327 181.925 131.882 182.375 131.33 182.379C130.777 182.382 130.326 181.938 130.323 181.387C130.319 180.835 130.764 180.385 131.317 180.381Z" fill="#D9E2EC"/>
<path d="M123.312 180.434C123.865 180.431 124.315 180.875 124.319 181.426C124.323 181.978 123.878 182.428 123.325 182.432C122.773 182.436 122.322 181.991 122.318 181.44C122.314 180.888 122.759 180.438 123.312 180.434Z" fill="#D9E2EC"/>
<path d="M195.3 171.966C195.853 171.962 196.304 172.406 196.307 172.958C196.311 173.509 195.866 173.959 195.313 173.963C194.761 173.967 194.31 173.523 194.306 172.971C194.302 172.419 194.747 171.969 195.3 171.966Z" fill="#D9E2EC"/>
<path d="M187.295 172.019C187.848 172.015 188.299 172.459 188.303 173.011C188.306 173.563 187.861 174.013 187.309 174.016C186.756 174.02 186.305 173.576 186.301 173.024C186.298 172.473 186.743 172.023 187.295 172.019Z" fill="#D9E2EC"/>
<path d="M179.291 172.072C179.843 172.068 180.294 172.513 180.298 173.064C180.302 173.616 179.857 174.066 179.304 174.07C178.752 174.073 178.301 173.629 178.297 173.077C178.293 172.526 178.738 172.076 179.291 172.072Z" fill="#D9E2EC"/>
<path d="M171.286 172.125C171.839 172.122 172.29 172.566 172.293 173.117C172.297 173.669 171.852 174.119 171.3 174.123C170.747 174.126 170.296 173.682 170.292 173.131C170.289 172.579 170.734 172.129 171.286 172.125Z" fill="#D9E2EC"/>
<path d="M163.282 172.179C163.834 172.175 164.285 172.619 164.289 173.171C164.293 173.722 163.848 174.172 163.295 174.176C162.742 174.18 162.291 173.735 162.288 173.184C162.284 172.632 162.729 172.182 163.282 172.179Z" fill="#D9E2EC"/>
<path d="M155.277 172.232C155.83 172.228 156.281 172.672 156.284 173.224C156.288 173.775 155.843 174.226 155.29 174.229C154.738 174.233 154.287 173.789 154.283 173.237C154.28 172.686 154.725 172.235 155.277 172.232Z" fill="#D9E2EC"/>
<path d="M147.273 172.285C147.825 172.281 148.276 172.725 148.28 173.277C148.283 173.829 147.838 174.279 147.286 174.282C146.733 174.286 146.282 173.842 146.279 173.29C146.275 172.739 146.72 172.289 147.273 172.285Z" fill="#D9E2EC"/>
<path d="M139.268 172.338C139.821 172.335 140.272 172.779 140.275 173.33C140.279 173.882 139.834 174.332 139.281 174.336C138.729 174.339 138.278 173.895 138.274 173.344C138.27 172.792 138.715 172.342 139.268 172.338Z" fill="#D9E2EC"/>
<path d="M131.263 172.391C131.816 172.388 132.267 172.832 132.271 173.383C132.274 173.935 131.829 174.385 131.277 174.389C130.724 174.393 130.273 173.948 130.269 173.397C130.266 172.845 130.711 172.395 131.263 172.391Z" fill="#D9E2EC"/>
<path d="M123.259 172.445C123.811 172.441 124.262 172.885 124.266 173.437C124.27 173.988 123.825 174.438 123.272 174.442C122.72 174.446 122.269 174.002 122.265 173.45C122.261 172.898 122.706 172.448 123.259 172.445Z" fill="#D9E2EC"/>
<path d="M195.459 195.935C196.012 195.931 196.463 196.375 196.467 196.927C196.47 197.479 196.025 197.929 195.473 197.932C194.92 197.936 194.469 197.492 194.465 196.94C194.462 196.389 194.907 195.939 195.459 195.935Z" fill="#D9E2EC"/>
<path d="M187.455 195.988C188.007 195.984 188.458 196.429 188.462 196.98C188.466 197.532 188.021 197.982 187.468 197.986C186.915 197.989 186.465 197.545 186.461 196.994C186.457 196.442 186.902 195.992 187.455 195.988Z" fill="#D9E2EC"/>
<path d="M179.45 196.041C180.003 196.038 180.454 196.482 180.457 197.033C180.461 197.585 180.016 198.035 179.463 198.039C178.911 198.042 178.46 197.598 178.456 197.047C178.453 196.495 178.898 196.045 179.45 196.041Z" fill="#D9E2EC"/>
<path d="M171.446 196.095C171.998 196.091 172.449 196.535 172.453 197.087C172.457 197.638 172.012 198.088 171.459 198.092C170.906 198.096 170.455 197.652 170.452 197.1C170.448 196.548 170.893 196.098 171.446 196.095Z" fill="#D9E2EC"/>
<path d="M163.441 196.148C163.994 196.144 164.445 196.588 164.448 197.14C164.452 197.691 164.007 198.142 163.454 198.145C162.902 198.149 162.451 197.705 162.447 197.153C162.443 196.602 162.888 196.151 163.441 196.148Z" fill="#D9E2EC"/>
<path d="M155.436 196.201C155.989 196.197 156.44 196.642 156.444 197.193C156.447 197.745 156.002 198.195 155.45 198.198C154.897 198.202 154.446 197.758 154.443 197.206C154.439 196.655 154.884 196.205 155.436 196.201Z" fill="#D9E2EC"/>
<path d="M147.432 196.254C147.985 196.251 148.435 196.695 148.439 197.246C148.443 197.798 147.998 198.248 147.445 198.252C146.893 198.255 146.442 197.811 146.438 197.26C146.434 196.708 146.879 196.258 147.432 196.254Z" fill="#D9E2EC"/>
<path d="M139.427 196.307C139.98 196.304 140.431 196.748 140.435 197.3C140.438 197.851 139.993 198.301 139.441 198.305C138.888 198.309 138.437 197.864 138.433 197.313C138.43 196.761 138.875 196.311 139.427 196.307Z" fill="#D9E2EC"/>
<path d="M131.423 196.361C131.975 196.357 132.426 196.801 132.43 197.353C132.434 197.904 131.989 198.354 131.436 198.358C130.883 198.362 130.433 197.918 130.429 197.366C130.425 196.814 130.87 196.364 131.423 196.361Z" fill="#D9E2EC"/>
<path d="M123.418 196.414C123.971 196.41 124.422 196.854 124.425 197.406C124.429 197.958 123.984 198.408 123.431 198.411C122.879 198.415 122.428 197.971 122.424 197.419C122.421 196.868 122.866 196.418 123.418 196.414Z" fill="#D9E2EC"/>
<path d="M195.406 187.945C195.959 187.941 196.41 188.386 196.413 188.937C196.417 189.489 195.972 189.939 195.42 189.943C194.867 189.946 194.416 189.502 194.412 188.951C194.409 188.399 194.854 187.949 195.406 187.945Z" fill="#D9E2EC"/>
<path d="M187.402 187.998C187.954 187.995 188.405 188.439 188.409 188.99C188.413 189.542 187.968 189.992 187.415 189.996C186.862 190 186.411 189.555 186.408 189.004C186.404 188.452 186.849 188.002 187.402 187.998Z" fill="#D9E2EC"/>
<path d="M179.397 188.052C179.95 188.048 180.401 188.492 180.404 189.044C180.408 189.595 179.963 190.045 179.41 190.049C178.858 190.053 178.407 189.609 178.403 189.057C178.399 188.505 178.844 188.055 179.397 188.052Z" fill="#D9E2EC"/>
<path d="M171.393 188.105C171.945 188.101 172.396 188.545 172.4 189.097C172.403 189.648 171.958 190.099 171.406 190.102C170.853 190.106 170.402 189.662 170.399 189.11C170.395 188.559 170.84 188.109 171.393 188.105Z" fill="#D9E2EC"/>
<path d="M163.388 188.158C163.941 188.154 164.391 188.599 164.395 189.15C164.399 189.702 163.954 190.152 163.401 190.155C162.849 190.159 162.398 189.715 162.394 189.163C162.39 188.612 162.835 188.162 163.388 188.158Z" fill="#D9E2EC"/>
<path d="M155.383 188.211C155.936 188.208 156.387 188.652 156.391 189.203C156.394 189.755 155.949 190.205 155.397 190.209C154.844 190.212 154.393 189.768 154.389 189.217C154.386 188.665 154.831 188.215 155.383 188.211Z" fill="#D9E2EC"/>
<path d="M147.379 188.264C147.931 188.261 148.382 188.705 148.386 189.257C148.39 189.808 147.945 190.258 147.392 190.262C146.839 190.266 146.389 189.821 146.385 189.27C146.381 188.718 146.826 188.268 147.379 188.264Z" fill="#D9E2EC"/>
<path d="M139.374 188.318C139.927 188.314 140.378 188.758 140.381 189.31C140.385 189.861 139.94 190.311 139.387 190.315C138.835 190.319 138.384 189.875 138.38 189.323C138.377 188.772 138.822 188.321 139.374 188.318Z" fill="#D9E2EC"/>
<path d="M131.37 188.371C131.922 188.367 132.373 188.811 132.377 189.363C132.381 189.915 131.936 190.365 131.383 190.368C130.83 190.372 130.379 189.928 130.376 189.376C130.372 188.825 130.817 188.375 131.37 188.371Z" fill="#D9E2EC"/>
<path d="M123.365 188.424C123.918 188.42 124.369 188.865 124.372 189.416C124.376 189.968 123.931 190.418 123.378 190.422C122.826 190.425 122.375 189.981 122.371 189.43C122.367 188.878 122.812 188.428 123.365 188.424Z" fill="#D9E2EC"/>
<path d="M195.566 211.914C196.118 211.911 196.569 212.355 196.573 212.906C196.576 213.458 196.131 213.908 195.579 213.912C195.026 213.916 194.575 213.471 194.572 212.92C194.568 212.368 195.013 211.918 195.566 211.914Z" fill="#D9E2EC"/>
<path d="M187.561 211.968C188.114 211.964 188.565 212.408 188.568 212.96C188.572 213.511 188.127 213.961 187.574 213.965C187.022 213.969 186.571 213.525 186.567 212.973C186.563 212.421 187.008 211.971 187.561 211.968Z" fill="#D9E2EC"/>
<path d="M179.556 212.021C180.109 212.017 180.56 212.461 180.564 213.013C180.567 213.565 180.122 214.015 179.57 214.018C179.017 214.022 178.566 213.578 178.563 213.026C178.559 212.475 179.004 212.025 179.556 212.021Z" fill="#D9E2EC"/>
<path d="M171.552 212.074C172.104 212.07 172.555 212.515 172.559 213.066C172.563 213.618 172.118 214.068 171.565 214.072C171.013 214.075 170.562 213.631 170.558 213.079C170.554 212.528 170.999 212.078 171.552 212.074Z" fill="#D9E2EC"/>
<path d="M163.547 212.127C164.1 212.124 164.551 212.568 164.555 213.119C164.558 213.671 164.113 214.121 163.561 214.125C163.008 214.128 162.557 213.684 162.553 213.133C162.55 212.581 162.995 212.131 163.547 212.127Z" fill="#D9E2EC"/>
<path d="M155.543 212.181C156.095 212.177 156.546 212.621 156.55 213.173C156.554 213.724 156.109 214.174 155.556 214.178C155.003 214.182 154.552 213.737 154.549 213.186C154.545 212.634 154.99 212.184 155.543 212.181Z" fill="#D9E2EC"/>
<path d="M147.538 212.234C148.091 212.23 148.542 212.674 148.545 213.226C148.549 213.777 148.104 214.228 147.551 214.231C146.999 214.235 146.548 213.791 146.544 213.239C146.541 212.688 146.986 212.237 147.538 212.234Z" fill="#D9E2EC"/>
<path d="M139.534 212.287C140.086 212.283 140.537 212.727 140.541 213.279C140.544 213.831 140.099 214.281 139.547 214.284C138.994 214.288 138.543 213.844 138.54 213.292C138.536 212.741 138.981 212.291 139.534 212.287Z" fill="#D9E2EC"/>
<path d="M131.529 212.34C132.082 212.337 132.533 212.781 132.536 213.332C132.54 213.884 132.095 214.334 131.542 214.338C130.99 214.341 130.539 213.897 130.535 213.346C130.531 212.794 130.976 212.344 131.529 212.34Z" fill="#D9E2EC"/>
<path d="M123.524 212.393C124.077 212.39 124.528 212.834 124.532 213.385C124.535 213.937 124.09 214.387 123.538 214.391C122.985 214.395 122.534 213.95 122.531 213.399C122.527 212.847 122.972 212.397 123.524 212.393Z" fill="#D9E2EC"/>
<path d="M195.512 203.925C196.065 203.921 196.516 204.365 196.52 204.917C196.523 205.468 196.078 205.918 195.526 205.922C194.973 205.926 194.522 205.482 194.519 204.93C194.515 204.378 194.96 203.928 195.512 203.925Z" fill="#D9E2EC"/>
<path d="M187.508 203.978C188.06 203.974 188.511 204.418 188.515 204.97C188.519 205.522 188.074 205.972 187.521 205.975C186.969 205.979 186.518 205.535 186.514 204.983C186.51 204.432 186.955 203.982 187.508 203.978Z" fill="#D9E2EC"/>
<path d="M179.503 204.031C180.056 204.027 180.507 204.472 180.511 205.023C180.514 205.575 180.069 206.025 179.517 206.029C178.964 206.032 178.513 205.588 178.509 205.036C178.506 204.485 178.951 204.035 179.503 204.031Z" fill="#D9E2EC"/>
<path d="M171.499 204.084C172.051 204.081 172.502 204.525 172.506 205.076C172.51 205.628 172.065 206.078 171.512 206.082C170.959 206.085 170.508 205.641 170.505 205.09C170.501 204.538 170.946 204.088 171.499 204.084Z" fill="#D9E2EC"/>
<path d="M163.494 204.138C164.047 204.134 164.498 204.578 164.501 205.13C164.505 205.681 164.06 206.131 163.507 206.135C162.955 206.139 162.504 205.695 162.5 205.143C162.497 204.591 162.942 204.141 163.494 204.138Z" fill="#D9E2EC"/>
<path d="M155.49 204.191C156.042 204.187 156.493 204.631 156.497 205.183C156.5 205.734 156.055 206.185 155.503 206.188C154.95 206.192 154.499 205.748 154.496 205.196C154.492 204.645 154.937 204.194 155.49 204.191Z" fill="#D9E2EC"/>
<path d="M147.485 204.244C148.038 204.24 148.489 204.684 148.492 205.236C148.496 205.788 148.051 206.238 147.498 206.241C146.946 206.245 146.495 205.801 146.491 205.249C146.487 204.698 146.932 204.248 147.485 204.244Z" fill="#D9E2EC"/>
<path d="M139.48 204.297C140.033 204.294 140.484 204.738 140.488 205.289C140.491 205.841 140.046 206.291 139.494 206.295C138.941 206.298 138.49 205.854 138.487 205.303C138.483 204.751 138.928 204.301 139.48 204.297Z" fill="#D9E2EC"/>
<path d="M131.476 204.35C132.028 204.347 132.479 204.791 132.483 205.343C132.487 205.894 132.042 206.344 131.489 206.348C130.937 206.352 130.486 205.907 130.482 205.356C130.478 204.804 130.923 204.354 131.476 204.35Z" fill="#D9E2EC"/>
<path d="M123.471 204.404C124.024 204.4 124.475 204.844 124.479 205.396C124.482 205.947 124.037 206.397 123.485 206.401C122.932 206.405 122.481 205.961 122.477 205.409C122.474 204.857 122.919 204.407 123.471 204.404Z" fill="#D9E2EC"/>
<path d="M195.672 227.894C196.224 227.89 196.675 228.334 196.679 228.886C196.683 229.438 196.238 229.888 195.685 229.891C195.133 229.895 194.682 229.451 194.678 228.899C194.674 228.348 195.119 227.898 195.672 227.894Z" fill="#D9E2EC"/>
<path d="M187.667 227.947C188.22 227.943 188.671 228.388 188.674 228.939C188.678 229.491 188.233 229.941 187.681 229.945C187.128 229.948 186.677 229.504 186.673 228.953C186.67 228.401 187.115 227.951 187.667 227.947Z" fill="#D9E2EC"/>
<path d="M179.663 228C180.215 227.997 180.666 228.441 180.67 228.992C180.674 229.544 180.229 229.994 179.676 229.998C179.123 230.001 178.672 229.557 178.669 229.006C178.665 228.454 179.11 228.004 179.663 228Z" fill="#D9E2EC"/>
<path d="M171.658 228.054C172.211 228.05 172.662 228.494 172.665 229.046C172.669 229.597 172.224 230.047 171.671 230.051C171.119 230.055 170.668 229.611 170.664 229.059C170.661 228.507 171.106 228.057 171.658 228.054Z" fill="#D9E2EC"/>
<path d="M163.654 228.107C164.206 228.103 164.657 228.547 164.661 229.099C164.664 229.65 164.219 230.101 163.667 230.104C163.114 230.108 162.663 229.664 162.66 229.112C162.656 228.561 163.101 228.11 163.654 228.107Z" fill="#D9E2EC"/>
<path d="M155.649 228.16C156.202 228.156 156.653 228.601 156.656 229.152C156.66 229.704 156.215 230.154 155.662 230.157C155.11 230.161 154.659 229.717 154.655 229.165C154.651 228.614 155.096 228.164 155.649 228.16Z" fill="#D9E2EC"/>
<path d="M147.644 228.213C148.197 228.21 148.648 228.654 148.652 229.205C148.655 229.757 148.21 230.207 147.658 230.211C147.105 230.214 146.654 229.77 146.65 229.219C146.647 228.667 147.092 228.217 147.644 228.213Z" fill="#D9E2EC"/>
<path d="M139.64 228.266C140.192 228.263 140.643 228.707 140.647 229.259C140.651 229.81 140.206 230.26 139.653 230.264C139.101 230.268 138.65 229.823 138.646 229.272C138.642 228.72 139.087 228.27 139.64 228.266Z" fill="#D9E2EC"/>
<path d="M131.635 228.32C132.188 228.316 132.639 228.76 132.642 229.312C132.646 229.863 132.201 230.313 131.649 230.317C131.096 230.321 130.645 229.877 130.641 229.325C130.638 228.773 131.083 228.323 131.635 228.32Z" fill="#D9E2EC"/>
<path d="M123.631 228.373C124.183 228.369 124.634 228.813 124.638 229.365C124.642 229.917 124.197 230.367 123.644 230.37C123.091 230.374 122.64 229.93 122.637 229.378C122.633 228.827 123.078 228.377 123.631 228.373Z" fill="#D9E2EC"/>
<path d="M195.619 219.904C196.171 219.9 196.622 220.345 196.626 220.896C196.63 221.448 196.185 221.898 195.632 221.902C195.079 221.905 194.628 221.461 194.625 220.91C194.621 220.358 195.066 219.908 195.619 219.904Z" fill="#D9E2EC"/>
<path d="M187.614 219.957C188.167 219.954 188.618 220.398 188.621 220.949C188.625 221.501 188.18 221.951 187.627 221.955C187.075 221.959 186.624 221.514 186.62 220.963C186.617 220.411 187.062 219.961 187.614 219.957Z" fill="#D9E2EC"/>
<path d="M179.61 220.011C180.162 220.007 180.613 220.451 180.617 221.003C180.62 221.554 180.175 222.004 179.623 222.008C179.07 222.012 178.619 221.568 178.616 221.016C178.612 220.464 179.057 220.014 179.61 220.011Z" fill="#D9E2EC"/>
<path d="M171.605 220.064C172.158 220.06 172.609 220.504 172.612 221.056C172.616 221.607 172.171 222.058 171.618 222.061C171.066 222.065 170.615 221.621 170.611 221.069C170.607 220.518 171.052 220.068 171.605 220.064Z" fill="#D9E2EC"/>
<path d="M163.6 220.117C164.153 220.113 164.604 220.558 164.608 221.109C164.611 221.661 164.166 222.111 163.614 222.114C163.061 222.118 162.61 221.674 162.606 221.122C162.603 220.571 163.048 220.121 163.6 220.117Z" fill="#D9E2EC"/>
<path d="M155.596 220.17C156.148 220.167 156.599 220.611 156.603 221.162C156.607 221.714 156.162 222.164 155.609 222.168C155.057 222.171 154.606 221.727 154.602 221.176C154.598 220.624 155.043 220.174 155.596 220.17Z" fill="#D9E2EC"/>
<path d="M147.591 220.223C148.144 220.22 148.595 220.664 148.598 221.216C148.602 221.767 148.157 222.217 147.605 222.221C147.052 222.225 146.601 221.78 146.597 221.229C146.594 220.677 147.039 220.227 147.591 220.223Z" fill="#D9E2EC"/>
<path d="M139.587 220.277C140.139 220.273 140.59 220.717 140.594 221.269C140.598 221.82 140.153 222.27 139.6 222.274C139.047 222.278 138.596 221.834 138.593 221.282C138.589 220.731 139.034 220.28 139.587 220.277Z" fill="#D9E2EC"/>
<path d="M131.582 220.33C132.135 220.326 132.586 220.77 132.589 221.322C132.593 221.874 132.148 222.324 131.595 222.327C131.043 222.331 130.592 221.887 130.588 221.335C130.585 220.784 131.03 220.334 131.582 220.33Z" fill="#D9E2EC"/>
<path d="M123.578 220.383C124.13 220.379 124.581 220.824 124.585 221.375C124.588 221.927 124.143 222.377 123.591 222.381C123.038 222.384 122.587 221.94 122.584 221.389C122.58 220.837 123.025 220.387 123.578 220.383Z" fill="#D9E2EC"/>
<path d="M115.095 148.529C115.647 148.525 116.098 148.969 116.102 149.521C116.106 150.072 115.661 150.522 115.108 150.526C114.556 150.53 114.105 150.086 114.101 149.534C114.097 148.982 114.542 148.532 115.095 148.529Z" fill="#D9E2EC"/>
<path d="M107.09 148.582C107.643 148.578 108.094 149.022 108.098 149.574C108.101 150.125 107.656 150.576 107.104 150.579C106.551 150.583 106.1 150.139 106.096 149.587C106.093 149.036 106.538 148.586 107.09 148.582Z" fill="#D9E2EC"/>
<path d="M99.0857 148.635C99.6383 148.631 100.089 149.076 100.093 149.627C100.097 150.179 99.6516 150.629 99.099 150.633C98.5464 150.636 98.0955 150.192 98.0918 149.64C98.0881 149.089 98.5331 148.639 99.0857 148.635Z" fill="#D9E2EC"/>
<path d="M91.0812 148.688C91.6338 148.685 92.0847 149.129 92.0884 149.68C92.092 150.232 91.647 150.682 91.0944 150.686C90.5418 150.689 90.0909 150.245 90.0872 149.694C90.0836 149.142 90.5286 148.692 91.0812 148.688Z" fill="#D9E2EC"/>
<path d="M83.0766 148.742C83.6292 148.738 84.0801 149.182 84.0838 149.734C84.0875 150.285 83.6425 150.735 83.0899 150.739C82.5373 150.743 82.0863 150.298 82.0827 149.747C82.079 149.195 82.524 148.745 83.0766 148.742Z" fill="#D9E2EC"/>
<path d="M75.072 148.795C75.6246 148.791 76.0756 149.235 76.0792 149.787C76.0829 150.338 75.6379 150.788 75.0853 150.792C74.5327 150.796 74.0818 150.352 74.0781 149.8C74.0744 149.249 74.5194 148.798 75.072 148.795Z" fill="#D9E2EC"/>
<path d="M67.0674 148.848C67.62 148.844 68.071 149.288 68.0747 149.84C68.0783 150.392 67.6333 150.842 67.0807 150.845C66.5281 150.849 66.0772 150.405 66.0735 149.853C66.0698 149.302 66.5148 148.852 67.0674 148.848Z" fill="#D9E2EC"/>
<path d="M59.0629 148.901C59.6155 148.897 60.0664 149.342 60.0701 149.893C60.0737 150.445 59.6288 150.895 59.0762 150.899C58.5236 150.902 58.0726 150.458 58.0689 149.907C58.0653 149.355 58.5103 148.905 59.0629 148.901Z" fill="#D9E2EC"/>
<path d="M51.0583 148.954C51.6109 148.951 52.0618 149.395 52.0655 149.946C52.0692 150.498 51.6242 150.948 51.0716 150.952C50.519 150.956 50.068 150.511 50.0644 149.96C50.0607 149.408 50.5057 148.958 51.0583 148.954Z" fill="#D9E2EC"/>
<path d="M43.0537 149.008C43.6063 149.004 44.0573 149.448 44.0609 150C44.0646 150.551 43.6196 151.001 43.067 151.005C42.5144 151.009 42.0635 150.565 42.0598 150.013C42.0561 149.461 42.5011 149.011 43.0537 149.008Z" fill="#D9E2EC"/>
<path d="M115.042 140.539C115.594 140.535 116.045 140.979 116.049 141.531C116.053 142.083 115.608 142.533 115.055 142.536C114.502 142.54 114.051 142.096 114.048 141.544C114.044 140.993 114.489 140.543 115.042 140.539Z" fill="#D9E2EC"/>
<path d="M107.037 140.592C107.59 140.588 108.041 141.033 108.044 141.584C108.048 142.136 107.603 142.586 107.05 142.59C106.498 142.593 106.047 142.149 106.043 141.597C106.04 141.046 106.485 140.596 107.037 140.592Z" fill="#D9E2EC"/>
<path d="M99.0326 140.645C99.5852 140.642 100.036 141.086 100.04 141.637C100.043 142.189 99.5985 142.639 99.0459 142.643C98.4933 142.646 98.0424 142.202 98.0387 141.651C98.035 141.099 98.48 140.649 99.0326 140.645Z" fill="#D9E2EC"/>
<path d="M91.028 140.699C91.5806 140.695 92.0316 141.139 92.0353 141.691C92.0389 142.242 91.5939 142.692 91.0413 142.696C90.4887 142.7 90.0378 142.255 90.0341 141.704C90.0304 141.152 90.4754 140.702 91.028 140.699Z" fill="#D9E2EC"/>
<path d="M83.0235 140.752C83.5761 140.748 84.027 141.192 84.0307 141.744C84.0343 142.295 83.5894 142.746 83.0367 142.749C82.4841 142.753 82.0332 142.309 82.0295 141.757C82.0259 141.206 82.4709 140.755 83.0235 140.752Z" fill="#D9E2EC"/>
<path d="M75.0189 140.805C75.5715 140.801 76.0224 141.245 76.0261 141.797C76.0298 142.349 75.5848 142.799 75.0322 142.802C74.4796 142.806 74.0286 142.362 74.025 141.81C74.0213 141.259 74.4663 140.809 75.0189 140.805Z" fill="#D9E2EC"/>
<path d="M67.0143 140.858C67.5669 140.855 68.0179 141.299 68.0215 141.85C68.0252 142.402 67.5802 142.852 67.0276 142.856C66.475 142.859 66.0241 142.415 66.0204 141.864C66.0167 141.312 66.4617 140.862 67.0143 140.858Z" fill="#D9E2EC"/>
<path d="M59.0097 140.911C59.5623 140.908 60.0133 141.352 60.017 141.903C60.0206 142.455 59.5756 142.905 59.023 142.909C58.4704 142.913 58.0195 142.468 58.0158 141.917C58.0121 141.365 58.4571 140.915 59.0097 140.911Z" fill="#D9E2EC"/>
<path d="M51.0052 140.965C51.5578 140.961 52.0087 141.405 52.0124 141.957C52.0161 142.508 51.5711 142.958 51.0185 142.962C50.4659 142.966 50.0149 142.522 50.0112 141.97C50.0076 141.418 50.4526 140.968 51.0052 140.965Z" fill="#D9E2EC"/>
<path d="M43.0006 141.018C43.5532 141.014 44.0041 141.458 44.0078 142.01C44.0115 142.561 43.5665 143.012 43.0139 143.015C42.4613 143.019 42.0103 142.575 42.0067 142.023C42.003 141.472 42.448 141.022 43.0006 141.018Z" fill="#D9E2EC"/>
<path d="M115.201 164.508C115.754 164.504 116.205 164.949 116.208 165.5C116.212 166.052 115.767 166.502 115.214 166.506C114.662 166.509 114.211 166.065 114.207 165.513C114.204 164.962 114.649 164.512 115.201 164.508Z" fill="#D9E2EC"/>
<path d="M107.197 164.561C107.749 164.558 108.2 165.002 108.204 165.553C108.207 166.105 107.762 166.555 107.21 166.559C106.657 166.562 106.206 166.118 106.203 165.567C106.199 165.015 106.644 164.565 107.197 164.561Z" fill="#D9E2EC"/>
<path d="M99.192 164.615C99.7446 164.611 100.196 165.055 100.199 165.607C100.203 166.158 99.7579 166.608 99.2053 166.612C98.6527 166.616 98.2017 166.172 98.1981 165.62C98.1944 165.068 98.6394 164.618 99.192 164.615Z" fill="#D9E2EC"/>
<path d="M91.1874 164.668C91.74 164.664 92.191 165.108 92.1946 165.66C92.1983 166.211 91.7533 166.662 91.2007 166.665C90.6481 166.669 90.1971 166.225 90.1935 165.673C90.1898 165.122 90.6348 164.671 91.1874 164.668Z" fill="#D9E2EC"/>
<path d="M83.1828 164.721C83.7354 164.717 84.1864 165.161 84.19 165.713C84.1937 166.265 83.7487 166.715 83.1961 166.718C82.6435 166.722 82.1926 166.278 82.1889 165.726C82.1852 165.175 82.6302 164.725 83.1828 164.721Z" fill="#D9E2EC"/>
<path d="M75.1783 164.774C75.7309 164.771 76.1818 165.215 76.1855 165.766C76.1891 166.318 75.7441 166.768 75.1915 166.772C74.6389 166.775 74.188 166.331 74.1843 165.78C74.1807 165.228 74.6257 164.778 75.1783 164.774Z" fill="#D9E2EC"/>
<path d="M67.1737 164.827C67.7263 164.824 68.1772 165.268 68.1809 165.82C68.1846 166.371 67.7396 166.821 67.187 166.825C66.6344 166.829 66.1834 166.384 66.1798 165.833C66.1761 165.281 66.6211 164.831 67.1737 164.827Z" fill="#D9E2EC"/>
<path d="M59.1691 164.881C59.7217 164.877 60.1727 165.321 60.1763 165.873C60.18 166.424 59.735 166.874 59.1824 166.878C58.6298 166.882 58.1789 166.438 58.1752 165.886C58.1715 165.334 58.6165 164.884 59.1691 164.881Z" fill="#D9E2EC"/>
<path d="M51.1645 164.934C51.7171 164.93 52.1681 165.374 52.1718 165.926C52.1754 166.478 51.7304 166.928 51.1778 166.931C50.6252 166.935 50.1743 166.491 50.1706 165.939C50.1669 165.388 50.6119 164.938 51.1645 164.934Z" fill="#D9E2EC"/>
<path d="M43.16 164.987C43.7126 164.983 44.1635 165.428 44.1672 165.979C44.1708 166.531 43.7258 166.981 43.1732 166.985C42.6206 166.988 42.1697 166.544 42.166 165.992C42.1624 165.441 42.6074 164.991 43.16 164.987Z" fill="#D9E2EC"/>
<path d="M115.148 156.518C115.701 156.515 116.152 156.959 116.155 157.51C116.159 158.062 115.714 158.512 115.161 158.516C114.609 158.519 114.158 158.075 114.154 157.524C114.15 156.972 114.595 156.522 115.148 156.518Z" fill="#D9E2EC"/>
<path d="M107.143 156.572C107.696 156.568 108.147 157.012 108.151 157.564C108.154 158.115 107.709 158.565 107.157 158.569C106.604 158.573 106.153 158.129 106.15 157.577C106.146 157.025 106.591 156.575 107.143 156.572Z" fill="#D9E2EC"/>
<path d="M99.1389 156.625C99.6915 156.621 100.142 157.065 100.146 157.617C100.15 158.168 99.7047 158.619 99.1521 158.622C98.5995 158.626 98.1486 158.182 98.1449 157.63C98.1413 157.079 98.5863 156.628 99.1389 156.625Z" fill="#D9E2EC"/>
<path d="M91.1343 156.678C91.6869 156.674 92.1378 157.119 92.1415 157.67C92.1452 158.222 91.7002 158.672 91.1476 158.675C90.595 158.679 90.144 158.235 90.1404 157.683C90.1367 157.132 90.5817 156.682 91.1343 156.678Z" fill="#D9E2EC"/>
<path d="M83.1297 156.731C83.6823 156.728 84.1333 157.172 84.1369 157.723C84.1406 158.275 83.6956 158.725 83.143 158.729C82.5904 158.732 82.1395 158.288 82.1358 157.737C82.1321 157.185 82.5771 156.735 83.1297 156.731Z" fill="#D9E2EC"/>
<path d="M75.1251 156.784C75.6777 156.781 76.1287 157.225 76.1324 157.777C76.136 158.328 75.691 158.778 75.1384 158.782C74.5858 158.786 74.1349 158.341 74.1312 157.79C74.1275 157.238 74.5725 156.788 75.1251 156.784Z" fill="#D9E2EC"/>
<path d="M67.1206 156.838C67.6732 156.834 68.1241 157.278 68.1278 157.83C68.1314 158.381 67.6864 158.831 67.1338 158.835C66.5812 158.839 66.1303 158.395 66.1266 157.843C66.123 157.291 66.568 156.841 67.1206 156.838Z" fill="#D9E2EC"/>
<path d="M59.116 156.891C59.6686 156.887 60.1195 157.331 60.1232 157.883C60.1269 158.435 59.6819 158.885 59.1293 158.888C58.5767 158.892 58.1257 158.448 58.1221 157.896C58.1184 157.345 58.5634 156.895 59.116 156.891Z" fill="#D9E2EC"/>
<path d="M51.1114 156.944C51.664 156.94 52.115 157.385 52.1186 157.936C52.1223 158.488 51.6773 158.938 51.1247 158.942C50.5721 158.945 50.1212 158.501 50.1175 157.95C50.1138 157.398 50.5588 156.948 51.1114 156.944Z" fill="#D9E2EC"/>
<path d="M43.1068 156.997C43.6594 156.994 44.1104 157.438 44.1141 157.989C44.1177 158.541 43.6727 158.991 43.1201 158.995C42.5675 158.998 42.1166 158.554 42.1129 158.003C42.1092 157.451 42.5542 157.001 43.1068 156.997Z" fill="#D9E2EC"/>
<path d="M115.307 180.488C115.86 180.484 116.311 180.928 116.315 181.48C116.318 182.031 115.873 182.481 115.321 182.485C114.768 182.489 114.317 182.045 114.313 181.493C114.31 180.941 114.755 180.491 115.307 180.488Z" fill="#D9E2EC"/>
<path d="M107.303 180.541C107.855 180.537 108.306 180.981 108.31 181.533C108.314 182.084 107.869 182.535 107.316 182.538C106.763 182.542 106.313 182.098 106.309 181.546C106.305 180.995 106.75 180.545 107.303 180.541Z" fill="#D9E2EC"/>
<path d="M99.2982 180.594C99.8508 180.59 100.302 181.035 100.305 181.586C100.309 182.138 99.8641 182.588 99.3115 182.592C98.7589 182.595 98.308 182.151 98.3043 181.599C98.3006 181.048 98.7456 180.598 99.2982 180.594Z" fill="#D9E2EC"/>
<path d="M91.2937 180.647C91.8463 180.644 92.2972 181.088 92.3009 181.639C92.3045 182.191 91.8595 182.641 91.3069 182.645C90.7543 182.648 90.3034 182.204 90.2997 181.653C90.2961 181.101 90.7411 180.651 91.2937 180.647Z" fill="#D9E2EC"/>
<path d="M83.2891 180.701C83.8417 180.697 84.2926 181.141 84.2963 181.693C84.3 182.244 83.855 182.694 83.3024 182.698C82.7498 182.702 82.2988 182.257 82.2952 181.706C82.2915 181.154 82.7365 180.704 83.2891 180.701Z" fill="#D9E2EC"/>
<path d="M75.2845 180.754C75.8371 180.75 76.2881 181.194 76.2917 181.746C76.2954 182.297 75.8504 182.747 75.2978 182.751C74.7452 182.755 74.2942 182.311 74.2906 181.759C74.2869 181.208 74.7319 180.757 75.2845 180.754Z" fill="#D9E2EC"/>
<path d="M67.2799 180.807C67.8325 180.803 68.2835 181.247 68.2871 181.799C68.2908 182.351 67.8458 182.801 67.2932 182.804C66.7406 182.808 66.2897 182.364 66.286 181.812C66.2823 181.261 66.7273 180.811 67.2799 180.807Z" fill="#D9E2EC"/>
<path d="M59.2754 180.86C59.828 180.856 60.2789 181.301 60.2826 181.852C60.2862 182.404 59.8412 182.854 59.2886 182.858C58.736 182.861 58.2851 182.417 58.2814 181.866C58.2778 181.314 58.7228 180.864 59.2754 180.86Z" fill="#D9E2EC"/>
<path d="M51.2708 180.913C51.8234 180.91 52.2743 181.354 52.278 181.905C52.2817 182.457 51.8367 182.907 51.2841 182.911C50.7315 182.915 50.2805 182.47 50.2769 181.919C50.2732 181.367 50.7182 180.917 51.2708 180.913Z" fill="#D9E2EC"/>
<path d="M43.2662 180.967C43.8188 180.963 44.2698 181.407 44.2734 181.959C44.2771 182.51 43.8321 182.96 43.2795 182.964C42.7269 182.968 42.2759 182.524 42.2723 181.972C42.2686 181.42 42.7136 180.97 43.2662 180.967Z" fill="#D9E2EC"/>
<path d="M115.254 172.498C115.807 172.494 116.258 172.938 116.261 173.49C116.265 174.042 115.82 174.492 115.268 174.495C114.715 174.499 114.264 174.055 114.26 173.503C114.257 172.952 114.702 172.502 115.254 172.498Z" fill="#D9E2EC"/>
<path d="M107.25 172.551C107.802 172.547 108.253 172.992 108.257 173.543C108.261 174.095 107.816 174.545 107.263 174.549C106.71 174.552 106.259 174.108 106.256 173.556C106.252 173.005 106.697 172.555 107.25 172.551Z" fill="#D9E2EC"/>
<path d="M99.2451 172.604C99.7977 172.601 100.249 173.045 100.252 173.596C100.256 174.148 99.811 174.598 99.2584 174.602C98.7058 174.605 98.2548 174.161 98.2512 173.61C98.2475 173.058 98.6925 172.608 99.2451 172.604Z" fill="#D9E2EC"/>
<path d="M91.2405 172.658C91.7931 172.654 92.2441 173.098 92.2477 173.65C92.2514 174.201 91.8064 174.651 91.2538 174.655C90.7012 174.659 90.2503 174.214 90.2466 173.663C90.2429 173.111 90.6879 172.661 91.2405 172.658Z" fill="#D9E2EC"/>
<path d="M83.236 172.711C83.7886 172.707 84.2395 173.151 84.2432 173.703C84.2468 174.254 83.8018 174.705 83.2492 174.708C82.6966 174.712 82.2457 174.268 82.242 173.716C82.2384 173.165 82.6834 172.714 83.236 172.711Z" fill="#D9E2EC"/>
<path d="M75.2314 172.764C75.784 172.76 76.2349 173.204 76.2386 173.756C76.2423 174.308 75.7973 174.758 75.2447 174.761C74.6921 174.765 74.2411 174.321 74.2375 173.769C74.2338 173.218 74.6788 172.768 75.2314 172.764Z" fill="#D9E2EC"/>
<path d="M67.2268 172.817C67.7794 172.814 68.2304 173.258 68.234 173.809C68.2377 174.361 67.7927 174.811 67.2401 174.815C66.6875 174.818 66.2365 174.374 66.2329 173.823C66.2292 173.271 66.6742 172.821 67.2268 172.817Z" fill="#D9E2EC"/>
<path d="M59.2222 172.87C59.7748 172.867 60.2258 173.311 60.2294 173.862C60.2331 174.414 59.7881 174.864 59.2355 174.868C58.6829 174.872 58.232 174.427 58.2283 173.876C58.2246 173.324 58.6696 172.874 59.2222 172.87Z" fill="#D9E2EC"/>
<path d="M51.2177 172.924C51.7703 172.92 52.2212 173.364 52.2249 173.916C52.2285 174.467 51.7835 174.917 51.2309 174.921C50.6783 174.925 50.2274 174.481 50.2237 173.929C50.2201 173.377 50.6651 172.927 51.2177 172.924Z" fill="#D9E2EC"/>
<path d="M43.2131 172.977C43.7657 172.973 44.2166 173.417 44.2203 173.969C44.224 174.521 43.779 174.971 43.2264 174.974C42.6738 174.978 42.2228 174.534 42.2192 173.982C42.2155 173.431 42.6605 172.981 43.2131 172.977Z" fill="#D9E2EC"/>
<path d="M115.414 196.467C115.966 196.463 116.417 196.908 116.421 197.459C116.425 198.011 115.98 198.461 115.427 198.465C114.874 198.468 114.423 198.024 114.42 197.472C114.416 196.921 114.861 196.471 115.414 196.467Z" fill="#D9E2EC"/>
<path d="M107.409 196.52C107.962 196.517 108.413 196.961 108.416 197.512C108.42 198.064 107.975 198.514 107.422 198.518C106.87 198.521 106.419 198.077 106.415 197.526C106.411 196.974 106.856 196.524 107.409 196.52Z" fill="#D9E2EC"/>
<path d="M99.4045 196.574C99.9571 196.57 100.408 197.014 100.412 197.566C100.415 198.117 99.9704 198.567 99.4177 198.571C98.8651 198.575 98.4142 198.131 98.4105 197.579C98.4069 197.027 98.8519 196.577 99.4045 196.574Z" fill="#D9E2EC"/>
<path d="M91.3999 196.627C91.9525 196.623 92.4034 197.067 92.4071 197.619C92.4108 198.17 91.9658 198.621 91.4132 198.624C90.8606 198.628 90.4096 198.184 90.406 197.632C90.4023 197.081 90.8473 196.63 91.3999 196.627Z" fill="#D9E2EC"/>
<path d="M83.3953 196.68C83.9479 196.676 84.3989 197.12 84.4025 197.672C84.4062 198.224 83.9612 198.674 83.4086 198.677C82.856 198.681 82.4051 198.237 82.4014 197.685C82.3977 197.134 82.8427 196.684 83.3953 196.68Z" fill="#D9E2EC"/>
<path d="M75.3908 196.733C75.9434 196.73 76.3943 197.174 76.398 197.725C76.4016 198.277 75.9566 198.727 75.404 198.731C74.8514 198.734 74.4005 198.29 74.3968 197.739C74.3932 197.187 74.8382 196.737 75.3908 196.733Z" fill="#D9E2EC"/>
<path d="M67.3862 196.786C67.9388 196.783 68.3897 197.227 68.3934 197.779C68.3971 198.33 67.9521 198.78 67.3995 198.784C66.8469 198.788 66.3959 198.343 66.3922 197.792C66.3886 197.24 66.8336 196.79 67.3862 196.786Z" fill="#D9E2EC"/>
<path d="M59.3816 196.84C59.9342 196.836 60.3851 197.28 60.3888 197.832C60.3925 198.383 59.9475 198.833 59.3949 198.837C58.8423 198.841 58.3913 198.397 58.3877 197.845C58.384 197.293 58.829 196.843 59.3816 196.84Z" fill="#D9E2EC"/>
<path d="M51.377 196.893C51.9296 196.889 52.3806 197.333 52.3842 197.885C52.3879 198.437 51.9429 198.887 51.3903 198.89C50.8377 198.894 50.3868 198.45 50.3831 197.898C50.3794 197.347 50.8244 196.897 51.377 196.893Z" fill="#D9E2EC"/>
<path d="M43.3725 196.946C43.9251 196.942 44.376 197.387 44.3797 197.938C44.3833 198.49 43.9383 198.94 43.3857 198.944C42.8331 198.947 42.3822 198.503 42.3785 197.951C42.3749 197.4 42.8199 196.95 43.3725 196.946Z" fill="#D9E2EC"/>
<path d="M115.36 188.477C115.913 188.474 116.364 188.918 116.368 189.469C116.371 190.021 115.926 190.471 115.374 190.475C114.821 190.478 114.37 190.034 114.367 189.483C114.363 188.931 114.808 188.481 115.36 188.477Z" fill="#D9E2EC"/>
<path d="M107.356 188.531C107.909 188.527 108.359 188.971 108.363 189.523C108.367 190.074 107.922 190.524 107.369 190.528C106.817 190.532 106.366 190.088 106.362 189.536C106.358 188.984 106.803 188.534 107.356 188.531Z" fill="#D9E2EC"/>
<path d="M99.3513 188.584C99.9039 188.58 100.355 189.024 100.359 189.576C100.362 190.127 99.9172 190.578 99.3646 190.581C98.812 190.585 98.3611 190.141 98.3574 189.589C98.3538 189.038 98.7987 188.587 99.3513 188.584Z" fill="#D9E2EC"/>
<path d="M91.3468 188.637C91.8994 188.633 92.3503 189.078 92.354 189.629C92.3577 190.181 91.9127 190.631 91.3601 190.634C90.8075 190.638 90.3565 190.194 90.3528 189.642C90.3492 189.091 90.7942 188.641 91.3468 188.637Z" fill="#D9E2EC"/>
<path d="M83.3422 188.69C83.8948 188.687 84.3457 189.131 84.3494 189.682C84.3531 190.234 83.9081 190.684 83.3555 190.688C82.8029 190.691 82.3519 190.247 82.3483 189.696C82.3446 189.144 82.7896 188.694 83.3422 188.69Z" fill="#D9E2EC"/>
<path d="M75.3376 188.743C75.8902 188.74 76.3412 189.184 76.3448 189.736C76.3485 190.287 75.9035 190.737 75.3509 190.741C74.7983 190.745 74.3474 190.3 74.3437 189.749C74.34 189.197 74.785 188.747 75.3376 188.743Z" fill="#D9E2EC"/>
<path d="M67.3331 188.797C67.8857 188.793 68.3366 189.237 68.3403 189.789C68.3439 190.34 67.8989 190.79 67.3463 190.794C66.7937 190.798 66.3428 190.354 66.3391 189.802C66.3355 189.25 66.7805 188.8 67.3331 188.797Z" fill="#D9E2EC"/>
<path d="M59.3285 188.85C59.8811 188.846 60.332 189.29 60.3357 189.842C60.3394 190.394 59.8944 190.844 59.3418 190.847C58.7892 190.851 58.3382 190.407 58.3346 189.855C58.3309 189.304 58.7759 188.854 59.3285 188.85Z" fill="#D9E2EC"/>
<path d="M51.3239 188.903C51.8765 188.899 52.3275 189.344 52.3311 189.895C52.3348 190.447 51.8898 190.897 51.3372 190.901C50.7846 190.904 50.3336 190.46 50.33 189.909C50.3263 189.357 50.7713 188.907 51.3239 188.903Z" fill="#D9E2EC"/>
<path d="M43.3193 188.956C43.8719 188.953 44.3229 189.397 44.3265 189.948C44.3302 190.5 43.8852 190.95 43.3326 190.954C42.78 190.957 42.3291 190.513 42.3254 189.962C42.3217 189.41 42.7667 188.96 43.3193 188.956Z" fill="#D9E2EC"/>
<path d="M115.52 212.447C116.072 212.443 116.523 212.887 116.527 213.439C116.531 213.99 116.086 214.44 115.533 214.444C114.981 214.448 114.53 214.004 114.526 213.452C114.522 212.9 114.967 212.45 115.52 212.447Z" fill="#D9E2EC"/>
<path d="M107.515 212.5C108.068 212.496 108.519 212.94 108.523 213.492C108.526 214.043 108.081 214.494 107.529 214.497C106.976 214.501 106.525 214.057 106.521 213.505C106.518 212.954 106.963 212.504 107.515 212.5Z" fill="#D9E2EC"/>
<path d="M99.5107 212.553C100.063 212.549 100.514 212.994 100.518 213.545C100.522 214.097 100.077 214.547 99.524 214.551C98.9714 214.554 98.5205 214.11 98.5168 213.558C98.5131 213.007 98.9581 212.557 99.5107 212.553Z" fill="#D9E2EC"/>
<path d="M91.5061 212.606C92.0587 212.603 92.5097 213.047 92.5134 213.598C92.517 214.15 92.072 214.6 91.5194 214.604C90.9668 214.607 90.5159 214.163 90.5122 213.612C90.5085 213.06 90.9535 212.61 91.5061 212.606Z" fill="#D9E2EC"/>
<path d="M83.5016 212.66C84.0542 212.656 84.5051 213.1 84.5088 213.652C84.5125 214.203 84.0675 214.653 83.5149 214.657C82.9623 214.661 82.5113 214.216 82.5076 213.665C82.504 213.113 82.949 212.663 83.5016 212.66Z" fill="#D9E2EC"/>
<path d="M75.497 212.713C76.0496 212.709 76.5005 213.153 76.5042 213.705C76.5079 214.256 76.0629 214.706 75.5103 214.71C74.9577 214.714 74.5067 214.27 74.5031 213.718C74.4994 213.167 74.9444 212.716 75.497 212.713Z" fill="#D9E2EC"/>
<path d="M67.4924 212.766C68.045 212.762 68.496 213.206 68.4996 213.758C68.5033 214.31 68.0583 214.76 67.5057 214.763C66.9531 214.767 66.5022 214.323 66.4985 213.771C66.4948 213.22 66.9398 212.77 67.4924 212.766Z" fill="#D9E2EC"/>
<path d="M59.4878 212.819C60.0405 212.816 60.4914 213.26 60.4951 213.811C60.4987 214.363 60.0537 214.813 59.5011 214.817C58.9485 214.82 58.4976 214.376 58.4939 213.825C58.4903 213.273 58.9352 212.823 59.4878 212.819Z" fill="#D9E2EC"/>
<path d="M51.4833 212.872C52.0359 212.869 52.4868 213.313 52.4905 213.864C52.4942 214.416 52.0492 214.866 51.4966 214.87C50.944 214.874 50.493 214.429 50.4893 213.878C50.4857 213.326 50.9307 212.876 51.4833 212.872Z" fill="#D9E2EC"/>
<path d="M43.4787 212.926C44.0313 212.922 44.4822 213.366 44.4859 213.918C44.4896 214.469 44.0446 214.919 43.492 214.923C42.9394 214.927 42.4884 214.483 42.4848 213.931C42.4811 213.379 42.9261 212.929 43.4787 212.926Z" fill="#D9E2EC"/>
<path d="M115.467 204.457C116.019 204.453 116.47 204.897 116.474 205.449C116.478 206.001 116.033 206.451 115.48 206.454C114.927 206.458 114.476 206.014 114.473 205.462C114.469 204.911 114.914 204.461 115.467 204.457Z" fill="#D9E2EC"/>
<path d="M107.462 204.51C108.015 204.506 108.466 204.951 108.469 205.502C108.473 206.054 108.028 206.504 107.475 206.508C106.923 206.511 106.472 206.067 106.468 205.515C106.465 204.964 106.91 204.514 107.462 204.51Z" fill="#D9E2EC"/>
<path d="M99.4576 204.563C100.01 204.56 100.461 205.004 100.465 205.555C100.468 206.107 100.023 206.557 99.4709 206.561C98.9183 206.564 98.4673 206.12 98.4637 205.569C98.46 205.017 98.905 204.567 99.4576 204.563Z" fill="#D9E2EC"/>
<path d="M91.453 204.617C92.0056 204.613 92.4566 205.057 92.4602 205.609C92.4639 206.16 92.0189 206.61 91.4663 206.614C90.9137 206.618 90.4628 206.173 90.4591 205.622C90.4554 205.07 90.9004 204.62 91.453 204.617Z" fill="#D9E2EC"/>
<path d="M83.4484 204.67C84.001 204.666 84.452 205.11 84.4557 205.662C84.4593 206.213 84.0143 206.664 83.4617 206.667C82.9091 206.671 82.4582 206.227 82.4545 205.675C82.4509 205.124 82.8958 204.673 83.4484 204.67Z" fill="#D9E2EC"/>
<path d="M75.4439 204.723C75.9965 204.719 76.4474 205.163 76.4511 205.715C76.4548 206.267 76.0098 206.717 75.4572 206.72C74.9046 206.724 74.4536 206.28 74.4499 205.728C74.4463 205.177 74.8913 204.727 75.4439 204.723Z" fill="#D9E2EC"/>
<path d="M67.4393 204.776C67.9919 204.773 68.4428 205.217 68.4465 205.768C68.4502 206.32 68.0052 206.77 67.4526 206.774C66.9 206.777 66.449 206.333 66.4454 205.782C66.4417 205.23 66.8867 204.78 67.4393 204.776Z" fill="#D9E2EC"/>
<path d="M59.4347 204.829C59.9873 204.826 60.4383 205.27 60.4419 205.821C60.4456 206.373 60.0006 206.823 59.448 206.827C58.8954 206.831 58.4445 206.386 58.4408 205.835C58.4371 205.283 58.8821 204.833 59.4347 204.829Z" fill="#D9E2EC"/>
<path d="M51.4302 204.883C51.9828 204.879 52.4337 205.323 52.4374 205.875C52.441 206.426 51.996 206.876 51.4434 206.88C50.8908 206.884 50.4399 206.44 50.4362 205.888C50.4326 205.336 50.8776 204.886 51.4302 204.883Z" fill="#D9E2EC"/>
<path d="M43.4256 204.936C43.9782 204.932 44.4291 205.376 44.4328 205.928C44.4365 206.48 43.9915 206.93 43.4389 206.933C42.8863 206.937 42.4353 206.493 42.4316 205.941C42.428 205.39 42.873 204.94 43.4256 204.936Z" fill="#D9E2EC"/>
<path d="M115.626 228.426C116.179 228.422 116.63 228.867 116.633 229.418C116.637 229.97 116.192 230.42 115.639 230.424C115.087 230.427 114.636 229.983 114.632 229.432C114.629 228.88 115.074 228.43 115.626 228.426Z" fill="#D9E2EC"/>
<path d="M107.622 228.479C108.174 228.476 108.625 228.92 108.629 229.471C108.632 230.023 108.187 230.473 107.635 230.477C107.082 230.48 106.631 230.036 106.628 229.485C106.624 228.933 107.069 228.483 107.622 228.479Z" fill="#D9E2EC"/>
<path d="M99.617 228.533C100.17 228.529 100.621 228.973 100.624 229.525C100.628 230.076 100.183 230.526 99.6302 230.53C99.0776 230.534 98.6267 230.09 98.623 229.538C98.6194 228.986 99.0644 228.536 99.617 228.533Z" fill="#D9E2EC"/>
<path d="M91.6124 228.586C92.165 228.582 92.6159 229.026 92.6196 229.578C92.6233 230.129 92.1783 230.58 91.6257 230.583C91.0731 230.587 90.6221 230.143 90.6185 229.591C90.6148 229.04 91.0598 228.589 91.6124 228.586Z" fill="#D9E2EC"/>
<path d="M83.6078 228.639C84.1604 228.635 84.6114 229.08 84.615 229.631C84.6187 230.183 84.1737 230.633 83.6211 230.636C83.0685 230.64 82.6176 230.196 82.6139 229.644C82.6102 229.093 83.0552 228.643 83.6078 228.639Z" fill="#D9E2EC"/>
<path d="M75.6032 228.692C76.1558 228.689 76.6068 229.133 76.6105 229.684C76.6141 230.236 76.1691 230.686 75.6165 230.69C75.0639 230.693 74.613 230.249 74.6093 229.698C74.6056 229.146 75.0506 228.696 75.6032 228.692Z" fill="#D9E2EC"/>
<path d="M67.5987 228.745C68.1513 228.742 68.6022 229.186 68.6059 229.738C68.6095 230.289 68.1645 230.739 67.6119 230.743C67.0593 230.747 66.6084 230.302 66.6047 229.751C66.6011 229.199 67.0461 228.749 67.5987 228.745Z" fill="#D9E2EC"/>
<path d="M59.5941 228.799C60.1467 228.795 60.5976 229.239 60.6013 229.791C60.605 230.342 60.16 230.792 59.6074 230.796C59.0548 230.8 58.6038 230.356 58.6002 229.804C58.5965 229.252 59.0415 228.802 59.5941 228.799Z" fill="#D9E2EC"/>
<path d="M51.5895 228.852C52.1421 228.848 52.5931 229.292 52.5967 229.844C52.6004 230.396 52.1554 230.846 51.6028 230.849C51.0502 230.853 50.5993 230.409 50.5956 229.857C50.5919 229.306 51.0369 228.856 51.5895 228.852Z" fill="#D9E2EC"/>
<path d="M43.5849 228.905C44.1375 228.901 44.5885 229.346 44.5922 229.897C44.5958 230.449 44.1508 230.899 43.5982 230.903C43.0456 230.906 42.5947 230.462 42.591 229.91C42.5873 229.359 43.0323 228.909 43.5849 228.905Z" fill="#D9E2EC"/>
<path d="M115.573 220.436C116.126 220.433 116.577 220.877 116.58 221.428C116.584 221.98 116.139 222.43 115.586 222.434C115.034 222.437 114.583 221.993 114.579 221.442C114.575 220.89 115.02 220.44 115.573 220.436Z" fill="#D9E2EC"/>
<path d="M107.568 220.49C108.121 220.486 108.572 220.93 108.576 221.482C108.579 222.033 108.134 222.483 107.582 222.487C107.029 222.491 106.578 222.047 106.574 221.495C106.571 220.943 107.016 220.493 107.568 220.49Z" fill="#D9E2EC"/>
<path d="M99.5638 220.543C100.116 220.539 100.567 220.983 100.571 221.535C100.575 222.086 100.13 222.537 99.5771 222.54C99.0245 222.544 98.5736 222.1 98.5699 221.548C98.5662 220.997 99.0112 220.546 99.5638 220.543Z" fill="#D9E2EC"/>
<path d="M91.5593 220.596C92.1119 220.592 92.5628 221.037 92.5665 221.588C92.5701 222.14 92.1251 222.59 91.5725 222.593C91.0199 222.597 90.569 222.153 90.5653 221.601C90.5617 221.05 91.0067 220.6 91.5593 220.596Z" fill="#D9E2EC"/>
<path d="M83.5547 220.649C84.1073 220.646 84.5582 221.09 84.5619 221.641C84.5656 222.193 84.1206 222.643 83.568 222.647C83.0154 222.65 82.5644 222.206 82.5608 221.655C82.5571 221.103 83.0021 220.653 83.5547 220.649Z" fill="#D9E2EC"/>
<path d="M75.5501 220.702C76.1027 220.699 76.5537 221.143 76.5573 221.695C76.561 222.246 76.116 222.696 75.5634 222.7C75.0108 222.704 74.5599 222.259 74.5562 221.708C74.5525 221.156 74.9975 220.706 75.5501 220.702Z" fill="#D9E2EC"/>
<path d="M67.5455 220.756C68.0981 220.752 68.5491 221.196 68.5528 221.748C68.5564 222.299 68.1114 222.749 67.5588 222.753C67.0062 222.757 66.5553 222.313 66.5516 221.761C66.5479 221.21 66.9929 220.759 67.5455 220.756Z" fill="#D9E2EC"/>
<path d="M59.541 220.809C60.0936 220.805 60.5445 221.249 60.5482 221.801C60.5519 222.353 60.1069 222.803 59.5543 222.806C59.0017 222.81 58.5507 222.366 58.547 221.814C58.5434 221.263 58.9884 220.813 59.541 220.809Z" fill="#D9E2EC"/>
<path d="M51.5364 220.862C52.089 220.858 52.5399 221.303 52.5436 221.854C52.5473 222.406 52.1023 222.856 51.5497 222.86C50.9971 222.863 50.5461 222.419 50.5425 221.868C50.5388 221.316 50.9838 220.866 51.5364 220.862Z" fill="#D9E2EC"/>
<path d="M43.5318 220.915C44.0844 220.912 44.5354 221.356 44.539 221.907C44.5427 222.459 44.0977 222.909 43.5451 222.913C42.9925 222.916 42.5416 222.472 42.5379 221.921C42.5342 221.369 42.9792 220.919 43.5318 220.915Z" fill="#D9E2EC"/>
</g>
<path d="M26.9334 164.533C27.4534 165.92 27.9284 167.466 27.7689 168.985C27.4604 171.914 26.5694 173.73 24.8326 174.587C23.3697 173.2 19.019 168.894 18.7486 168.125C18.6828 167.934 18.6308 165.546 18.5892 162.055L5.7625 158.241L0.5625 175.776L31.1142 184.848L36.3142 167.31L26.9334 164.533Z" fill="#9FB3C8"/>
<path d="M122.211 8.11385C116.208 8.10701 110.368 10.0625 105.579 13.6824C100.79 17.3022 97.3163 22.3881 95.6858 28.1653C94.0553 33.9425 94.3579 40.0943 96.5474 45.6836C98.7369 51.2729 102.693 55.9933 107.814 59.1258L109.669 55.4061L109.02 52.1544L109.059 50.6186L110.022 49.1072L112.206 46.8989L114.453 44.7288L116.217 43.1688L118.086 42.049L118.897 42.3541L119.036 43.3456L118.706 44.448L118.058 45.6544L117.413 46.632L116.55 47.8002L115.357 49.1869H116.692L118.481 49.4296L119.434 50.0744L120.128 51.461L120.724 52.8824L121.362 54.4944L121.476 55.6626L121.59 56.564L120.575 57.5658L117.628 60.1866L116.841 61.4416L116.46 62.6098C120.235 63.4132 124.137 63.4141 127.913 62.6127C131.688 61.8112 135.253 60.2252 138.377 57.9575C141.5 55.6898 144.112 52.791 146.043 49.4491C147.974 46.1072 149.182 42.3967 149.587 38.5583C149.992 34.7198 149.586 30.8391 148.395 27.1676C147.204 23.4962 145.255 20.116 142.674 17.2462C140.093 14.3764 136.937 12.0811 133.412 10.509C129.887 8.937 126.071 8.12333 122.211 8.12078V8.11385Z" fill="#F4F5FA"/>
<path d="M79.6825 100.975C80.7225 109.327 81.0379 119.231 80.7225 130.65C73.0958 136.727 66.6582 136.602 56.8198 136.602C46.9814 136.602 36.5675 134.457 32.9553 131.371C32.5289 97.54 37.663 68.1357 56.1819 68.1357C62.1896 68.1357 67.0048 70.396 70.7419 74.8507" stroke="#243B53" stroke-width="0.75" stroke-linecap="round" stroke-linejoin="round"/>
<path d="M65.2153 75.5024C73.4175 72.6667 89.0209 80.8688 92.3975 83.0667C93.3612 87.7363 87.0727 100.473 82.9785 102.168C81.8585 101.81 80.7679 101.366 79.7164 100.84" stroke="#243B53" stroke-width="0.75" stroke-linecap="round" stroke-linejoin="round"/>
<path d="M79.7169 100.837C75.2895 98.6367 71.1647 95.874 67.4448 92.6174" stroke="#243B53" stroke-width="0.75" stroke-linecap="round" stroke-linejoin="round"/>
<path d="M34.1167 103.842C28.8682 101.97 22.9783 98.3582 21.8447 95.6681C22.198 94.5451 22.6372 93.451 23.1586 92.3955" stroke="#243B53" stroke-width="0.75" stroke-linecap="round" stroke-linejoin="round"/>
<path d="M23.1587 92.3954C26.927 84.5088 36.8451 70.6838 44.4024 73.516" stroke="#243B53" stroke-width="0.75" stroke-linecap="round" stroke-linejoin="round"/>
<path d="M32.9339 127.742C32.5214 128.31 29.9699 131.936 29.7931 132.248C29.6163 132.56 25.692 159.288 25.8619 161.178C26.0318 163.067 28.091 166.083 27.7824 169.012C27.4739 171.942 26.5864 173.741 24.8531 174.587C23.3902 173.2 19.0395 168.894 18.7691 168.125C18.4987 167.355 18.4779 131.77 18.4571 130.421C18.4363 129.073 23.7091 99.0273 23.9795 98.2646" stroke="#243B53" stroke-width="0.75" stroke-linecap="round" stroke-linejoin="round"/>
<path d="M49.3348 69.6264C49.3694 68.1288 49.2585 60.4571 49.2966 59.5072C47.8718 59.4691 39.0075 52.3485 38.9937 42.3749C38.9659 21.8037 61.8148 22.7848 69.1294 11.2339" stroke="#243B53" stroke-width="0.75" stroke-linecap="round" stroke-linejoin="round"/>
<path d="M70.3115 15.4667C69.7395 16.8533 65.3958 24.1715 63.8149 25.9776" stroke="#243B53" stroke-width="0.75" stroke-linecap="round" stroke-linejoin="round"/>
<path d="M72.2842 18.5555C71.8509 19.7757 69.3445 26.3173 66.7896 30.3421" stroke="#243B53" stroke-width="0.75" stroke-linecap="round" stroke-linejoin="round"/>
<path d="M60.7441 60.3704C66.7657 57.0667 68.8596 51.2773 68.967 46.1779C70.2254 44.9992 71.2169 44.5936 71.1198 43.6715C71.0124 42.6662 66.478 40.7838 65.8332 36.2944" stroke="#243B53" stroke-width="0.75" stroke-linecap="round" stroke-linejoin="round"/>
<path d="M92.2657 86.1867C92.6797 86.4001 93.1043 86.5922 93.538 86.7621C93.9471 85.9093 109.36 56.2347 109.703 55.3022C109.457 54.1616 108.843 51.6344 109.148 50.487C109.453 49.3395 117.25 40.9848 118.703 42.2432C120.155 43.5016 116.515 47.8939 115.236 49.128C116.598 49.18 119.049 48.2822 120.29 51.6136C120.346 51.7696 120.401 51.9187 120.457 52.0643C121.566 55.0595 121.812 56.2243 121.212 56.8899C120.613 57.5555 117.43 59.8539 116.962 61.0118C116.494 62.1696 102.749 99.0133 99.5492 103.399C97.5385 105.423 90.1164 102.535 85.8281 100.126" stroke="#243B53" stroke-width="0.75" stroke-linecap="round" stroke-linejoin="round"/>
<path d="M35.9847 248.038V253.585L18.8594 253.793L29.1415 249.682L29.1831 248.087" stroke="#243B53" stroke-width="0.75" stroke-linecap="round" stroke-linejoin="round"/>
<path d="M71.4937 247.733H79.3769V253.599H71.4937V247.733Z" stroke="#243B53" stroke-width="0.75" stroke-linecap="round" stroke-linejoin="round"/>
<path d="M121.896 38.3813L126.309 19.6024L130.725 0.820007L139.253 5.28507L147.771 9.75014L134.84 24.0675L121.896 38.3813Z" fill="#9FB3C8"/>
<path d="M167.229 9.28561H251.878V61.3411H167.229V9.28561Z" fill="#F4F5FA"/>
<path d="M172.335 13.4664H179.848V57.1464H172.335V13.4664Z" fill="#9FB3C8"/>
<path d="M183.488 19.8H191V57.1602H183.488V19.8Z" fill="#9FB3C8"/>
<path d="M194.644 29.4096H202.156V57.143H194.644V29.4096Z" fill="#9FB3C8"/>
<path d="M205.813 42.4478H213.322V57.1603H205.813V42.4478Z" fill="#9FB3C8"/>
<path d="M216.952 29.8186H224.464V57.1602H216.952V29.8186Z" fill="#9FB3C8"/>
<path d="M228.107 20.2888H235.627V57.1603H228.107V20.2888Z" fill="#9FB3C8"/>
<path d="M239.263 13.4664H246.772V57.1464H239.263V13.4664Z" fill="#9FB3C8"/>
<path d="M127.224 111.59L143.136 95.6749Z" fill="#243B53"/>
<path d="M127.224 111.59L143.136 95.6749" stroke="#243B53" stroke-width="0.75" stroke-linecap="round" stroke-linejoin="round"/>
<path d="M152.107 104.137L169.188 87.0603Z" fill="#243B53"/>
<path d="M152.107 104.137L169.188 87.0603" stroke="#243B53" stroke-width="0.75" stroke-linecap="round" stroke-linejoin="round"/>
<path d="M178.08 95.2936L181.792 91.5808Z" fill="#243B53"/>
<path d="M178.08 95.2936L181.792 91.5808" stroke="#243B53" stroke-width="0.75" stroke-linecap="round" stroke-linejoin="round"/>
<path d="M196.304 105.874L218.491 83.6872Z" fill="#243B53"/>
<path d="M196.304 105.874L218.491 83.6872" stroke="#243B53" stroke-width="0.75" stroke-linecap="round" stroke-linejoin="round"/>
<path d="M143.188 95.4114L151.712 103.939Z" fill="#243B53"/>
<path d="M143.188 95.4114L151.712 103.939" stroke="#243B53" stroke-width="0.75" stroke-linecap="round" stroke-linejoin="round"/>
<path d="M169.212 87.2267L177.664 95.6784Z" fill="#243B53"/>
<path d="M169.212 87.2267L177.664 95.6784" stroke="#243B53" stroke-width="0.75" stroke-linecap="round" stroke-linejoin="round"/>
<path d="M182.011 91.3867L196.318 105.694Z" fill="#243B53"/>
<path d="M182.011 91.3867L196.318 105.694" stroke="#243B53" stroke-width="0.75" stroke-linecap="round" stroke-linejoin="round"/>
<path d="M219.056 83.1395L224.575 88.6549Z" fill="#243B53"/>
<path d="M219.056 83.1395L224.575 88.6549" stroke="#243B53" stroke-width="0.75" stroke-linecap="round" stroke-linejoin="round"/>
<path d="M142.779 95.6923C142.779 95.6027 142.806 95.515 142.856 95.4404C142.906 95.3659 142.976 95.3078 143.059 95.2735C143.142 95.2391 143.233 95.2302 143.321 95.2477C143.409 95.2652 143.49 95.3083 143.553 95.3717C143.617 95.4351 143.66 95.5159 143.677 95.6038C143.695 95.6918 143.686 95.7829 143.652 95.8657C143.617 95.9486 143.559 96.0194 143.485 96.0692C143.41 96.119 143.322 96.1456 143.233 96.1456C143.112 96.1456 142.997 96.0978 142.912 96.0128C142.827 95.9278 142.779 95.8125 142.779 95.6923Z" fill="#243B53" stroke="#243B53"/>
<path d="M151.502 103.808C151.502 103.718 151.529 103.63 151.578 103.556C151.628 103.481 151.699 103.423 151.782 103.389C151.865 103.355 151.956 103.346 152.044 103.363C152.132 103.381 152.212 103.424 152.276 103.487C152.339 103.551 152.382 103.631 152.4 103.719C152.417 103.807 152.408 103.898 152.374 103.981C152.34 104.064 152.282 104.135 152.207 104.185C152.133 104.234 152.045 104.261 151.955 104.261C151.835 104.261 151.72 104.213 151.635 104.128C151.55 104.043 151.502 103.928 151.502 103.808Z" fill="#243B53" stroke="#243B53"/>
<path d="M168.662 87.5179C168.662 87.4282 168.689 87.3405 168.739 87.2659C168.789 87.1913 168.859 87.1332 168.942 87.0989C169.025 87.0647 169.117 87.0558 169.204 87.0734C169.292 87.091 169.373 87.1344 169.437 87.1979C169.5 87.2615 169.543 87.3424 169.56 87.4305C169.578 87.5185 169.568 87.6097 169.534 87.6925C169.499 87.7753 169.441 87.846 169.366 87.8956C169.291 87.9453 169.204 87.9716 169.114 87.9712C168.994 87.9708 168.879 87.9229 168.794 87.8379C168.71 87.7529 168.662 87.6379 168.662 87.5179Z" fill="#243B53" stroke="#243B53"/>
<path d="M177.405 95.46C177.405 95.3704 177.431 95.2827 177.481 95.2082C177.531 95.1336 177.602 95.0755 177.685 95.0412C177.767 95.0069 177.859 94.9979 177.947 95.0154C178.035 95.0329 178.115 95.0761 178.179 95.1395C178.242 95.2029 178.285 95.2836 178.303 95.3716C178.32 95.4595 178.311 95.5506 178.277 95.6335C178.243 95.7163 178.185 95.7871 178.11 95.8369C178.035 95.8867 177.948 95.9133 177.858 95.9133C177.738 95.9133 177.623 95.8656 177.538 95.7805C177.453 95.6955 177.405 95.5802 177.405 95.46Z" fill="#243B53" stroke="#243B53"/>
<path d="M181.537 91.4525C181.537 91.3629 181.564 91.2752 181.614 91.2007C181.663 91.1261 181.734 91.068 181.817 91.0337C181.9 90.9994 181.991 90.9904 182.079 91.0079C182.167 91.0254 182.248 91.0686 182.311 91.132C182.374 91.1954 182.418 91.2762 182.435 91.3641C182.453 91.452 182.444 91.5432 182.409 91.626C182.375 91.7088 182.317 91.7796 182.242 91.8294C182.168 91.8793 182.08 91.9058 181.99 91.9058C181.87 91.9058 181.755 91.8581 181.67 91.773C181.585 91.688 181.537 91.5728 181.537 91.4525Z" fill="#243B53" stroke="#243B53"/>
<path d="M195.931 105.465C195.931 105.375 195.957 105.288 196.007 105.213C196.057 105.138 196.128 105.08 196.211 105.046C196.293 105.012 196.385 105.003 196.472 105.02C196.56 105.038 196.641 105.081 196.705 105.144C196.768 105.208 196.811 105.288 196.829 105.376C196.846 105.464 196.837 105.556 196.803 105.638C196.769 105.721 196.71 105.792 196.636 105.842C196.561 105.892 196.474 105.918 196.384 105.918C196.264 105.918 196.148 105.87 196.063 105.785C195.978 105.7 195.931 105.585 195.931 105.465Z" fill="#243B53" stroke="#243B53"/>
<path d="M218.588 83.4133C218.588 83.3237 218.615 83.2361 218.665 83.1615C218.715 83.0869 218.785 83.0289 218.868 82.9945C218.951 82.9602 219.042 82.9512 219.13 82.9687C219.218 82.9862 219.299 83.0294 219.362 83.0928C219.426 83.1562 219.469 83.237 219.486 83.3249C219.504 83.4128 219.495 83.504 219.461 83.5868C219.426 83.6696 219.368 83.7405 219.294 83.7903C219.219 83.8401 219.131 83.8667 219.042 83.8667C218.922 83.8667 218.806 83.8189 218.721 83.7339C218.636 83.6488 218.588 83.5335 218.588 83.4133Z" fill="#243B53" stroke="#243B53"/>
<path d="M27.3872 248.465C27.4461 247.206 32.7085 131.985 32.7917 131.468C54.2088 140.742 74.6795 136.568 80.9403 130.733C81.0686 133.666 80.8814 248.385 80.8814 248.385L71.0395 248.544L54.344 179.717L37.1771 248.427C37.1771 248.427 28.5347 248.458 27.3872 248.465Z" fill="#5670ED"/>
</svg>
