<svg viewBox="0 0 204.42 204.42" xmlns="http://www.w3.org/2000/svg"><circle cx="102.21" cy="102.21" fill="#153cff" r="102.21"/><path d="m163 109.2a1.09 1.09 0 0 0 .07-.3 1.13 1.13 0 0 0 0-.18.07.07 0 0 0 0 0 1.71 1.71 0 0 0 0-.32s0-.07 0-.11a2 2 0 0 0 -.14-.47l-24-54.2a.43.43 0 0 0 0-.07 3.21 3.21 0 0 0 -.19-.31l-.08-.1a2.13 2.13 0 0 0 -.34-.33 1.86 1.86 0 0 0 -.41-.23h-.12a1.9 1.9 0 0 0 -.36-.09h-.07l-58.91-6.49a0 0 0 0 0 0 0 1.55 1.55 0 0 0 -.45 0 .75.75 0 0 0 -.16 0 1.34 1.34 0 0 0 -.27.07 1.4 1.4 0 0 0 -.17.09 1.35 1.35 0 0 0 -.26.15.86.86 0 0 0 -.14.13 1.45 1.45 0 0 0 -.21.22l-.08.07-35.04 47.95a2 2 0 0 0 -.21.37s0 0 0 0a.65.65 0 0 0 0 .13 1.3 1.3 0 0 0 -.08.34.68.68 0 0 0 0 .14 1.61 1.61 0 0 0 0 .38.28.28 0 0 0 0 .09 1.78 1.78 0 0 0 .13.45 0 0 0 0 0 0 0l24 54.2s0 0 0 .08.12.2.19.3l.08.11a2.08 2.08 0 0 0 .34.32 1.59 1.59 0 0 0 .5.26l.19.05a2.44 2.44 0 0 0 .26.06l58.93 6.44h.22a2 2 0 0 0 .42 0h.12a1.72 1.72 0 0 0 .29-.11l.11-.05a1.73 1.73 0 0 0 .28-.19h.08a1.64 1.64 0 0 0 .28-.31l35-47.86a.73.73 0 0 0 0-.09 1.17 1.17 0 0 0 .15-.27 1.22 1.22 0 0 0 .05-.32zm-37 44-9.41-10.7 35.68-25.26zm-61.45-49.36 55.78-26.45-8.23 61.19zm-.55-4.14 15.39-48.7 39.14 22.83zm44.63 41.3-39.69 6.75-5.64-39.87zm15.65-63 33.65 30.34-41.7 29.52zm-2-6.66-34.94-20.34 46.17 5zm-62.86 29.41-13.05-5.75 26.26-36zm-.59 4.11 4.42 31.21-16-36.31zm54 39.47 8.4 9.54-39.48-4.25zm12.62-70.6 11.25-15.4 18.77 42.47z" fill="#fff"/></svg>