<svg fill="none" height="20" viewBox="0 0 20 20" width="20" xmlns="http://www.w3.org/2000/svg" xmlns:xlink="http://www.w3.org/1999/xlink"><mask id="a" height="18" maskUnits="userSpaceOnUse" width="18" x="1" y="1"><path clip-rule="evenodd" d="m11.5512 6.92472 2.385 2.5c.0358.0375.0533.08416.0808.12583.03.045.0658.085.0867.135.0408.10083.0633.2075.0633.31417 0 .10918-.0225.21748-.0642.31918-.0425.1016-.1033.1941-.1808.2708l-2.4992 2.4992c-.3258.3258-.8533.3258-1.1783 0-.32584-.325-.32584-.8525 0-1.1784.3976-.3976.116-1.0775-.44632-1.0775h-3.13119c-.46083 0-.83333-.3725-.83333-.83328 0-.46.3725-.83334.83333-.83334h3.21144c.56767 0 .85877-.68013.46687-1.09083-.3175-.33333-.3058-.86.0275-1.17834.3334-.31833.8609-.30499 1.1784.02751zm-9.88421 3.07499c0 4.59579 3.73834 8.33329 8.33331 8.33329 4.595 0 8.3334-3.7375 8.3334-8.33329 0-4.59499-3.7384-8.33333-8.3334-8.33333-4.59497 0-8.33331 3.73834-8.33331 8.33333z" fill="#fff" fill-rule="evenodd"/></mask><path clip-rule="evenodd" d="m11.5512 6.92472 2.385 2.5c.0358.0375.0533.08416.0808.12583.03.045.0658.085.0867.135.0408.10083.0633.2075.0633.31417 0 .10918-.0225.21748-.0642.31918-.0425.1016-.1033.1941-.1808.2708l-2.4992 2.4992c-.3258.3258-.8533.3258-1.1783 0-.32584-.325-.32584-.8525 0-1.1784.3976-.3976.116-1.0775-.44632-1.0775h-3.13119c-.46083 0-.83333-.3725-.83333-.83328 0-.46.3725-.83334.83333-.83334h3.21144c.56767 0 .85877-.68013.46687-1.09083-.3175-.33333-.3058-.86.0275-1.17834.3334-.31833.8609-.30499 1.1784.02751zm-9.88421 3.07499c0 4.59579 3.73834 8.33329 8.33331 8.33329 4.595 0 8.3334-3.7375 8.3334-8.33329 0-4.59499-3.7384-8.33333-8.3334-8.33333-4.59497 0-8.33331 3.73834-8.33331 8.33333z" fill="#231f20" fill-rule="evenodd"/><g mask="url(#a)"><rect fill="#2c4ce8" height="20" rx="6" width="20"/></g></svg>