<svg width="36" height="36" viewBox="0 0 36 36" fill="none" xmlns="http://www.w3.org/2000/svg">
<path d="M28.5 4.5H7.5C5.84315 4.5 4.5 5.84315 4.5 7.5V28.5C4.5 30.1569 5.84315 31.5 7.5 31.5H28.5C30.1569 31.5 31.5 30.1569 31.5 28.5V7.5C31.5 5.84315 30.1569 4.5 28.5 4.5Z" fill="#D9E2EC"/>
<path d="M13.05 19.95C13.2667 20.2389 13.3718 20.5962 13.3463 20.9563C13.3207 21.3165 13.166 21.6553 12.9107 21.9107C12.6554 22.166 12.3165 22.3206 11.9564 22.3462C11.5962 22.3718 11.2389 22.2666 10.95 22.05L7.95003 19.05C7.67519 18.7696 7.52124 18.3926 7.52124 18C7.52124 17.6074 7.67519 17.2304 7.95003 16.95L10.95 13.95C11.079 13.7781 11.2434 13.6359 11.432 13.533C11.6207 13.4301 11.8293 13.369 12.0437 13.3538C12.2581 13.3385 12.4732 13.3695 12.6745 13.4447C12.8759 13.5198 13.0587 13.6374 13.2107 13.7893C13.3626 13.9413 13.4802 14.1241 13.5553 14.3255C13.6305 14.5268 13.6615 14.742 13.6463 14.9563C13.631 15.1707 13.5699 15.3793 13.467 15.568C13.3642 15.7567 13.222 15.9211 13.05 16.05L11.13 18L13.08 19.95H13.05ZM22.95 19.95L24.885 18L22.935 16.05C22.779 15.9144 22.6528 15.748 22.5641 15.5613C22.4755 15.3746 22.4264 15.1716 22.4199 14.965C22.4134 14.7584 22.4497 14.5527 22.5265 14.3608C22.6032 14.1689 22.7188 13.9949 22.866 13.8498C23.0132 13.7047 23.1888 13.5916 23.3818 13.5175C23.5747 13.4435 23.7809 13.4101 23.9874 13.4195C24.1939 13.4289 24.3962 13.4809 24.5816 13.5722C24.7671 13.6635 24.9316 13.7921 25.065 13.95L28.065 16.95C28.3399 17.2304 28.4938 17.6074 28.4938 18C28.4938 18.3926 28.3399 18.7696 28.065 19.05L25.065 22.05C24.7798 22.2979 24.4116 22.4291 24.0339 22.4172C23.6562 22.4054 23.2969 22.2514 23.0278 21.9861C22.7587 21.7208 22.5997 21.3637 22.5825 20.9862C22.5653 20.6087 22.6912 20.2387 22.935 19.95H22.95ZM17.97 25.8C17.8905 26.1899 17.6593 26.5322 17.3273 26.7516C16.9954 26.971 16.5899 27.0496 16.2 26.97C15.8102 26.8904 15.4679 26.6593 15.2484 26.3273C15.029 25.9954 14.9505 25.5899 15.03 25.2L18.03 10.2C18.1096 9.81013 18.3408 9.46783 18.6727 9.24842C18.8371 9.13977 19.0212 9.06456 19.2146 9.02709C19.4081 8.98961 19.607 8.9906 19.8 9.02999C19.9931 9.06939 20.1765 9.14643 20.3397 9.2567C20.503 9.36697 20.643 9.50832 20.7516 9.67268C20.8603 9.83704 20.9355 10.0212 20.9729 10.2146C21.0104 10.408 21.0094 10.607 20.97 10.8L17.97 25.8Z" fill="#243B53"/>
</svg>
