<svg width="36" height="36" viewBox="0 0 36 36" fill="none" xmlns="http://www.w3.org/2000/svg">
<path d="M22.845 3.79499L22.32 4.31999C21.7359 4.89737 21.3209 5.6236 21.1201 6.41999C18.5637 5.72939 15.8509 5.9026 13.4032 6.91268C10.9555 7.92277 8.90999 9.71316 7.58468 12.0056C6.25936 14.298 5.72846 16.964 6.07448 19.5892C6.4205 22.2145 7.62407 24.6519 9.49811 26.5226C11.3721 28.3933 13.8117 29.5925 16.4375 29.9339C19.0634 30.2753 21.7284 29.7396 24.0185 28.4103C26.3086 27.0809 28.0953 25.0322 29.1011 22.5827C30.1068 20.1332 30.2752 17.4201 29.58 14.865C30.3748 14.6684 31.1009 14.2587 31.6801 13.68L32.205 13.155C32.9795 15.4137 33.2029 17.8247 32.8568 20.1873C32.5106 22.5498 31.6049 24.7955 30.2151 26.7371C28.8253 28.6787 26.9917 30.2601 24.8669 31.3495C22.7421 32.4389 20.3878 33.0048 18 33C15.8248 32.9961 13.6763 32.5192 11.7037 31.6023C9.73113 30.6853 7.98157 29.3503 6.57636 27.6898C5.17115 26.0293 4.14392 24.083 3.56588 21.9859C2.98785 19.8888 2.87285 17.6911 3.22886 15.5451C3.58487 13.3992 4.40336 11.3563 5.6276 9.55819C6.85183 7.76009 8.4525 6.24977 10.3186 5.13196C12.1847 4.01415 14.2717 3.31559 16.4347 3.08473C18.5977 2.85387 20.785 3.09622 22.845 3.79499ZM20.3251 9.29999L17.625 12C16.4729 12.0717 15.3659 12.4741 14.4368 13.1592C13.5077 13.8443 12.7959 14.7828 12.3869 15.8623C11.9778 16.9417 11.8888 18.1163 12.1306 19.245C12.3723 20.3738 12.9346 21.4088 13.7499 22.2261C14.5652 23.0433 15.5989 23.608 16.7271 23.8524C17.8553 24.0968 19.03 24.0106 20.1105 23.6041C21.1909 23.1976 22.1311 22.488 22.8183 21.5605C23.5056 20.633 23.9107 19.527 23.9851 18.375L26.6851 15.675C27.1949 17.5892 27.0589 19.6182 26.2983 21.4473C25.5376 23.2764 24.1947 24.8034 22.4778 25.7916C20.7609 26.7798 18.766 27.1739 16.8023 26.9128C14.8386 26.6518 13.0159 25.7502 11.6168 24.3478C10.2177 22.9454 9.32036 21.1206 9.06394 19.1563C8.80753 17.192 9.20636 15.198 10.1986 13.4834C11.1908 11.7688 12.721 10.4296 14.5519 9.67319C16.3827 8.91682 18.412 8.78565 20.3251 9.29999Z" fill="#9FB3C8"/>
<path d="M23.9999 9.88499V7.49999C24.0056 7.10433 24.1673 6.72693 24.4499 6.44999L27.4499 3.44999C27.6596 3.24443 27.925 3.10492 28.2132 3.04875C28.5014 2.99259 28.7997 3.02225 29.0712 3.13404C29.3427 3.24584 29.5754 3.43486 29.7405 3.67767C29.9056 3.92048 29.9958 4.2064 29.9999 4.49999V5.99999H31.4999C31.7935 6.00411 32.0794 6.09431 32.3222 6.2594C32.5651 6.42449 32.7541 6.65721 32.8659 6.92872C32.9777 7.20022 33.0073 7.49856 32.9512 7.78676C32.895 8.07495 32.7555 8.34033 32.5499 8.54999L29.5499 11.55C29.273 11.8326 28.8956 11.9944 28.4999 12H26.1149L19.0649 19.05C18.7797 19.2979 18.4115 19.429 18.0338 19.4172C17.6561 19.4054 17.2968 19.2514 17.0277 18.9861C16.7586 18.7208 16.5996 18.3637 16.5824 17.9862C16.5652 17.6087 16.6911 17.2387 16.9349 16.95L23.9999 9.86999V9.88499Z" fill="#243B53"/>
</svg>
