<svg xmlns="http://www.w3.org/2000/svg" viewBox="0 0 236 45"><title>msx-logo</title><polygon points="78.7 15.8 78.6 15.8 74.3 37.5 72.3 37.5 67.8 15.8 67.7 15.8 67.7 37.5 64.1 37.5 64.1 7.6 69.2 7.6 73.3 27.4 73.3 27.4 77.1 7.6 82.6 7.6 82.6 37.5 78.7 37.5 78.7 15.8" style="fill:#243b53"/><rect x="87.4" y="7.6" width="4" height="29.9" style="fill:#243b53"/><path d="M95.8,31.1V27.2h3.8v4c0,2.1,1,3.4,3.3,3.4,2.1,0,3.1-1.4,3.1-3.4V29.8c0-2.1-.8-2.7-2.7-4.5l-3.1-3.1c-2.9-2.9-4.3-4.1-4.3-7.5V13.6c0-3.7,2.3-6.4,6.8-6.4,4.8,0,6.9,2.3,6.9,6.6v2.9h-3.7V13.6c0-2.2-1.1-3.2-3.1-3.2a2.84,2.84,0,0,0-3.1,3.1v.9c0,2,1.1,2.6,2.9,4.3l3.2,3.2c2.8,2.8,4.2,4,4.2,7.4v1.6c0,3.9-2.2,6.8-7.1,6.8s-7.1-2.7-7.1-6.6" style="fill:#243b53"/><polygon points="112.2 7.6 125.6 7.6 125.6 10.9 121 10.9 121 37.5 116.9 37.5 116.9 10.9 112.2 10.9 112.2 7.6" style="fill:#243b53"/><polygon points="128.8 7.6 140.7 7.6 140.7 10.9 132.8 10.9 132.8 20.6 138.5 20.6 138.5 23.9 132.8 23.9 132.8 34.2 140.7 34.2 140.7 37.5 128.8 37.5 128.8 7.6" style="fill:#243b53"/><path d="M148.3,23.1V37.4h-4V7.6h6.9C156,7.6,158,10,158,14v3.7c0,3.6-1.5,5.6-5.2,6.1l6.1,13.7h-4.3Zm0-12.2V21.1h2.4c2.2,0,3.2-1.1,3.2-3.1V13.8c0-2-1-3-3.2-3h-2.4Z" style="fill:#243b53"/><path d="M169.9,31.1V27.2h3.8v4c0,2.1,1,3.4,3.3,3.4,2.1,0,3.1-1.4,3.1-3.4V29.8c0-2.1-.8-2.7-2.7-4.5l-3.1-3.1c-2.9-2.9-4.3-4.1-4.3-7.5V13.6c0-3.7,2.3-6.4,6.8-6.4,4.8,0,6.8,2.3,6.8,6.6v2.9H180V13.6c0-2.2-1-3.2-3.1-3.2a2.84,2.84,0,0,0-3.1,3.1v.9c0,2,1.1,2.6,2.9,4.3l3.2,3.2c2.8,2.8,4.2,4,4.2,7.4v1.6c0,3.9-2.2,6.8-7.1,6.8s-7.1-2.7-7.1-6.6" style="fill:#243b53"/><path d="M187.7,7.6h7c4.8,0,6.7,2.4,6.7,6.4v6.6c0,4-1.9,6.5-6.7,6.5h-3V37.4h-4Zm4,3.3V24.1h2.6c2.2,0,3.2-1.1,3.2-3.1V14c0-2-1-3-3.2-3h-2.6Z" style="fill:#243b53"/><polygon points="205.2 7.6 217.1 7.6 217.1 10.9 209.2 10.9 209.2 20.6 214.9 20.6 214.9 23.9 209.2 23.9 209.2 34.2 217.1 34.2 217.1 37.5 205.2 37.5 205.2 7.6" style="fill:#243b53"/><polygon points="225.2 21.6 220.5 7.6 224.6 7.6 228.1 18.3 231.6 7.6 235.5 7.6 230.7 21.8 236 37.5 231.8 37.5 227.8 25.2 223.9 37.5 220 37.5 225.2 21.6" style="fill:#243b53"/><path d="M39.6,34.4A15.47,15.47,0,0,1,29,30.6c-1.6-1.5-3.1-3.1-4.4-4.5a.1.1,0,0,1-.1-.1,2.71,2.71,0,0,0-4.2,0l-.1.1a61,61,0,0,1-4.4,4.5A15.84,15.84,0,0,1,5.2,34.4,23.73,23.73,0,0,1,0,33.8H0v7.1c0,1.1.8,1.7,2,2S10.3,45,22.4,45s19.2-1.8,20.4-2.1,2-.9,2-2V33.8h0A23.06,23.06,0,0,1,39.6,34.4Z" style="fill:#243b53"/><path d="M31,16c-2.1,1.4-4.3,3.4-4.3,4.6v.5h0a8,8,0,0,0,1.1,2.8v.2a23.1,23.1,0,0,0,6,6.6c1.8,1.5,4.1,2,6.9,2h0a20.8,20.8,0,0,0,4.1-.5V23h0V13.2C40.2,12.5,35.7,13.5,31,16Z" style="fill:#243b53"/><path d="M0,32.1a21.72,21.72,0,0,0,4.1.5h0c2.7,0,5.1-.5,6.9-2A26.45,26.45,0,0,0,17,24v-.2c.9-1.5,1.1-2.1,1.1-2.8h0v-.5c0-1.2-2.1-3.2-4.3-4.6A22.87,22.87,0,0,0,0,13.1v9.8H0Z" style="fill:#243b53"/><path d="M4.4,10.6A30.14,30.14,0,0,1,20,14.9l.4.2a5.33,5.33,0,0,0,2.1.9,4.57,4.57,0,0,0,2.1-.9l.4-.2a30.68,30.68,0,0,1,15.6-4.3c1.7,0,4.4.2,4.4.2V4.1c0-1.1-.9-1.7-2-2S34.7,0,22.6,0,3.2,1.7,2,2.1,0,3,0,4.1v6.7S2.7,10.6,4.4,10.6Z" style="fill:#243b53"/></svg>